<?xml version="1.0" standalone="no"?>
<!DOCTYPE svg PUBLIC "-//W3C//DTD SVG 1.1//EN" "http://www.w3.org/Graphics/SVG/1.1/DTD/svg11.dtd" >
<svg xmlns="http://www.w3.org/2000/svg" xmlns:xlink="http://www.w3.org/1999/xlink" version="1.1">
<metadata></metadata>
<defs>
<font id="fell_great_primeritalic" horiz-adv-x="1976" >
<font-face units-per-em="2048" ascent="1638" descent="-410" />
<missing-glyph horiz-adv-x="430" />
<glyph horiz-adv-x="0" />
<glyph horiz-adv-x="682" />
<glyph unicode=" "  horiz-adv-x="430" />
<glyph unicode="&#x09;" horiz-adv-x="430" />
<glyph unicode="&#xa0;" horiz-adv-x="430" />
<glyph unicode="!" horiz-adv-x="497" d="M346 492q0 35 12.5 54t24.5 50q2 6 8 22.5t14.5 35t14.5 36t8 25.5q0 4 5 19.5t11.5 33.5t12.5 34.5t6 20.5q2 8 15.5 37t26.5 61.5t25.5 62.5t14.5 38q4 4 6 13t2 14q10 41 21.5 68.5t25.5 68.5q10 23 14 50.5t15 55.5q4 12 11 37t15.5 51.5t15.5 47t9 26.5q2 4 10 20.5 t17.5 34t17.5 34t12 20.5q2 6 6.5 20t9.5 29.5t10 30t9 20.5q8 8 22.5 11t22.5 7h2h8q4 -4 25.5 -10t26.5 -8q35 -14 41 -40t14 -60q2 -2 2 -7v-8v-8q0 -4 -2 -4q-4 -12 -10 -40t-9 -32q0 -4 -12 -18t-14 -19q-2 -4 -4 -22.5t-6 -22.5q-10 -47 -35 -83.5t-53 -77.5 q-12 -16 -11.5 -26.5t-9.5 -29.5q-2 -2 -3 -6t-5 -8l-8 -12q-10 -25 -24.5 -60t-29.5 -57q-2 -4 -14 -14.5t-14 -12.5q-10 -12 -11.5 -26.5t-5.5 -28.5q-10 -25 -24.5 -57.5t-30.5 -59.5q-2 -2 -9 -13t-15.5 -23.5t-14.5 -23.5t-8 -15q-2 -6 -4 -15q-4 -16 -4 -18 q0 -4 -5 -14.5t-11.5 -22.5t-12.5 -22.5t-6 -14.5q-8 -18 -17.5 -51t-22.5 -65.5t-29.5 -57.5t-41.5 -25q-16 0 -34.5 16t-18.5 34zM104 90q0 27 11.5 63.5t40.5 47.5q4 2 20.5 4t16.5 6q2 0 13 7t15 9h23q16 0 36.5 -10t38 -25.5t28.5 -35t11 -35.5q0 -27 -8 -52.5 t-22.5 -47t-36 -35t-47.5 -13.5q-61 0 -93 23.5t-47 85.5v8z" />
<glyph unicode="&#x22;" horiz-adv-x="1001" d="M870 944q0 16 11.5 31.5t26 28t28.5 23.5t22 20q4 4 19.5 18t32 31.5t30 32t17.5 18.5q4 2 14 12l22.5 22.5l22.5 22.5t14 15q2 2 9.5 10t9.5 10q10 10 19.5 37t9.5 51v8q-10 29 -26.5 52.5t-45.5 31.5q-2 0 -10.5 -1t-16.5 -1q-10 0 -10 2q-4 0 -21.5 17.5t-23.5 25.5 q-18 23 -21.5 35t-3.5 35q0 131 131 131q2 0 5.5 -1t7.5 -1h8q10 -2 39 -9t33 -12l9 -9t19.5 -19t22.5 -21.5t18 -17.5q6 -8 13.5 -25.5t12.5 -38t9 -39t4 -26.5q0 -37 -13 -73t-15 -73q-2 -8 -11.5 -28.5t-22 -44t-23.5 -43t-17 -27.5q-2 -2 -14.5 -16.5t-30 -31.5 t-34.5 -34.5t-28 -25.5q-14 -14 -43.5 -36t-63.5 -42.5t-67 -34.5t-53 -14q-12 0 -18.5 8t-6.5 16zM449 944q0 16 11 31.5t25.5 28t28.5 23.5t23 20q4 4 19 18t31.5 31.5t30 32t17.5 18.5q4 2 14 12l22.5 22.5t23 22.5t14.5 15q2 2 9 10t9 10q10 10 19.5 37t9.5 51v8 q-10 29 -26.5 52.5t-45.5 31.5q-2 0 -10 -1t-17 -1q-10 0 -10 2q-4 0 -21.5 17.5t-23.5 25.5q-18 23 -21 35t-3 35q0 131 131 131q2 0 5 -1t7 -1h8q10 -2 39 -9t33 -12l9 -9q9 -9 19.5 -19t22.5 -21.5t18 -17.5q6 -8 13.5 -25.5t12.5 -38t9 -39t4 -26.5q0 -37 -13 -73 t-15 -73q-2 -8 -11.5 -28.5t-21.5 -44t-23.5 -43t-17.5 -27.5q-2 -2 -14.5 -16.5t-30 -31.5t-34.5 -34.5t-28 -25.5q-14 -14 -43.5 -36t-63.5 -42.5t-66.5 -34.5t-53.5 -14q-12 0 -18 8t-6 16z" />
<glyph unicode="#" horiz-adv-x="1601" d="M1030 84v6q0 2 2 4q0 4 4 10.5t4 8.5q4 6 11.5 26.5t7.5 26.5q23 86 56.5 168t72.5 168q0 2 3 12t3 14q29 102 70 197.5t65 200.5q0 14 -16.5 25.5t-26.5 11.5h-164q-23 0 -25.5 15t-2.5 32q0 35 25.5 47t56.5 12q10 0 15 -1t13 -7h99q4 0 10 4t10 4q4 2 26.5 5t26.5 5 q4 8 10 17q4 6 8.5 14t8.5 12q4 10 10 22.5t6 16.5q2 4 5 26.5t6 29.5q18 59 46.5 117.5t28.5 121.5q0 2 -1 5t-1 7q-2 4 -2 9q0 8 -15.5 13t-35.5 10t-39.5 7t-28.5 4q-2 0 -9 3.5t-16 6.5t-17.5 6t-10.5 3q-4 2 -19.5 3t-34 3t-33.5 3t-19 1t-18.5 3t-16.5 3q-6 4 -29.5 7 t-30.5 3q-4 4 -29.5 7.5t-29.5 3.5q-47 4 -89 -13.5t-83 -29.5q-4 -2 -22.5 -6.5t-22.5 -6.5q-39 -20 -82 -55t-72 -70q-23 -45 -25.5 -88t-2.5 -90v-26q12 -18 35.5 -29.5t37.5 -17.5q29 -12 60 -19.5t55.5 -22t40.5 -37t16 -65.5q0 -35 -29.5 -63.5t-64.5 -28.5 q-31 0 -53.5 17.5t-41.5 38t-41.5 38t-55.5 17.5q-4 0 -7.5 -1t-13.5 -3q-4 0 -9 1t-9 1q-16 0 -31.5 -3.5t-26.5 -7.5q-35 -43 -43 -90q0 -2 -1 -4t-1 -4v-6q0 -2 2 -4q4 -20 18.5 -55t24.5 -56q2 -2 10.5 -9t17.5 -15.5t17.5 -16.5t14.5 -10q0 -4 6 -6t10 -4 q27 -20 48.5 -51t40 -67t33.5 -70.5t32 -63.5q6 -23 10 -46.5t4 -47.5q0 -25 -4 -51.5t-10 -53.5q0 -4 -5 -13t-7 -15q-37 -88 -114 -153t-177 -65h-25q-14 0 -16 5q-4 0 -27.5 6t-30.5 10q-33 6 -73.5 13t-67.5 30q-39 35 -60.5 65.5t-21.5 81.5t31 74t78 33h8 q20 0 38.5 -18.5t33 -44t23.5 -51t11 -40.5q4 -10 5.5 -22t3.5 -24.5t8 -22t20 -13.5q6 0 27.5 -4t32.5 -4h6q6 0 22.5 6t35 14.5t32.5 17.5t18 15q0 4 4.5 15.5t9.5 24t9 21.5t4 11q2 4 13.5 19.5t15.5 17.5v29q0 33 -9.5 51t-19.5 47q-2 4 -9 27.5t-11 27.5l-5 8 q-2 4 -2 9q-4 4 -16 13t-24.5 19.5t-24.5 18.5t-17 12l-4 4q-2 2 -4 6q-6 8 -18 23.5t-26.5 31t-26 28t-13.5 16.5q-20 29 -26 60.5t-17 68.5q-2 2 -10 20.5t-8 22.5v6q0 82 47 146.5t106 117.5q14 12 37 20.5t45.5 15.5t39 15t16.5 25v16q-20 31 -41 57.5t-36 55.5 t-24.5 59.5t-9.5 71.5q0 20 9.5 36.5t19.5 35.5q8 20 14 32.5t12.5 21.5t14.5 19.5t22 26.5q0 2 7.5 14.5t11.5 14.5t26.5 8t26.5 8q2 0 11 5t20.5 11.5t20.5 12.5t11 6q59 35 128 42t135 7q72 0 138 -21.5t132 -44.5q41 -16 86 -39.5t92 -23.5q39 0 72 10t67 35 q27 18 39.5 41t40.5 39q8 4 24.5 10t20.5 6q4 2 13 2h18q45 0 71.5 -39t26.5 -84q0 -33 -14 -51t-33.5 -29.5t-42 -21.5t-39.5 -27q-12 -14 -22 -50t-23 -58q-2 -4 -6 -10.5t-8 -14.5q-6 -8 -12 -18q0 -4 -3.5 -18.5t-6.5 -30t-5 -28.5t-4 -17q0 -2 -5 -13.5t-11 -23.5 t-12.5 -22.5t-6.5 -12.5q-2 -2 -2 -8v-10q0 -16 6.5 -21.5t26.5 -5.5h4q4 0 21.5 3t38 6t38 5t23.5 2q29 0 49.5 -8t20.5 -41q0 -18 -11.5 -32.5t-29 -23.5t-37 -14.5t-35.5 -5.5h-4q-4 0 -15.5 4.5t-13.5 4.5q0 4 -18 4h-27h-22q-16 0 -23 -4q-4 -2 -22.5 -19.5 t-22.5 -23.5q-2 -4 -6 -18.5t-8 -32t-8.5 -32t-4.5 -18.5q-4 -8 -14 -33.5t-16 -35.5q-16 -45 -28.5 -88t-33.5 -84q0 -4 -7 -19.5t-9 -19.5q0 -2 -5 -12.5t-5 -14.5t-4.5 -21.5t-8.5 -38t-8 -37t-6 -20.5q0 -4 -5 -19.5t-11.5 -31.5t-12.5 -32.5t-8 -24.5l-4 -8 q-2 -4 -2 -9v-8q0 -10 1 -21.5t1 -17.5q2 0 7 -1t9 -1t5 2q20 6 45.5 22.5t50 37t44 42t32.5 35.5q14 14 28.5 33t31.5 35t36.5 27.5t44.5 11.5q0 -39 -13.5 -68.5t-33 -55.5t-45 -50.5t-49.5 -50.5q-43 -53 -91.5 -93t-103.5 -79q-4 -4 -18.5 -14.5t-18.5 -14.5 q-76 -61 -174 -72q-12 0 -26.5 7.5t-26.5 17.5t-20.5 23.5t-8.5 23.5z" />
<glyph unicode="$" horiz-adv-x="3768" d="M3105 10q-20 0 -39 -10t-39 -10q-12 0 -30.5 2t-36 7t-31 14.5t-13.5 25.5v4q16 23 36 33t44 20q6 0 25.5 1t42 2t42 2t25.5 1q8 2 19.5 6.5t15.5 12.5q27 47 50.5 96t45.5 102q2 6 10.5 29t18.5 48.5t18.5 48t12.5 28.5q2 2 8 15.5t13.5 27.5t14.5 27.5t9 17.5 q47 119 83 243t81 247q0 2 5 15t9 19q16 31 21.5 49.5t13.5 55.5q0 2 4 12t6 10v7q0 14 -20 14q-14 0 -21.5 -8t-17.5 -19q-2 -2 -9.5 -8t-14.5 -13t-14 -13.5t-9 -8.5q0 -4 -11.5 -10t-11.5 -8q-2 -2 -5 -9.5t-5 -7.5q-4 -6 -23.5 -25.5t-27.5 -25.5q-4 -4 -21.5 -18.5 t-21.5 -18.5q-2 0 -5.5 -11t-3.5 -13q-8 -16 -20 -23.5t-23 -19.5q-4 -4 -17 -21.5t-17 -19.5q-6 -6 -19.5 -20.5t-28 -30t-27.5 -28.5t-20 -17q-4 -2 -14 -8.5t-14 -10.5q0 -2 -10.5 -20.5t-14.5 -22.5t-16 -21.5t-17 -21.5q-10 -12 -38.5 -40.5t-60.5 -61.5t-59.5 -62.5 t-39.5 -40.5q-35 -20 -64.5 -47.5t-56.5 -56.5q-2 0 -4 -7t-4 -12q-4 -4 -10.5 -14t-8.5 -12q-4 0 -17 -11.5t-17 -11.5q-37 -35 -76 -76.5t-70 -87.5l-11 -22t-13 -23l-21.5 -21.5l-21.5 -21.5q-16 -18 -22.5 -33.5t-12.5 -27.5t-19.5 -18.5t-42.5 -6.5q-33 0 -38 30t-5 52 v47q0 2 5 8.5t5 10.5q12 31 18.5 66.5t9.5 73.5t4 76t1 69q0 23 3 68.5t5 103t5.5 121t5.5 121t4 103.5t4 68q10 20 14 46t4 53q0 47 -6 90t-4 94l-8 10q-2 2 -15.5 -5t-19.5 -13q0 -4 -13.5 -22.5t-21.5 -29.5q-10 -16 -13 -37.5t-22 -29.5q0 -10 -2 -41t-6 -39 q0 -2 -6 -17.5t-8 -25.5q-12 -25 -18.5 -50.5t-16.5 -51.5q-23 -59 -51.5 -121t-61.5 -113q-4 0 -6 -7t-4 -11q-10 -25 -28.5 -46.5t-32.5 -45.5q0 -2 -4 -11.5t-8.5 -19.5t-8.5 -18.5t-4 -10.5q-8 -16 -14 -27.5t-21 -27.5q-33 -35 -65.5 -71t-61.5 -75l-18 -18 q-41 -29 -83 -61.5t-83 -65.5q-29 -23 -66.5 -41t-68.5 -35l-12 -6q-4 -2 -7 -4q-4 0 -29.5 -4t-29.5 -4q-27 -8 -48.5 -25.5t-47.5 -27.5q-4 -2 -21.5 -7.5t-37 -11.5t-40 -13t-30.5 -9q-41 -16 -85 -18.5t-87 -2.5q-14 0 -24.5 -1t-24.5 -1q-29 0 -52.5 -2t-52.5 -2h-16 q-4 0 -14.5 3t-14.5 7q-2 0 -16.5 2t-29.5 5t-29.5 6.5t-16.5 3.5q-6 2 -28.5 8t-49 14t-51.5 16.5t-37 12.5q-49 16 -89 52t-81 67q-2 2 -10 7t-16.5 11t-15.5 11t-9 5q-2 2 -6 4.5t-4 6.5q-4 6 -12.5 17t-15.5 23.5t-14.5 22.5t-7.5 14q-2 2 -6 9.5t-8 15.5t-8 16.5 t-6 10.5l-6 6q-39 61 -50.5 120.5t-11.5 131.5q0 51 4 108.5t23 104.5q16 49 55 93t89 78t106.5 53t105.5 19q37 0 76 -7t76 -17q43 -14 71.5 -38t57.5 -58q0 -2 3 -8.5t5 -8.5q0 -4 2 -17t5 -30.5t5 -36t4 -28.5v-7q0 -41 -26.5 -78.5t-59.5 -60.5q-12 -10 -35.5 -11 t-37.5 -1q-8 0 -22.5 1t-16.5 1q-14 0 -26.5 14.5t-22 32.5t-15.5 37.5t-6 32.5q0 18 5 30.5t12.5 21.5t12.5 20.5t5 27.5q0 18 -13.5 29.5t-33 18.5t-40 9t-34.5 2h-31q-4 0 -22.5 -8t-22.5 -10q-12 -4 -20 -5t-13.5 -3t-11.5 -5t-16 -12q-6 -6 -17.5 -17t-21.5 -22.5 t-18.5 -20.5t-10.5 -11q-2 0 -8 -19.5t-10 -29.5q-2 -6 -8.5 -32t-6.5 -36q-4 -6 -7 -22.5t-5 -22.5v-4q0 -55 28 -111.5t60 -99.5q16 -23 38 -55.5t48 -49.5q6 -2 34 -11t36 -13q25 -10 47.5 -25.5t44.5 -25.5q35 -16 68.5 -22.5t70.5 -12.5t72 -15.5t76 -9.5h61 q88 0 172 6.5t170 36.5h8q61 8 122 36t112 67q2 2 10 8t16.5 13t15.5 13.5t9 8.5q4 2 25.5 12t25.5 12t13.5 8.5t13.5 10.5q63 53 118.5 110.5t104.5 122.5q4 4 22.5 33t28.5 43q51 84 115 166q0 2 2 6t2 6t2 4q14 31 32.5 57.5t35.5 55.5q23 31 29 64.5t14 70.5q0 4 5 8 t7 8q35 66 73 131.5t54 137.5q0 4 -2 12t-2 12q-14 0 -25.5 -4t-29.5 -4q-25 0 -50.5 4t-50.5 4h-12q-70 -6 -139.5 -10t-134.5 -22q-23 -6 -46.5 -22.5t-45 -39t-35 -48.5t-13.5 -48q0 -35 21.5 -57.5t48.5 -41t48.5 -40t21.5 -54.5v-2q-12 -53 -34 -74.5t-75 -21.5h-31 q-2 0 -11 5t-20.5 10t-21.5 11.5t-14 10.5q-41 27 -56.5 67.5t-15.5 83.5q0 70 33 129.5t72 114.5q23 31 48 55.5t56 47.5q4 2 10 8t8 10q18 23 34 36t32 21t36.5 13.5t49.5 15.5q25 6 47.5 13t48.5 12h232q6 0 27.5 4t25.5 4h35h35l12 -4l12 -4q2 0 12.5 1t21.5 3t21.5 3 t14.5 1h12q47 0 64.5 -33t17.5 -74v-37q0 -25 -3 -50t-13 -46v-129q-2 -4 -5.5 -26.5t-3.5 -26.5q-4 -70 -3 -134.5t-9 -133.5q-4 -37 -12 -72t-10 -74v-80q0 -23 -2.5 -45t-8.5 -45l11 -217q0 -10 8 -18.5t18 -8.5h4q2 0 4 3q0 2 13.5 15t19.5 17q41 49 87 108.5t93 106.5 l51 51t78 79t78 78t51 52l17 25l260 260q23 35 48.5 71t55.5 64q2 4 20.5 18.5t20.5 16.5q23 18 38.5 42t31.5 46q4 2 18.5 16.5t16.5 18.5l4 12l4 13q2 2 9 11t16.5 19t17.5 18.5t10 10.5q18 27 43 49.5t60 28.5q2 2 17 3t34.5 2t38 2t28.5 1q4 2 29 2h37h24q25 0 50.5 -6 t25.5 -29q0 -29 -14 -40t-34.5 -15t-43 -5t-39.5 -9q-4 -4 -10 -9.5t-6 -9.5q-29 -49 -44.5 -104.5t-31.5 -108.5q-4 -4 -10 -21.5t-6 -21.5q-4 -4 -14.5 -26.5t-14.5 -26.5q0 -2 -3 -12.5t-5 -21.5t-5 -21.5t-3 -12.5q-10 -35 -26.5 -69.5t-25.5 -69.5q0 -2 -2 -12.5 t-3 -21.5t-2 -21.5t-1 -12.5q0 -4 -7 -13t-11 -13l-17 -8l-8 -9q-2 -6 -5 -21t-8 -31.5t-8 -31t-5 -20.5q-2 -4 -13.5 -24.5t-13.5 -24.5q0 -4 -3 -20.5t-6 -34t-5 -33t-5 -19.5q-6 -39 -23 -74.5t-34 -70.5q-2 -2 -6 -12.5t-4 -12.5q-2 -4 -4 -10t-6 -10q-2 -2 -11.5 -15.5 t-13.5 -17.5q-2 -4 -4 -25.5t-4 -25.5q0 -2 -7 -18.5t-12 -26.5q-16 -41 -33.5 -83t-33.5 -87q-2 -4 -9.5 -21.5t-7.5 -21.5v-12v-13q2 -4 8.5 -13t8.5 -9h215q10 0 18.5 -9.5t14.5 -21.5t10 -24.5t4 -18.5q0 -18 -7 -37.5t-30 -23.5h-57h-55q-4 0 -23.5 3t-41 6t-41 6 t-24.5 3h-73h-185q-6 0 -30.5 3t-30.5 7h-10z" />
<glyph unicode="&#x26;" horiz-adv-x="2703" d="M455 676q0 -25 7 -49.5t38 -24.5h10q4 0 6 2q53 27 84 69t72 77q16 16 38.5 25t41.5 30q2 0 8 12t8 14q25 31 51.5 57.5t52.5 59.5v2q0 2 2 4l5 4q8 6 27.5 19.5t40 31t37.5 35t22 31.5q2 0 2 10v19q0 27 -15.5 42t-39 21.5t-49 7.5t-44.5 1q-29 0 -61.5 -6.5 t-66.5 -16.5t-66.5 -22.5t-59.5 -26.5q-2 -2 -4 -5t-4 -5q-16 -25 -31.5 -49.5t-31.5 -51.5q-4 -8 -15.5 -25.5t-11.5 -19.5t-3 -11t-8 -21.5t-9.5 -25.5t-6.5 -20q-4 -16 -11 -38.5t-7 -26.5q0 -2 -1 -7t-1 -16q0 -16 1 -35.5t1 -23.5q-2 -4 -5 -19.5t-3 -17.5v-10z M346 645v105q2 8 9 31.5t7 29.5q4 4 6.5 28.5t6.5 30.5q2 6 10 24.5t17.5 38t18.5 37t13 23.5l37 37q2 0 5 9.5t5 9.5q29 49 72 89t88 74q4 0 11 4.5t10 4.5q29 10 54 25.5t52 27.5q39 20 82 29.5t84 23.5h153q12 0 33 -11t31 -16h18h9q2 0 16 -4t18 -4h13q8 0 20 9.5 t25.5 21.5t25 24.5t17.5 18.5q6 8 20.5 22.5t28.5 30t26.5 27.5t14.5 16t8 15.5t8 15.5l230 221q16 20 30.5 46t14.5 48q0 18 -7.5 27.5t-17.5 13.5t-23.5 8.5t-25.5 14.5q-6 2 -23.5 16.5t-21.5 18.5v4q0 14 13.5 27.5t30.5 24.5t34.5 19.5t27.5 14.5q53 31 105.5 36 t111.5 15h7h4q8 0 26.5 -1t40 -2t41 -2t27.5 -1q4 -2 13 -13.5t14 -15.5v-12q0 -10 -1.5 -16.5t-9.5 -16.5q-49 -72 -115.5 -136.5t-136.5 -123.5q-2 -2 -8 -5t-10 -3q-2 -4 -20.5 -22.5t-22.5 -24.5q-4 -4 -18.5 -22.5t-18.5 -22.5q-6 -6 -34.5 -34t-60.5 -59.5 t-60.5 -59.5t-34.5 -36q-2 -2 -10.5 -12t-17.5 -20.5t-17.5 -19.5t-10.5 -11t-4 -5t-4 -3q-4 -4 -20.5 -15.5t-35 -24t-33.5 -22.5t-19 -12q-2 -4 -16.5 -23.5t-18.5 -21.5q-2 -2 -20.5 -13.5t-26.5 -15.5q-2 0 -15 -4q-6 -2 -12 -2v-10q-6 -23 -18.5 -48.5t-24.5 -41.5 t-22.5 -21.5t-16.5 -23.5l-172 -172q-6 -16 -17.5 -28.5t-26.5 -21t-31.5 -15.5t-30.5 -15t-19.5 -24.5t-17.5 -22.5q-23 -8 -39.5 -13.5t-24.5 -31.5l-172 -173q-35 -10 -62.5 -34.5t-27.5 -65.5v-8q2 -6 6 -20.5t9.5 -29t9.5 -26.5t4 -14t15 -19.5t22 -27.5 q31 -33 75.5 -76t87.5 -66q0 -2 8.5 -5t17.5 -6t17.5 -5t10.5 -2t8 -4t6 -6q4 0 15.5 -7.5t13.5 -9.5q6 -4 23.5 -11t36 -16.5t34.5 -16.5t25 -11h45q2 0 12 -4l22.5 -9t22.5 -9.5t14 -4.5q2 0 13.5 -1t25.5 -3t28.5 -3t20.5 -3q6 0 24.5 1t35.5 1q20 0 24 -2q2 0 25.5 -4 t30.5 -4h30h31q8 0 23.5 5t21.5 5t12.5 -1t8.5 -1q86 6 170 20.5t161 51.5q4 4 22.5 15t22.5 14q4 4 29 10t27 8q4 0 13 9t11 9q6 2 19.5 9.5t28 14.5t27.5 13t17 8q8 6 25.5 23.5l38 38t38 39t23.5 26.5q23 20 38.5 51t25.5 56q35 86 46 167t11 173q0 20 -10 54t-24.5 70 t-33 66.5t-32.5 49.5q0 2 -9.5 4t-11.5 4q-53 41 -109.5 71.5t-121.5 44.5q-20 6 -37.5 13.5t-36.5 7.5q-29 0 -47 -11.5t-43 -17.5q-2 -2 -14 -2q-10 0 -19.5 1t-11.5 1q-25 -6 -57.5 -27.5t-62 -50t-54.5 -58.5t-35 -52q-8 -23 -9 -37t-1 -37q0 -25 12 -56.5t32.5 -59 t48.5 -47t56 -19.5q20 0 35 14.5t27 33.5t24.5 39.5t28.5 33.5q14 10 40 12t46 2q18 0 34.5 -10t29 -26.5t20.5 -35t8 -37.5q0 -45 -7 -74.5t-44 -47.5q-6 -4 -21.5 -11.5t-34 -16.5t-33.5 -16.5t-22 -9.5q-4 -2 -16 -2h-14h-19q-12 0 -12 2q-4 0 -20.5 5.5t-36 10.5t-38 10 t-26.5 7q-2 4 -22.5 13.5t-28.5 17.5q-8 0 -10 6q-4 6 -12.5 19.5t-16.5 25.5l-15 22.5t-7 12.5q-31 53 -39.5 91t-8.5 95q0 23 7.5 41.5t11.5 34.5q10 49 16 95t37 87t67 65.5t81 51.5q6 4 18 11t24.5 14.5l22.5 13.5t12 6q4 2 18.5 6t32 9.5t32 9.5t18.5 4q53 16 112 16 q51 0 107.5 -12t103.5 -33q4 0 19.5 -10t19.5 -15q0 -2 6.5 -5t12.5 -5q4 0 14 -4t10 -6q4 -2 22.5 -18.5t22.5 -18.5q29 -18 64 -39.5t63 -50.5q4 -2 19.5 -16.5t32 -32t30 -31.5t17.5 -18q8 -6 28.5 -23.5t43 -36t44 -35t31.5 -22.5q8 -4 39 -7t41 -3q66 0 100.5 46 t34.5 103v31q-2 0 -2 2t-2 2v2l-4 4q-20 12 -42 24.5t-38 28t-27.5 34t-11.5 46.5q0 55 38 84t89 29q14 0 31.5 -1t32.5 -9q25 -14 41 -40t25 -56.5t12.5 -63.5t3.5 -57v-23q0 -14 -3 -14q0 -4 -3 -15.5t-7 -26t-8 -25.5t-6 -13q-20 -59 -44 -99t-75 -73q-31 -20 -63 -21 q-33 0 -64 -16h-67h-46q-18 0 -34.5 1t-32.5 7q-2 0 -12.5 8.5t-14.5 12.5q-2 2 -8 4t-10 4q-29 12 -53.5 28.5t-55.5 24.5q-4 0 -15 -3t-17 -3q0 -6 -1.5 -23.5t-1.5 -37.5q0 -18 -1 -36t-1 -24q0 -2 6.5 -13t6.5 -13v-64v-20q0 -20 -2 -45t-11 -44l-9 -18t-16 -32.5 t-16.5 -35t-9.5 -22.5q-2 -2 -4 -11.5t-5 -19.5t-6 -20.5t-3 -12.5q-4 -2 -19.5 -24.5t-19.5 -26.5q0 -4 -7 -23.5t-9 -23.5t-11.5 -19.5t-22 -31.5t-22.5 -32.5t-16 -24.5q-29 -37 -56.5 -58.5t-62.5 -50.5q-31 -25 -64.5 -54.5t-68.5 -51.5q-2 -2 -10.5 -6.5t-17.5 -9.5 t-16 -9t-9 -6q-4 0 -12.5 -6t-17.5 -14.5t-17.5 -14.5t-10.5 -8q-18 -12 -46.5 -15.5t-51.5 -13.5q-4 0 -13.5 -4t-19.5 -8t-18 -8t-10 -4q-4 -2 -19.5 -6.5t-33 -8.5t-33 -8t-17.5 -6q-4 -2 -13 -5t-11 -3q-4 0 -19.5 -7.5t-19.5 -11.5h-19q-8 0 -23.5 -1t-31.5 -2t-28 -2 l-13 -1q-4 -4 -15.5 -8t-15.5 -4q-2 0 -15 4t-17 8h-11q-96 10 -195.5 30.5t-192.5 55.5t-176 88t-150 131q-31 37 -62 81t-53 91q-8 16 -11 36t-10 36q-10 35 -24.5 65.5t-18.5 67.5q-12 68 -12 137q0 20 1 39t1 37z" />
<glyph unicode="'" horiz-adv-x="579" d="M449 944q0 16 11 31.5t25.5 28t28.5 23.5t23 20q4 4 19 18t31.5 31.5t30 32t17.5 18.5q4 2 14 12l22.5 22.5t23 22.5t14.5 15q2 2 9 10t9 10q10 10 19.5 37t9.5 51v8q-10 29 -26.5 52.5t-45.5 31.5q-2 0 -10 -1t-17 -1q-10 0 -10 2q-4 0 -21.5 17.5t-23.5 25.5 q-18 23 -21 35t-3 35q0 131 131 131q2 0 5 -1t7 -1h8q10 -2 39 -9t33 -12l9 -9t19.5 -19t22.5 -21.5t18 -17.5q6 -8 13.5 -25.5t12.5 -38t9 -39t4 -26.5q0 -37 -13 -73t-15 -73q-2 -8 -11.5 -28.5t-21.5 -44t-23.5 -43t-17.5 -27.5q-2 -2 -14.5 -16.5t-30 -31.5t-34.5 -34.5 t-28 -25.5q-14 -14 -43.5 -36t-63.5 -42.5t-66.5 -34.5t-53.5 -14q-12 0 -18 8t-6 16z" />
<glyph unicode="(" horiz-adv-x="790" d="M389 592q0 113 6 227.5t23 229.5q8 18 9 42.5t4 49t10.5 46t27.5 34.5q23 59 44.5 117.5t45.5 117.5q14 35 36.5 64.5t45.5 58.5q18 31 44 74t56.5 84t66.5 69.5t75 28.5q16 0 31.5 -27.5t15.5 -42.5q0 -35 -15.5 -57t-31.5 -45q-10 -16 -16.5 -29.5t-12.5 -25 t-16.5 -19.5t-26.5 -16q-23 -49 -43 -81t-47 -73q-12 -18 -22.5 -45.5t-19.5 -56.5t-17.5 -57.5t-14.5 -49.5q-4 -23 -15 -44t-22 -44q0 -2 -1 -10t-2 -17.5t-2 -17.5t-1 -10q-2 0 -5 -8t-3 -10q-14 -35 -18.5 -71t-18.5 -73q0 -12 -3 -47t-5 -74t-5 -73.5t-3 -46.5v-7v-6 l4 -20l4 -21q0 -14 4 -49t4 -43v-20v-33q0 -16 1 -32.5t1 -18.5t3 -15.5t3 -15.5q12 -51 21.5 -106.5t15.5 -108.5q31 -41 38 -80t24 -90q14 -43 38.5 -77t45.5 -75q0 -4 7 -24.5t11 -22.5q0 -4 2 -8l4 -8q0 -4 3 -14.5t6 -22.5t5.5 -23.5t4.5 -13.5t13 -12t13 -14 q2 -2 9.5 -17.5t9.5 -17.5l4 -4q2 -2 6 -2q10 -16 27.5 -37t25.5 -37q2 -4 4 -15.5t4 -15.5q4 -2 15.5 -11t11.5 -11q2 -4 2 -9v-6q0 -41 -26.5 -59.5t-61.5 -18.5q-23 0 -45.5 24t-42 54.5t-34.5 62t-26 48.5q-23 39 -50 74.5t-48 74.5q0 4 -5 16.5t-10 27t-11.5 28.5 t-10.5 23q-23 66 -48 126t-50 123q-14 43 -30.5 85t-20.5 87q-2 4 -4 15.5t-4 25t-3 25.5t-1 16q-4 55 -10.5 115t-6.5 119z" />
<glyph unicode=")" horiz-adv-x="567" d="M31 -518q0 20 5 32.5t14 22.5t20.5 21.5t25.5 27.5q0 4 2 8q4 8 4 11q6 8 19.5 25.5t15.5 19.5q10 8 29 8q20 0 27 16q23 55 44 110.5t46 106.5q4 4 15 22.5t11 20.5q0 4 4 15.5t7.5 24t7.5 22.5t4 14q0 2 6 16.5t10 18.5q2 10 7 30.5t11.5 42t11.5 39t5 21.5q0 8 3 38 t6 63.5t5 62.5t4 37q0 4 3.5 18.5t5.5 16.5v18v19q0 2 -2 13t-3.5 23.5t-2.5 22.5t-1 12t1 15.5t2.5 29t3.5 28.5t2 17v11v8q-2 2 -5.5 13t-3.5 13v52v49q6 10 7.5 17t1.5 20q0 25 -10.5 45t-16.5 45q-16 70 -29.5 138.5t-15.5 139.5q-2 4 -9 14.5t-12 12.5q0 4 -15 23.5 t-19 23.5q-2 2 -4.5 12.5t-4.5 10.5q-6 14 -22 47.5t-34.5 70.5t-35 71t-22.5 46q-6 6 -19.5 24.5t-19.5 22.5q0 2 -7.5 8t-14.5 13.5t-14 14.5l-9 9q-23 29 -38 72t-15 80t22.5 59.5t56.5 22.5q25 0 60 -35t70.5 -89.5t72.5 -121t67.5 -129t52 -113.5t30.5 -73 q8 -23 22.5 -46.5t20.5 -50.5q2 -2 4 -10t3 -17.5t3 -16.5t2 -9q2 -4 13.5 -27.5t13.5 -29.5q18 -43 25 -90.5t10 -94.5t4.5 -96t5.5 -96q0 -29 4 -44.5t4 -31.5v-29q0 -18 -4 -26q-10 -57 -11.5 -114.5t-11.5 -115.5q0 -6 -5 -30.5t-9 -54t-8 -55t-4 -32.5 q-6 -33 -16.5 -55t-22.5 -53q0 -2 -4.5 -21.5t-4.5 -23.5q-4 -16 -15 -51t-22.5 -70t-21.5 -64.5t-12 -37.5q-10 -29 -31.5 -66t-38.5 -59l-31 -31q0 -2 -3 -12.5t-5 -12.5q-2 -4 -12 -18t-14 -21q-2 -2 -4.5 -11t-4.5 -13q-4 -6 -17 -27.5t-19 -25.5q-10 -16 -20.5 -23.5 t-14.5 -24.5q-8 -6 -35 -19t-37 -15q-4 -2 -8 -2q-4 -2 -12 -2q-10 0 -22.5 2t-22.5 10q-6 10 -19.5 29.5t-13.5 23.5q-2 0 -2 14v19z" />
<glyph unicode="*" horiz-adv-x="1216" d="M901 905v8q0 2 2 17.5t4 19.5q0 2 1 13.5t2 24.5t3 24.5t2 15.5q0 2 4.5 15.5t9.5 27.5t10 26.5t5 16.5v21v22q-6 6 -12 7t-14 1q-29 0 -49.5 -20.5t-39.5 -36.5q-47 -45 -101 -87t-126 -42q-18 0 -31.5 14.5t-13.5 34.5q0 23 11.5 42.5t28.5 34.5t37.5 27.5t37.5 24.5 l4 4l4 4q27 16 62.5 19.5t66.5 7.5q6 2 19.5 9t25.5 16.5t22.5 19.5t10.5 18q0 14 -14.5 25.5t-34 19t-39 12.5t-27.5 9q-12 4 -36.5 12t-26.5 8q-4 2 -18.5 14.5t-18.5 14.5q-35 27 -68 53.5t-33 73.5q0 23 16.5 34t37.5 11q23 0 41 -11t34 -18q20 -10 38 -18t34 -25 l14 -14q2 -2 11.5 -13t20.5 -23.5t20.5 -23t13.5 -12.5q14 -16 35.5 -36.5t48.5 -20.5q10 0 13 9.5t3 21.5q0 8 -1 15t-1 11v35q-2 4 -4 11.5t-2 9.5q-4 39 -6 63.5t-2 59.5q0 20 3 48.5t12.5 56.5t26.5 47.5t46 19.5q14 0 26.5 -11.5t19.5 -27t11 -33.5t4 -31q0 -37 -6 -89 t-14 -87q0 -4 -9 -29.5t-14 -35.5q0 -4 -9 -21.5t-11 -21.5t-2 -15q0 -10 2 -19t6 -14q25 0 45.5 11.5t37.5 27t33.5 34t35.5 34.5q41 37 92 64.5t110 27.5q27 0 39 -22v-27q0 -57 -37.5 -86t-85.5 -53q-2 0 -9 -2t-11 -4q-4 0 -21.5 -2.5t-21.5 -4.5q-2 0 -10 -6t-13 -8 q-8 -4 -31.5 -10t-49 -14.5t-46 -17.5t-20.5 -19q0 -18 13.5 -22.5t27.5 -8.5q4 0 14 -3t20.5 -7t18.5 -7.5t10 -3.5q4 -2 27 -11t27 -9q27 -10 57.5 -21.5t57 -27t45 -38t18.5 -58.5q0 -16 -3 -35t-20 -29q-4 0 -15 -1t-15 -1q-47 0 -79 26.5t-69 55.5q-2 2 -17.5 10 t-19.5 10q-18 14 -31.5 34t-29 37t-32.5 29.5t-44 12.5q0 -4 -1 -15.5t-1 -25.5t-1 -26.5t-1 -16.5q2 -4 4 -15.5t2 -13.5q0 -6 4 -22q2 -8 2 -14v-27v-72q2 -6 5 -29.5t3 -27.5v-4q0 -2 1 -4t1 -4q0 -27 -17 -53.5t-46 -26.5t-45 14t-23.5 36.5t-9.5 48t-2 48.5z" />
<glyph unicode="+" horiz-adv-x="1298" d="M319 594q25 25 89 24q23 0 29.5 -1t15.5 -3h161q37 0 62.5 3.5t38.5 13.5q8 10 10 28.5t2 47.5q-2 25 -3 43t-1 34q0 18 -1 37t-3 41q-2 16 -3 37t-3 37q0 59 20 80q16 16 53 16h35q33 0 49 -10q12 -6 13.5 -21.5t5.5 -25.5q6 -31 6 -62q0 -12 -1 -23t-1 -22v-34 q0 -16 -1 -31t-1 -29q0 -10 1 -20.5t3 -20.5q2 -12 2 -20v-13v-47q0 -4 2 -19.5t4 -15.5q39 0 78 -1t74 -1q55 0 104 2.5t107 2.5q18 0 32.5 -5.5t14.5 -23.5q0 -10 1 -19.5t1 -19.5q0 -16 -4 -32.5t-19 -33.5q-16 -18 -41.5 -21t-54.5 -3q-49 0 -89 3t-81 5l-45 -2l-84 -8 q-8 -16 -8 -64q0 -25 1 -52.5t1 -55.5q0 -33 2 -48.5t2 -39.5q0 -4 -1 -13.5t-1 -19.5v-27l4 -55q0 -18 -8 -31q-16 -10 -45 -10t-56.5 3t-35.5 7q-10 16 -12.5 35t-2.5 41v53q0 25 -1 47.5t-1 42.5v23q0 10 2 20v101q0 10 -10 20q-20 20 -47 21q-16 0 -29.5 -1t-36.5 -1 q-20 0 -23 2t-16 2q-8 0 -16 -1t-14 -1q-47 0 -63.5 1t-32.5 1q-20 0 -36 -2t-36 -2q-18 0 -30.5 4t-22.5 20q-8 12 -11.5 25.5t-3.5 36.5q4 31 7 40t3 11z" />
<glyph unicode="," horiz-adv-x="589" d="M-6 -395v6q39 47 84 84t90 72.5t85 76.5t71 101q4 4 6 10t6 12q4 8 8 15v16q0 31 -14.5 43t-35 16t-45 6.5t-45 12.5t-34.5 35.5t-14 74.5v29q2 2 15 22.5t19 30.5q23 29 56 37t67 8q53 0 98.5 -33.5t67.5 -80.5q4 -14 12.5 -31.5t12.5 -30.5v-14q0 -16 -1 -34.5 t-1 -22.5t-1 -17.5t-3 -31t-4 -32t-5 -16.5q0 -4 -10 -18t-14 -19q-20 -31 -32.5 -56.5t-35.5 -55.5q-2 -4 -10 -14.5t-17.5 -23.5t-18.5 -25.5t-13 -18.5l-21 -21q-31 -25 -60.5 -50t-61 -44.5t-67.5 -33t-77 -13.5h-41q-10 4 -13 11.5t-3 17.5z" />
<glyph unicode="-" horiz-adv-x="722" d="M266 399l-30 25q-2 4 -3 10q-2 6 -2 17q0 35 11.5 66.5t44.5 47.5q4 4 23.5 7t21.5 6q6 0 20.5 4t18.5 4q84 -2 163.5 4t163.5 6h62q10 -4 26.5 -17.5t16.5 -27.5q0 -16 -10.5 -30.5t-18.5 -28.5q-16 -18 -33.5 -40t-48.5 -28q-10 -2 -31.5 -6t-45 -8t-43 -7.5 t-23.5 -3.5h-283z" />
<glyph unicode="." horiz-adv-x="522" d="M168 160q0 18 12.5 42.5t31.5 45t41.5 35t43.5 14.5h12q8 0 25.5 -6t34 -15.5t30 -17.5t17.5 -14q10 -20 16 -46t6 -38q0 -47 -6 -77t-47 -52q-4 -4 -15.5 -9.5t-13.5 -5.5h-34q-59 0 -106.5 40.5t-47.5 103.5z" />
<glyph unicode="/" horiz-adv-x="1116" d="M702 381l-366 -873q-2 -4 -16.5 -9t-22.5 -5q-4 -2 -14 -2q-6 0 -12.5 2t-10.5 4q-37 16 -37 56q0 10 2 16q4 6 5 12t6 12q8 16 16 31t24 21l211 508q4 25 13.5 49t19.5 49q4 8 6 15t6 18q4 10 16.5 38.5t18.5 36.5q12 12 16.5 18.5t10.5 20.5q0 2 3 8.5t3 10.5 q2 2 3 17.5t1 19.5t6 16t11 23q2 12 8 18v16l41 103l12 10l117 281q20 20 26 32.5t15 34.5q16 35 24 66.5t21 66.5q27 66 57.5 124.5t58.5 121.5q2 6 9.5 23.5t14.5 37t14.5 37t11.5 25.5q-2 8 -2 14v15q0 23 5 42t15 42q10 27 27.5 43t40.5 16q6 0 15 -2t17 -6 q25 -10 36.5 -30.5t11.5 -43.5q0 -20 -7 -39l-2 -2q-2 -2 -14 -18.5t-16 -20.5q-2 -6 -9.5 -22.5t-16.5 -34t-16.5 -33.5t-9.5 -22t-11 -28t-19.5 -46.5t-19.5 -46t-11 -25.5q-4 -8 -14.5 -30.5t-23.5 -49t-24.5 -48t-13.5 -28.5q0 -2 -4 -11t-9 -19t-10 -20.5t-8 -14.5 q-27 -66 -47 -129.5t-49 -126.5q-2 -6 -8 -20.5t-12 -32t-12.5 -31.5t-8.5 -20q-12 -10 -19 -17.5t-11 -23.5q-14 -35 -24.5 -73t-27.5 -77q-4 -4 -5 -11t-5 -14q-4 -8 -6 -16q0 -2 -7 -6t-9 -4q-2 -2 -2 -4l-3 -4v-31z" />
<glyph unicode="0" horiz-adv-x="1372" d="M621 922q-8 -4 -21.5 -16.5t-28 -27t-27 -27.5t-18.5 -20q-2 -2 -11 -20t-20.5 -40.5t-21.5 -46.5t-16 -38q-4 -8 -11.5 -28.5t-7.5 -22.5q-8 -47 -8 -103q0 -27 2 -56.5t6 -57.5q0 -4 7.5 -25.5t11.5 -32.5l8 -6q2 -2 6 -10t8 -17.5t8.5 -16.5t4.5 -9q41 -66 111.5 -112 t141.5 -60q0 -2 9 -2q6 0 11 1t7 1q23 -4 44.5 -11t39.5 -7q20 0 58 9t77 24.5t74 32t51 32.5q2 4 12.5 18.5t14.5 18.5t22.5 18.5t22.5 18.5q4 2 11 8t7 10q2 2 4 12.5t4 14.5q14 23 20.5 38t16.5 40q10 29 19.5 57.5t9.5 60.5q0 47 -9 89t-20 83q-2 4 -4 23.5t-6 23.5 q-12 31 -48 72t-80 77t-90 61.5t-81 25.5q-31 0 -58.5 -7t-56.5 -16h-6q-16 0 -30.5 11.5t-32.5 11.5q-37 0 -68.5 -24.5t-68.5 -32.5zM690 -25q-4 0 -13 7.5t-13 11.5q-25 14 -50.5 24.5t-51 20.5t-51.5 22.5t-46 28.5q-119 100 -162 246q-4 4 -10 25.5t-8 29.5 q-12 33 -15.5 67t-3.5 68v33q0 39 4 67.5t13.5 53.5t20.5 51.5t28 63.5q0 6 6 29.5t10 27.5q0 2 8.5 8t12.5 6q0 4 3 15.5t3 15.5q12 20 31.5 45t43 47.5t48 42t49.5 27.5q4 2 19.5 4t19.5 6q2 0 13 7t24.5 14.5t24.5 13.5t16 6q4 4 18 7t16 5q4 0 23.5 8.5t23.5 8.5l13 1 q14 1 31.5 3l35 4t29.5 2h6h2q59 -20 118.5 -30.5t119.5 -33.5q61 -27 106 -66.5t90 -86.5q35 -35 51.5 -79t30.5 -91q0 -4 3 -15.5t5 -15.5q23 -55 35.5 -110.5t12.5 -118.5v-15q0 -8 -4 -8q0 -4 -4.5 -18.5t-10.5 -30.5t-12 -31.5t-8 -19.5l-4 -21q-4 -20 -5 -22 q-16 -43 -43.5 -78t-54.5 -70q-16 -16 -28.5 -34.5t-26.5 -34.5q-23 -31 -54.5 -47.5t-62.5 -34.5q-4 -2 -18.5 -14.5t-18.5 -12.5q-4 -2 -30.5 -8t-38.5 -8q-8 -4 -31 -6t-27 -4q-23 -6 -39 -13.5t-45 -7.5h-41q-8 0 -27.5 1t-41 3t-41 4t-27.5 4z" />
<glyph unicode="1" horiz-adv-x="978" d="M305 41q0 39 28.5 48t61.5 9q8 0 18.5 -1t20.5 -1q4 0 8 1t9 1q18 0 36.5 9.5t28.5 19.5l2 2l4 4q8 59 13.5 122.5t5.5 125.5q0 45 -4.5 90t-4.5 92v86q2 2 4.5 12.5t4.5 12.5v4q0 45 -8.5 83t-10.5 85q0 6 1 34.5t1 55.5q0 12 -1 21.5t-1 13.5q-2 37 -40 46t-83 14 t-81.5 17.5t-36.5 53.5q0 27 19 36t46 9q20 0 41 -2t37 -2q4 0 14.5 4t12.5 6h14q37 0 72.5 -5t72.5 -5h13q2 0 11 1t19.5 3t20.5 4t12 2h6h2q2 0 9.5 -3t16.5 -7t17 -7t11 -6q2 0 12 2.5t20.5 4.5t20.5 4t12 2h105q10 8 17 9t17 1q35 0 76 -23q12 -4 15.5 -9t3.5 -15v-16 q0 -33 -21.5 -40.5t-50.5 -7.5q-10 0 -16.5 1t-14.5 1q-20 0 -33 -10q-29 -4 -53 -6t-42.5 -8t-30 -21.5t-11.5 -48.5q0 -43 5 -87t5 -87v-12q0 -4 -2 -18.5t-3 -32t-3 -31.5t-2 -18v-33q0 -23 -1 -55.5t-1 -69.5v-68t1 -56.5t1 -31.5q0 -6 -3 -29.5t-6 -51t-6 -51t-3 -30.5 v-10v-10q8 -10 17 -28.5t28 -22.5q10 -2 44 -6.5t50 -6.5h31q33 0 54 -8t38 -53v-8q0 -12 -12.5 -25.5t-22.5 -13.5q-23 0 -62.5 2t-60.5 2h-373q-23 -8 -45 -9t-47 -1h-51q-39 10 -39 51z" />
<glyph unicode="2" horiz-adv-x="1099" d="M391 10q0 33 17.5 58.5t42 47t50 42t44.5 43.5q4 6 16 19t25.5 28.5t26 29t16.5 19.5q2 2 4 8t4 8q0 2 3 14.5t3 14.5q4 4 15.5 18.5t13.5 18.5q4 4 6 17.5t4 19.5q0 4 7 13t11 11q0 6 4.5 23.5t8.5 37t8 37t6 21.5q0 4 7 22.5t9 22.5v25q0 35 -2 66.5t-6 70.5q0 2 -4 5 t-4 5q-33 41 -63.5 75t-90.5 34q-31 0 -65.5 -8.5t-61.5 -18.5q-10 -4 -13 -17.5t-13 -19.5q-12 -8 -31.5 -22.5t-42 -27.5t-43 -23.5t-33.5 -10.5q-14 0 -17 5.5t-3 19.5q0 16 5 29.5t9 29.5q2 2 6 14.5t8.5 27t8.5 25.5t6 15q16 33 51 71t78 70.5t89 53t87 20.5h31 q2 0 25.5 -4t27.5 -4h61q12 -2 31 -10t37 -19.5t34.5 -22.5t24.5 -20q25 -23 56.5 -61.5t44.5 -73.5q0 -4 1 -14t3 -22.5t3 -24t3 -13.5q0 -4 3 -10t3 -8v-4v-2q0 -4 -3 -19.5t-3 -19.5q-2 -2 -3 -13.5t-3 -23.5t-3 -22.5t-1 -12.5t-4 -10t-9.5 -17.5t-10.5 -16.5t-5 -9 q-4 -23 -4 -39t-16 -35q-2 -4 -7 -8q-8 -8 -8 -10t-4 -12.5t-4 -12.5q-2 -4 -6 -10t-4 -8q-2 -2 -10.5 -8t-17.5 -13.5t-17 -14.5t-8 -9q-16 -16 -23.5 -41t-24.5 -41q-12 -14 -26 -26.5t-26.5 -27t-20.5 -29.5t-8 -34q0 -4 -1 -6t-1 -6q0 -14 12 -17q6 -4 27.5 -6t25.5 -2 q2 0 20.5 -1t43 -3t49 -3t39.5 -3h8h6q6 2 22.5 3t34 3t33.5 3t23 1q25 -12 59 -12q8 0 15 1t12 1h61q20 2 38.5 12.5t37 22.5t37 22.5t41.5 10.5q0 -41 -28 -73t-44 -56q-29 -35 -56.5 -76t-62.5 -70l-16 -8h-137q-4 -4 -13.5 -6t-11.5 -2h-6h-4q-4 0 -22.5 1t-38 3t-37 3 t-19.5 1h-18h-21q-10 0 -56 -3t-99.5 -6t-99.5 -5t-58 -2h-4h-6q-10 0 -34 3t-28 5q-8 0 -21.5 4t-17.5 4v10z" />
<glyph unicode="3" horiz-adv-x="940" d="M324 -432q0 8 9 9t13 1q29 0 49.5 -19.5t48.5 -19.5q14 0 40 6t50.5 13.5t46 12.5t29.5 3q4 2 15.5 9t22.5 16.5t21.5 17.5t14.5 12q6 6 16.5 20.5t21.5 32t20.5 34t13.5 22.5q2 35 19.5 58.5t17.5 51.5q0 25 -11.5 33t-19.5 29q-2 2 -2 6t-1 6t-1 6q-2 8 -2 17l-4 4 q-4 4 -7 4q0 2 -6 12t-14 20.5t-14 19.5t-9 11q-2 2 -10 6.5t-8 6.5q-4 2 -18.5 11t-32 19.5t-31.5 19.5t-18 11q-4 0 -22.5 6t-41 13.5t-46 14.5t-36.5 11q-10 2 -26.5 4t-33 6.5t-28.5 12.5t-12 24q0 14 8 23.5t20.5 16.5t24.5 11.5t21 10.5q4 4 23.5 17t21.5 15 q4 6 22.5 16.5t22.5 14.5q4 2 14 14.5t14 14.5q2 0 21.5 6t23.5 10l11.5 11.5l19.5 19.5l19.5 19.5t13.5 11.5q2 4 21.5 18t23.5 17q0 2 7 12t11 16q31 53 52.5 99.5t38.5 109.5v27q0 18 -5.5 35.5t-15.5 35.5q-4 10 -17.5 38t-19.5 36q-8 14 -28.5 27.5t-45 23t-50 15.5 t-42.5 6h-2q-41 -10 -77.5 -22.5t-69.5 -41.5q-4 -4 -17.5 -17t-27 -27.5t-26.5 -28t-17 -19.5h-8q-20 0 -24.5 19.5t-4.5 35.5v9q0 59 26.5 95t61.5 77q98 111 246 110q49 0 84 -3t63.5 -13t56 -27.5t64.5 -48.5q37 -29 46 -69.5t20 -86.5l4 -8q2 -4 4 -6q2 -4 2 -18v-21 v-20t-2 -15q0 -8 -5 -25.5t-11.5 -38t-12.5 -37.5t-8 -24q0 -4 -3 -6t-3 -4q-2 -4 -7.5 -14t-11.5 -21.5t-11 -21.5l-7 -14q-2 -2 -5 -13.5t-3 -13.5q-4 -4 -11.5 -14.5t-9.5 -12.5q-6 -8 -25.5 -28.5t-41 -42l-41 -41t-27.5 -25.5q-6 0 -27.5 -6t-25.5 -8q0 -4 -4 -22.5 t-4 -28.5q-2 -2 -2 -5v-4l2 -6q6 -29 18 -38t35 -25q4 -4 21.5 -23.5t21.5 -19.5q35 -29 76 -50.5t59 -60.5q6 -8 11 -21.5t10.5 -27.5t10.5 -25.5t15 -15.5q0 -6 3 -23.5t6 -36t6.5 -36t3.5 -23.5v-18v-17q0 -4 -2.5 -16t-5.5 -27.5t-6 -32t-5 -24.5q-10 -43 -35.5 -80 t-52.5 -76q-4 0 -10 -11t-8 -11q-4 -4 -28 -15.5t-28 -13.5q-12 -6 -22 -18.5t-25 -18.5q-55 -29 -103 -41t-118 -12q-53 0 -102.5 23.5t-79.5 66.5q-4 2 -6 13.5t-2 15.5z" />
<glyph unicode="4" horiz-adv-x="1374" d="M674 199q10 -12 20.5 -15.5t24.5 -3.5h10q29 0 57.5 12.5t38.5 40.5q0 6 1 17.5t1 23.5q0 14 1 25.5t1 15.5q0 8 -1 21.5t-1 25.5q0 14 -1 24l-1 11q0 2 -1 11.5t-2 19.5t-2 20.5t-1 12.5q0 6 -2 34.5t-3 60.5t-2 60.5t-1 34.5q0 2 -5 16.5t-5 18.5q0 6 -4 31.5t-6 30.5 q-4 2 -13 2q-16 0 -32.5 -16.5t-32 -40t-27.5 -46t-22 -35.5l-21.5 -21.5t-24.5 -21.5q-16 -20 -31.5 -48.5t-31.5 -51.5q-18 -25 -39.5 -50.5t-38.5 -47.5q-16 -25 -25.5 -45.5t-21.5 -46.5q-4 -10 -16.5 -21.5t-12.5 -24.5q0 -8 3.5 -12t17.5 -4zM819 -385q0 68 4 127 t13 131q8 10 10 24.5t2 26.5v19q0 4 -1 18t-1 23q-27 18 -53 18q-25 0 -56 6q-2 0 -13 5t-15 5q-2 0 -11.5 -2t-19.5 -3t-19.5 -3t-11.5 -2h-35q-6 0 -19 -4t-18 -4h-280q-16 0 -32.5 8t-20.5 19q-2 4 -9.5 10t-9.5 8q0 4 -1 22.5t-1 22.5q0 35 9.5 57.5t29.5 51.5 q35 51 76 94t78 96q31 41 53 85t51 85q4 4 10.5 14.5t8.5 14.5q4 2 6 8t6 10q2 0 9 6t14.5 14.5t13.5 15.5t8 9l4 8q4 8 4 11q23 33 49.5 61.5t48.5 61.5q18 25 30.5 47t35.5 45q0 2 7 8t14.5 13t14.5 14.5t9 9.5q0 4 3 18.5t5 16.5q4 6 18.5 19t18.5 17q14 16 27.5 36 t29 36.5t34 27.5t46.5 11q20 0 27.5 -13.5t7.5 -31.5v-20q0 -2 -5 -13.5t-5 -13.5q0 -8 -2 -25.5t-4 -37t-3 -35t-1 -21.5v-622q0 -12 6 -32t16 -38.5t24.5 -32.5t30.5 -14h7q0 4 11 11t13 7q4 2 21.5 4t25.5 6q41 6 82 10.5t79 14.5t72 29.5t62 54.5q6 8 16.5 26.5t22.5 37 t25.5 32t25.5 8.5q4 0 12.5 -6t8.5 -8q0 -72 -3 -132t-5 -126q-10 -4 -11 -22q0 -18 -1 -39t-11 -37.5t-37 -16.5q-16 0 -26.5 5.5t-22.5 5.5h-12q-2 0 -9.5 -1t-16.5 -3.5t-17 -3.5t-11 -1q-2 0 -32.5 -1t-48.5 -1q-41 0 -79 5.5t-79 5.5q-25 0 -47.5 -11.5t-46.5 -15.5 q-2 -6 -4 -24.5t-5.5 -39t-6.5 -39t-3 -24.5v-33q0 -39 6.5 -82t24.5 -82q6 -41 7 -85t1 -87q0 -16 -10 -25t-24.5 -14.5t-28 -6.5t-21.5 -1q-90 0 -130 33t-40 125z" />
<glyph unicode="5" horiz-adv-x="1058" d="M291 -414q-2 2 -4 6t-2 11q0 14 14 21t20 16q4 2 21.5 11t21.5 11t16.5 8t24.5 17q43 37 85 86t83 90q10 35 30 64.5t24 62.5q8 29 9 62.5t1 66.5q0 20 -1 34.5t-4 28t-8.5 27.5t-13.5 37q-2 4 -4 12q-2 4 -2 10v11q-18 78 -63 148.5t-93 131.5q-18 25 -46.5 56.5 t-49.5 54.5q-23 16 -48.5 34.5t-25.5 47.5q0 18 9.5 25t25.5 18q8 4 21.5 11l27 14t22.5 12l9 6q4 0 14.5 12t12.5 14q25 20 52.5 31.5t49.5 34.5l17 24q10 20 26.5 37t26.5 37q2 2 9 15.5t14.5 28.5t13.5 28.5t8 15.5q8 10 20 10h9q31 0 48 -20.5t40 -30.5q4 -4 10 -7t8 -3 q45 -18 89 -37.5t91 -26.5h35q6 0 25.5 -4t23.5 -6h13q37 0 71.5 13.5t73.5 13.5q16 0 23.5 -3t7.5 -20q0 -16 -13.5 -50t-32 -70.5t-39 -68.5t-32.5 -40q-12 -6 -23.5 -7t-23.5 -1h-17q-4 2 -26.5 9t-30.5 9q-6 2 -36.5 10.5t-65.5 16.5t-65 16t-38 10q-4 0 -21.5 5.5 t-38 11.5t-36.5 12t-20 6h-7h-2q-10 -2 -22 -2t-23 -2q-12 -2 -26 -4q-6 0 -20.5 -14.5t-18.5 -22.5v-14q0 -27 15 -50.5t30 -41.5q47 -59 95 -114.5t85 -119.5q0 -2 5 -13t5 -15q12 -25 25.5 -44.5t19.5 -48.5q4 -10 5 -32.5t12 -38.5v-252q-18 -29 -23.5 -57.5 t-21.5 -59.5q-6 -18 -10.5 -24.5t-8.5 -9.5t-10 -6t-16 -15q0 -2 -7.5 -12.5t-9.5 -12.5q-41 -43 -77.5 -82t-76.5 -71.5t-86 -58t-104 -40.5q-6 -4 -19.5 -7t-15.5 -3q-8 0 -31.5 3t-33.5 7z" />
<glyph unicode="6" horiz-adv-x="1212" d="M494 451q0 -53 7 -104.5t27 -102.5l4 -8q2 -4 7 -9q2 -4 5 -24.5t5 -24.5t8 -17.5t6 -17.5q4 -4 20.5 -22.5t18.5 -22.5q2 -2 9 -12t10 -14q4 -2 5 -6.5t5 -4.5q2 0 10 -3t17.5 -5t17.5 -5t10 -3q20 -8 37.5 -18.5t40.5 -10.5q33 0 60.5 12.5t47.5 32.5q49 43 77 84 t50 99q2 4 10.5 19.5t10.5 19.5q0 2 1 12t2 21.5t3 21.5t2 14v45v29q0 4 2 21.5t4 37t3 37t1 21.5v4v6q0 2 -5 8t-5 8q-16 59 -35.5 116.5t-54.5 109.5q-8 16 -22.5 20t-22.5 19q-10 14 -13 22t-24 14q-12 4 -40 15.5t-34 11.5q0 2 -8 2q-66 0 -113 -42t-83 -89 q-55 -63 -69.5 -150t-14.5 -167zM266 442q0 6 3 24.5t6.5 40t6.5 40t3 22.5q0 2 2 14.5t3 26t3 25.5t2 16q8 47 26.5 90t34.5 82q2 2 8.5 13.5t12.5 23.5t11 23.5t5 13.5q55 121 135 214t172 185q4 2 15.5 8.5t13.5 6.5q35 31 65.5 64.5t71.5 56.5q6 2 15.5 7t19.5 11 t18.5 11t10.5 5q0 4 12 5.5t12 5.5q6 2 23.5 21.5t21.5 21.5q2 4 10.5 7t10.5 5q4 0 14 7t15 9q6 4 21 12.5t32.5 16.5t33 15t19.5 12q2 2 16.5 7t30 11t28.5 11t17 5q31 12 65 25.5t68 13.5q6 0 31 -2t25 -16q0 -18 -12.5 -32.5t-29 -27t-35 -22.5t-30.5 -18 q-16 -10 -44 -26.5t-32 -21.5q-6 -4 -30.5 -24.5t-53 -43t-54 -43t-34.5 -24.5q-4 -2 -21.5 -13t-21.5 -15q-82 -55 -157.5 -123t-141.5 -140q-18 -16 -33.5 -42.5t-31.5 -47.5q12 -27 39 -37q14 2 28 3h27q98 0 177 -33t157 -94q4 -4 9 -10.5t9 -8.5q2 -2 9.5 -14.5 t9.5 -12.5q2 -4 9 -11t16.5 -16t17.5 -17.5t10 -10.5t4 -17.5t6 -19.5q0 -4 7.5 -14t11.5 -12q23 -41 38 -90.5t15 -96.5v-4q-2 -2 -5 -13t-3 -15q-2 -6 -4 -23.5t-4.5 -38t-3.5 -39t-1 -24.5q-2 -4 -8 -18.5t-8 -18.5q-2 -6 -8 -22.5t-14.5 -34t-14.5 -33t-8 -21.5 q-2 -4 -8 -25.5t-10 -25.5q-2 -4 -10.5 -11t-17.5 -16.5t-16.5 -17.5t-9.5 -10q-4 -2 -11 -13.5t-7 -13.5q-12 -18 -33.5 -26.5t-40.5 -18.5q-2 -2 -8 -7t-13.5 -11.5t-14.5 -12.5t-9 -6q-2 -2 -10 -4t-17.5 -3t-17.5 -2t-10 -1q-4 0 -18.5 -3t-16.5 -3q-4 -2 -14.5 -7.5 t-12.5 -5.5h-24q-18 0 -21 5h-8q-12 0 -29.5 1l-35 2t-33 3t-23.5 2q-2 0 -13 2t-23.5 5t-22.5 5t-12 4h-35q-4 0 -14.5 5t-14.5 5q-4 2 -19.5 5.5t-17.5 3.5t-10 6t-17.5 14t-16.5 15.5t-9 9.5q-59 47 -109.5 112.5t-62.5 143.5q0 2 -2 12t-3 22.5t-3 22.5t-2 12q-2 2 -2 6 t-1 6.5t-1 6.5q-2 8 -2 16q-4 6 -6.5 27.5t-6.5 27.5z" />
<glyph unicode="7" horiz-adv-x="1239" d="M719 -379q0 37 20.5 71t36.5 64q29 61 47.5 129t40.5 131q16 47 35 89t39 83q12 29 20.5 58.5t24.5 58.5q2 10 15.5 38t21.5 38q10 25 16 48.5t17 47.5q0 4 4 6l8 4q14 41 21.5 82t21.5 80q2 4 8 18.5t8 18.5q20 31 24.5 62.5t12.5 66.5l2 2l2 2q0 2 2 4q2 4 4 6 q-4 14 -35.5 25.5t-45.5 11.5h-70q-4 0 -16.5 1t-26.5 3t-25.5 4.5t-13.5 2.5h-47q-86 0 -174 -3.5t-168 -7.5q-6 0 -21.5 -3t-34 -8t-34 -9t-21.5 -4q-10 -4 -26.5 -16.5t-35 -27t-33.5 -27.5t-21 -21q-6 -10 -16.5 -24.5t-22 -30t-24.5 -26t-28 -10.5q-12 0 -14 8.5 t-2 20.5v19l8 16q4 6 5 11t3 7q39 102 85 208t106 198q8 12 13 27.5t12.5 29t18.5 21.5t32 8q25 0 32 -13.5t7 -31.5q0 -12 -1 -23.5t-1 -21.5q0 -29 14 -39h55q4 -2 24.5 -5t45 -6t45 -5.5t26.5 -2.5q8 0 35 2.5t57.5 5.5t57.5 6t33 5h18h17q4 -2 19 -3t31.5 -3t32 -3 t19.5 -3h2h4q8 2 40 5t69 6t68.5 5t41.5 2h6h11q4 -4 22.5 -21.5t20.5 -21.5q2 -2 2 -8v-10v-11q0 -6 -2 -6q0 -6 -11.5 -28.5t-11.5 -26.5q-4 -4 -8 -18.5t-6 -18.5l-6 -8q-4 -4 -5.5 -18.5t-5.5 -18.5q-2 -10 -9 -33.5t-16 -49.5t-17.5 -49.5t-10.5 -31.5q0 -2 -3 -8 t-3 -8q-4 -6 -7 -28.5t-5 -27.5q-2 -4 -13.5 -18t-11.5 -18q-23 -41 -28 -88.5t-17 -92.5q-4 -8 -11 -28.5t-9 -24.5t-13.5 -26.5t-13.5 -26.5q0 -2 -2 -10.5t-3 -17.5t-3 -16t-2 -9q-6 -29 -14.5 -59.5t-18.5 -59.5q-16 -29 -25.5 -63.5t-19.5 -63.5q-2 -2 -5 -13.5 t-6 -23.5t-6.5 -23.5t-3.5 -13.5q-4 -23 -15 -36t-21 -36q-18 -49 -40 -106t-30 -111q0 -4 -2 -15t-3 -24.5t-3 -24.5t-4 -13q-2 -6 -14.5 -19.5t-18.5 -15.5q-10 -8 -20.5 -9.5t-22.5 -1.5q-39 0 -62.5 14.5t-23.5 55.5z" />
<glyph unicode="8" horiz-adv-x="1255" d="M487 1206q0 -4 1 -8t6 -4q0 -2 6 -23.5t10 -31.5q20 -61 49 -97t63.5 -63t76.5 -51.5t92 -61.5q2 -2 4 -2t6 -2t6 -2q4 -4 21.5 -5t25.5 -5h4h2q8 4 25.5 9t19.5 7q20 12 29.5 22.5t14.5 23t8.5 25.5t13.5 30q2 2 7 10t11 17.5t11.5 17.5t5.5 10q20 47 25 102.5t5 108.5 q0 45 -8 92t-41 86q-2 2 -11 12.5t-21.5 22.5t-23.5 22.5t-16 14.5q-2 0 -4 8t-6 10q-27 29 -72 45.5t-81 16.5q-47 0 -82 -19.5t-70 -42.5l-5 -5t-3 -5q-4 0 -6 -8t-4 -10l-9 -5q-8 -4 -12 -4q-2 -2 -4 -6t-2 -12q-2 -2 -4 -13.5t-4 -13.5l-29 -28q-2 -4 -4 -11 q-4 -12 -4 -14q-2 -6 -5 -27.5t-3 -27.5q0 -4 -2 -17.5t-3 -28t-2 -27.5t-1 -19q-4 0 -5.5 -5.5t-1.5 -7.5zM666 61q2 0 8 -2t8 -4q2 -4 12.5 -14t14.5 -14q4 0 26.5 -4.5t26.5 -4.5q4 -2 14 -5t15 -3h4q47 0 92 14.5t84 49.5l17 17l22.5 22.5l20.5 20.5l11 11q0 2 3.5 9.5 t6.5 16.5t6 17.5t3 10.5q0 4 5 17t11 28.5t12.5 29t8.5 17.5q2 0 2 14v12t-2 9q0 8 -2 22t-4 28.5t-4.5 26t-2.5 13.5t-3 10t-8 17.5t-9 17.5t-4 10q-10 14 -20.5 45t-26.5 45q-4 2 -15.5 10.5t-26 17.5t-25.5 16t-13 9q-8 8 -28.5 24.5t-44 35t-43 35t-27.5 22.5 q-14 8 -21.5 9t-17.5 1h-19q-2 -4 -9 -11t-16.5 -15t-16.5 -16.5t-9 -10.5t-9 -14t-7 -15q-33 -35 -68 -73.5t-43 -87.5q0 -6 -1 -25.5t-3 -42t-3 -42t-1 -26.5q0 -2 -4 -13t-6 -13v-19q0 -41 20.5 -84t42.5 -79q2 -6 11.5 -18.5t19.5 -27t20.5 -28t14.5 -19.5zM309 256 q0 4 -1 16.5t-1 26.5t-1 26.5t-1 16.5q0 29 1 68t11 67q29 72 77 123t108 96q16 16 47 25.5t51 19.5v4q0 12 -14.5 22.5t-34 19t-39.5 15.5t-31 13l-25.5 25.5l-41 41t-41 40t-27.5 26.5q-23 27 -36 56.5t-27 62.5q0 8 -2 32.5t-5.5 52.5t-6.5 52.5t-3 34.5v14v13 q10 45 33 81.5t47 71.5q2 0 5 7.5t3 11.5q25 55 74 89t98 64q4 0 14.5 9.5t14.5 9.5t22.5 1t28.5 5q4 2 28.5 10t31.5 10h6h10q4 0 14.5 2t20.5 2q4 0 5 -1t3 -1l37 7h10q4 0 9 1t10 1q29 0 69.5 -4.5t84.5 -12.5t85 -20.5t68 -28.5q2 -2 16 -17.5t19 -17.5q2 -2 14 -9 t12 -11q57 -59 88 -123t31 -148q0 -55 -8 -106t-37 -100q0 -2 -7 -10.5t-16.5 -18.5t-17.5 -19.5t-14 -13.5q-6 -8 -23.5 -25.5l-21.5 -21.5q-27 -25 -60 -37t-59 -43v-6q0 -23 17.5 -40t41 -31.5t48 -27t38.5 -24.5q59 -45 92 -109.5t54 -134.5l5 -20t3 -16q2 0 3 -10.5 t1 -24.5v-29v-22v-17v-26q0 -12 -1 -24.5t-3 -18.5q-2 -4 -9.5 -16.5t-9.5 -16.5q-4 -8 -9 -20.5t-11 -26t-10 -23.5t-7 -12q-2 -4 -4 -18.5t-4 -16.5q0 -2 -7 -12.5t-17.5 -23.5t-21.5 -26.5t-17 -21.5l-8 -6q-2 -2 -10.5 -8t-17.5 -12.5t-17.5 -11.5t-10.5 -7l-5 -6 t-11 -12.5t-12.5 -11.5t-8.5 -5q0 -4 -11 -6t-13 -6q-76 -29 -155 -40t-161 -11h-12h-16q-6 0 -12.5 1t-6.5 3q-4 0 -27.5 1t-25.5 5q-4 0 -13 7t-14 9q-43 18 -83.5 37t-79.5 45q-23 14 -46.5 45t-43 67t-35 72.5t-21.5 61.5z" />
<glyph unicode="9" horiz-adv-x="1214" d="M498 653q0 -59 3 -110t25 -105q2 -4 14.5 -27.5t14.5 -27.5t8 -26.5t8 -26.5t14.5 -14.5t14.5 -14.5q2 -2 4 -9t4 -9q6 -10 20.5 -32t16.5 -24q31 -35 73 -50t87 -15h18q6 0 15 2q4 0 14 8t12 10t16.5 8.5t30 13.5t28.5 14t17 9q2 0 15.5 24.5t21.5 41.5q63 121 64 258 q0 49 -5 109.5t-22 107.5q-8 25 -24.5 58.5t-36 68.5t-42 64.5t-42.5 44.5q-25 16 -57.5 30.5t-63.5 14.5q-23 0 -39 -1t-43 -8q-41 -8 -66.5 -42.5t-52.5 -65.5q-10 -12 -16 -16.5t-10 -20.5q0 -4 -4.5 -20.5t-9.5 -35t-9 -35t-6 -20.5q0 -2 -3 -12t-5 -14v-21 q0 -14 -1 -31.5t-1 -31.5v-21zM289 -621q0 12 8 18.5t18 16.5q37 31 75 62.5t73 64.5q66 63 130 125t123.5 126.5t112 136t93.5 153.5v8q0 20 -27 28.5t-39 8.5q-23 0 -35 -8t-41 -8q-47 0 -90 12t-90 22h-29q-2 0 -8 4.5t-8 6.5q-76 45 -137 90q-2 2 -4 5t-4 5 q-8 10 -21.5 27.5l-27 35t-23.5 30.5t-12 16q0 4 -8.5 23.5t-10.5 23.5t-9 13t-9 13q0 2 -3 21.5t-5 23.5t-5.5 14.5t-5.5 14.5q0 4 -1 17.5t-1 27.5t-1 26.5t-1 18.5q0 8 1 23.5t1 29.5t1 25.5t1 13.5t4.5 17.5t10.5 37t12 44t10 36.5q4 18 15.5 47t21.5 46q35 49 91.5 93 t109.5 70h18q35 6 74 25.5t74 22.5q4 0 30.5 1t40.5 1t39 -1t27 -1t12 -3.5t22.5 -6.5t24 -6t15.5 -3h8q4 0 11 -1t9 -3q2 0 12.5 -5t12.5 -9q2 -2 13 -5.5t13 -5.5q92 -39 145.5 -100t92.5 -156l4 -8q0 -2 4 -6l2 -2q4 -10 11.5 -30.5t7.5 -24.5q0 -2 1 -7.5t1 -11.5 q0 -12 -1 -27.5t-1 -17.5q0 -4 4 -27.5t4 -27.5v-39v-35q0 -6 -3 -29.5t-7 -27.5l-9 -162q-16 -18 -21 -37.5t-13 -44.5q-4 -6 -11.5 -23.5t-9.5 -21.5q0 -4 -6 -14t-12 -22.5t-11.5 -24t-7.5 -13.5q0 -4 -4 -15t-8 -25.5t-8 -26.5t-4 -17q-10 -23 -25.5 -38t-32.5 -33 q-35 -47 -65.5 -97.5t-71.5 -95.5q-6 -8 -29.5 -31.5l-31.5 -31.5q-2 0 -13.5 -7.5t-15.5 -11.5q-2 -2 -9 -4t-9 -4q0 -2 -8.5 -13t-10.5 -13q-6 -8 -22.5 -25.5t-36 -36t-36.5 -35t-24 -22.5l-10 -5t-8 -6q-4 -4 -20.5 -15t-35 -25.5t-35 -26.5t-20.5 -14q-2 -2 -18 -13.5 t-27 -15.5q-45 -27 -88 -54.5t-98 -27.5h-8q-14 0 -28.5 3t-14.5 17z" />
<glyph unicode=":" horiz-adv-x="548" d="M438 877v24t2 19q10 14 21 28q10 10 19 22.5t18 20.5q6 10 22.5 18.5t28.5 8.5q57 0 91 -24.5t71 -65.5q8 -10 9 -17.5t1 -19.5q0 -41 -15.5 -66.5t-41 -41t-57.5 -21.5t-64 -6q-61 0 -83 34t-22 87zM152 133q0 61 32.5 108.5t98.5 47.5q59 0 102 -41t61 -94v-13 q0 -31 -17 -57.5t-43 -45t-57.5 -28.5t-60.5 -10q-53 0 -84.5 42t-31.5 91z" />
<glyph unicode=";" horiz-adv-x="577" d="M387 920q0 16 8 37.5t17 33.5q31 53 62.5 67.5t90.5 14.5q25 0 47.5 -15.5t41 -40t28.5 -52t10 -52.5q0 -23 -17.5 -45t-27.5 -39q-6 -14 -16 -28.5t-29 -18.5q-6 0 -18.5 -2t-26.5 -3t-27.5 -2t-17.5 -1q-2 0 -9 4t-9 4q-10 6 -35 20.5t-29 16.5q-8 4 -15 17.5t-13.5 29 t-10.5 30t-4 24.5zM90 -238q6 4 23.5 15.5t37 23t38 22.5t28.5 15q29 16 48.5 37t47.5 53q8 6 9 27q0 20 -5.5 37.5t-11.5 34.5q-47 10 -87 41.5t-40 85.5q0 82 74 125h2q29 0 61.5 -6.5t64.5 -18.5t57.5 -32.5t37.5 -49.5q4 -4 7 -23.5t3 -21.5t4.5 -10t9.5 -17.5t9 -17.5 t4 -10t1 -18.5t1 -24.5q0 -10 -1 -26.5t-1 -20.5t-8 -18.5t-10 -16.5q0 -2 -3.5 -10.5t-6.5 -17.5t-5 -17t-4 -11q-20 -43 -54 -74.5t-71 -60.5q-182 -135 -401 -135q-4 0 -16.5 1t-25.5 4t-23.5 9.5t-10.5 14.5q-12 20 -12 41q0 20 12 39q0 8 10 8q2 4 12.5 6t14.5 2 q10 2 35.5 4t54.5 5t54.5 5t35.5 2z" />
<glyph unicode="&#x3c;" horiz-adv-x="989" d="M-168 -393q0 18 12.5 41.5t26.5 36.5q16 23 45 31t57 8q35 0 56.5 -6.5t56.5 -6.5q47 0 92 13.5t86 31.5q2 2 13.5 4t15.5 7q6 4 23.5 16t21.5 16q2 4 9 15.5t9 13.5t10.5 9t18.5 16.5t19.5 17.5t15.5 12q18 14 37.5 34t38 42.5t32 47t17.5 46.5q10 55 14 98.5t4 92.5 q0 41 -9 79.5t-9 77.5q0 18 6 34t6 34q0 121 -7 239.5t-5 241.5q-18 12 -35 13q-16 0 -26.5 -4.5t-26.5 -8.5q-12 -31 -29.5 -55.5t-37 -47t-38 -46t-33.5 -51.5q-14 -29 -15 -57.5t-19 -57.5q-4 -4 -11.5 -12.5t-9.5 -8.5q-4 0 -15 8.5t-11 12.5v29q0 37 11 75.5t27.5 75.5 t38 71t41.5 64q6 8 20.5 28.5t32 43t34 42t22.5 28.5q27 23 52.5 43t62.5 20q23 0 45 -5t37 -24q6 -6 11 -18t9 -27.5t6 -29t2 -21.5q0 -10 2 -34.5t4 -51t3 -51.5t1 -35v-158v-157q-4 -8 -6 -32t-4 -32v-4v-6q0 -2 2 -10t3 -19.5t3 -20.5t2 -11v-117q-2 -2 -2 -4 q0 -4 3.5 -9.5t5.5 -7.5h20h16q86 119 153 249t93 276q0 2 1 15t3 26.5t3 25.5t1 15q0 2 4.5 14t4.5 14q4 10 11 35t7 27q0 4 2 20.5t3 34.5t2 34.5t1 20.5q6 37 43 54.5t72 17.5q33 0 55.5 -17.5t22.5 -54.5q0 -70 -24.5 -123t-49.5 -112q0 -4 -5 -18.5t-5 -16.5 q-2 -4 -8.5 -16.5t-15.5 -29t-17 -32.5t-13 -24q-2 -2 -10 -12.5t-8 -14.5q0 -2 -2 -3t-4 -5l-4 -8q-2 -4 -7 -20.5t-10.5 -35t-10.5 -35t-7 -18.5q0 -2 -11.5 -19.5t-15.5 -27.5l-17 -25.5t-28.5 -42t-29 -42t-15.5 -23.5q-2 -6 -4 -11q-2 -2 -2 -6q0 -2 -2 -4 q-4 -4 -8 -10t-8 -14q-6 -8 -11 -19q-2 -2 -8 -9l-12 -14t-12 -14.5t-6 -9.5t-3.5 -11t-5.5 -19.5t-5 -19.5t-3 -11q-4 -12 -17.5 -30.5t-21.5 -25.5l-8 -4q-4 -2 -6 -4q-4 -2 -6 -6q-4 -4 -5 -7t-3 -5q0 -2 -6.5 -22.5t-8.5 -24.5q-2 -2 -11 -11.5t-20.5 -19.5t-20.5 -20.5 t-11 -12.5t-8.5 -10t-10.5 -16q-23 -39 -53.5 -77t-64.5 -67l-9 -4q-6 -4 -6 -6q-4 0 -11 -7l-9 -9t-9.5 -13.5t-7.5 -13.5q-6 -6 -21.5 -22.5t-32.5 -34t-33.5 -31.5t-22.5 -21q-2 -4 -12.5 -10t-12.5 -10q-4 0 -15 -3t-14 -3q-4 -2 -14 -13.5t-12 -15.5q-59 -47 -125 -87 t-143 -40q-55 0 -97.5 8.5t-79.5 55.5q-10 16 -13 24.5t-3 24.5z" />
<glyph unicode="=" horiz-adv-x="843" d="M307 389q0 78 74 105q10 0 36.5 1t56.5 2t56.5 2t36.5 1h4h4q2 0 13.5 -1t24 -2t22.5 -2t14 -1h13h14q12 2 26 2h27h27q14 0 26 2h19q18 0 20 2h10q20 0 37 -13.5t17 -33.5q0 -25 -7.5 -54.5t-23.5 -48.5q-16 -16 -41 -19t-47 -9h-166h-168q-8 0 -37.5 4t-44.5 4 q-29 4 -36 20t-7 39zM307 700q0 78 74 105q10 0 36.5 1t56.5 2t56.5 2t36.5 1h4h4q2 0 13.5 -1t24 -2t22.5 -2t14 -1h13h14q12 2 26 2h27h27q14 0 26 2h19q18 0 20 2h10q20 0 37 -13.5t17 -33.5q0 -25 -7.5 -54.5t-23.5 -47.5q-16 -16 -41 -19.5t-47 -9.5h-166h-168 q-8 0 -37.5 4t-44.5 4q-29 4 -36 20t-7 39z" />
<glyph unicode="&#x3e;" horiz-adv-x="1363" d="M133 102q0 35 10.5 71t22.5 67l16 166q10 25 12.5 38t6.5 29q2 18 11 30.5t13 28.5q4 2 7.5 21.5t5.5 24.5q2 4 7 16t7 16l10 15h6q2 -2 4 -7.5t7 -9.5q4 -8 8 -14q4 -16 9 -34.5t9 -35.5q12 -23 17.5 -43t9.5 -35q2 -6 6 -21t8 -31.5t7 -32t3 -21.5q27 -23 57.5 -61.5 t61.5 -57.5l5 -5t3 -5q4 -4 11.5 -13.5t9.5 -13.5q4 -2 17.5 -9t17.5 -7q25 -16 56.5 -36.5t63.5 -25.5q37 -4 56.5 -6t54.5 -6q51 -8 89 -11t81 -3h31q2 0 14 5t27.5 12t31 14.5t25.5 11.5q59 31 71.5 72t12.5 106v14q0 6 -4 21.5t-8 34t-8.5 35t-6.5 22.5q-10 41 -33.5 77 t-41.5 73q-4 0 -6.5 10t-6.5 14q-8 25 -26.5 43.5t-30.5 40.5q-2 4 -5 17.5t-5 17.5q-23 35 -60 74t-65 73q-10 12 -21.5 29.5t-25.5 40.5q-2 2 -8.5 12.5t-13.5 22.5t-13 22.5t-8 14.5q-45 80 -79 156.5t-34 170.5v45q0 2 3 10.5t6 18.5t5 18.5t2 12.5q6 27 7.5 53.5 t11.5 48.5q0 2 8 16.5t10 18.5q4 16 5 27.5t12 23.5q18 25 38.5 52.5t47.5 43.5q4 2 16 10.5t26.5 15.5t27 14.5t18.5 11.5q23 14 52.5 16t57.5 2q35 0 65 -3t64 -7q2 0 13.5 -1t26 -2t25.5 -3t13 -2q4 0 14.5 -4.5t12.5 -4.5q45 -12 88 -23t88 -32q2 0 11 -3t14 -3 q8 -4 18 -14.5t22.5 -20.5t25.5 -18t26 -8q8 0 13 3t15 7q4 2 14.5 11t20.5 20.5t20.5 21.5t14.5 16h14q20 0 42 -9t22 -29q0 -66 -22.5 -137.5t-41.5 -135.5q-4 -10 -4 -22v-21v-39q0 -27 -6 -49t-31 -43q-10 -6 -14 -7t-8 -1q-33 0 -50.5 31.5t-26.5 73.5t-17.5 84 t-22.5 63q-2 2 -13 12t-11 14q-4 2 -17.5 25t-17.5 27q-27 37 -67 53t-75 41q-2 2 -12 10t-12 10q-4 2 -19.5 8.5t-33 12.5t-33 11t-21.5 5h-22q-2 0 -16.5 -1t-16.5 -1q-4 0 -22.5 1t-22.5 1q-8 -2 -34.5 -10t-37.5 -12q0 -2 -3 -4t-3 -5q-14 -23 -30.5 -47t-32 -50.5 t-25.5 -53.5t-10 -53v-2q16 -39 32.5 -78t28.5 -78q2 -2 5.5 -8t3.5 -10q2 -2 7 -10.5t11 -16.5t11 -15.5t5 -9.5q2 -4 5.5 -14t7.5 -12q8 -25 21 -38t28.5 -24.5l31 -23t27.5 -29.5q4 -4 10.5 -22.5t10.5 -20.5q16 -27 42.5 -41t39.5 -39q4 0 8 -8q2 -4 4 -6t10 -11.5 t19.5 -18.5t19.5 -18.5t10 -11.5q4 -4 13.5 -18t13.5 -16t10 -17.5t6 -17.5q14 -25 32.5 -43.5t31.5 -44.5q2 -2 5 -16.5t3 -18.5l4 -8l4 -8q4 -6 9 -20.5t11.5 -28t10.5 -26t6 -14.5q8 -25 8 -45q0 -10 -1 -22t-1 -29q0 -27 -2 -64.5t-7 -77.5t-13.5 -77t-20.5 -61 q0 -2 -4 -11.5t-9 -20.5t-11.5 -21.5t-10.5 -12.5q-29 -35 -52 -69.5t-52 -67.5q-6 -2 -12 -6q-4 -4 -8.5 -7.5t-6.5 -5.5l-8 -4q-2 -2 -6 -2h-2q-2 0 -9.5 -8t-9.5 -10q-2 0 -11 -2t-13 -6q-4 -2 -17.5 -4t-17.5 -5q-4 0 -20.5 -2t-35 -5t-34.5 -6t-23 -3q-2 0 -10 -2 l-16 -4t-15.5 -4t-9.5 -2h-12h-23q-10 0 -20 1t-12 3q-6 0 -34 1t-58.5 3t-57.5 4t-33 4q-6 0 -22.5 4t-22.5 4q-2 2 -21.5 9.5t-29.5 11.5q-2 4 -20.5 11t-22.5 7q-31 16 -65.5 32.5t-63.5 45.5q-20 14 -37.5 29.5t-32.5 15.5q-10 0 -18 -12q-4 -2 -18.5 -15.5t-16.5 -15.5 q-25 -23 -61.5 -39t-69.5 -16q-25 0 -33 20t-8 45z" />
<glyph unicode="?" horiz-adv-x="886" d="M477 621q0 39 11.5 80.5t29 82.5t40 79t44.5 69q2 2 14.5 13t14.5 13q6 8 20.5 22.5t28.5 31t25.5 30t15.5 19.5q29 29 44 59.5t38 65.5q49 76 95 143.5t85 153.5q10 25 20.5 43t10.5 47t-21.5 38t-50.5 9q-33 0 -69.5 -5t-69.5 -13q0 -2 -3 -5.5t-3 -5.5 q-37 -43 -73 -84t-65 -88q-8 -12 -21 -42.5t-27.5 -62.5t-30 -57.5t-27.5 -25.5q-16 0 -26.5 9t-15.5 22.5t-6 28t-1 26.5v18q0 16 2 23q12 8 26.5 27.5t26.5 42t23.5 44t19.5 37.5q2 4 9 18.5t12 18.5q41 45 91 78t105 57q2 0 10.5 5.5t17.5 9.5t16 9t9 5q6 0 16.5 3 t14.5 3l2 4q16 0 28.5 2t27.5 2q16 0 27 -5t28 -9q29 -10 51.5 -15t52.5 -20q16 -8 32.5 -22.5t21.5 -14.5q14 -12 23 -34.5t13 -48t6.5 -49t2.5 -40.5q0 -63 -13.5 -127.5t-50.5 -117.5q-2 -4 -14.5 -13.5t-14.5 -11.5q-2 -4 -12 -18.5t-12 -18.5q-37 -35 -80 -58.5 t-84 -51.5q-72 -47 -147.5 -98.5t-131.5 -119.5q-4 -2 -14 -21t-14 -24q-16 -23 -36 -46t-20 -56v-6q4 -10 14.5 -39t12.5 -39q2 -8 10.5 -22.5t19.5 -27.5t22.5 -22.5t21.5 -9.5h153q4 -2 9 -6q4 -4 6 -7t4 -5v-8q0 -18 -21.5 -36t-50 -31t-57.5 -20.5t-43 -7.5 q-43 0 -79 19.5t-62.5 52.5t-42 72t-15.5 80zM342 139v6q20 72 51 113t113 41q33 0 61.5 -14.5t51 -37t36 -53t13.5 -61.5q0 -88 -46.5 -124t-125.5 -36h-23q-14 0 -27.5 2t-21.5 11q-41 33 -61.5 67.5t-20.5 85.5z" />
<glyph unicode="@" horiz-adv-x="1892" d="M995 571q0 -16 5.5 -28.5t21.5 -18.5q6 -14 20 -14q33 0 54.5 13.5t42.5 35.5q16 16 42.5 40t49.5 46l55 55l103 134l49 59l59 113l25 96q0 2 1 7t1 7q0 10 -2 21.5t-13 17.5q-2 2 -2 4t-2 4t-4 2h-4q-4 0 -4 2h-10t-6 2l-21 -2q-6 -2 -33.5 -13t-36.5 -15q-6 -2 -9 -4 t-7 -7q-4 -2 -14 -12t-23.5 -21.5t-25 -21.5t-15.5 -12l-16 -12q-51 -43 -100 -101q-14 -14 -17 -35q-4 -4 -8 -11t-8 -15q-10 -16 -18.5 -26.5t-18.5 -24.5q-4 -4 -14.5 -22.5t-12.5 -20.5q-45 -78 -71 -148q-13 -37 -13 -74zM1286 469q4 6 14.5 26.5t16.5 30.5q6 12 6 35 q-2 2 -2 6v8q0 6 -6 16.5t-15 10.5q-4 0 -5 -1t-5 -3q-4 0 -6 -3t-4 -3q-2 -2 -2 -4l-2 -2t-4 -2q-4 -4 -17.5 -16.5t-17.5 -16.5l-72 -47l-21.5 -21.5t-23.5 -19.5q-29 -31 -70.5 -50.5t-82.5 -23.5h-33h-39q-16 0 -33 4q-8 0 -12 8q-25 16 -42 42t-26 55q-6 14 -7 27.5 t-1 29.5v25q0 20 6 36.5t15 32.5q16 41 35.5 82t41.5 76q6 10 13.5 20.5t13.5 20.5q0 4 2 8q2 2 4 6q4 4 13.5 15.5t18.5 23.5t17.5 22.5t12.5 14.5q6 8 17 15.5t17 17.5l103 78q0 2 2 4q0 2 2 4t12 13t20.5 23.5t20.5 22.5t13 14q4 4 13 10.5t15 6.5q8 2 14.5 7t16.5 11 q45 39 92 60.5t107 34.5q23 4 42 5t37 1h13q12 -4 19 -10.5t18 -8.5q2 -2 6 -4t14 -2q4 0 25 4q14 4 18 15.5t12 21.5q14 16 33 29.5t41 13.5h12q20 -16 27.5 -36.5t7.5 -45.5q0 -37 -14 -66.5t-31 -60.5q-4 -12 -5 -21.5t-3 -19.5q0 -10 -6 -12l-133 -275q-2 -6 -2 -16 t-2 -16q-10 -23 -18.5 -44.5t-20.5 -41.5v-8q-2 -8 -6 -15q-8 -16 -9 -16q-2 -6 -5 -12.5t-3 -14.5q0 -12 2 -23.5t15 -11.5q16 0 26 6.5t21 16.5l135 80q12 8 18 10q72 59 135.5 129t77.5 162q4 18 6 41.5t2 46.5q0 16 -4 34.5t-6 39.5q-29 68 -50.5 121t-45.5 94h-4 l-88 114q-37 16 -65.5 37t-61.5 39q-41 27 -74 44.5t-65 21.5q-6 -2 -19 -2q-10 0 -19.5 1t-23.5 1q-10 0 -22.5 1t-53.5 11q-35 0 -71.5 -5t-63.5 -34q-76 -6 -127 -21.5t-91 -41t-72.5 -64.5t-71.5 -92l-31 -35l-45 -70q-10 -8 -13.5 -21t-3.5 -24l-59 -149 q-12 -29 -18 -69t-11 -64q-2 -12 -14 -44t-12 -50q8 -100 31.5 -182.5t58.5 -149.5q16 -27 26.5 -59.5t38.5 -73.5q16 -31 40 -58.5t42 -52.5q27 -35 48.5 -58.5t62.5 -58.5q31 -4 68.5 -18t52.5 -19l74 -20q29 -2 58.5 -5t57.5 -5q35 -2 73 -6.5t69 -4.5q10 0 15 2.5 t11 2.5q35 6 73 17t73 21q2 2 25.5 16.5t51 30t51 28t25.5 12.5q37 0 51.5 -9.5t14.5 -23.5q0 -23 -17.5 -46.5t-31.5 -37.5q-35 -49 -51.5 -59.5t-32.5 -10.5q-14 0 -28.5 -5t-25.5 -9q-31 -14 -69.5 -24.5t-87.5 -10.5q-35 -4 -60 -4h-45q-27 0 -77 2t-83 4 q-72 0 -145.5 19.5t-146.5 33.5q-2 0 -7.5 3t-7.5 5q-33 25 -69.5 45.5t-75.5 38.5l-41 21q-6 2 -27.5 18.5t-45 37t-43 40t-21.5 27.5l-97 170q-10 23 -25.5 70t-30.5 99t-26.5 99t-11.5 70q0 10 4 17t4 20l-8 71q0 27 6.5 68t15.5 84t17 82t12 63q2 6 11.5 24.5t13.5 22.5 q27 29 32 58.5t21 58.5q33 51 87.5 105.5t103.5 101.5q25 12 49 24.5t51 26.5q2 2 10 8t13 11l55 20l162 82q80 23 158.5 39t158.5 20h68l98 -24l84 -27q10 -6 32.5 -14t48 -18.5t48.5 -20.5t31 -17q33 -33 55.5 -49t56.5 -37q10 -6 31 -30.5t40 -52t35.5 -53t18.5 -36.5 q10 -27 13.5 -47t19.5 -51q8 -41 17.5 -87t16.5 -85t12 -66.5t5 -33.5q0 -29 -5 -43.5t-11 -36.5q-16 -27 -29.5 -45.5t-13.5 -28.5q-16 -23 -24.5 -40t-16.5 -32.5t-19.5 -31t-33.5 -33.5q-43 -35 -71 -56.5t-54.5 -39t-54 -33.5t-70.5 -41l-88 -76q-4 -2 -13.5 -9 t-13.5 -9q-10 -12 -22.5 -15.5t-22.5 -9.5q-23 -10 -37 -26.5t-35 -24.5l-41 -14h-4l-80 14q-4 0 -6 2l-8 4q-4 4 -12 10.5t-12 12.5q-16 18 -17 47v10z" />
<glyph unicode="A" d="M1966 1386q-12 0 -24.5 -1t-18.5 -9q-4 -2 -13 -11l-20.5 -20.5t-20.5 -21.5t-11 -12q-4 -2 -17.5 -11.5t-17.5 -13.5q-2 -4 -14.5 -11t-14.5 -9q-4 -4 -21.5 -20.5t-37 -36l-37 -37t-23.5 -21.5l-20.5 -20.5t-36 -35t-36.5 -35t-21 -20.5q-4 -2 -10.5 -9t-14.5 -16 t-14 -17.5t-9 -10.5q-23 -25 -51 -42t-57 -38q-2 -4 -17.5 -15t-19.5 -15l-4 -5l-2 -2q-12 -20 -12 -43v-14h8q8 0 10 4q4 0 10 3t11 3h43q39 0 71.5 -5t67.5 -5q47 0 90 7t88 14q43 31 57.5 82t32.5 98q16 41 36.5 81t37.5 81q4 12 8 31.5t10 39t14.5 34.5t20.5 22v83z M-41 51q0 18 7 42t30 28q4 0 22.5 2t40 5t41 6t23.5 5q10 0 33.5 5.5t50 11.5t48 11t30.5 7q2 0 16 6t18 10q4 0 14.5 8.5t14.5 12.5q4 2 22.5 8t22.5 8q39 23 72 56.5t65 62.5q16 14 39 25.5t39 25.5q2 4 14.5 15.5t14.5 15.5q4 2 22.5 12.5t22.5 14.5q2 2 14.5 13 t26.5 25.5t25.5 25.5t15.5 16q4 4 24.5 19t43 31.5t43 31t24.5 18.5t25.5 24.5t29.5 28.5q0 2 3.5 9.5t5.5 7.5q4 4 23.5 15t23.5 15q43 29 84 65t88 70q2 2 13 9.5t25.5 16.5t27 17.5t16.5 8.5q2 2 10 12t18.5 21.5t19.5 20.5l11 11q2 0 10 4q4 2 6 4t11.5 10.5t11.5 8.5 q6 8 22.5 23.5t34 31.5t31.5 28.5t18 16.5q10 8 31 24.5t25 20.5q2 2 13 8.5t23.5 13.5t22.5 13t12 8q39 31 75 68t71 67q23 23 43 36t45 30q29 16 57.5 41.5t52.5 48.5l21.5 21.5l33 33t33 32.5t19.5 22q4 2 10 13t8 11q4 10 23.5 27.5t32.5 21.5q2 0 14 1t25.5 2t24.5 3 t16 2q4 0 15 3.5t13 3.5h33h23q20 0 31.5 -6.5t11.5 -34.5q0 -53 -19.5 -90t-42.5 -86q-2 -2 -5 -16.5t-5 -18.5q0 -2 -7 -12.5t-14.5 -22.5t-14.5 -22.5t-7 -12.5q-2 -4 -5 -19.5t-7 -17.5q-18 -49 -40 -96t-40 -96q-2 -2 -4 -11.5t-5.5 -20.5t-6.5 -19.5t-3 -10.5 q-4 -6 -5 -16t-1 -12q-39 -68 -65 -142q-6 -16 -18.5 -31.5t-16.5 -31.5q-25 -66 -51.5 -128.5t-51.5 -125.5q-2 -2 -4 -18.5t-4 -18.5q-6 -27 -16 -35t-21 -31q0 -2 -4 -15t-4 -17q0 -6 -6 -19.5t-10 -17.5q-2 -2 -14.5 -17.5t-14.5 -17.5t-3 -11.5t-2 -20.5t-1 -21v-13 q-4 -4 -11.5 -15t-11.5 -19q-2 -6 -12 -24.5t-12 -22.5t-6 -14.5t-8.5 -24l-8.5 -25.5t-6 -16v-11q0 -25 37 -30.5t82 -11t82 -17.5t37 -49v-19q0 -4 -8.5 -6t-12.5 -2q-23 0 -80 1t-123 1t-123 -1t-79 -1q-8 0 -39 -3t-67 -6t-65.5 -5t-37.5 -2h-49h-31q-33 0 -62.5 8 t-29.5 49q0 4 1 12.5t1 12.5q2 4 10 14t12 10q37 6 78 6q10 0 23.5 -1t23.5 -1q35 0 64.5 4.5t58.5 18.5q16 10 32.5 32.5t32 50.5t30 54.5t24.5 44.5q0 2 11 17.5t16 19.5l4 16q2 6 3 12.5t3 8.5q10 39 26.5 80t32.5 82q14 29 29.5 53.5t15.5 54.5q0 29 -11 46.5t-42 17.5 h-299q-51 0 -103.5 -23.5t-95.5 -52.5q-12 -6 -23 -23.5t-22 -27.5q-2 -2 -11 -10.5t-20.5 -17.5t-20.5 -17t-11 -10q-27 -25 -51.5 -53.5t-46.5 -49.5q-4 -2 -21.5 -21.5t-22.5 -23.5q-31 -29 -54 -49.5t-50 -54.5q-16 -23 -25.5 -32t-25.5 -30q-12 -16 -24.5 -28.5 t-28.5 -32.5q-4 -4 -4 -19q0 -4 2 -11t10 -9h98q18 -4 50 -20.5t32 -37.5q0 -14 -4 -21t-12 -24q-12 -16 -33 -21t-43 -5q-16 0 -30.5 1t-26.5 1h-35q-12 0 -24.5 1t-24.5 7h-402q-2 -2 -12 -5t-12 -3q-37 -10 -65 -15.5t-62 -5.5q-16 0 -35 4.5t-35 13.5t-27.5 23t-11.5 37 z" />
<glyph unicode="B" horiz-adv-x="1558" d="M922 989q0 -4 -1 -8t-1 -8q0 -6 2 -12.5t10 -8.5q4 0 24.5 -4t30.5 -6q8 0 36 -4t38 -4h4q33 0 66.5 16.5t62.5 30.5q4 0 23.5 3t23.5 3q2 2 12.5 4t12.5 4q66 31 113.5 68t86.5 96q4 10 15.5 26.5t13.5 18.5q2 10 3 38t13 44v51q0 37 -4 60.5t-13 44t-24.5 41 t-39.5 49.5q-18 23 -37 41t-54 22h-36q-16 4 -26.5 16.5t-29.5 12.5q-39 0 -68.5 -8t-45.5 -49q-2 -2 -6.5 -13.5t-8.5 -26t-8 -25.5t-4 -13q-4 -8 -15.5 -35t-13.5 -33q-2 -4 -7 -19.5t-11 -33.5t-11.5 -33.5t-7.5 -19.5t-7 -15.5t-11 -24.5t-11 -25.5t-7 -16.5 q-8 -23 -10.5 -46.5t-6.5 -43.5t-15 -40t-22.5 -38t-19.5 -38t-8 -38zM641 100q12 -18 40 -22t56 -4h37q63 0 121.5 12t116.5 31q27 8 53.5 14t48.5 23l9 9t14.5 14t13.5 14.5t8 9.5l8 4q8 4 9 4q14 6 39.5 20.5t25.5 16.5q16 10 20.5 32.5t16.5 38.5q2 2 9 12.5t7 14.5 q23 57 34 112.5t11 116.5q0 33 -14 59.5t-31 55.5q-2 2 -7 11.5t-11 19.5t-11 19.5t-5 11.5q-4 6 -13.5 16t-19.5 20.5t-19.5 19.5t-13.5 11q-10 2 -18 6t-15.5 5t-11.5 6q-86 37 -186 36q-35 0 -51.5 -5t-25.5 -16t-14.5 -28.5t-19.5 -42.5q-41 -127 -86 -245.5t-86 -241.5 q-16 -45 -27.5 -76t-11.5 -76v-39zM78 53q0 4 1 14.5t1 12.5l10 10l18 2q19 2 43.5 4t50 3t42.5 1q2 0 12 -2t20.5 -3t19.5 -3t11 -2h8q43 0 62 37q14 20 18 38.5t11 43.5q27 90 57.5 176t58.5 176q10 35 14.5 54.5t22.5 46.5l121 344q0 6 3 21t5 32.5t4 33t2 21.5 q4 4 7.5 14.5t3.5 14.5q2 4 14 18.5t14 16.5q2 6 8.5 32.5t10.5 32.5q2 4 5 14.5t5 14.5q0 2 5 13t11 24.5t11.5 25t5.5 13.5q6 10 13 27.5t7 19.5q2 12 8 34.5t12.5 47t11.5 46t5 27.5v29q0 29 -10.5 37t-30.5 8q-4 0 -10 -1t-13 -1q-16 0 -26 2q-6 0 -20.5 3t-18.5 5 q-4 0 -17.5 1t-28.5 2t-28.5 2t-15.5 1q-25 4 -31 26t-6 42q0 23 7 34t30 11h26q12 0 46 -3t73 -6t73 -6t46 -5q2 -4 12.5 -5.5t14.5 -1.5q4 -2 28 -2q20 0 43 1t29 1q25 -2 86 -5t130 -6t131.5 -5t86.5 -4q10 -12 29 -12q18 0 35 -6q70 -33 119 -68t88 -107q0 -2 4 -11 t8 -11q0 -6 3 -16.5t8 -21.5t9 -21.5t4 -14.5v-166q-6 -18 -14 -35q-6 -14 -12 -29.5t-10 -25.5q-16 -45 -49 -82t-68 -71q-6 -6 -17.5 -16.5t-23.5 -21t-21 -18.5l-10 -8q-2 0 -10 -2t-17.5 -3t-17.5 -2t-10 -1q-10 -4 -36 -18.5t-26 -30.5q0 -4 12.5 -21.5t27 -37 t26.5 -36t14 -18.5t8.5 -9t14.5 -15.5t14 -14.5t6 -8q47 -53 56.5 -113.5t9.5 -130.5q0 -37 -5 -69.5t-22 -67.5q-6 -10 -14 -28.5t-17.5 -36t-15.5 -30.5t-8 -13q-2 -2 -13.5 -14.5t-27.5 -28t-32.5 -32l-26.5 -26.5q-53 -51 -118 -81.5t-136 -47.5q-25 -4 -42.5 -5 t-39.5 -9h-170q-88 0 -173 4t-176 4h-59q-12 0 -46 -3t-72 -6t-71.5 -5t-47.5 -4q-10 -6 -22.5 -8.5t-25.5 -2.5h-26q-23 0 -45.5 2t-41 10.5t-29.5 24.5t-11 45z" />
<glyph unicode="C" horiz-adv-x="1564" d="M326 571v60q0 8 3 28.5t5 44t5 44t3 28.5q8 10 19.5 49t22.5 83t22.5 80t19.5 40l63 127q10 8 18.5 35t16.5 37q2 4 10.5 16t17.5 25.5t16 26t12 16.5q2 0 8 3t8 3q4 10 14 14q0 2 11.5 11.5t11.5 11.5q23 53 57.5 96t75.5 78q4 2 19.5 8t17.5 8q2 0 14 12.5t14 14.5 q10 10 31 27.5t41.5 35t35.5 30.5t19 17q2 0 15.5 7.5t19.5 11.5q33 14 60.5 27.5t53.5 22.5t53.5 15.5t62.5 6.5h51q4 0 22.5 -5.5t20.5 -5.5q53 -4 111.5 -5t105.5 -19l94 -47q8 -4 24.5 -14.5t16.5 -12.5q14 -10 27.5 -25.5t29 -31t33 -25.5t35.5 -10q6 0 11 7t8.5 17.5 t6.5 20.5t7 16q2 4 9 11.5t13 7.5q10 0 18.5 -7.5t10.5 -15.5q6 -10 7 -16t1 -10q0 -29 -7 -53.5t-17.5 -49t-20.5 -49.5t-16 -51q-2 -10 -5 -37t-8.5 -57.5t-8.5 -57t-5 -35.5q-4 -4 -13 -18t-13 -18q-2 -4 -9.5 -12.5t-9.5 -8.5h-6q-10 0 -21.5 10.5t-19.5 16.5q0 2 -2 5 t-4 7l-6 6v137q-8 6 -16.5 31t-15.5 54.5t-14.5 57t-13.5 40.5q-2 2 -8 12t-8 12q-2 0 -14.5 5t-14.5 5q-10 8 -23.5 28t-19.5 26q-4 4 -23.5 18t-23.5 16q-29 25 -45 36.5t-55 11.5h-51q-10 0 -29 -1t-37 -3.5t-33.5 -3.5t-19.5 -1q-2 -2 -16.5 -9t-18.5 -9l-6 -6l-4 -4 q-6 -4 -20.5 -13.5t-30 -19.5t-29.5 -19.5t-19 -11.5q-4 -4 -18 -10t-18 -8q-35 -31 -60.5 -69t-56.5 -72q-2 -4 -10.5 -12.5l-17.5 -17.5t-17 -17.5t-10 -10.5t-5 -6q-4 -8 -4 -12q-2 -2 -5 -13.5t-7 -13.5q-2 -4 -21.5 -22.5t-21.5 -22.5t-5 -13t-5 -12q-2 -6 -8.5 -22 t-14.5 -34.5t-14 -35t-6 -18.5q-2 -4 -4 -19.5t-6 -17.5q-2 -4 -8.5 -17.5t-14.5 -28.5t-14 -28.5t-8 -15.5q-27 -57 -48.5 -114.5t-31.5 -119.5q-4 -8 -7.5 -35.5t-3.5 -35.5q0 -4 -1 -22.5t-2 -38t-3 -37t-2 -21.5t-5 -14.5t-5 -12.5v-24v-10q0 -8 1 -15.5t9 -15.5 q2 -8 5 -29.5t7.5 -46.5t8.5 -47.5t6 -30.5l8 -16q4 -6 7 -11.5t3 -7.5q2 -2 8.5 -21.5t10.5 -21.5q2 -4 10 -19t18.5 -32.5t19.5 -34t13 -24.5q4 -4 22.5 -16.5t42 -26t44 -24.5t28.5 -15q10 -6 20.5 -7t20.5 -1h29q43 0 83 13t77 33.5t71.5 45t69.5 49.5q2 4 15.5 14.5 t28.5 20.5l28.5 19t15.5 12q25 20 53.5 61t58 82t61.5 71.5t65 30.5q25 0 35 -16t10 -39q0 -35 -14.5 -68.5t-24.5 -68.5q-18 -70 -33.5 -137.5t-26.5 -139.5q-8 -10 -16 -24.5t-20 -14.5q-27 0 -34 18.5t-10.5 42t-7.5 42t-22 18.5t-34.5 -9t-32 -21.5t-31 -25.5t-29.5 -20 q-102 -43 -192.5 -73.5t-204.5 -34.5q-2 4 -13.5 6t-13.5 6q-39 8 -69.5 15.5t-59.5 17.5t-58.5 24.5t-66.5 32.5q-4 2 -14.5 7.5t-12.5 9.5l-135 135q-16 16 -27.5 45t-15.5 45q-31 66 -48 131t-17 143z" />
<glyph unicode="D" horiz-adv-x="2039" d="M854 139v-2q2 -23 6 -33t10.5 -14t17.5 -5t30 -3q2 0 12 -4t14 -4h27h28q2 0 12.5 1t23 3t22.5 3t12 1q35 4 64.5 3t62.5 15q6 2 17.5 7.5t23.5 11.5t21.5 11t11.5 7q2 0 8 8.5t10 10.5l8 4q8 4 11 4q29 10 55 10q29 0 51 14q4 2 18.5 14.5t18.5 14.5q49 29 98 59.5 t84 75.5q2 4 9.5 19.5t9.5 19.5q4 4 22.5 18.5t22.5 16.5q2 4 8 18.5t8 18.5q2 2 12.5 14t21.5 25.5t20.5 25t11.5 15.5q0 4 4 14t4 12q2 4 18.5 19.5t20.5 19.5q0 2 3 17.5t3 17.5q2 2 8 13.5t12.5 23.5t11.5 22.5t5 14.5q2 2 3 18.5t2 34.5t2 34.5t3 20.5q2 16 9 41t18 41 v133q0 4 4 19.5t4 17.5v66q0 2 4 9t6 7v29q0 63 -20.5 109t-42.5 110q-2 2 -9.5 25.5t-11.5 27.5q-2 4 -17.5 18.5t-17.5 16.5q-16 18 -23 29.5t-24 25.5q-6 4 -16 13.5t-21.5 17.5t-20.5 15l-9 8q-4 0 -19.5 4t-19.5 4q-29 12 -52.5 25.5t-56.5 13.5q-39 0 -62.5 -22.5 t-38 -53.5t-23.5 -65.5t-19 -59.5q-2 -2 -8.5 -13.5t-12.5 -23.5t-11 -22.5t-7 -12.5q-27 -59 -49.5 -118.5t-50.5 -116.5q-25 -57 -44.5 -115.5t-54.5 -112.5q-2 -4 -13 -18t-13 -18q-2 -2 -4.5 -21.5t-6.5 -23.5q0 -2 -4 -12.5t-4 -14.5q-20 -53 -39.5 -109.5 t-44.5 -107.5q0 -2 -7 -13.5t-7 -13.5q-4 -6 -7 -20.5t-3 -16.5q-8 -12 -23.5 -43.5t-33 -66.5t-33 -64.5t-21.5 -42.5q-18 -41 -30.5 -82t-12.5 -88zM463 92q25 0 47 -5t45 -5q16 0 37.5 6t25.5 23q8 23 11.5 45t11.5 45q4 6 15.5 26.5t15.5 28.5q2 2 9 11t7 12q2 6 7 24.5 t5 22.5t3.5 13t5.5 13q0 4 7 23.5t11 21.5q2 8 11.5 36t19.5 58.5t19 56t11 32.5q2 4 9.5 17t15.5 28.5t14.5 29t8.5 17.5q0 2 4 13t8 25.5t8 26t4 15.5q2 4 14.5 18t14.5 18q0 2 4 11.5t9 20.5t9 20.5t7 11.5q2 4 12 27.5t14 27.5q4 6 10.5 23.5t6.5 21.5v43 q4 35 23.5 59.5t33.5 53.5q0 4 8 23.5t17.5 43t16.5 44t9 24.5t13.5 21.5t13.5 21.5q29 51 45 111.5t28 118.5q2 2 5.5 12t6.5 22.5t6 22.5t3 12v23q0 45 -34 57t-75 12h-20q-12 0 -34.5 -2t-44 -4t-38 -3t-18.5 -1t-13.5 -3t-25 -8t-25.5 -10.5t-18 -7.5q-2 0 -17.5 -6 t-17.5 -8q-4 -2 -13.5 -6t-20.5 -8t-20.5 -8.5t-11.5 -6.5l-63 -63q-20 -23 -48 -55.5t-28 -69.5q0 -29 20.5 -53.5t20.5 -53.5l-2 -2q-2 0 -2 -2q0 -6 -2 -18t-4 -25.5t-5 -24.5t-3 -16q-4 -10 -16.5 -31.5t-28.5 -21.5h-111q-10 0 -24.5 9.5t-26.5 22.5t-21.5 26.5 t-9.5 21.5v12q2 12 5 34t6 45.5t6.5 42t3.5 22.5q2 25 17 43t26 39q4 10 15 25.5t13 19.5q4 2 5 5t6 5q41 35 79.5 70.5t92.5 64.5l14 7t21.5 11.5t21.5 11.5t16 7q2 2 11.5 5t13.5 3q2 0 9 6t11 6q2 0 9.5 -1t15.5 -1t8 2q6 0 29.5 6.5t27.5 8.5q29 8 58 8q31 0 57 4 q4 0 17.5 1t29 3t29.5 3t18 1q6 0 35 1t60.5 3t59.5 3t34 1q2 0 13 1t23.5 2.5t22.5 2.5t14 1h5h4q80 -6 158.5 -5.5t156.5 -9.5q2 0 10.5 -4t12.5 -4q2 -2 24.5 -5t24.5 -7q41 -10 82 -36t73 -44q4 0 10.5 -4t8.5 -4q37 -16 55.5 -39t44.5 -51q2 -4 11.5 -13.5t20.5 -19.5 t20.5 -20.5t11.5 -12.5q37 -45 63.5 -103.5t43 -121t23.5 -127t7 -121.5q0 -2 -1 -3t-1 -5v-8q0 -2 -3 -12.5t-6 -23t-6.5 -23.5t-5.5 -13q0 -6 -1 -26.5t-1 -45.5t-1 -46t-3 -28q0 -4 -6 -22t-13 -39.5t-15.5 -42t-12.5 -31.5q-33 -84 -91 -170t-116 -157 q-18 -23 -42.5 -38.5t-49.5 -31.5q-6 -8 -20.5 -23.5t-32 -33l-32.5 -32.5t-21 -24q-4 -2 -18.5 -8t-18.5 -8t-21.5 -8t-37 -13.5t-38 -14.5t-22.5 -9q-4 0 -14.5 -6t-21.5 -12.5t-22.5 -12.5t-13.5 -6h-12t-20.5 -1t-19.5 -2t-11 -1q-10 0 -35 -4t-52.5 -9t-51 -11.5 t-33.5 -8.5q-16 -6 -33 -6q-16 0 -31 -2q-4 0 -23.5 -2t-21.5 -2q-6 -2 -33 -2h-32q-2 -2 -16.5 -7t-18.5 -5h-14h-15q-86 14 -168 17t-174 3h-43t-53.5 -1t-46.5 -1h-21q-6 0 -26.5 -2t-45 -5t-46 -6t-27.5 -5h-12q-4 0 -14.5 1t-10.5 11v59q4 2 6 4t6 11q23 16 48.5 20 t58.5 4z" />
<glyph unicode="E" horiz-adv-x="1708" d="M410 10q-23 0 -45.5 -2t-47.5 -2q-47 -6 -92 -6h-20q-14 0 -29.5 3t-21.5 13q-4 10 -9.5 25.5t-5.5 19.5t8.5 14.5t12.5 14.5q4 2 10 2q12 0 18 2q2 0 5.5 1t17.5 1h43h82q20 16 28.5 37t12.5 43q4 10 6 20.5t6 16.5q2 0 3 2t7 16q4 8 13.5 33t13.5 31v2q18 33 23 76 q4 14 6 28.5t8 30.5l2 2l2 2q0 2 4 4q18 47 31.5 92.5t23.5 90.5q0 2 1 11t2 19.5t3.5 19.5t4.5 13q4 10 7 20.5t7 20.5t7 16.5t5 16.5q2 4 4 12q4 14 6 33q0 4 3.5 9t5.5 7q2 8 11 38t20.5 63.5t20.5 62.5t13 37l15 45q6 18 11 38.5t7 51.5q4 0 11 7t9 12q10 20 18.5 43.5 t16.5 46.5q4 16 9.5 31.5t9.5 31.5q6 18 15 39t19 41q20 49 39 101.5t19 105.5v18q0 10 -2 22.5t-10 18.5q-10 0 -33 3t-48.5 6.5t-49 5.5t-33.5 4q-8 0 -23.5 3t-30 9t-25.5 14.5t-11 20.5l2 14q4 8 17 21.5t17 13.5t12.5 -3t12.5 -5q8 -2 12 -2h162q29 0 59.5 -3t59.5 -5 q33 -4 64.5 -7.5t66.5 -3.5h29q12 0 22 4q12 2 22.5 4.5t20.5 2.5q14 0 25.5 -2.5t15.5 -4.5q12 -4 25 -4h26q4 0 6.5 1t16.5 5q4 2 13 3.5t52 3.5q4 0 13 4q4 2 8 2h8q8 0 23 2q33 2 79 5t70 3h27q20 0 59 -3t72 -5q16 -2 26 -2h15l20 -4q12 -2 25.5 -3t9.5 -1q4 0 8 2 q8 2 19.5 4t13.5 2q14 0 33.5 -2t36 -9.5t29 -18.5t12.5 -30q0 -43 -8.5 -94t-18.5 -94q-2 -2 -2 -6q-2 -4 -4 -8.5t-4 -8.5q0 -4 -1 -20t-3 -33q-2 -20 -3 -36.5t-1 -24.5q0 -6 -2.5 -20.5t-5.5 -29t-10 -25.5t-17 -11q-12 0 -19.5 12t-12.5 29.5t-8 36t-3 30.5v4 q-2 8 -3 16.5t-3 14.5q-6 41 -17.5 79t-30.5 71q-4 4 -12 19t-8 19q-8 14 -43 24.5t-49 10.5q-66 10 -115 11.5t-115 1.5h-26h-33q-14 0 -26.5 -1t-14.5 -4q-2 0 -11 -1t-21.5 -3t-25 -3t-18.5 -3l-16 -4t-6 -2q-6 -2 -22.5 -3t-35 -2t-35 -2t-22.5 -1l-22 -64 q-14 -29 -25 -65q-4 -4 -5 -15.5t-5 -21.5q-4 -23 -8 -33t-12.5 -19t-6.5 -11q-18 -49 -26 -97l-19 -59q-16 -47 -35 -86q-23 -47 -39 -92t-16 -97v-43q4 -4 20.5 -10t26.5 -6l23 4q6 0 13 1t17 1q2 0 9.5 -1t17.5 -1q10 -2 20.5 -3t28.5 -1q23 -2 51.5 -3t44.5 -1h23 q16 0 37 2q18 0 33.5 1t23.5 1q8 2 24.5 4t20.5 2h45q4 2 14.5 17.5t12.5 19.5q6 6 8 7t6 5t9.5 7.5t7.5 5.5q4 6 11 20t7 21l4 26q2 8 2 19q0 10 0 6q2 4 6 8q8 8 13 14q4 6 8 14.5t6 12.5q4 8 4 16q6 23 17.5 44.5t39.5 21.5q10 0 19.5 -8.5t19.5 -18.5l4 -39 q0 -39 -19.5 -94t-35.5 -94l-4 -10q-4 -12 -4 -17q-2 -6 -3 -11t-3 -17l-4 -17q0 -2 -5.5 -10t-9.5 -17.5t-8 -17.5t-4 -10q-4 -6 -5 -29.5t-5 -36.5l-8 -14q-4 -53 -11.5 -88t-17.5 -76q0 -8 -2 -17t-6 -20l-4 -26q-4 -23 -13.5 -42.5t-38.5 -19.5q-20 0 -35.5 9.5 t-15.5 33.5l8 19q6 23 8.5 45t2.5 47l-2 153q-27 12 -53.5 15.5t-53.5 5.5q-25 2 -49.5 3t-50.5 11h-279q-4 0 -20.5 -4t-18.5 -14l-4 -27q-4 -12 -5 -22.5t-1 -14.5q-6 -10 -18 -53q-6 -18 -13.5 -36.5t-13.5 -28.5q-2 -4 -6 -11.5t-8 -15.5q-4 -10 -8.5 -17.5t-4.5 -9.5 q-10 -23 -16 -49t-12 -53q-2 -8 -4 -17.5t-4 -17.5q-6 -23 -15.5 -45t-17.5 -45q-18 -49 -33.5 -97t-15.5 -102q0 -10 2 -24.5t16 -20.5q0 -2 23.5 -6t33.5 -4h252q41 10 83 12t83 2q29 0 60 -12q12 -4 27.5 -8t31.5 -4h35q4 2 21.5 9t21.5 9h117q27 8 46 23.5t37 34.5 q8 6 14.5 12t14.5 10q0 4 11.5 10.5t15.5 10.5t14 16t14 16q0 2 4.5 11.5t8.5 18.5t7 17.5t5 10.5q14 18 30.5 39.5t33.5 44.5q4 6 9 11t9 13q-2 -2 3 5.5t9 15.5l6 4l13 12h4h2q2 -2 6 -2q0 -2 1 -7t1 -15q4 -16 4 -21v-6q0 -23 -4 -41t-10 -39q-4 -10 -6 -24.5t-7 -26.5 v-35q0 -4 -2 -18.5t-5 -30.5t-6 -30.5t-5 -18.5q0 -4 -1 -8.5t-1 -8.5q-4 -35 -15.5 -65.5t-50.5 -34.5q-12 0 -41.5 1t-64.5 1q-33 0 -62.5 -1t-41.5 -1q-4 0 -15.5 -1t-25.5 -3t-27 -2h-14t-18.5 1t-32 2t-34 2t-24.5 1q-2 0 -13.5 3t-15.5 7q-12 0 -23 -2t-22 -6 q-12 -4 -22 -6t-21 -2q-35 -6 -59.5 -9t-52.5 -3h-23q-8 2 -40 5t-68.5 6t-68.5 5t-40 2h-154q-6 0 -31.5 1t-55 2t-54 3t-31.5 4h-34z" />
<glyph unicode="F" horiz-adv-x="1449" d="M117 27q0 12 10 22t23.5 18.5t29 12.5t25.5 4h119q16 2 31.5 18.5t21.5 24.5q2 6 8 22.5t14.5 36t14.5 37t10 23.5q0 4 12.5 26.5t12.5 26.5v27q6 47 25.5 86t29.5 86t18 96t27 94l4 4l4 4q27 33 31 55.5t14 61.5q2 2 6 13.5t9.5 23.5t9.5 22.5t4 14.5q0 2 3 15t7 18 q12 72 36.5 134t43.5 132q0 2 4 20.5t4 24.5q0 2 4 12t8 22.5t9.5 22.5t5.5 15q2 2 3 11t3 19t3 20.5t1 12.5q0 4 12.5 22.5t12.5 20.5q4 4 7 23.5t5 21.5q0 2 4 10.5t8 17.5t9 17t5 10q6 16 13.5 49t11.5 50q0 4 2 11t4 15l4 17q0 14 -13 22t-30.5 11.5t-36 4.5t-28.5 1 q-4 0 -8.5 -1t-8.5 -1h-10q-2 0 -11 -1t-19.5 -2.5t-20.5 -2.5t-12 -1q-12 0 -30 1t-32 7.5t-24.5 16.5t-10.5 29q0 12 10.5 20t24.5 11t29.5 4.5t23.5 1.5q16 0 30.5 -1.5t33.5 -9.5l395 4l37 4h231q47 -2 90.5 9.5t90.5 11.5h55q39 0 70.5 -6t72.5 -6h58q4 0 19 5t20 7h4 h2q4 -2 14 -9t16 -9q0 -2 3.5 -5.5t3.5 -5.5q2 -4 2 -26v-25v-35q0 -20 -2 -24q0 -4 -2.5 -17.5t-5.5 -31t-6 -34t-5 -24.5q-8 -41 -19.5 -89t-27.5 -89q0 -8 -6 -8h-4h-6q-16 0 -29 24q-6 14 -6 21v20v13q-2 2 -2 4t-1 3t-1 3l-4 8q0 2 -1 11.5t-3 20.5t-3.5 19t-1.5 11 q-4 4 -11 19t-7 19q-2 0 -6 13l-4 12q0 6 -4 29.5t-6 27.5q-10 14 -27.5 27.5t-36.5 17.5q-41 4 -91 6.5t-95 2.5q-4 0 -9.5 -1t-9.5 -1h-10q-2 0 -12 -1t-22.5 -2.5t-24 -2.5t-13.5 -1q-12 -2 -43.5 -3t-66.5 -1t-65.5 1t-43.5 3q-29 -10 -34 -33.5t-19 -48.5q-2 -4 -8 -13 t-10 -13q-10 -23 -15.5 -39t-19.5 -35q0 -8 -4 -26.5t-9.5 -40t-9.5 -41t-6 -25.5q0 -2 -3 -13.5t-8 -23.5t-9.5 -23.5t-4.5 -13.5q-10 -20 -16 -40.5t-12 -39.5q-4 -25 -6 -39t-11 -34q0 -2 -5 -10.5t-9 -17.5t-9 -16.5t-5 -9.5q-2 -6 -4 -23.5t-13 -21.5v-92q0 -2 6.5 -4 t10.5 -4h28q66 0 123.5 8t118.5 19q61 10 116.5 17t110.5 38q12 8 17.5 25.5t9.5 27.5q10 25 16.5 57.5t16.5 62.5t29.5 50.5t56.5 20.5q10 0 20.5 -2t14.5 -17q0 -4 1 -20.5t1 -20.5q0 -35 -12.5 -65.5t-16.5 -65.5q0 -4 -2 -14t-3 -22.5t-3 -23.5t-2 -14l-4 -8 q-2 -2 -2 -4l-2 -2l-2 -2q-29 -72 -41 -156q-4 -2 -6.5 -11t-6.5 -11q-2 -4 -10 -19.5t-8 -19.5q0 -2 -1 -15.5t-3 -28.5t-3 -28.5t-1 -15.5q-4 -23 -12.5 -33t-14.5 -33q-2 -4 -6 -22.5t-4 -22.5q-2 -6 -4 -20t-4 -17q-2 -4 -16.5 -17t-18.5 -17h-13q-35 0 -34 30 q0 47 4 93.5t12 93.5q4 14 13.5 26.5t9.5 28.5q0 8 -2 8q-31 47 -80 55.5t-101 8.5q-47 0 -88 -6.5t-88 -6.5q-45 0 -87 6.5t-85 6.5q-18 0 -24.5 -11.5t-10.5 -27t-7 -31.5t-15 -24q0 -78 -22.5 -154t-51.5 -150q-2 -6 -8 -26.5t-10 -28.5q-10 -35 -21.5 -68.5t-23.5 -68.5 q-2 -2 -13.5 -24.5t-11.5 -26.5q-4 -2 -5 -24.5t-1 -35.5q0 -4 1 -21.5t5 -17.5l8 -12h33h57q4 0 18.5 2t31 4t31 4t18.5 2q20 0 37.5 -17t17.5 -40q0 -14 -16.5 -23.5t-28.5 -11.5q-8 -2 -31.5 -6t-32.5 -4q-18 2 -65 2h-98h-99q-45 0 -63 -2q-84 0 -172 -16q-4 0 -17.5 -2 t-29 -5.5t-28.5 -6.5t-15 -5h-4q-8 0 -21.5 5t-26 14.5t-20.5 21t-8 21.5z" />
<glyph unicode="G" horiz-adv-x="1595" d="M391 387q-2 10 -7 32.5t-10 50.5t-10.5 54.5t-7.5 44.5q-2 6 -3 12.5t-1 16.5q0 84 6.5 156.5t22.5 150.5q0 2 1 10.5t2 19.5t3 20.5t4 11.5q0 6 5 19t10.5 28.5t10.5 31t9 21.5q8 27 24.5 65.5t28.5 61.5q0 4 10 10q2 4 7.5 13.5t9.5 15.5q2 2 8 15.5t14.5 28.5 t14.5 28.5t10 17.5l4 4q2 2 3 4t5 6q8 10 16.5 21.5t10.5 13.5q35 41 69.5 74t69.5 61.5t73 54t79 54.5q-2 0 8 6t27 16q2 4 12 10.5t12 6.5q106 53 206.5 78.5t217.5 25.5q43 0 80 -2t70.5 -8t65.5 -18.5t69 -32.5q8 -6 31.5 -20.5t46.5 -28.5q14 -12 30 -21l15 -16 q10 -10 31.5 -28.5t25.5 -18.5h29l71 57h11q16 0 19 -11.5t3 -21.5v-14v-19q-2 -4 -2 -10v-4q-8 -20 -31 -65q-12 -25 -23.5 -48.5t-15.5 -33.5q-2 -4 -8 -18.5t-10 -30.5q-10 -20 -10 -31l-11 -39q-6 -29 -17 -55.5t-28 -49.5v-2q-2 -4 -5 -7t-19 -17q-20 -23 -41 -23 q-18 0 -29 23q0 8 5 18.5t10 24.5q8 16 14 33.5t6 40.5q0 53 -19.5 103t-43.5 93q-4 8 -11.5 22.5t-14.5 29t-12.5 23.5t-7.5 9q-2 4 -10 14.5t-18 19.5t-20.5 17.5t-14.5 8.5q-4 4 -21.5 11t-29.5 11h-2q0 2 -2 2q-4 0 -13.5 5t-23.5 11q-16 10 -33.5 18.5t-21.5 10.5 q-49 4 -60.5 5t-28.5 1q0 2 -4 2h-6q-12 0 -12 -2q-47 -6 -85 -18t-72 -29.5t-65.5 -41t-68.5 -54.5q-10 -10 -18.5 -15.5t-18.5 -13.5q-16 -10 -31.5 -23.5t-29.5 -29.5q-37 -45 -68 -98.5t-59 -112.5q-4 -10 -11.5 -20.5t-15.5 -20.5q-6 -8 -13 -17t-15 -24 q0 -4 -5.5 -16.5t-9.5 -28.5q-10 -23 -18 -44t-15 -30q-2 -4 -5 -15t-5 -19q-10 -37 -33 -74q-2 -8 -7 -30.5t-9 -47.5t-8 -46.5t-4 -29.5v-71q0 -23 -3 -44.5t-8 -44.5q-4 -23 -6 -47t-2 -47t1 -36t7 -33q4 -10 12.5 -23.5t8.5 -15.5q0 -6 1 -17.5t3 -23.5t3 -21.5t1 -13.5 l10 -29q0 -2 2.5 -3t4.5 -5q4 -4 10 -6q2 -4 10 -19.5t8 -19.5q20 -31 50 -54.5t64 -38.5t70.5 -24.5t71.5 -15.5q2 -2 6 -2q2 -2 13 -2q53 0 91 17.5t79 49.5l12 15h2q43 66 79 137.5t66 146.5q4 12 11.5 35t15.5 46.5t13 46t5 34.5q0 29 -23.5 36t-53.5 11 q-29 4 -53.5 11.5t-24.5 33.5v9q0 14 8 18q6 0 23.5 2t36 3t35 2t22.5 1h32q47 0 96.5 -4t96.5 -10h20q6 -2 21.5 -4t32 -4l33 -4t22.5 -2h57q4 0 11 -3q12 -4 20 -6l23 -6q0 -2 4 -2q2 0 2 -2q6 -4 9 -5t3 -7q0 -16 -15.5 -25.5t-31.5 -9.5q-16 -4 -57 -4q-39 0 -60 4 q-2 -2 -5 -3t-5 -3q-6 -2 -10 -6l-8 -8q0 2 -1.5 -4.5t-1.5 -8.5q-8 -27 -23 -68.5t-22 -56.5q0 2 -2 -6t-6 -14l-8 -17q0 -6 -2 -16q-2 -8 -4 -18.5t-2 -8.5q-2 -6 -13.5 -29.5t-24.5 -50t-24.5 -49t-15.5 -28.5q-4 -10 -14.5 -37t-18.5 -49q-2 -10 -4 -15.5t-6 -15.5 q0 -16 13.5 -24.5t29.5 -12.5q14 -4 25.5 -11t11.5 -24q0 -10 -2 -15t-12 -9q-4 -4 -11.5 -8.5l-17.5 -10.5l-43 -20q-4 0 -13.5 -1t-19.5 -2t-19.5 -2t-11.5 -1q-4 0 -21.5 -4.5t-37.5 -9.5t-36.5 -9t-20.5 -6q-45 -6 -84 -7t-86 -1h-25q-104 0 -200.5 26.5t-179.5 76.5 t-148.5 124t-108.5 168z" />
<glyph unicode="H" horiz-adv-x="2084" d="M135 33q0 47 24.5 56t67.5 13h111q23 0 32 20.5t13 43.5q4 16 6 20q2 2 9.5 12.5t7.5 12.5q2 2 9 24.5t11 32.5q2 2 5 16.5t7 31t7.5 30.5t3.5 19q2 4 8 21t12 36q6 16 11 32.5t9 20.5q2 4 5.5 15.5t9.5 27.5q4 16 10 39t11 42t8.5 30.5t1.5 9.5q0 4 4 13.5t20 31.5 q2 0 4 10.5t4 16.5v2q2 0 2 2q16 66 31.5 134.5t40.5 141.5q2 4 8 10q6 18 11.5 43t9.5 50q4 16 6 28.5t6 22.5l4 12q16 49 32.5 101.5t29.5 103.5q10 4 11 11t5 16q4 8 6 14q0 2 8 30.5t17 41.5q0 6 4 25.5t8 37.5q2 10 3 19.5t1 5.5q2 6 5 10t5 10q4 10 7 21.5t3 27.5v17 q-2 4 -13 12t-19 8h-152q-2 0 -15.5 6t-19.5 13q-12 6 -14 20t-2 27q0 29 25.5 46t52.5 17h8q4 0 12 -4t19 -8q12 -4 16 -4q4 -2 8 -2q8 -2 45 -4t72 -4q10 0 19.5 -1.5t19.5 -1.5h281q2 0 12 1.5t22 3.5q10 2 24.5 4t12.5 2h15q16 -2 43.5 -5t29.5 -6q2 0 19.5 -14 t17.5 -24q0 -25 -23.5 -38.5t-48.5 -13.5q-4 0 -18 1t-30.5 2t-32 3.5t-19.5 2.5h-12q-20 0 -44 -16.5t-38 -37.5h-2l-2 -2q0 -4 -4 -8q-23 -53 -38.5 -102t-29.5 -101q-4 -10 -7 -19t-7 -20q0 -2 -3 -7t-7 -7q-16 -29 -27.5 -58.5t-20.5 -62.5q-4 -20 -10 -38.5t-12 -37.5 q-2 -10 -7 -18t-9 -18q-10 -29 -21.5 -55.5t-11.5 -55.5q0 -27 19.5 -43t45.5 -16l21 2q16 4 37 4q10 0 44.5 -1t71.5 -3t66 -2h35h14q12 0 27 2q14 2 27.5 3t25.5 1q6 0 13 1t11 1t14.5 -1t22.5 -1q4 0 17.5 -1t27.5 -3t27 -2h18q12 -2 23 -2h23q29 -2 53 -4.5t57 -12.5 l146 6l20 21q14 23 21.5 43t11.5 43q4 12 3 17t9 24q0 4 10 10q4 14 7.5 33.5t7.5 36.5q4 12 3 18t7 29q4 6 11 19.5t7 21.5l4 18q2 4 3 8t4 9q0 4 5 24.5t15 30.5q4 6 9 11t5 3q0 2 2 4l5 13q0 4 2 10t2 10t2 17.5t6 29.5q2 27 10 45q0 4 5 14.5t9 22.5q10 16 16.5 33.5 t6.5 27.5t-2 15.5t-6 13.5q-12 23 -27.5 33t-32.5 10q-10 0 -20 3t-27 14q-6 -2 -24 -2h-39h-39q-16 0 -25 2q-18 0 -29.5 14t-11.5 31q0 8 1 16t7 12q8 4 35 10.5t37 8.5h10q41 0 80 -3t78 -8q39 -2 76 -5t76 -3h30l19 4q4 2 14 3t8 1q31 0 49 -10q14 0 37 1t45.5 2t40.5 1 h27q6 0 20.5 -1t31 -2t30.5 -3t20 -2q14 -6 27.5 -14t13.5 -23q0 -23 -18.5 -40t-40.5 -17q-14 0 -30.5 4t-31.5 6q-16 4 -32.5 7t-34.5 3q-51 0 -70 -18q-4 -8 -8 -20.5t-8 -26.5t-7 -22.5t-3 -12.5l-17 -18q0 -4 -3 -16.5t-6 -26t-6 -26.5t-5 -17l-6 -19q2 -2 -5.5 -20.5 t-13.5 -34.5q-10 -25 -24 -55q0 -4 -6.5 -13.5t-6.5 -11.5q-4 -4 -8 -12q-2 -4 -2 -6q0 -10 -6 -48q-2 -16 -3 -28t-3 -17q-4 -10 -5 -12t-1 -4q-4 -6 -7.5 -17.5t-7.5 -21.5q-4 -20 -4 -18q0 -6 -4 -27q-2 -6 -2 -12q0 -2 -2 -4q-4 -4 -15.5 -23.5t-13.5 -23.5t-4 -26 t-2 -26q-4 -2 -5 -3l-7 -7q-2 -4 -4 -12q-4 -16 -6 -17q-4 -10 -9.5 -19t-11.5 -19q-4 -8 -8 -15.5t-6 -15.5t-8 -34t-8 -30q-10 -25 -15.5 -53.5t-9.5 -56.5q-4 -18 -6 -38t-6 -36q-4 -12 -10.5 -23.5t-12.5 -23.5q-6 -10 -13 -22.5t-11 -22.5q-6 -10 -13 -49l-6 -23 q-8 -37 -18.5 -73.5t-22.5 -75.5h2q-2 0 -4 -2l-10 -11q0 -2 -2 -6t-2 -6t-2 -6t-2 -6l-2 -49q0 -12 -4.5 -23.5t-8.5 -21.5q-12 -23 -12 -50v-14q0 -8 1 -15t11 -7h41h37q2 -2 5 -3.5l7 -3.5t9 -2q20 -4 28 -4q23 -2 37.5 -7t14.5 -40v-14q0 -12 -9 -19q-8 -4 -28.5 -10 t-30.5 -6q-4 0 -10 -1t-11 -1q-43 0 -77 8q-41 10 -80 10h-31q-6 -2 -29.5 -4t-50 -5t-49.5 -5t-27 -2h-10l-16 2q-16 4 -21 4h-6q-18 0 -36.5 -2t-39.5 -4q-20 -4 -38.5 -7t-38.5 -3q-16 0 -36 4t-26 20q-2 6 -5 23.5t-3 21.5q2 10 15.5 16.5t23.5 8.5q0 -2 15.5 -3 t23.5 -3q10 -4 20 -4h25q29 0 65.5 6t55.5 29q35 45 54 97t30 105q4 16 8 31.5t10 34.5q0 2 2 7t6 7q6 23 13.5 45.5t11.5 48.5q6 18 9 37t11 41q6 20 15.5 41t19.5 43q16 39 31.5 76t15.5 72v18q0 10 -3 17.5t-17 11.5h-51q-14 0 -31 -1t-29 -9h-153q-14 8 -21.5 9t-21.5 1 t-27.5 -1t-28.5 -3q-29 -6 -55 -6q-63 0 -121 6q-31 2 -60.5 3t-60.5 1h-116q-10 -2 -40 -8.5t-40 -8.5l-29 -30h-2q-2 -4 -8 -17.5t-13.5 -28t-14.5 -26.5t-9 -18q-14 -29 -20.5 -61t-14.5 -62q-4 -18 -10 -35t-10 -33q-2 -6 -8.5 -30.5t-8.5 -30.5q-2 0 -6 -7.5t-8 -15.5 l-8 -16t-4 -10q-4 -8 -9 -33q-4 -20 -9 -34.5t-13 -31.5q-2 -4 -6 -17.5t-7.5 -28.5t-6.5 -28.5t-3 -17.5q0 -2 -1 -5t-1 -9q-2 -6 -2 -15v-12v-8t2 -14q0 -10 4 -23q2 -2 17.5 -10t19.5 -8h99q2 0 12 -1t21.5 -2.5t22.5 -3.5t15 -2q2 -2 6 -2q4 -2 15 -2q10 -2 14 -6 q6 -2 18.5 -14t18.5 -17v-10q-27 -47 -70 -59t-92 -12h-10q-4 0 -10 2q-2 0 -4 2q0 2 -20.5 7t-29.5 9l-71 2h-9q-6 0 -12 2l-22 4h-15q-12 2 -33.5 3t-31.5 1q-53 0 -107.5 -5t-103.5 -15q-4 0 -10 -2l-19 -6q-27 -10 -37 -11h-32q-6 4 -31 16.5t-29 16.5v27z" />
<glyph unicode="I" horiz-adv-x="935" d="M92 43q0 23 10.5 40t38.5 17q0 -4 15 -8q16 -12 30 -12q10 4 23.5 5t28.5 3q29 4 54 8t42 21q8 10 9 15t5 26q0 20 4 24q2 2 7.5 15.5t10.5 29t10 29.5t7 18q2 2 4 14.5t4 22.5q2 6 2 15q0 2 6.5 13t10.5 13q16 35 28.5 69t24.5 68q8 23 14 41.5t15 40.5q0 2 5 10.5 t9 19.5t9 20.5t5 11.5q16 49 31.5 95t30.5 95q4 10 9 23.5t11 23.5q4 8 8 16.5t9 18.5q2 4 7 23.5t15 42.5q6 25 13.5 44t9.5 25q10 29 23.5 59.5t23.5 61.5q33 74 61 148q2 4 7 21.5t11.5 38t11.5 37.5t5 21q0 2 8 20.5t17 37.5q4 14 8 23.5t4 11.5l4 16q2 6 5 14.5 t17 26.5l21 31v20q0 14 -3 24.5t-7 28.5l-19 2q-4 0 -15 -4t-15 -6q-20 -2 -40 -3t-40 -1q-25 0 -49.5 1t-49.5 3q-4 0 -18 8.5t-18 12.5q-4 10 -5 12v10v8q6 10 8.5 20.5t8.5 16.5q14 8 26.5 9.5t28.5 1.5q33 0 65.5 -3.5t67.5 -7.5q33 -4 67 -7t68 -3q25 0 48.5 4t50.5 6 q51 10 96 11q0 -2 9 -3.5t16 -3.5q6 -4 22 -4q23 0 45.5 2t42.5 6q23 4 46.5 7.5t45.5 3.5q12 0 33 -13.5t21 -29.5q0 -20 -27 -35.5t-43 -18.5q-2 0 -19.5 -1t-41 -3t-49 -4t-44.5 -2q-2 2 -14 6t-23 4q-8 0 -19 -14t-22.5 -32.5t-20.5 -37t-11 -26.5q-2 -4 -7.5 -19.5 t-11.5 -34t-11 -34t-5 -19.5q-2 -4 -9 -17t-15.5 -28.5t-14.5 -29t-6 -15.5q0 -4 -2 -8q-4 -8 -4 -12q-4 -12 -6 -19q0 -10 -6.5 -29.5t-8.5 -21.5q-4 -6 -15 -28.5t-15 -26.5q0 -4 -1.5 -14.5t-5.5 -32.5q-2 -6 -8 -23.5t-10 -27.5l-8 -17q-6 -14 -12.5 -25.5t-6.5 -13.5 q0 -4 -3 -17t-6 -28.5t-6 -29t-3 -17.5q-4 -23 -16.5 -52.5t-38.5 -92.5q-10 -33 -23.5 -66t-26.5 -61q-2 -2 -8 -13.5t-13 -24.5t-13.5 -25.5t-6.5 -16.5q-4 -4 -8 -26.5t-12 -45.5q-4 -25 -9 -47t-7 -27q-4 -14 -9.5 -27.5t-11.5 -25.5q-18 -27 -22 -51v-23 q-6 -23 -15.5 -42t-19.5 -42q-14 -35 -26.5 -68.5t-12.5 -70.5v-31q16 -2 28.5 -5t28.5 -7l36 -9t36 -5q4 2 14 4q6 2 14.5 4t6.5 2h10q16 0 38.5 -15.5t22.5 -35.5q-2 0 -4 -4t-4 -6q-4 -2 -9 -5.5t-11 -7.5q-4 -4 -11.5 -9t-5.5 -3h-55q-23 0 -47.5 1t-50.5 1 q-25 2 -48.5 4t-50.5 2q-47 0 -95 -4t-97 -8q-47 -4 -96 -10t-101 -6h-6q-8 4 -24.5 20t-18.5 25v14z" />
<glyph unicode="J" horiz-adv-x="1492" d="M18 -461q0 51 38 84t87 33q35 0 57.5 -25.5t37.5 -58.5q0 -6 1 -12t1 -13q0 -10 -1 -19t-3 -22q-2 -10 -3 -18v-16v-21q0 -10 3 -14q0 -4 4 -22.5t14 -22.5h41q57 0 111.5 19.5t102.5 52t91 72.5t80 81q0 12 6 18q4 4 15.5 19.5t15.5 19.5q2 2 8 15.5t13 29t13.5 28.5 l8.5 17q4 4 17.5 28t21.5 34q43 78 81 155.5t68 161.5q2 2 6 13.5t8.5 26t8.5 26.5t6 16q2 2 8 15.5t14.5 29t14.5 28.5t8 17q14 33 23.5 72t29.5 74q4 2 8 6l11 10q4 6 12 28.5t15 50.5t12.5 52.5t5.5 32.5q0 25 -26 34t-46 9h-193q-6 4 -10 10q-8 8 -12 17q-2 2 -6 11 t-8 15v6q0 27 16 37.5t41 20.5h4q55 0 96 -13.5t90 -13.5q20 0 50 4t47 15q8 2 16 16t16.5 31.5t13.5 35t9 25.5q16 41 31.5 90t31.5 90q2 4 14.5 22.5t14.5 24.5q0 2 4 16.5t4 18.5q8 23 22.5 48.5t14.5 48.5v4l-4 4q-4 4 -6 4h-33q-27 0 -53.5 -5t-54.5 -5q-31 0 -71 13 t-80 33.5t-75.5 46t-56.5 52.5q-2 2 -9 17.5t-9 17.5q-10 14 -38 17t-46 14q-14 4 -41 19t-37 26q-8 6 -17.5 16t-19.5 20.5t-21.5 17.5t-21.5 7h-100q-4 0 -17.5 -14.5t-17.5 -22.5q-16 -16 -38 -40.5t-22 -49.5q0 -27 25 -38t54.5 -24.5t54 -36t24.5 -69.5 q0 -51 -30.5 -82t-84.5 -31q-45 0 -79.5 35t-51.5 74q-8 23 -9 47.5t-1 46.5q0 84 43 163t115 122q18 12 49 25.5t64.5 24.5t65.5 17.5t52 6.5h23q82 -10 135 -46t96 -108q12 -18 23.5 -42t25 -45.5t29.5 -39.5t39 -29q8 -2 27.5 -6t41 -9t41 -11t27.5 -8q4 0 18.5 -9.5 t16.5 -9.5q4 0 17.5 9.5t17.5 9.5t13 2t20.5 3t20.5 3t11 2q31 10 50.5 29.5t33 44t24.5 52t27 54.5q23 35 53.5 52.5t55.5 45.5h41q47 0 87 -7t71 -46q0 -4 3 -10t3 -8q4 -6 5 -25.5t1 -26.5q0 -35 -6 -51t-25 -45q-20 -31 -40.5 -39t-42 -10t-43 -5t-46.5 -24 q-27 -23 -43 -50t-37 -58q-4 -4 -6 -11.5t-2 -9.5t-2 -10t-4 -19.5t-3 -20.5t-1 -11q0 -4 -4 -13.5t-8 -13.5q0 -4 -3.5 -10t-3.5 -8t-3 -13.5t-6 -23.5t-5 -22.5t-4 -12.5q-2 -4 -10 -18.5t-8 -20.5q-2 -4 -8.5 -19.5t-14.5 -33.5t-14 -33.5t-8 -19.5t-13.5 -22.5 t-11.5 -22.5q-2 0 -2 -15v-18v-14t2 -17q4 -2 20.5 -8t22.5 -10q14 -6 48 -8t67.5 -8.5t59.5 -19.5t26 -44q0 -20 -15.5 -36.5t-34.5 -16.5h-6q-53 10 -105 18t-106 8q-33 0 -54 -21.5t-34.5 -52t-21.5 -65.5t-15 -59q0 -4 -3 -18.5t-5 -32t-5 -32t-3 -16.5q0 -6 -4 -16 t-4 -14q-2 -2 -8 -10.5t-14.5 -18.5t-15.5 -20.5t-9 -12.5q-16 -27 -25.5 -54.5t-21.5 -53.5q-20 -47 -39 -95.5t-41 -95.5q0 -2 -4 -12t-4 -12q-2 -6 -8.5 -20.5t-10.5 -18.5q-23 -33 -40 -65t-31 -68q-14 -33 -19.5 -51.5t-26.5 -47.5q-4 -4 -20 -24.5t-27 -30.5 q-16 -25 -33.5 -50.5t-39.5 -47.5q-4 -6 -14.5 -17.5t-21.5 -24t-21.5 -22.5t-12.5 -12q-4 -2 -22.5 -12.5t-22.5 -12.5q-2 -2 -13.5 -14t-13.5 -14q-20 -12 -32.5 -15.5t-30.5 -11.5q0 -2 -7.5 -5t-11.5 -5q-53 -33 -107 -43.5t-118 -10.5q-43 0 -96 3.5t-104.5 15.5 t-92.5 40t-59 77q-2 6 -9.5 27.5t-9.5 25.5v12z" />
<glyph unicode="K" horiz-adv-x="1748" d="M1298 0q-23 0 -39 -4t-38 -4q-10 0 -26.5 1t-33 6t-29 13t-12.5 23q0 27 20.5 33t44 11t44 15t20.5 45q0 43 -18.5 94.5t-36.5 92.5q-2 4 -8 13t-6 11q-4 4 -7.5 27.5t-3.5 28.5q-18 70 -46.5 133t-55.5 131q0 2 -4 13t-8 25.5t-7.5 25.5t-5.5 16q0 2 -4 11t-9 19.5 t-9 18.5l-6 12q-4 8 -14.5 29.5t-12.5 27.5q-10 14 -20.5 29.5t-30.5 15.5l-10 -2q-6 -4 -20.5 -12t-16.5 -12q-4 -6 -11.5 -18.5t-14.5 -27t-13 -28.5t-8 -20q-2 -4 -4 -30t-4 -30q-10 -53 -41 -107.5t-50 -103.5q0 -2 -5 -21.5t-5 -21.5q-2 -8 -8 -28.5t-8 -24.5 t-13.5 -27.5t-15.5 -27.5q-2 -2 -8 -23.5t-10 -32.5q-10 -41 -32 -86t-22 -90q0 -16 6.5 -27.5t14.5 -21.5q12 -12 36.5 -18t50.5 -13.5t44 -20.5t16 -44q-10 -4 -22 -6t-27 -2q-16 0 -31.5 2t-29.5 6q-6 0 -11.5 1t-23.5 1t-58 1t-118 3q-10 6 -15.5 7t-15.5 1 q-16 0 -32.5 -4t-30.5 -4q-20 0 -33.5 5t-38.5 5q-18 0 -32.5 -4t-29 -10t-30 -10t-35.5 -4h-23q-16 0 -18 2q-6 0 -20.5 9t-14.5 15q-8 8 -9 16.5t-1 16.5t1 15t9 18q2 6 12.5 11t22.5 10t21.5 8t13.5 3q23 0 45 -4t47 -4q41 0 63.5 14.5t45.5 51.5q4 6 13 26.5t13 24.5 q0 2 1 12.5t3 20.5t4 19t2 12q8 31 15.5 43t21.5 38q20 59 44 119t44 119q10 25 22.5 48.5t22.5 47.5q16 47 31.5 92t32.5 88q16 49 39.5 99.5t42.5 101.5q31 86 62.5 173t72.5 171q23 45 53.5 94.5t30.5 102.5q0 41 -26.5 49t-61.5 8q-10 0 -22.5 -1t-20.5 -1 q-29 0 -45.5 7.5t-16.5 33.5q0 25 21.5 29t38.5 4q29 0 55.5 -6t54.5 -6q18 0 38 6t42 6q49 0 96.5 -6t98.5 -6h16q2 2 17.5 7t17.5 5h70h65q23 -8 35 -18.5t12 -34.5v-13q-6 -6 -18 -6h-119q-20 -4 -54 -15t-44 -32q-39 -70 -59.5 -132t-49.5 -140q-10 -23 -22.5 -48.5 t-22.5 -52.5q-16 -41 -27.5 -75.5t-27.5 -75.5q-2 -2 -8 -16.5t-6 -18.5v-14q0 -10 2 -16.5t12 -6.5q57 0 108 29q4 2 17.5 9t30 16.5t30 17.5t17.5 10q2 2 14 8t20 8q4 2 22.5 9.5t20.5 11.5q4 2 14.5 13.5t12.5 13.5q35 29 76 42t78 35q4 4 23.5 19.5t23.5 17.5 q2 2 14 9.5t19 9.5q4 2 11 9t9 11q4 2 16.5 9.5t24.5 15.5t24.5 16t16.5 12q51 35 102.5 83t77.5 108l2 6q0 16 -8 32.5t-18 24.5q-14 0 -51 2t-52 4q-6 2 -18 3q-12 0 -23.5 3t-20.5 9t-9 18q0 39 27.5 54.5t64.5 15.5h16q14 0 26.5 -2t26.5 -10l359 4l168 -4 q14 0 20 -11.5t6 -23.5v-8q0 -12 -10 -17q-72 -43 -149.5 -70.5t-149.5 -66.5q-43 -25 -90 -53.5t-90 -57.5q-4 -2 -17.5 -11t-17.5 -13q-41 -35 -86 -58.5t-96 -52.5q-2 0 -12.5 -7t-14.5 -9q-4 0 -24.5 -12.5t-24.5 -12.5q-4 -2 -21.5 -14t-19.5 -16q-6 -10 -26.5 -22.5 t-45 -23t-48 -20.5t-36.5 -16q-6 0 -6 -9l-145 -69v-15q0 -29 17.5 -44t17.5 -44v-36q4 -10 10 -37t8 -35q0 -2 5 -10.5t9 -17.5t9.5 -17t5.5 -10t4 -11.5t4 -13.5q16 -55 37.5 -113.5t44.5 -111.5q12 -33 23.5 -50.5t21.5 -48.5q0 -4 4 -28.5t4 -28.5q23 -72 51.5 -139.5 t46.5 -141.5l19 -16l203 -16q2 0 15 -8.5t17 -12.5q10 -4 11.5 -13t1.5 -20q0 -20 -12.5 -30t-32.5 -19h-58q-41 0 -73.5 8.5t-71.5 12.5q-4 0 -29.5 1t-60.5 2t-70 3t-53 2h-17z" />
<glyph unicode="L" horiz-adv-x="1779" d="M1174 6h-19l-8 -1t-17.5 -2t-18.5 -2t-11 -1h-13q-12 0 -28.5 -1t-34.5 -1h-29h-92q-59 0 -118.5 1t-118.5 7q-4 0 -22.5 5t-22.5 5h-48h-51q-4 0 -22.5 -5t-22.5 -5q-78 -2 -155.5 -5t-155.5 -3q-6 0 -28.5 1t-33.5 1q0 -2 -6 2t-8 4q-2 4 -2 10q-2 4 -2 13v2q0 4 2 6 q0 4 2 6q2 6 19.5 20.5t23.5 16.5q4 0 21.5 5t23.5 5q33 4 62.5 5t55.5 7.5t48.5 19.5t40.5 42q4 0 7 16.5t5 18.5q10 31 20.5 63.5t24.5 63.5q0 4 3.5 12t3.5 12q10 31 20 48.5t18 43.5q10 41 18.5 90.5t24.5 90.5q0 4 9.5 18t11.5 18q2 2 5 13.5t7 24t8 22.5t4 14 q2 2 10.5 13.5t10.5 15.5q2 0 5 6t3 8v45q8 31 27.5 59.5t25.5 59.5q0 2 1 14.5t2.5 25.5t3.5 25.5t2 14.5q2 6 13 28.5t15 26.5q0 2 2 11.5t3 19.5t2 20.5t1 12.5q4 6 9 14q8 16 12 21q16 31 19 48t14 52q2 2 6 10t9 17.5t9 16.5t4 9q10 29 20.5 55.5t16.5 53.5q0 2 1 10 t3 17.5t3 18.5t1 11q4 14 13.5 27.5t18.5 27t16.5 28.5t7.5 36q0 16 -5.5 34.5t-19.5 24.5q-4 2 -21.5 4t-25.5 4h-10q-4 0 -18.5 4.5t-16.5 6.5h-111q-12 4 -15 12t-3 18q0 18 17.5 28.5t40 15.5t46 6.5t33.5 1.5q45 0 90 -5.5t90 -5.5q43 0 87 2t85 9q2 0 13.5 3t13.5 3 q63 20 137 20q10 0 27.5 -1t33 -4t27 -9t11.5 -19q0 -2 -4.5 -10t-10.5 -18.5t-12 -18.5t-10 -8q-10 -2 -35 -5t-52.5 -6t-52 -6t-34.5 -3q-10 -2 -33 -12.5t-29 -14.5q0 -2 -4 -9t-4 -9q-2 -6 -6 -19.5t-9 -27t-8.5 -23.5t-5.5 -12q0 -2 -1 -10.5t-2 -17.5t-3 -16.5 t-2 -9.5q0 -8 -13 -31.5t-13 -33.5v-25q-4 -29 -15.5 -54.5t-11.5 -53.5v-13q-4 -4 -10 -17t-13.5 -26.5t-13.5 -25.5t-8 -17q-2 -4 -3 -14t-2 -22.5t-2 -23.5t-1 -13q-10 -35 -22.5 -66t-22.5 -59q-10 -29 -19.5 -72t-19.5 -68q0 -2 -5.5 -12t-11.5 -22.5t-11 -23.5t-5 -13 q-2 -4 -6 -26.5t-8 -28.5q0 -2 -3.5 -9.5t-7.5 -16.5t-8 -17.5t-4 -10.5q-16 -31 -24.5 -63.5t-20.5 -63.5q-2 -2 -9 -15t-14.5 -28.5t-14.5 -29t-7 -17.5q-20 -37 -27.5 -79t-17.5 -83q-8 -27 -16.5 -47t-15.5 -40.5t-11 -43t-4 -51.5v-35l10 -8h88h137q2 0 13.5 1t23.5 3 t23.5 3t13.5 1h6h10q2 0 10.5 -1t19.5 -3t20.5 -3t13.5 -1h98q4 0 19.5 -5t17.5 -5q4 0 13.5 3t11.5 7q150 -8 282.5 34t227.5 165q0 2 3 5l5 5q16 10 25.5 14t19.5 21q16 23 33.5 49.5t46.5 32.5q10 -25 12 -39.5t2 -38.5q0 -35 -11 -66.5t-20 -64.5q0 -2 -1 -9.5t-3 -16.5 t-3 -17t-1 -10q-4 -10 -10 -38t-10 -36q-4 -10 -7.5 -25.5t-10.5 -30t-17 -23.5t-27 -9h-463q-20 6 -38 10t-41 4z" />
<glyph unicode="M" horiz-adv-x="2377" d="M8 31q0 12 3 18t16 10q6 0 21 1t30.5 3.5t30 4.5t20.5 2q6 2 27.5 7t42.5 11q29 6 37 10q4 0 26.5 2t26.5 4l18 17q10 6 17.5 11t9.5 7q29 29 57.5 59.5t50.5 67.5q20 35 35 74t25 80q10 18 16 39.5t14 44.5q10 29 22.5 54.5t25.5 51.5q10 23 21 45.5t22 44.5q6 18 14 36 t14 38q16 41 35 84t35 88q4 10 10 22.5t14 22.5q2 8 12.5 24.5t8.5 14.5q12 27 23.5 50.5t23.5 47.5q23 51 43.5 99.5t46.5 97.5v-2q0 6 10 16q6 8 7 13q12 25 27.5 58.5t28.5 70.5t24.5 72.5t17.5 62.5v2q-4 6 -22.5 23.5t-22.5 21.5q-2 2 -7 6t-8 4q-4 0 -15 1t-25 1 q-12 2 -24.5 3t-14.5 1q-8 2 -30 8.5t-44.5 16.5t-39.5 23.5t-17 29.5q0 20 20 25.5t37 5.5q59 -10 119.5 -13t119.5 -6q41 -2 86.5 -3t86.5 -5q4 -2 18 -17t18 -20v-43q-2 -4 -2 -6l-2 -4q-2 -10 -3 -23.5t-1 -9.5q0 -2 1 -10t1 -18q2 -10 4 -23.5t2 -9.5v-283q0 -4 1 -14 t3 -25q0 -10 1.5 -20t1.5 -12q2 -10 3 -48t3 -82t3 -86t1 -63v-135q0 -4 1 -20.5t3 -35t4 -35t2 -18.5v-137v-22t1 -29.5t3 -28t4 -14.5q4 -14 8 -25.5t17 -11.5q6 0 22 31q4 8 9.5 16t11.5 13l61 63q0 2 4 7t9 16q4 8 8 14t8 10h-2q4 4 11 13.5t15 23.5q8 10 13.5 18.5 t9.5 12.5t17.5 17t25.5 28q12 14 22.5 25.5t14.5 15.5q0 2 2 6q4 8 8 14t9 14.5t7 10.5q37 53 88.5 106.5t102.5 100.5h-2q16 45 50 83.5t69 75.5q10 10 18 19.5t17 19.5q6 6 16 23q4 4 7 8t5 6q14 25 31.5 46.5t38.5 43.5q0 -2 2 0t4 6q2 2 5 5.5t5 7.5l4 8q-4 -2 5.5 8 t13.5 18q2 0 2 3q0 2 2 4l4 4q2 8 4 12t18 27q2 2 12.5 8t12.5 8l7 10q7 11 16.5 23t20.5 25.5t17 21.5q10 16 21.5 32.5t24.5 32.5q23 31 44 64t54 70q6 10 22.5 24t18.5 14h377q6 0 14 -7t8 -15v-6q0 -18 -34.5 -23.5t-65.5 -5.5q-20 0 -29 -4q-41 -14 -56.5 -32.5 t-31.5 -49.5l-4 -10q-2 0 -11.5 -14.5t-9.5 -18.5t-2 -15.5t-6 -21.5q-4 -12 -4 -16q-4 -20 -10 -37.5t-14 -32.5q-8 -16 -15.5 -29.5t-11.5 -27.5q-2 -4 -4 -16.5t-5 -28t-5 -30.5t-4 -28q-2 -6 -2 -14q-23 -98 -53.5 -190t-65.5 -185q-29 -72 -54.5 -142.5t-44.5 -141.5 q-2 -10 -4 -18.5t-8 -16.5q-4 -16 -4 -19q0 -10 -12 -26l-4 -8t-2 -7q-2 -4 -4.5 -26.5t-6.5 -32.5q-2 -2 -5 -4t-5 -6q0 -4 -10 -19.5t-14 -23.5q0 -6 -5 -27l-4 -20q-6 -16 -11 -33.5t-11 -34.5q-16 -47 -29.5 -95t-13.5 -93q0 -12 9 -16.5t22 -4.5q6 0 13 1t27 1 q4 -2 17.5 -5t28 -6t28 -5t17.5 -2h12q18 -2 27.5 -8t9.5 -29v-4q0 -8 -1 -18.5t-12 -14.5h-239q-2 0 -9.5 2t-15.5 4t-16 3t-10 1h-39l-21 -10q-8 0 -15 -1t-18 -1q-16 -2 -30.5 -4t-28.5 -10l-153 -19h-33q-27 0 -54.5 6.5t-27.5 38.5v9q4 6 22.5 24.5t24.5 20.5 q23 2 35 4t20 3t13.5 2t13.5 1h10q10 2 43 8t43 10q27 16 48.5 60.5t37.5 91.5q10 18 17.5 36.5t15.5 32.5v3l4 8q2 2 5 4t5 6t4 6v29q0 4 2 13t7 20q2 10 4 18t4 12q2 6 11 30t20.5 49.5t20.5 47t11 27.5v8q4 8 7 17.5t14 11.5q20 68 39.5 126t40.5 117q8 20 14 41t12 41 q18 49 27 99q4 23 9 47t9 43q6 20 12.5 41.5t12.5 38.5q10 29 18 57.5t13 52.5q0 4 -3.5 18.5t-9.5 24.5q-6 -4 -13 -9t-5 -3q-53 -45 -97.5 -97.5t-87.5 -107.5q-18 -23 -34.5 -42t-34.5 -40q-14 -16 -51 -57q-33 -33 -74 -88q-10 -10 -32.5 -42t-39.5 -54l-12 -13h2 q-2 -4 -12.5 -22.5t-14.5 -22.5l-55 -53q-2 0 -9 -12.5t-7 -14.5q-2 -4 -6.5 -9t-8.5 -11q-4 -4 -6 -7t-4 -5q-2 -4 -4 -4v-5q-8 -4 -25.5 -20t-46.5 -39q-8 -6 -18 -11t-19 -9q-4 -4 -12 -20.5t-18 -39.5t-18.5 -42t-28.5 -42q-4 -4 -16.5 -15t-27 -25.5t-26.5 -26 t-14 -13.5t-6.5 -9t-9.5 -15t-8 -14l-3 -7q-37 -61 -76 -120.5t-78 -114.5q-10 -4 -20 -8.5t-21 -4.5q-16 0 -22 19.5t-6 32.5q-6 47 -8 94t-2 94v61q-4 55 -7.5 109.5t-7.5 108.5q-4 45 -7 88t-7 84v55q-2 53 -5 109.5t-20 107.5v123v125q0 2 -1 13t-2 23.5t-2 22.5t-3 15 q-2 6 -11 21t-18 15h-4q-16 -4 -18 -19t-6 -32q-4 -23 -8 -39t-19 -26q-2 -43 -12 -83t-27 -79q-2 -4 -3 -9t-3 -10q-2 -6 -9 -18t-11 -16q0 -4 -9 -17q-4 -6 -8 -20.5t-8 -28.5t-7 -26.5t-3 -14.5q-14 -51 -49 -96q-6 -10 -11.5 -20.5t-11.5 -20.5t-9 -25.5t-7 -29.5 q-18 -84 -47 -152q-4 -12 -8.5 -24.5t-8.5 -22.5q-14 -29 -23 -57.5t-20 -57.5q-10 -29 -20 -56.5t-21 -53.5q-10 -25 -16 -39q-10 -29 -18.5 -56.5t-8.5 -62.5q0 -43 28 -57.5t60 -22.5q35 -10 62.5 -23.5t27.5 -56.5q0 -14 -13 -21t-25 -7h-99l-8 -5q-20 -4 -31 -4 q-18 6 -27.5 9.5t-13.5 4.5t-8 1q-2 0 -10 2h-12q-4 0 -15.5 -2t-25 -5t-25.5 -6.5t-16 -3.5l-70 -2q-2 0 -12 -1t-21 -1q-6 -2 -22 -2h-19q-10 0 -26 4h-21h-51q-10 -4 -26.5 -5t-49.5 -11q-35 0 -62.5 17.5t-27.5 58.5z" />
<glyph unicode="N" horiz-adv-x="2088" d="M59 25q0 25 7.5 36t18.5 14t27.5 2t34.5 3q6 2 31 8t33 8q0 4 4 7t6 3q4 2 15.5 6.5t24.5 8.5t24.5 8t15.5 6q4 4 22.5 9.5t22.5 9.5q39 45 77 91t60 99q12 27 13.5 57.5t15.5 59.5q0 2 6 15t13.5 28.5t14.5 29t9 17.5t4 18.5t4 18.5q0 4 5 14t5 12t4.5 10.5t9.5 17.5 t9 17.5t4 10.5t3 14t6 27.5t6 30t6 18.5q0 2 6 15t14 27.5t15.5 28t9.5 17.5q0 4 3 19.5t3 19.5q23 49 45 98t45 96q14 35 18 74t21 74q23 59 48 105t42 112q8 27 17.5 55.5t9.5 59.5v10q0 8 -3 8q-6 14 -22 27.5t-36.5 24.5t-41 19.5t-35.5 12.5q-12 2 -43.5 5t-64.5 9 t-57.5 17.5t-24.5 29.5q0 33 31 37q47 8 85.5 9.5t86.5 1.5q47 0 93 -3.5t93 -7.5q20 0 54 -4t36 -4q4 -2 12.5 -9t18.5 -17.5t19 -21.5t16 -17q0 -4 3 -22.5t7 -23.5q6 -25 18.5 -48t22.5 -52q4 0 6 -11t4 -15q0 -2 4 -17.5t4 -17.5q0 2 10 -8l9 -9q2 -2 5 -14t5 -14 q12 -29 31.5 -50.5t31.5 -50.5t21.5 -61.5t21.5 -63.5q51 -100 101 -200q2 -4 8 -19.5t10 -25.5q16 -43 30.5 -86t35.5 -86q0 -2 6 -11.5t10 -13.5q6 -10 16.5 -30.5t12.5 -22.5q0 -6 3 -29.5t3 -28.5q4 -10 18.5 -28.5t18.5 -24.5q6 -10 14 -26.5t19.5 -32t24.5 -27.5 t28 -12h6q18 25 29.5 53.5t17.5 59t11 61.5t14 59q2 2 8 18.5t14 35t14.5 35t6.5 20.5q4 4 7 14t3 12q0 4 4 22.5t6 23.5q0 2 4 11t9.5 18t9.5 17.5t4 10.5t3 18.5t5 34t5 32.5t3 19q4 4 12.5 19.5t8.5 17.5q12 29 22 59.5t23 59.5q0 4 7 19.5t9 17.5q2 4 5 20.5t5 24.5v24 v11q0 2 4 13t8.5 23.5t9.5 22.5t5 12q10 31 13 63t3 64v37q-23 27 -52.5 42.5t-63 23.5t-68.5 10t-68 6l-8 8l-10 21q-4 8 -6 14q0 10 9 28.5t26 18.5l206 -4h29q14 0 58.5 -2t70.5 -2q10 0 32.5 4t35.5 4h190q2 0 21.5 4t23.5 7h33q18 0 48 -6.5t30 -34.5q0 -41 -33 -50.5 t-65 -9.5h-35h-15q-6 -2 -33.5 -9t-35.5 -9q-10 -4 -31.5 -13.5t-24.5 -13.5q-6 -6 -18 -19.5t-27.5 -29.5t-28 -30.5t-18.5 -20.5q-10 -33 -16 -64.5t-19 -60.5q-18 -43 -45.5 -93.5t-44.5 -97.5q-4 -4 -6 -23.5t-4 -23.5q-2 -2 -4 -6t-2 -10q-4 -8 -12 -28.5t-8 -26.5 q-2 -4 -4.5 -27t-6.5 -25q-4 -29 -20.5 -48t-22.5 -46q-2 -2 -6 -20.5t-4 -22.5q0 -2 -3 -9t-7 -7q0 -8 -8.5 -39t-19.5 -64.5t-20.5 -62.5t-13.5 -35q-2 -4 -9 -17.5t-14 -28.5t-14.5 -28.5t-7.5 -15.5q-2 -4 -4 -21.5t-5 -38t-6 -37t-3 -20.5q-8 -43 -24.5 -67.5 t-28.5 -61.5q-2 -2 -5.5 -17.5t-5.5 -19.5l-4 -8q-2 -4 -4 -6v-6v-4q6 -23 21.5 -58.5t31.5 -52.5q2 0 10.5 -4t17.5 -8t17.5 -7t10.5 -5q2 0 8 -9.5t8 -9.5q23 -16 61.5 -24.5t67.5 -14.5q20 -2 41 -3t38 -7t28.5 -18.5t11.5 -36.5v-25q-4 -2 -15.5 -8t-15.5 -6 q-6 -2 -22.5 -5t-35 -6.5t-35.5 -6.5t-24 -3h-6h-2q-4 0 -19.5 5.5t-17.5 5.5q-10 2 -25.5 5t-31.5 6t-28 5l-13 2h-180q-39 -2 -66 37q0 2 -4 11t-4 13q-4 10 -10 26.5t-6 18.5q-2 4 -9.5 14.5t-14.5 23t-13 22.5t-8 12q-23 39 -36 82t-30 84q-51 131 -110.5 260 t-114.5 264q-45 102 -84 209t-98 207q0 2 -7.5 17.5t-11.5 17.5q-2 4 -17.5 13t-25.5 14h-4h-6q-14 -10 -20.5 -18.5t-10.5 -18t-6 -20.5t-8 -25q-4 -8 -12.5 -32t-14.5 -32q-6 -6 -10 -12t-6 -12q-2 -4 -5 -23.5t-7 -24.5q0 -4 -11.5 -26.5t-13.5 -26.5q-16 -41 -22.5 -82 t-24.5 -82l-6 -8q-2 -2 -6 -10q-2 -4 -4 -6l-19 -139q-29 -31 -40 -73t-23 -79q0 -4 -8.5 -19.5t-10.5 -19.5q-4 -4 -10 -30.5t-8 -41.5q0 -4 -3 -29.5t-3 -29.5q-6 -20 -15.5 -32.5t-16.5 -24t-12.5 -25.5t-5.5 -39q0 -33 4.5 -57.5t14.5 -59.5q10 -23 41 -29.5t49 -15.5 q2 -2 13.5 -4t24.5 -5t23.5 -5t14.5 -2q25 -4 48 -6t44.5 -8.5t39 -19.5t30.5 -40v-10q0 -18 -10.5 -30.5t-25 -19.5t-31.5 -9t-32 -2h-47q-6 0 -25.5 2t-43 3t-43 3t-23.5 2q-31 2 -45 4t-51 4h-183l-36 -2q-6 0 -20.5 -1t-30 -2l-31 -2t-21.5 -1q-35 -4 -62.5 -12.5 t-60.5 -8.5q-29 0 -55.5 10.5t-26.5 43.5z" />
<glyph unicode="O" horiz-adv-x="1630" d="M565 248q2 -4 9.5 -14.5t13.5 -14.5q2 -4 11 -22.5t11 -20.5q4 -4 20.5 -14t18.5 -12t8.5 -9.5t13.5 -15.5t13 -14.5t8 -6.5t10.5 -3t17.5 -6t17 -6t11 -3q2 -4 17 -10t17 -8h35q6 0 12.5 -1t14.5 -1q20 0 30 10l146 16q2 4 6 6t5 3t5 3t22.5 13.5t22.5 11.5q2 0 13.5 4 t13.5 4q4 4 14.5 10.5t12.5 10.5q4 4 10 12t8 12q45 53 95 106.5t85 114.5l4 9l4 8q41 53 74 109.5t64 115.5q2 4 4 10q4 12 4 15q4 4 5 19.5t5 19.5q2 2 9 15t14.5 28.5t14.5 29t7 17.5q0 2 2 15t5 28.5t6.5 29t3.5 17.5q2 2 5 11t3 13q4 14 10 37t12 44.5t10.5 38 t4.5 18.5v53q0 2 2 15.5t4 28.5t4 28.5t2 17.5t-6 15.5t-6 13.5q-4 43 -5.5 85t-11.5 87q-4 12 -15 26.5t-25.5 28.5t-29 27.5t-20.5 23.5q-8 12 -11 19.5t-6 13.5t-9.5 11t-18.5 9q-4 2 -18.5 6.5t-31 8.5t-31.5 8t-19 6q-4 0 -9.5 4t-9.5 4h-8q-16 0 -45 -8t-58.5 -18.5 t-56 -22.5t-39.5 -20q0 -2 -4 -6q-2 -2 -4 -7q-4 -2 -17.5 -8t-28.5 -14t-28.5 -14.5t-15.5 -6.5q-20 -12 -43.5 -37.5t-38.5 -44.5q-4 -6 -15 -19t-11 -15q-41 -47 -80 -93.5t-74 -99.5q-4 -2 -15.5 -21.5t-13.5 -23.5q-2 -2 -13 -12t-11 -15q0 -4 -5.5 -22.5t-5.5 -22.5 q0 -2 -5 -12t-11 -22.5t-12 -24.5t-10 -18q0 -4 -7.5 -18.5t-14.5 -30t-14 -29t-7 -17.5q-27 -78 -37.5 -159.5t-24.5 -163.5q-2 -2 -2 -4v-4q0 -2 1 -4.5t1 -6.5q0 -2 -1 -11t-3 -19.5t-3 -19.5t-1 -11q0 -53 5 -108.5t9 -108.5zM305 518q0 4 1 20.5t2 35t3 34t4 19.5 q0 2 -1 12t-1 20t2 11q0 4 3.5 19.5t3.5 19.5v43q4 4 11 19t11 20q18 43 27.5 93t34.5 95q2 4 13 22.5t22.5 40t21.5 40t14 22.5q2 4 8.5 19.5t8.5 17.5t7 8t11 13t12 14.5t6 9.5q6 6 11.5 21.5t12.5 29.5t17.5 26.5t22.5 12.5l209 207q23 10 37 26.5t34 28.5q2 2 12.5 7 t23 11.5t23.5 11.5t13 5q23 14 44.5 29.5t45.5 25.5q27 10 55.5 14.5t55.5 22.5q6 2 26.5 5t43 8t44 8.5t29.5 5.5h15h20q2 -2 15.5 -4t26.5 -3.5t25.5 -2.5t14.5 -1h37q2 0 10 -4t17.5 -9t16.5 -9t9 -4t12.5 -3t14.5 -7q2 -2 13 -7.5t23.5 -10.5t22.5 -10t12 -7t14.5 -5 t14.5 -6q2 0 10 -4q4 -2 6 -4q2 -4 13.5 -22.5t13.5 -22.5q2 -2 10.5 -10t17.5 -17.5t17 -16.5t10 -7q0 -4 3.5 -11t3.5 -11q53 -86 78.5 -171t25.5 -186q0 -4 -1 -15t-1 -16q0 -10 -3 -34.5t-6 -53t-6.5 -54t-5.5 -36.5q-2 -6 -7 -24.5t-7 -22.5t-6 -15t-9 -24.5t-9.5 -26 t-4.5 -16.5q-2 -4 -16 -31.5t-22 -37.5q0 -4 -7.5 -15.5t-9.5 -13.5q0 -2 -1 -10t-2 -19.5t-2 -20.5t-1 -12q-20 -55 -58 -100t-61 -98q-10 -10 -33.5 -38t-51 -57.5t-52.5 -56t-35 -37.5q-4 -4 -13 -19t-13 -19q-8 -8 -28 -17.5t-28 -17.5q-4 -4 -13 -10.5t-19.5 -14.5 t-18.5 -14t-10 -8q-4 -2 -14.5 -13.5t-14.5 -11.5q0 -4 -11 -7t-15 -3q-35 -16 -72 -33.5t-74 -28.5q-2 -4 -21.5 -7t-21.5 -3q-10 -4 -41 -13t-41 -14q-27 -4 -53 -4h-51h-54q-25 0 -51 4q-23 14 -44 12.5t-44 4.5q-29 8 -57.5 24.5t-50.5 28.5q-4 4 -19.5 11.5t-15.5 9.5 q-27 18 -54.5 51t-45.5 57q-14 16 -32 36.5t-24 45.5q-18 70 -31.5 129t-13.5 131z" />
<glyph unicode="P" horiz-adv-x="1826" d="M1229 858q0 -8 8 -8q2 -2 19.5 -4t25.5 -6q6 -2 30.5 -4t35.5 -5h4q135 0 261 52.5t214 156.5q2 0 4 6.5t4 10.5q4 10 16.5 36.5t25.5 55.5t25.5 53.5t16.5 34.5v63q0 37 -5 61.5t-15.5 44t-23.5 40t-30 47.5q-2 0 -5 12.5t-5 14.5q-2 4 -14.5 13t-12.5 13q-2 4 -8 23.5 t-10 23.5q-2 4 -17.5 10.5t-19.5 8.5q-33 20 -52.5 26.5t-58.5 16.5q-10 4 -34.5 16t-40.5 12h-21q-20 0 -36.5 -4t-26.5 -24q-4 -2 -15.5 -23.5t-11.5 -27.5q-2 -4 -10 -27t-10 -31q0 -2 -5.5 -11t-9.5 -19.5t-8 -19.5t-4 -11q-6 -20 -22.5 -72.5t-35 -112t-36 -113.5 t-25.5 -75q-29 -47 -46 -103.5t-17 -109.5v-20q0 -15 2 -21zM510 -18q-2 0 -17.5 -2.5t-17.5 -2.5h-20q-25 0 -56.5 11.5t-31.5 40.5q0 27 29.5 40t69.5 19t79 7t57 3q2 0 9 2t10 4q4 4 14 14.5t21.5 23t20.5 22.5t13 16q20 47 33.5 98.5t34.5 98.5q2 4 12 26.5t14 30.5 q0 2 4.5 20.5t4.5 24.5q2 4 12 26.5t14 26.5q2 2 5 17.5t3 19.5q2 8 8.5 25.5t12.5 35t11 31t7 17.5q2 2 13.5 25.5t15.5 29.5q0 2 3 13.5t8 25.5t9.5 25.5t4.5 13.5q2 6 6 18.5t8 23.5t7 20.5t3 11.5q41 94 75 188t62 193q0 2 5.5 9t5.5 11q41 66 57 130.5t33 139.5 q2 2 5 12.5t6 20.5t5 19.5t2 11.5v4q0 12 -8 22.5t-16 18.5q-10 2 -37 5t-41 3h-6q-4 0 -18.5 -2t-31 -5t-32 -6t-19.5 -5q-8 0 -29.5 -3t-46 -5t-46 -4.5t-29.5 -2.5q-23 -18 -39.5 -24t-42.5 -23q-4 0 -15.5 -8t-13.5 -10q-6 -6 -19.5 -17.5t-26.5 -23.5t-23.5 -21.5 t-12.5 -11.5t-8 -15t-10 -18v-12q0 -23 18.5 -41t28.5 -41q0 -4 11 -27.5t15 -33.5v-4q0 -63 -45 -108.5t-106 -45.5q-35 0 -61.5 16.5t-44 43t-25.5 59.5t-8 63q0 63 28.5 129t74.5 123.5t104.5 101.5t117.5 64q41 14 85 17.5t85 3.5h60q4 0 24.5 -2t43 -4.5t42 -3.5 t23.5 -1h235q2 0 12.5 -1t21.5 -3t20.5 -4t11.5 -2q29 -4 59 -4h62q35 0 68.5 1t68.5 1q27 0 52.5 -1t51.5 -3q25 -4 60 -14.5t70.5 -24.5t66.5 -32.5t47 -37.5q4 -6 21.5 -30.5t25.5 -34.5q25 -39 41 -73t25.5 -68.5t13.5 -72.5t4 -87q0 -4 -1 -17.5t-1 -27.5t-1 -26.5 t-1 -18.5q-2 -6 -13.5 -34t-15.5 -38q0 -4 -7 -17.5t-14 -28.5t-14.5 -28.5t-7.5 -15.5q-10 -23 -18 -47.5t-29 -44.5q-16 -16 -36.5 -27.5t-45.5 -28.5q-2 -2 -20.5 -15t-22.5 -19q-29 -23 -51 -32t-57 -22q-6 -2 -29.5 -13t-28.5 -15q-35 -12 -74.5 -15.5t-78.5 -3.5h-31 q-115 0 -240 29q-4 0 -27.5 9t-25.5 9h-39h-32q-14 -8 -23.5 -24.5t-13.5 -28.5q-2 -6 -7.5 -24.5t-9.5 -39t-8 -39t-4 -24.5q-20 -23 -24.5 -45t-10.5 -47q-16 -51 -41.5 -100t-42.5 -101q0 -4 -3 -18t-6 -30.5t-6 -32t-3 -19.5q-4 -27 -19.5 -51.5t-15.5 -57.5v-6 q0 -10 6 -10l195 -18q20 -2 37.5 -16.5t17.5 -37.5q0 -20 -10 -31.5t-24.5 -16.5t-32 -6t-31.5 -1h-41q-2 0 -15.5 2t-29 5t-28.5 6t-15 3t-32 2.5t-46 2.5q-8 0 -21.5 -1t-27.5 -1t-25.5 -1.5t-13.5 -1.5q-4 0 -16.5 -1t-27 -2t-27.5 -2t-17 -1q-2 -2 -8 -2h-13 q-8 0 -16 -2h-6q-29 0 -60.5 3t-62.5 7q-2 4 -19 5h-18z" />
<glyph unicode="Q" horiz-adv-x="1560" d="M317 -109q6 -2 24.5 -5t39 -6t38 -5t23.5 -2q2 0 19.5 -2t23.5 -2h11q8 0 14 2q8 0 14 2q6 0 18.5 2t26 5t23.5 6t14 5q4 0 22.5 12.5t22.5 12.5q4 2 27.5 6t30.5 4q4 2 10 4q12 4 14 4q4 4 22.5 10.5t22.5 10.5q10 2 36 16.5t51.5 29.5t46 28.5t20.5 17.5 q0 18 -11.5 29.5t-27.5 16.5t-33.5 8t-30.5 8q-55 20 -107 36.5t-118 16.5q-68 0 -129 -18.5t-121 -45.5q-39 -18 -65.5 -58t-42.5 -79v-4v-2q8 -18 15 -27.5t15.5 -13.5t16.5 -8t20 -15h4zM2288 -653q-23 0 -47.5 4t-49.5 4h-18t-14 2l-17 4l-12 4t-8 2l-10 2q-9 2 -19 3 t-20.5 3t-12.5 2q-31 4 -63.5 12.5t-61.5 24.5q-53 23 -101 47.5t-99 51.5q-4 0 -19.5 6t-23.5 10q-37 16 -65 35.5t-64 36.5q-2 0 -12.5 4t-12.5 4q-2 2 -13.5 9t-15.5 9q-8 6 -21 16.5t-25.5 20.5t-22.5 18.5t-13 8.5q-8 8 -20 29.5t-33 23.5l-135 129q-23 6 -39 20.5 t-31.5 30t-34 26.5t-42.5 11q-39 0 -70 -22.5t-64 -38.5q-10 -4 -28.5 -14.5t-38 -20.5t-37.5 -18.5t-25 -10.5q-4 -4 -25.5 -11t-25.5 -7q-2 0 -11 -1t-20.5 -3t-20.5 -3t-11 -1q-2 -2 -11.5 -6.5t-20.5 -9.5t-20.5 -9t-11.5 -6q-47 -16 -99 -19.5t-99 -15.5h-207 q-25 0 -51.5 7t-49.5 11q-29 10 -43 19.5t-39 30.5q-25 20 -34 36q-12 20 -15.5 39t-3.5 29q0 35 3 55.5t12.5 36t26 29.5t40.5 35q2 2 13.5 12t25.5 22.5t26.5 23.5t16.5 15q2 0 6 2q8 4 13 5q41 16 91 37.5t97 25.5h100q2 0 16.5 4t18.5 4q8 0 16 2q6 0 12.5 1t10.5 1 q158 0 305 -39q2 0 16.5 -7t18.5 -11q4 0 14.5 -7l16.5 -11q2 0 12 -1t22.5 -2.5t22.5 -2.5t12 -1q4 -2 26.5 -7t27.5 -5h12h6q29 12 69 33.5t50 56.5q4 4 15 13.5t24.5 19.5t25 19.5t17.5 13.5q2 2 8 17.5t8 17.5q0 4 8 14t11 14q45 72 88 146.5t65 160.5q2 4 5 16.5 t3 16.5q2 6 4 29.5t7 28.5q6 20 14 38.5t12 40.5q0 4 1 18.5t3 30t3 31t1 21.5q4 47 7.5 95t3.5 95v35q-2 4 -10.5 22.5t-8.5 22.5q-20 59 -32.5 115.5t-41.5 109.5q-12 23 -45 50l-20 16t-14 10q-8 4 -15.5 10.5t-21.5 14.5q-18 10 -31.5 17t-30.5 7q-41 0 -65.5 -6 t-44.5 -10q-4 0 -26.5 -12.5t-27.5 -14.5q-14 -8 -22 -15t-14 -11q-2 -2 -17.5 -9.5t-17.5 -11.5q-4 -2 -13.5 -8t-19.5 -13t-19.5 -14.5t-11.5 -9.5q-4 -2 -27.5 -12t-27.5 -12q-2 -2 -14.5 -8.5t-14.5 -6.5q0 -2 -6 -5t-10 -3q-10 -4 -17.5 -8t-17.5 -6q-10 -6 -16 -10.5 t-12.5 -9.5t-12.5 -13t-16 -21q-10 -14 -17.5 -23t-13.5 -18.5t-15.5 -18.5t-23.5 -21q-27 -25 -54.5 -64t-47.5 -70q-6 -10 -10.5 -16t-7.5 -11t-5 -10.5t-8 -15.5q-4 -29 -7 -57.5t-3 -56.5q0 -27 2 -52.5t6 -52.5q0 -4 4 -14.5t4 -16.5q0 -2 1 -9t2 -16t3 -17.5t4 -10.5 q10 -35 25.5 -64.5t38.5 -60.5q18 -27 27.5 -48t20.5 -36.5t30.5 -24t56.5 -8.5h8q4 0 27.5 3.5t32.5 5.5l12 4t16 6q4 2 12.5 5t14.5 7q4 2 16.5 6t16.5 8q2 4 11 28t13 26q2 4 8.5 13t10.5 11q2 6 16 20.5t16 16.5q4 2 7.5 9.5t5.5 11.5q16 41 31.5 69.5t15.5 75.5v6 q0 8 -1 20.5t-4 25t-10.5 20.5t-19.5 8t-25.5 -7t-29 -15.5t-29.5 -15.5t-29 -7h-10q-18 4 -39.5 11t-41 17.5t-32 28t-12.5 43.5q0 63 12.5 100t75.5 60q18 10 23.5 11t17.5 1t28.5 -7t33.5 -11q12 -4 37.5 -10.5t42.5 -20.5q6 0 17 -9t24.5 -21.5t24.5 -23.5t15 -16 q14 -16 24.5 -43.5t18 -58.5t10.5 -60.5t3 -47.5q0 -86 -51.5 -160t-112.5 -125q0 -4 -17.5 -13.5t-27.5 -17.5q-16 -10 -53 -20.5t-74 -22.5q-10 -2 -45 -5t-45 -3q-2 0 -23.5 3t-31.5 5q-23 4 -49.5 7t-49.5 20q-45 31 -88 75t-75.5 97t-52 110.5t-19.5 112.5v10 q2 31 6 69t10 76t15.5 72.5t23.5 63.5q33 66 65.5 116t79.5 103l9 6q8 6 17 14.5t17.5 15.5t10.5 9t10 9t17.5 16.5l16.5 16.5l9 9q57 53 131 86t141 62q4 0 18.5 6t16.5 10q23 6 48.5 7t47.5 1h58h100q51 -14 105.5 -33.5t101.5 -48.5q4 0 17.5 -10t19.5 -14q2 -2 13 -12.5 t23.5 -20.5t22.5 -20.5t14 -12.5l9 -4q4 -2 10 -2q0 -2 4 -9t4 -9q2 0 4 -5.5t4 -5.5q4 -10 18.5 -29.5t18.5 -23.5q0 -2 3 -13t3 -13q2 -4 5 -11.5t8 -7.5q0 -4 8 -17.5t17 -28.5t17.5 -28.5t10.5 -15.5q0 -2 4 -18.5t6 -26.5q2 -12 5 -37t3 -29v-92q0 -88 -7 -173 t-38 -169q-10 -23 -20.5 -49.5t-24.5 -46.5q-2 -4 -4 -6q-4 -4 -6 -4q0 -2 -3 -21.5t-3 -23.5q0 -2 -5 -9.5t-10 -9.5q-4 -8 -14 -27.5t-22.5 -41t-23.5 -40t-17 -26.5q-16 -27 -37 -48.5t-37 -49.5l-154 -156q-8 -12 -30.5 -31.5t-22.5 -29.5v-11q2 -2 16.5 -19t20.5 -26 q6 -8 18.5 -20t16.5 -14q2 -2 12 -6.5t21.5 -9.5t21.5 -9t12 -4t9.5 -6t15.5 -12.5t15 -11.5t9 -7q20 -16 49 -19t52 -18q2 -2 14 -9t25.5 -16.5t26 -17.5t18.5 -8q4 -4 25.5 -10t25.5 -8q23 -10 45.5 -22.5t44.5 -23.5q111 -47 218.5 -89t215.5 -83q31 -12 60.5 -15 t58.5 -4t58.5 -5t58.5 -19h24t40 -1t40 -1h27h33q23 0 43 1t34 1h19q6 0 28.5 3.5t26.5 3.5h17q23 0 41 6t43 6q6 0 23 1t22 1q4 4 18 7t18 9q4 0 9 2l8 4q14 10 23.5 33t14.5 49.5t7 52t2 42.5q0 39 -13.5 56t-28.5 28.5t-27.5 27t-12.5 49.5v25q2 4 19.5 22.5t25.5 20.5 q2 0 11.5 4t17.5 4q6 0 18 -1t17 -1q4 0 18 -1t16 -3q57 -23 84 -47.5t27 -91.5v-19q0 -14 -4 -14q0 -8 -1 -23.5t-2 -30t-2 -25.5l-1 -11q0 -4 -7.5 -16.5t-15.5 -26.5t-15 -25.5t-9 -13.5q-4 -14 -7.5 -20.5t-17.5 -16.5q-4 -2 -13 -9t-20.5 -14.5t-21.5 -14.5t-13 -9 q-4 -2 -13 -9t-20.5 -16.5t-21.5 -17.5t-12 -8q-2 -2 -14.5 -8.5t-25.5 -14.5t-25.5 -15t-14.5 -9q-2 0 -12.5 -7.5t-21.5 -14.5t-21.5 -14t-12.5 -7q-70 -47 -157.5 -56.5t-167.5 -17.5q-2 0 -11.5 -2t-19.5 -3t-20.5 -2t-12.5 -1h-12q-29 0 -53 -1t-49 -1z" />
<glyph unicode="R" horiz-adv-x="1615" d="M887 940q0 -12 9 -24.5t21.5 -21.5t26.5 -14.5t27 -5.5h6q4 2 22.5 11.5t22.5 9.5h2q16 0 25.5 -5t21.5 -5q23 0 41 9t37 15l98 37q20 8 36.5 18.5t35.5 20.5q2 0 10 4l8 4l109 109l4 11t10 24.5t12.5 29t10.5 25.5q2 8 8 32.5t10 28.5q0 2 1 14.5t3 27t3 26.5t1 14 t5.5 14.5t5.5 14.5v18q0 29 -10.5 70t-26.5 64q-2 2 -8.5 10t-13.5 17t-14 17.5t-9 12.5q-4 4 -12.5 16.5t-18.5 24.5t-19.5 23.5t-15.5 13.5q-2 2 -11 6t-21.5 8t-23.5 8t-13 4t-9.5 5.5t-9.5 5.5h-20q-47 0 -85 -7.5t-67 -48.5q-2 0 -5 -11t-3 -15q-2 -4 -15.5 -17.5 t-13.5 -15.5q0 -4 -2 -17.5t-3 -29t-2 -28.5t-1 -17q0 -6 -11.5 -28.5t-13.5 -27.5q-2 -4 -7 -19t-9 -33.5t-8 -34t-6 -19.5q-6 -29 -19.5 -54.5t-21.5 -54.5q-18 -41 -30.5 -80.5t-27.5 -82.5q-10 -29 -18 -54.5t-8 -52.5zM633 0q-4 0 -18.5 -1t-31 -2t-31.5 -2t-17 -1 q0 -4 -11 -4h-14h-12q-6 0 -6 4q-6 0 -33 3t-33 3q-4 0 -19.5 -1t-34 -2t-33.5 -2t-20 -1q-2 -4 -10 -4h-10h-10t-6 4q-6 0 -24.5 1t-38 2l-39 2t-27.5 1q-14 4 -33 20.5t-19 32.5q0 18 21.5 27.5t36.5 9.5h6q2 0 12 -1t22.5 -3t22.5 -3t15 -1h20q35 0 73 7t50 46 q2 4 7 18.5t9 24.5q14 31 22.5 52.5t14.5 43.5q4 20 8 36t11 36q8 23 18 48.5t18 54.5q0 6 4.5 29.5t4.5 27.5q0 2 5 15.5t9 28.5t9 28.5t5 17.5t4 25q2 8 5 18q2 6 13 28.5t15 28.5q0 2 4 15.5t8.5 29t8.5 28.5t4 15q2 2 10 13.5t10 15.5q2 2 4 12.5t5.5 22.5t6.5 22.5 t3 14.5q8 29 21.5 54.5t21.5 53.5q25 96 53.5 190.5t64.5 186.5q2 4 12.5 27.5t14.5 27.5q0 4 5 14.5t5 14.5t3 26.5t6 26.5q8 33 22 65t14 66v13q-12 31 -55 32q-20 -2 -39.5 -3t-42.5 -1q-27 0 -52.5 1t-53.5 3q-16 2 -22.5 16.5t-6.5 24.5q0 37 35 54h106h25 q18 0 34.5 -1t28.5 -1h15q2 0 17 -2t31.5 -5.5t31 -5.5t18.5 -2q2 0 11.5 1t20.5 2t20 2t14 1h6h10q2 0 13.5 -1t23.5 -2t22.5 -2t12.5 -1t16 1t33 1q18 0 39.5 1t40.5 1h20h6q14 0 27.5 -2t30.5 -2q39 0 100 -12t102 -25q2 -2 13.5 -9t13.5 -7q18 -14 49 -19.5t41 -17.5 q0 -2 7 -18.5t12 -26.5q4 -2 6 -14.5t4 -14.5q2 -8 12 -29.5t14 -25.5q2 0 13.5 -15.5t13.5 -19.5q4 -2 5 -8t1 -8q2 -4 5 -17.5t6.5 -28.5t6.5 -31.5t3 -24.5q4 -6 7 -31t3 -29v-10q0 -39 -11.5 -61.5t-25.5 -47.5q-14 -35 -19.5 -70.5t-25.5 -64.5q-31 -53 -79 -92 t-101 -74q-8 -2 -29.5 -11t-26.5 -13q-4 0 -13 -2t-19.5 -5.5t-18.5 -6.5t-10 -3q-4 -2 -13.5 -7t-20.5 -11t-22.5 -11t-15.5 -8q-10 -8 -10 -14v-12v-21q2 -8 9 -32.5t16.5 -52t16.5 -52t11 -33.5q6 -18 8.5 -36.5t10.5 -34.5q2 -2 9 -13.5t7 -15.5q16 -23 17.5 -44 t11.5 -46q4 -4 15 -25.5t11 -25.5q14 -33 30 -77t37.5 -87t49 -77t66.5 -42q6 -2 27.5 -5t25.5 -3h31q16 0 29.5 -4t21.5 -14.5t8 -30.5q0 -14 -4 -26.5t-23 -12.5h-253q-2 0 -16.5 3t-18.5 3h-11h-8q-2 0 -17.5 -3t-17.5 -3l-2 -2l-2 -2q-16 0 -37.5 7t-31.5 19 q-20 31 -25.5 68t-19.5 70q-2 6 -7.5 18t-11.5 26.5t-11 27t-7 18.5q-10 23 -13.5 49t-15.5 51q-29 68 -54.5 137.5t-51.5 139.5q0 6 -3.5 20t-5.5 18q-10 31 -25.5 62t-37 55.5t-50 39.5t-65.5 15h-37q-27 -23 -41 -49t-22 -56t-13.5 -61.5t-13.5 -62.5q-2 0 -10 -18.5 t-10 -22.5t-7 -20.5t-11.5 -35t-11.5 -34.5t-7 -22q0 -2 -7 -14.5t-14.5 -28t-14.5 -28.5t-9 -20q0 -4 -2 -25.5t-5 -45t-5 -45t-2 -25.5q-4 -4 -12.5 -26.5t-8.5 -26.5q0 -2 -1 -10.5t-1 -12.5q0 -14 16.5 -25.5t39 -20.5t46 -15t37.5 -8q2 0 10.5 -1t17.5 -3t16 -3.5 t10 -1.5q8 -4 22 -22t14 -29q0 -6 -8 -12t-19.5 -10t-22.5 -6t-17 -2h-15q-8 2 -25.5 3t-34.5 3t-31.5 3t-18.5 3q-2 0 -21.5 3t-23.5 3z" />
<glyph unicode="S" horiz-adv-x="1236" d="M489 20q-4 2 -10 9.5t-10 9.5q-2 2 -2 4t-1 3t-1 3l-4 8q-37 37 -77 59.5t-75 63.5h-8q-10 0 -12 -1t-8 -7q-16 -23 -29.5 -47.5t-30 -44t-38 -31.5t-54.5 -12q0 39 10.5 76t24.5 72.5t28.5 72.5t22.5 74q0 2 3 17.5t6 32.5t6 32.5t6 19.5q2 14 8 40t15 49.5t24.5 41 t35.5 17.5q2 0 4.5 -1t6.5 -1q4 -2 8 -2q8 -2 24.5 -17.5t20.5 -21.5q4 -4 11 -24.5t9 -31.5v-47v-18q0 -2 4.5 -9.5t4.5 -11.5q25 -61 49 -117.5t65 -107.5q47 -59 114 -96t142 -37q45 0 93.5 21.5t90.5 55.5t73.5 75.5t43.5 82.5q6 29 8.5 46.5t2.5 39.5v33v62 q-4 29 -23.5 64.5t-34.5 58.5q-10 20 -21 43.5t-24 42.5q-4 2 -15 8t-13 10q-14 10 -19.5 26.5t-21.5 30.5q0 2 -7.5 5.5t-9.5 3.5q-6 2 -21.5 13t-19.5 15q-33 31 -69.5 62.5t-70.5 66.5t-63.5 73t-48.5 81q-4 10 -11 26.5t-7 20.5q-2 4 -6 19.5t-9.5 33t-9.5 31.5t-4 18 l-10 30t-10 28v28q0 35 9 73t19 71q2 4 9.5 18t11.5 21q14 23 25.5 55.5t31.5 56.5q51 66 127 109t156 71q4 0 22.5 4.5t22.5 4.5t18.5 1t30.5 3t30.5 3t18.5 1t22.5 6t22.5 6q2 0 14.5 -6t14.5 -6t14.5 -1t26.5 -3t27.5 -3t17.5 -1l16 -9q14 -10 40 -25t30 -15 q4 -4 16.5 -14.5t25.5 -25t24.5 -26.5t15.5 -18h10q10 0 19.5 14t19.5 34.5t21.5 42t25.5 33.5l8 5l9 4q6 0 21 -3t20 -6q2 -4 5 -12t3 -14v-2q0 -6 -2 -22.5t-5.5 -35t-7.5 -35t-6 -22.5q0 -4 -8 -19.5t-8 -17.5q-2 -2 -5 -12t-6 -21.5t-6.5 -20.5t-3.5 -11 q-10 -29 -23 -53.5t-24 -51.5q-6 -16 -16 -56t-24.5 -80t-33 -70.5t-42.5 -30.5h-17q-4 35 -7 74.5t-3 80.5q0 27 1 52.5t3 48.5q-4 6 -11 28.5t-12 28.5q0 4 -16 22.5t-18 22.5q0 2 -4.5 10.5t-7.5 18.5t-6 18t-3 10q-12 33 -35.5 53.5t-53.5 31t-63.5 14.5t-64.5 4 q-41 0 -70.5 -16.5t-64.5 -38.5l-8 -5l-8 -4q-31 -18 -53.5 -50t-36 -68.5t-19.5 -75.5t-6 -72q0 -37 17.5 -84t43 -92t55 -85t56.5 -60q2 -2 18.5 -8.5t20.5 -10.5q2 -2 10 -8t17.5 -13.5t16.5 -14.5t11 -9l152 -151q6 -20 16 -30.5t21 -27.5q25 -39 39 -67.5t23 -57 t12 -61.5t3 -78q0 -55 -14 -118.5t-40 -124t-63.5 -114t-82.5 -89.5q-2 0 -28 -14.5t-38 -20.5q-12 -8 -42 -22.5t-36 -16.5q-23 -10 -51.5 -11t-50.5 -18h-57q-78 0 -153 10t-149 47z" />
<glyph unicode="T" horiz-adv-x="1845" d="M479 29v10t4 6q0 2 17.5 19.5t23.5 25.5q20 16 51 19.5t56 3.5q23 0 45 -8.5t45 -8.5h18q6 0 13 2q4 0 17 14.5t22 22.5q0 2 3 14.5t3 14.5q20 47 27 94t28 94q2 2 9 15.5t14.5 29t14.5 28.5t7 17q4 4 6 25.5t4 26.5q0 6 11.5 20t13.5 16q4 4 6 30t6 30q10 43 28.5 84 t31.5 86q2 2 5 10t6 19.5t6 20.5t3 11q14 49 34.5 96.5t37.5 96.5q14 37 21 75.5t22 75.5q4 2 12 13.5t8 13.5q2 2 6 8t4 10q0 2 5.5 18.5t11.5 35t11 36t7 21.5q2 2 9.5 12t7.5 13q2 2 5 12t6 20.5t6 19.5t3 11q2 4 4 13.5t6 13.5q0 4 5.5 17t11.5 27.5t12 28t6 17.5 q4 8 6 23.5t2 25.5q0 2 -2 2v2v2q0 4 -13 16.5t-22 18.5q-2 4 -13 7t-13 3t-8 4t-9 4h-200q-37 -14 -71 -15t-75 -11q-25 -4 -54.5 -18.5t-53.5 -26.5l-4 -4q-2 -2 -2 -5q0 -2 -2 -2q-27 -33 -50.5 -52t-56.5 -54q-2 -4 -10 -15.5t-17.5 -23.5t-18.5 -22.5t-11 -12.5 l-51 -51q-10 -10 -15.5 -11t-11.5 -1q-10 0 -21.5 6t-15.5 12v43q0 55 21.5 103.5t42.5 101.5q14 33 20 66.5t12 68.5t16.5 68.5t32.5 64.5q10 14 20.5 16.5t23.5 2.5q16 0 36.5 -4.5t34.5 -14.5q2 -2 10.5 -10t17.5 -17.5t17 -17.5t13 -10q2 -2 6 -4q8 -4 10 -4 q6 -2 18.5 -5t25.5 -6.5t23.5 -5.5t12.5 -2h57h53q2 0 8.5 4t8.5 4h2h8q86 -6 172 -11t174 -5h51q2 0 10.5 1t19.5 3t20.5 3t13.5 1q8 0 37.5 -3t42.5 -5q4 0 14 -4t14 -4h516q2 0 29 9t41 15q27 10 63.5 33t71.5 23q14 0 17.5 -14.5t3.5 -28.5v-17q0 -31 -9.5 -57.5 t-21.5 -51t-24.5 -50t-18.5 -54.5q-2 -4 -5 -23.5t-7 -43t-8.5 -43t-4.5 -25.5q-4 -2 -7 -17.5t-3 -17.5q0 -4 -4 -27.5t-4 -27.5q-4 -2 -11 -12t-9 -15q-4 -6 -9.5 -21t-11.5 -30.5t-14.5 -27t-18.5 -11.5q-6 0 -13 1t-7 8v237q-2 4 -8.5 21.5t-6.5 21.5t-5 18.5t-5 18.5 q-14 33 -41.5 50.5t-61.5 26.5t-69 13t-63 8h-279q-16 0 -31.5 -21.5t-28 -51t-20.5 -58t-10 -41.5q-4 -4 -11 -25.5t-14.5 -45t-14.5 -45t-9 -25.5q0 -4 -4 -27.5t-4 -31.5q-6 -18 -17.5 -50t-27.5 -57q0 -2 -7.5 -13.5t-9.5 -15.5v-22q-6 -35 -14 -59.5t-17.5 -46 t-19.5 -44t-20 -51.5q-6 -16 -16.5 -50t-23 -69.5t-22.5 -66.5t-12 -39q0 -2 -1 -11.5t-3 -19.5t-3 -20.5t-3 -12.5q0 -2 -6.5 -10t-12.5 -17t-11 -17.5t-5 -10.5q-23 -41 -29 -85t-24 -87q-23 -51 -40.5 -98t-33.5 -101q0 -4 -5 -17t-5 -17v-7v-4q4 -4 15 -14t15 -12 q6 0 26.5 -1t44.5 -3t44 -4.5t27 -4.5q12 0 32.5 -2t40 -6t33.5 -15t14 -30q0 -43 -30.5 -56t-65.5 -13h-49q-8 0 -42 1t-72 3t-71.5 4t-41.5 2h-58h-24q-4 0 -13.5 4t-11.5 4q-8 0 -39.5 -3t-67.5 -6t-66 -6t-36 -3h-16h-19q-10 0 -26.5 2t-33.5 3t-31.5 3t-16.5 2 q-18 2 -24.5 11.5t-6.5 25.5z" />
<glyph unicode="U" horiz-adv-x="1789" d="M375 420q0 29 1 54.5t11 53.5q0 2 7 17.5t9 17.5q16 47 20.5 95.5t14.5 97.5q4 20 17.5 43.5t21.5 46.5q0 2 2 10t5 19.5t5.5 20.5t2.5 11q2 8 11 28.5t11 25.5v4q0 4 2 6q2 4 4 10q14 59 26.5 120.5t28.5 121.5q16 63 39 123.5t43 121.5q0 2 4.5 14.5t9.5 27t9 25.5 t6 13v37v39q-18 20 -34.5 25.5t-39.5 9.5q-16 2 -40.5 4t-47 5t-40.5 5l-17 2l-45 37v8q0 31 24.5 39t47.5 8q76 0 146.5 -6t141.5 -4q23 -4 33 -5t27 -1q16 0 26.5 1t32.5 5h254l8 -12q4 -4 5 -9t3 -7v-7q0 -29 -26.5 -44t-63.5 -23t-72.5 -12.5t-54.5 -12.5q-4 -2 -8 -6 l-12 -12q-4 -8 -13.5 -28.5t-13.5 -27.5q0 -4 -3 -26.5t-3 -24.5q-2 -4 -10 -19.5t-8 -17.5q-10 -29 -14.5 -55.5t-12.5 -52.5q-4 -10 -11 -30.5t-9 -24.5q0 -4 -7.5 -17.5t-9.5 -15.5v-23q-8 -41 -21.5 -81t-23.5 -81q-2 -4 -5 -22t-7 -23l-4 -12q-2 -6 -2 -12 q-2 -2 -3 -14.5t-1 -14.5q-2 -2 -7.5 -17.5t-9.5 -17.5q-20 -59 -33.5 -118.5t-29.5 -116.5q-6 -27 -16.5 -50.5t-18.5 -52.5l-1 -9t-3 -20.5t-3 -20.5t-1 -11q-4 -6 -6 -12q-2 -4 -2 -11q0 -2 -3 -4v-4q0 -84 22 -146.5t69 -127.5q4 -4 21.5 -25.5t25.5 -31.5q2 -4 9 -10.5 t9 -6.5q2 -2 12.5 -5t14.5 -5t19.5 -9t33.5 -16.5t33.5 -17.5t19.5 -8t17.5 -2t30 -4.5t29.5 -3.5t17 -1q2 -2 21 -2h22h23q25 0 32 8.5t27 20.5q2 0 14.5 4t14.5 4q45 18 85 49t75 70t66.5 80t60.5 82q2 2 5 8t7 8q0 4 2 27.5t4 28.5q4 4 14.5 18t12.5 18q41 59 55 133 t33 140q10 23 21.5 44t15.5 46q2 2 5 13t6 25.5t6 26t3 15.5q14 53 36 103t34 102q14 41 19 81.5t20 75.5q0 2 6 14.5t12 25.5t11.5 25.5t5.5 16.5q2 2 2 25v37v36q0 27 -2 29q-6 16 -15 33q-6 14 -11 26.5l-9 22.5q-10 16 -38 22.5t-44 12.5q-41 6 -86 10t-86 6 q-20 18 -21 47q0 31 29 39t61 8q16 0 29.5 -1t24.5 -1q47 0 92 -5t92 -5q12 0 23.5 1t23.5 9q20 -2 39 -2h41q80 0 158 4.5t159 4.5h56q2 0 11 -4.5t18.5 -9.5t16.5 -11t7 -14q0 -2 -2 -2v-2l-2 -2q-10 -16 -25.5 -21.5t-33 -7.5t-37.5 -2q-18 0 -37 -4q-2 -2 -22.5 -8.5 t-30.5 -10.5q-6 -2 -23.5 -8t-22.5 -8q-4 -4 -26.5 -15.5t-26.5 -13.5q-4 0 -18.5 -3t-16.5 -3q-4 -4 -7 -6t-3 -6q-14 -23 -30.5 -48.5t-26.5 -50.5q-14 -41 -25.5 -81.5t-27.5 -83.5q-10 -20 -23.5 -45t-21.5 -54q0 -2 -1.5 -10t-3.5 -18.5t-3 -20.5t-3 -12q0 -6 -4 -21.5 l-8 -31t-8 -28.5t-4 -20q-4 -2 -6 -12t-5 -14q0 -2 -4 -9.5t-4 -15.5v-10q-2 -4 -7 -14.5t-11 -22.5t-11.5 -22.5t-5.5 -12.5v-10q-4 -8 -7 -25.5t-3 -19.5q0 -4 -9 -18.5t-9 -18.5q-14 -35 -22.5 -68.5t-22.5 -66.5q0 -2 -4 -10t-8.5 -17.5t-8.5 -16.5t-6 -9 q-10 -23 -11 -36t-9 -36q-8 -37 -24.5 -72.5t-27.5 -72.5q0 -4 -5 -16.5t-9 -26t-9 -25.5t-5 -14q-2 -2 -10.5 -13.5t-17.5 -23.5t-17 -22.5t-11 -12.5q0 -4 -6 -14t-8 -15q-4 -2 -9 -11t-11 -20.5t-11.5 -19.5t-7.5 -10q0 -2 -7 -9l-16.5 -16.5t-18.5 -17.5t-15 -10 q0 -2 -7 -8.5t-15.5 -14.5t-16.5 -14t-10 -8q-4 -4 -14.5 -11.5t-12.5 -11.5q-43 -23 -84 -51.5t-88 -36.5h-29q-4 0 -17 -3t-28.5 -5t-31 -5t-21.5 -3q-4 -2 -18.5 -7.5t-18.5 -5.5h-8h-10q-4 0 -14.5 2.5t-22.5 4.5t-22.5 4t-12.5 2q-45 2 -92 6t-90 20q-2 0 -13.5 8.5 t-13.5 8.5q-31 12 -64.5 19t-62.5 28q-86 61 -138 146t-52 196z" />
<glyph unicode="V" horiz-adv-x="1925" d="M244 45q0 27 9 46.5t19 43.5q0 4 2 22.5t7 22.5q2 4 8 11.5t6 9.5q4 0 10 13t10 22q18 45 37 89t37 91q2 6 7 18t10.5 26.5t10.5 27t7 18.5q0 2 4 8t4 10q47 152 99.5 292t117.5 288q2 2 6 12t4 14q12 53 25.5 123t36.5 121q20 41 41.5 77t21.5 85q0 4 -3 14.5t-7 12.5 h-6q-10 0 -18.5 -5.5t-18.5 -5.5q-2 0 -5 1t-5 1q-10 0 -32.5 2.5t-48.5 5.5t-48.5 6t-30.5 7q-10 4 -24.5 18.5t-14.5 28.5q0 18 12.5 30.5t31 19.5t37 9t30.5 2q43 0 85 -16t87 -16q29 0 56.5 11t56.5 11q16 0 28 -1t29 -9h115q35 10 84 19.5t94 9.5q25 0 50 -13.5 t25 -44.5q0 -23 -19 -32t-36 -13q-4 0 -18.5 -1t-31.5 -2t-31.5 -2t-16.5 -1t-19.5 -4t-39 -8t-42 -8t-26.5 -7q0 -6 -9.5 -30.5t-19.5 -52t-19 -52t-11 -30.5q-16 -35 -31 -58.5t-25 -58.5q-2 -4 -5 -22.5t-3 -22.5q-10 -29 -23.5 -58.5t-23.5 -60.5q0 -4 -7 -30.5 t-9 -30.5q-14 -33 -28.5 -59.5t-29.5 -57.5q-2 -10 -7 -27.5t-11 -34t-10.5 -31t-6.5 -18.5q0 -2 -1 -11t-3 -19.5t-3 -19.5t-3 -9q0 -4 -7 -15.5t-9 -15.5q-10 -25 -21.5 -65.5t-15.5 -69.5v-27t-2 -26q0 -2 -2 -6.5t-2 -6.5q-4 -4 -11.5 -17t-7.5 -19q0 -10 10.5 -11.5 t14.5 -1.5q2 0 8 3t10 3q8 4 27.5 26t28.5 30q0 2 9 14t15 21q2 2 10.5 9t17.5 14t17 13.5t13 8.5q2 2 12 13t22.5 23.5l22.5 22.5l14 14q2 2 11.5 10.5t20.5 16.5t19.5 15t12.5 10q2 2 9 6t7 8q2 0 13.5 10t23.5 22.5t23.5 22.5t13.5 14q4 2 19.5 9.5t17.5 9.5q0 2 4 13 t4 14l4 4q4 4 6 4q31 20 56.5 46.5t49 54.5t47 55.5t54.5 50.5q2 2 10 7t19.5 12t20.5 12t13 7q2 0 10.5 8.5l17.5 17.5l17.5 17.5t10.5 12.5q2 0 8 3t8 3q16 12 23.5 28.5t23.5 26.5q66 45 127.5 97.5t116.5 111.5q4 6 15.5 22.5t11.5 26.5v4q-18 25 -58.5 41.5t-80.5 27.5 t-71.5 17.5t-33.5 12.5v18q0 35 15.5 41t45.5 14q2 0 14.5 3.5t22.5 5.5q4 -2 14.5 -4.5t14.5 -4.5l170 -4q25 -4 45 -9t55 -5q25 6 37 7t29 1h37h151q2 0 20.5 2t41 4t44 3t29.5 1q14 0 35 -2t39 -9t30.5 -19.5t12.5 -30.5q0 -10 -1 -21.5t-7 -17.5q-8 -4 -25.5 -11 t-23.5 -7h-135q-2 -2 -11.5 -5.5t-13.5 -3.5q-25 -4 -46.5 -6t-43.5 -12q-4 0 -19.5 -9t-19.5 -14q-2 -4 -11.5 -10t-13.5 -6q-2 -2 -21.5 -8t-23.5 -10q-2 0 -10 -5.5t-17.5 -11.5t-16.5 -11t-9 -5q-18 -10 -33.5 -16.5t-31.5 -20.5q-51 -47 -102.5 -99.5t-104.5 -99.5 q0 -2 -14.5 -11t-20.5 -13q-98 -72 -187.5 -155t-177.5 -165l-24 -16q-4 0 -11.5 -4t-7.5 -8q-2 0 -10 -8.5t-17.5 -17.5t-16.5 -17.5t-9 -10.5q-4 -2 -15.5 -8t-15.5 -8q0 -4 -6 -11t-10 -9q-2 0 -8 -11.5t-8 -11.5q-41 -35 -90.5 -63.5t-94.5 -55.5q0 -4 -3 -6t-3 -4 q-2 -2 -13 -17.5t-16 -19.5q-8 -4 -8 -8q-6 -4 -28.5 -14.5t-26.5 -12.5q-2 -4 -13.5 -18t-13.5 -19q-31 -31 -67.5 -55t-67.5 -53q-41 -33 -78 -71t-75 -72q-27 -23 -54.5 -45.5t-56.5 -45.5q-4 -4 -22.5 -20t-40 -34.5t-39 -35t-21.5 -20.5q-12 -6 -30.5 -20.5 t-32.5 -14.5q-23 0 -30 12.5t-7 32.5z" />
<glyph unicode="W" horiz-adv-x="2576" d="M1100 70q0 45 22.5 89t42.5 85q23 45 53.5 101t47.5 108q16 53 31.5 107t33.5 108q16 53 38 101t22 105q-2 0 -11.5 2.5t-13.5 2.5l-12 -9q-4 -4 -9.5 -6t-7.5 -4q-4 -2 -18 -13t-19 -13q-2 -4 -14 -12.5t-25.5 -17.5t-26.5 -17.5t-15 -10.5q-4 -2 -16.5 -15t-28 -28.5 t-28.5 -30t-18 -16.5q-2 -4 -16 -12t-18 -12q-47 -33 -88 -72t-84 -76q-2 0 -13.5 -7t-13.5 -11q-23 -16 -37 -47t-27 -41q0 -2 -11 -6.5t-13 -4.5q-27 -10 -45.5 -28.5t-38.5 -32.5q-90 -72 -170 -151t-172 -150q-10 -4 -29.5 -18.5t-25.5 -16.5h-7q-23 0 -43 6t-30 29v37 v26q0 16 10 37q0 2 5 13.5t10 23.5t10.5 22.5t9.5 12.5q4 6 10 23.5t8 21.5q0 4 3 19.5t3 17.5q4 4 15.5 23.5t15.5 23.5q0 2 3 13t7 25.5t8.5 27t4.5 16.5q14 29 35.5 64.5t29.5 68.5q0 2 2 11t3 20.5t2 20.5t1 13q10 37 30 73t34 71q2 2 6 12t8 22.5t8 23.5t4 16 q2 6 8.5 15t14.5 20.5t14 22.5t9 19q0 2 2 12.5t4 20.5t4 19.5t2 11.5q6 31 18.5 51.5t26.5 48.5q2 6 8 25.5t13.5 43t13.5 43t10 23.5q2 6 12 28t22.5 46.5t23 46t12.5 27.5q0 2 4 11t4 13q8 27 24.5 56.5t31.5 59.5t26.5 59.5t11.5 58.5v29q-4 6 -11 13t-10 7h-180 q-16 0 -22 21.5t-6 29.5q0 43 33.5 54.5t66.5 11.5q23 0 43 -6.5t43 -6.5h4q2 2 12.5 4.5t20.5 4.5t19 3t12 1h8h10q2 0 13.5 -2t23.5 -4t22.5 -4.5t12.5 -2.5h98h41q35 0 65.5 2.5t65.5 10.5q4 0 11 3t9 3l3 2q2 0 3 1t3 1q14 0 33.5 -4t36 -13.5t28.5 -22.5t12 -30 q0 -23 -27.5 -32t-63.5 -14t-71.5 -8t-54.5 -15q-23 -10 -26 -29.5t-11 -42.5l-4 -4q-2 -2 -4 -2q-2 -4 -5 -13.5t-6 -20.5t-6 -20.5t-3 -11.5q0 -4 -8.5 -14t-8.5 -12q-16 -35 -24.5 -69t-22.5 -66q-23 -59 -52.5 -118t-47.5 -120q0 -2 -4 -16.5t-8.5 -32t-8.5 -31.5 t-4 -16q-27 -63 -59.5 -118.5t-59.5 -119.5q-2 -4 -4 -17.5t-6 -17.5q0 -6 -7 -25.5t-14 -43t-14.5 -43t-7.5 -25.5q-2 -2 -7 -21.5t-5 -23.5q-6 -14 -10 -18t-4 -25q0 -2 2 -2h6q6 4 19.5 11t15.5 7q2 2 13 12.5t23.5 20.5t22.5 19.5t12 11.5q4 2 15.5 9t15.5 11v2q0 4 2 7 q2 4 4 6q4 10 10 10q2 2 18.5 9t18.5 12q4 2 18.5 16t31 31.5t30.5 32t19 18.5q0 2 8 5t17 7t17.5 8t10.5 4q4 4 17 17.5t28.5 29t29 29.5t17.5 19q2 0 15.5 10t19.5 14q2 2 14 9.5t12 9.5q61 53 113.5 107t112.5 112q4 0 15 6t15 8q23 23 29 45.5t23 44.5q4 4 11 11.5 t9 7.5q2 4 8 18t8 18t18.5 18.5t16.5 18.5q18 23 28.5 48.5t18.5 52.5q2 4 8.5 20.5t14.5 37t15 37.5t9 21q6 25 11.5 36.5t5.5 31.5q0 27 -27.5 36t-59.5 14t-59.5 13.5t-27.5 32.5q0 27 16.5 39t38.5 12q23 0 43.5 -2t48.5 -6h406q10 0 23.5 -1t24.5 -4t18 -10t7 -22 q0 -4 -1 -6t-1 -4v-4q0 -4 -17 -15.5t-26 -15.5q-4 -2 -15 -4t-13 -4h-60h-22q-14 0 -40 -15.5t-30 -27.5q-4 -4 -7 -23.5t-5 -23.5q0 -2 -7 -16.5t-12 -20.5q-25 -43 -40 -91t-31 -95q0 -4 -6.5 -21.5t-10.5 -25.5q0 -2 -4 -9.5t-6 -9.5q-2 -8 -12 -39.5t-22.5 -68.5 t-23.5 -69t-14 -40l-7 -14t-11 -21.5t-12 -22.5t-6 -13q-10 -23 -9.5 -50.5t-7.5 -50.5q-14 -39 -33.5 -79t-36 -82t-28.5 -84t-12 -85q0 -4 1 -13t9 -9q2 0 12 3t14 5q2 4 8.5 11.5t10.5 9.5q4 4 19.5 17t32 28.5t30.5 28t18 14.5q2 2 14.5 14t26 26.5t24.5 27t15 16.5 q4 2 15.5 12t25.5 22.5t26.5 22.5t16.5 12q8 10 14.5 17.5t10.5 21.5q10 10 38.5 38t60.5 59.5t60.5 60.5t40.5 39q2 2 13.5 13t25 23.5t25.5 22.5t16 12q4 4 18.5 19.5t32 32t30.5 31t18 18.5q72 70 144.5 132t137.5 138q0 2 4 9.5t4 11.5v4q0 10 -7 23.5t-11 27.5 q-10 12 -20.5 27.5t-26.5 25.5q-12 8 -40 14.5t-54.5 14.5t-47 19.5t-20.5 29.5t11.5 29.5t26.5 16.5t32.5 7t31.5 2q4 0 38 -3t51 -5q45 -6 90 -8t92 -8q2 0 17.5 -5.5t19.5 -5.5h6q33 0 65.5 5.5t63.5 5.5h51q6 0 22.5 -2t33 -3t31.5 -3.5t22 -2.5q10 -8 24 -20t14 -29 q0 -10 -11 -16t-17 -8q-4 0 -18.5 -2t-31 -5.5t-30.5 -6.5t-18 -5q-4 0 -13.5 -3t-21 -7t-20.5 -8t-11 -6q-41 -16 -84 -35t-76 -47q-6 -4 -19.5 -17.5l-17.5 -17.5q-2 -4 -10 -15.5t-8 -15.5q-18 -20 -42 -33.5t-40 -35.5q-4 -2 -10 -14.5t-6 -14.5q-4 -2 -13.5 -11.5 t-20.5 -19.5t-20.5 -20t-11.5 -13q-2 -2 -8 -10t-14.5 -17t-14.5 -17.5t-8 -10.5t-11 -10t-20.5 -19.5l-19.5 -19.5l-10 -10q-2 -4 -6.5 -11.5t-4.5 -9.5q-8 -6 -27.5 -22.5t-41 -34.5t-40 -34.5t-26.5 -22.5q-23 -20 -39 -46t-32 -49l-54 -53q-53 -43 -101 -86t-99 -86 l-17 -16q-4 -4 -14 -14.5t-20.5 -22.5t-19.5 -23.5t-11 -13.5q-4 0 -13.5 -8t-11.5 -8q-10 -4 -23.5 -15.5t-15.5 -13.5q-4 -2 -16.5 -15.5t-27.5 -28.5l-28.5 -28.5l-15.5 -15.5q-4 -4 -11 -6t-9 -6l-107 -109q-2 -2 -5 -8t-5 -6l-14.5 -14.5l-21.5 -21.5t-21.5 -22.5 t-14.5 -15.5q-2 -4 -11 -11t-20.5 -16.5t-21.5 -17.5t-12 -10q-12 -12 -44 -45t-68 -68t-68.5 -67.5l-45.5 -45.5q-10 -10 -27.5 -22t-33.5 -12h-10q-29 14 -34 35.5t-5 50.5z" />
<glyph unicode="X" horiz-adv-x="1824" d="M1407 -4h-6q-4 0 -17.5 -2t-29 -3t-28.5 -2t-15 -1t-14.5 4t-14.5 4h-119q-10 4 -18 9t-8 15q0 14 4 17.5t16 13.5q4 4 18.5 15.5t16.5 11.5q16 6 36.5 8t39 7t31 17.5t12.5 36.5v29q-2 4 -10.5 26.5t-8.5 26.5q-2 4 -6 18.5t-4 16.5q-6 43 -16.5 85t-26.5 81 q-2 2 -6 11.5t-8 20.5t-8.5 21.5t-4.5 14.5q0 2 -6 11t-6 17v11q0 2 -3 12t-6 23.5t-8 25.5t-7 20q-10 23 -17.5 49.5t-30.5 41.5l-2 4h-4q-2 0 -2 -4q-35 -14 -50 -39t-42 -52q-2 -4 -11 -14t-20.5 -21.5t-22.5 -21.5t-16 -14q-4 -4 -27.5 -22.5t-27.5 -22.5 q-12 -10 -39.5 -39t-59.5 -60.5t-60.5 -59.5t-38.5 -40q-6 -6 -15.5 -23.5t-18.5 -37t-15.5 -37t-6.5 -25.5q0 -20 23.5 -34.5t42.5 -22.5q6 -2 17 -7t22.5 -9.5t20.5 -8.5t11 -4t13.5 -2t24 -5t21.5 -6t11 -3q29 -8 29 -33q0 -18 -9.5 -28.5t-23.5 -15.5t-33 -5h-31 q-68 0 -138 5t-138 5h-23q-4 0 -16 -2t-25.5 -3t-25.5 -3t-14 -2q-4 0 -23.5 5t-24.5 5h-41q-43 0 -82.5 -6t-80.5 -6q-10 0 -27.5 1t-19.5 1q-6 0 -22.5 2t-33 5t-32 6t-21.5 5v21q0 20 12.5 33.5t30.5 21.5t37.5 13.5t36.5 9.5q41 10 83 12t81 14q18 6 32.5 21.5 t30.5 25.5q41 29 81 52.5t81 56.5q2 2 10 7t17.5 11t17.5 11.5t10 5.5q2 4 9.5 14t7.5 14q4 0 8 2l10 5q6 6 6 12q33 43 75 80t83 71q29 10 43 38t37 44q4 4 18 14.5t19 12.5q10 8 13 18.5t13 18.5q2 2 15.5 10t26.5 17.5t25.5 17.5t14.5 10l17.5 17.5t19.5 17.5 q8 4 21.5 10t26.5 13.5t22.5 18.5t9.5 25q0 33 -21.5 69t-31.5 61q-25 57 -45.5 113t-36.5 116q-4 16 -16.5 26.5t-18.5 26.5q0 2 -3 10.5t-6 17.5t-5.5 16t-2.5 9q-20 47 -38.5 91.5t-36.5 89.5q-10 23 -13.5 45t-13.5 45q-6 18 -18.5 43.5t-26.5 40.5q-2 0 -8 4t-10 4 q-27 6 -56 6t-56.5 2t-52 11.5t-42.5 33.5q-2 2 -6 10q-2 4 -5 7q0 23 21.5 29.5t34.5 6.5q0 2 24 2h37h45q16 0 32.5 -1t33.5 -7h352q29 4 48.5 6t41.5 2q23 0 35 -6t29 -22l8 -17q-2 -2 -11.5 -13t-17.5 -15q-2 -4 -8 -6t-8 -2q-4 -2 -19.5 -6.5t-34 -8.5t-35 -8t-20.5 -4 q-29 -10 -33 -30.5t-4 -45.5q0 -23 12.5 -58.5t30 -74.5t34 -76t24.5 -59q2 -6 8 -25.5t13 -43t14.5 -43t9.5 -25.5q2 -2 8 -13.5t8 -13.5q12 -18 21.5 -45t40.5 -27q12 0 19 3t20 14l29.5 29.5l44 44t43 44t28.5 29.5q4 4 14.5 18.5t12.5 18.5q6 6 24.5 23.5t37.5 38 t37.5 39t27.5 24.5q25 25 46 39t37.5 31.5t25.5 41t9 64.5q0 4 -1 9t-1 9q-2 6 -2 13l-24 26q-6 0 -19.5 1t-30 3.5t-30 4.5t-19.5 4q-14 2 -31.5 7t-33 15t-25.5 23.5t-10 29.5q0 27 28.5 37.5t47.5 10.5h6q45 -10 91 -12.5t93 -2.5q72 0 139.5 4t137.5 4h35q18 0 34 -2 q4 2 14.5 5.5t14.5 3.5h6q14 0 22.5 -4.5t26.5 -4.5q16 0 24.5 4.5t14.5 10.5t11.5 10t15.5 4q27 0 51.5 -12.5t42.5 -22.5q14 -8 17.5 -22.5t3.5 -24.5q0 -37 -37 -43q-10 0 -21.5 1t-21.5 1q-37 0 -75 -5t-73 -15q-33 -12 -64.5 -35t-60.5 -39l-27.5 -16.5t-35 -20.5 t-30.5 -17t-15 -7l-10.5 -10.5t-17.5 -18.5t-18.5 -18.5t-11.5 -10.5t-16 -13t-16 -13q-4 -2 -11.5 -13.5t-7.5 -13.5q-18 -16 -42.5 -30.5t-47.5 -31.5q-29 -23 -41 -52t-41 -48q-2 -2 -18.5 -9t-16.5 -11q-4 -2 -14 -12.5t-22.5 -22.5t-22.5 -23.5t-12 -13.5 q-4 -2 -17.5 -12.5t-29 -22.5t-28.5 -23.5t-17 -13.5q-4 -4 -20.5 -19.5t-35 -33.5t-34 -34.5t-19.5 -18.5q-14 -14 -24.5 -19.5t-10.5 -25.5q0 -16 9.5 -37t17.5 -37q2 -4 8 -22.5t10 -22.5q23 -49 37 -98t35 -101q0 -4 5 -16t11 -26.5t11.5 -29t9.5 -20.5q2 0 9 -16.5 t7 -20.5t3 -19.5t6 -32.5t6.5 -33.5t3.5 -18.5q2 -4 6 -14.5t8 -22.5t8 -23.5t6 -13.5q10 -29 17.5 -60.5t17.5 -61t28.5 -55.5t51.5 -40q10 -4 44 -9t70.5 -12.5t65.5 -21.5t29 -37q0 -18 -16.5 -27.5t-28.5 -9.5q-100 14 -208 20.5t-210 6.5z" />
<glyph unicode="Y" horiz-adv-x="1548" d="M457 20q0 33 18.5 42.5t44.5 19.5q8 4 28.5 7t22.5 3q4 0 16.5 1t26 2t25.5 2t14 1q18 4 43 18.5t31 37.5q37 111 69.5 216t65.5 216q0 4 4 14t4 14q2 2 7.5 15.5t11.5 29t11 28.5t5 15q6 16 21.5 57.5t32 87.5t29.5 88t20 58q0 2 2 4l2 2q0 2 2 5q4 10 8 21t8 24 q4 10 8 30.5t4 46.5v244q0 4 -3 13.5t-7 17.5q-18 57 -54 98t-89 70q-35 23 -64.5 26.5t-68.5 3.5h-39q-16 -4 -35.5 -15t-37 -27.5t-32 -34t-20.5 -31.5q-4 -10 -12.5 -26.5t-8.5 -18.5q-4 -18 -6 -36.5t-2 -37.5q0 -18 2 -36.5t6 -37.5q2 -16 9.5 -25t15.5 -16.5t14 -18.5 t6 -30q-12 -6 -26 -6q-18 0 -33 15q-53 43 -73.5 99t-20.5 118q0 29 5 64.5t16.5 70.5t28.5 63.5t44 44.5q68 47 131.5 74t151.5 27q57 0 125.5 -20.5t111.5 -59.5q33 -29 58.5 -60.5t52.5 -68.5q8 -12 12 -24.5t9 -26t11.5 -25.5t20.5 -23h8q10 0 20.5 8.5t19.5 20.5 t15.5 24.5t8.5 20.5l117 117q4 4 27.5 18.5t27.5 18.5q25 18 55.5 37.5t61.5 25.5q4 0 18 1t31.5 2t32 3t18.5 5q2 0 17.5 3t19.5 3h8q41 0 88 -17.5t88 -47.5t68.5 -69.5t27.5 -87.5q0 -10 -10 -34.5t-24.5 -49t-31 -44t-28.5 -19.5h-4q-8 0 -20.5 1t-24.5 3t-22 3l-9 1 q-2 2 -12 12.5t-14 16.5q-29 39 -33 90q-4 16 -5 36.5t-4 40t-11.5 36t-26.5 28.5q-4 4 -21 4h-20q-74 0 -132.5 -30.5t-107.5 -87.5q-2 -2 -16.5 -27t-20.5 -37q-4 -10 -13 -27.5t-17.5 -35t-15.5 -30.5t-9 -15q0 -4 -3 -28t-3 -28q0 -2 -4 -12t-9.5 -22.5t-9.5 -25.5 t-6 -20q0 -4 -8 -22.5t-10 -22.5q0 -4 -1 -14t-3 -22.5t-3 -22.5t-1 -12q-12 -53 -35 -101.5t-39 -97.5q-25 -98 -52.5 -194.5t-56.5 -194.5q-6 -29 -19 -54.5t-26 -54.5q-10 -31 -17 -62.5t-18 -64.5q-10 -41 -22 -79.5t-12 -81.5q0 -31 18 -42.5t44 -13.5t53.5 -1t45.5 -7 q4 0 24.5 -14.5t31.5 -22.5q4 -4 14 -13t12 -11v-13q0 -10 -8 -16t-18 -6q-12 -4 -37 -12.5t-29 -8.5q-2 -4 -24 -4h-31q-59 0 -114.5 15.5t-115.5 15.5h-12q-4 0 -16 -1t-25.5 -2t-26 -2t-14.5 -1q-2 -2 -16 -2q-12 0 -27.5 1t-19.5 1q-47 -4 -89 -19.5t-89 -11.5 q-29 4 -55.5 16t-26.5 41z" />
<glyph unicode="Z" horiz-adv-x="1593" d="M143 18q0 10 1 16.5t10 12.5q2 4 15 19.5t28.5 32t30 30.5t18.5 18q2 4 12 23.5t12 22.5q4 2 15.5 9t13.5 9q41 41 70.5 91t64.5 91q4 4 15.5 14.5t13.5 14.5q2 2 9 11t16.5 19.5t16.5 19.5t9 11q4 2 20.5 13.5t18.5 15.5q20 16 29.5 35.5t31.5 44.5q2 2 9.5 9t14.5 14.5 t14 14.5l7 7q4 4 16.5 20.5t26 35t25.5 33.5t16 19l14.5 14.5t26 27t25.5 26.5t14 16q4 2 18.5 19.5t18.5 23.5q45 61 92 121t99 117q2 2 13 12.5t23.5 22.5t22.5 23.5t14 13.5q59 66 109.5 134t114.5 128q4 0 12 4q4 2 8 6t10 26.5t8 26.5q6 14 14.5 23.5t17.5 16.5 t15.5 18.5t6.5 31.5v19q-12 0 -42 2t-65 3t-66.5 3t-43.5 2h-45q-4 0 -18.5 2t-18.5 6h-6q-8 -4 -31 -6t-27 -2q-2 0 -20.5 3t-22.5 7h-6h-4q-47 -8 -96 -12t-97 -16q-6 -2 -18 -4t-23.5 -5.5t-20.5 -5.5t-11 -2q-2 -2 -15.5 -19.5t-17.5 -17.5q-25 -25 -52.5 -45t-49.5 -47 q0 -2 -7.5 -17t-7.5 -20q-4 -2 -11 -11t-15.5 -21.5t-16.5 -23.5t-12 -17q-10 -6 -24.5 -20.5t-24.5 -14.5t-17.5 11t-7.5 20v4q2 16 5 39.5t5 27.5l5 9q6 8 12 17t12 17t8 11l4 12q4 12 5 12q0 4 3 24.5t3 22.5q4 4 15 18.5t13 18.5q2 2 4 14.5t5.5 25.5t5.5 25.5t2 16.5 q4 0 11 15.5t11 19.5q0 2 1 13t2 23.5t2 22.5t1 15q2 4 9.5 24.5t11.5 28.5q2 6 15.5 26.5t25.5 20.5q20 0 30.5 -17.5t16.5 -39t11 -43t18 -29.5q4 -4 25.5 -10.5t29.5 -6.5h111q72 0 138 5.5t138 5.5q74 0 144.5 -5.5t142.5 -5.5h96q25 2 41 3.5t41 3.5q2 2 10 3t17.5 3 t16.5 3t9 1h53q8 0 26.5 -1t37 -4t33 -12.5t14.5 -23.5q0 -10 -10.5 -26.5t-23.5 -33t-26.5 -31t-21.5 -20.5q-2 -2 -10 -9t-17.5 -15t-17.5 -14.5t-10 -8.5q-6 -6 -16.5 -17t-22.5 -22.5t-21.5 -20.5t-11.5 -11q-2 -4 -13.5 -23.5t-15.5 -24.5q-2 -2 -13 -14t-25.5 -25.5 t-26.5 -25.5l-14 -14t-9.5 -10.5t-14.5 -17.5t-14.5 -17.5t-7.5 -10.5q-4 -6 -15 -16t-22.5 -22.5t-21.5 -22.5t-14 -12l-8 -5q-2 -2 -7 -2h-4q-2 -4 -12 -23.5t-14 -23.5t-22.5 -25.5t-40 -46t-40 -46t-22.5 -27.5q-6 -6 -28.5 -35t-49.5 -60.5t-49.5 -59t-28.5 -34.5 q-4 -4 -21.5 -21t-38 -37.5l-38 -38t-21.5 -23.5q-2 -4 -14 -19.5t-25.5 -34t-25.5 -35t-15 -18.5q-4 -2 -14 -13t-14 -16q-4 -2 -17.5 -12t-17.5 -16q-4 -2 -10 -13.5t-11 -11.5q-45 -55 -88 -114.5t-90 -112.5q-4 -4 -13 -13.5t-19.5 -19.5t-19.5 -19.5t-15 -11.5 q-27 -27 -43.5 -44t-16.5 -58q0 -20 2 -32.5t13 -28.5q8 0 24.5 -1.5t33.5 -3.5t32.5 -3t21.5 -1h58q49 0 89 7.5t87 11.5q86 4 172 4q88 0 164 41q35 20 67.5 43.5t67.5 46.5q2 4 17.5 10t19.5 8q25 18 30 31.5t25 42.5q4 2 14.5 11.5t12.5 13.5t17 25.5t19 31.5 q8 14 11.5 32.5t13.5 28.5l100 99q2 0 4 2q2 0 3.5 1t3.5 1q10 0 16 -11.5t9 -24.5t3 -28v-18q0 -33 -14 -61.5t-25 -57.5q-16 -47 -31.5 -95t-31.5 -97q-2 -2 -4 -21.5t-4 -21.5q-2 -4 -8.5 -17.5t-13.5 -29t-14 -28.5t-9 -20q-18 -23 -45 -24q-12 0 -40 1t-61 1t-60.5 -1 t-37.5 -1q-4 0 -16.5 -2t-27.5 -3t-29.5 -3t-20.5 -2h-189q-4 0 -22.5 -5.5t-20.5 -5.5h-78q-41 0 -86 5.5t-88 5.5q-18 0 -37.5 -4.5t-41.5 -4.5q-16 0 -23.5 3.5t-32.5 7.5h-18t-26.5 -1t-28.5 -1h-17h-84q-45 -2 -78.5 -13.5t-76.5 -11.5q-29 0 -61 10t-32 49z" />
<glyph unicode="[" horiz-adv-x="804" d="M154 -530q0 4 -1 11t-1 13q0 8 2 15.5t10 11.5v948q10 61 13 123.5t3 126.5q0 59 -10 117.5t-10 117.5q0 53 10 102.5t10 100.5q0 29 -5 55.5t-5 55.5q0 39 5 72.5t5 68.5v68q-2 2 -6 9t-4 11v8q0 4 4 14.5t6 14.5v90v88q0 2 -2 10.5t-4 19.5t-3 20.5t-1 13.5q4 33 35 45 t55 16q6 2 20.5 3t30 3t28.5 3t19 1q4 0 23.5 -5t26.5 -5h65h66q29 14 61.5 17.5t65.5 3.5h22t23 -3q8 0 25.5 -7t19.5 -11q2 -10 6 -18q8 -20 12 -25v-4v-6q-2 -10 -8 -34t-10 -28q-16 -14 -39 -17t-45 -3h-23q-6 0 -33.5 2t-58.5 4t-57.5 3t-32.5 1q-31 -6 -53.5 -13 t-48.5 -7h-17q-8 0 -16 2q-10 -4 -13.5 -23.5t-5.5 -21.5q0 -8 -2 -26.5t-3 -38t-2 -37t-1 -25.5v-254q0 -4 -3 -30t-7 -30v-18v-19q2 -4 3 -13t3 -19.5t3 -19.5t1 -11v-113v-110q-8 -16 -9 -26.5t-1 -24.5q0 -23 5 -43.5t5 -42.5q0 -23 -5 -39.5t-5 -34.5q0 -27 5 -53.5 t5 -53.5q0 -35 -2 -59.5t-8 -65.5q4 -4 11 -18t7 -21v-18q0 -90 -1 -179t-7 -177q-4 -59 -10 -117.5t-6 -118.5v-31q0 -10 1 -40.5t2 -64.5t2 -63.5t1 -42.5q12 -29 31.5 -30.5t44.5 -18.5h241q27 10 54.5 12.5t56.5 2.5q14 0 22 -2q20 -4 31.5 -33t11.5 -51v-13 q0 -6 -4 -10t-17 -20.5t-22 -16.5q-8 -8 -21 -10t-28 -2h-20h-55q-4 0 -20.5 1t-35 3t-34 4t-19.5 4h-27q-18 0 -43.5 -1t-56.5 -1h-53h-47q-18 0 -25 2q-53 0 -79.5 23t-26.5 76z" />
<glyph unicode="\" horiz-adv-x="1638" d="M1012 381v31l-2 4l-2 4q-2 0 -8.5 4t-6.5 6q-2 8 -6 16q-4 6 -7 13.5t-5 11.5q-16 39 -26.5 77t-24.5 73q-4 16 -10.5 23t-20.5 18q-2 6 -8 20t-12.5 31.5t-12.5 32t-8 20.5q-29 63 -49.5 126.5t-46.5 129.5q-2 4 -7.5 14.5t-10.5 20.5t-9 19t-4 11q-4 6 -14.5 28 t-22.5 48.5t-23.5 49t-13.5 30.5q-4 4 -13 25.5t-19.5 46t-19.5 46t-11 28.5q-2 6 -9.5 22t-16.5 33.5t-16 34t-9 22.5q-4 4 -16.5 20.5t-14.5 18.5l-2 2q-6 18 -6 39q0 23 11 43.5t36 30.5q8 4 17 6t16 2q25 0 41 -16.5t26 -42.5q10 -23 15.5 -42.5t5.5 -41.5v-15 q0 -6 -2 -14q2 -8 10 -25.5t15 -37t14.5 -37t9.5 -23.5q29 -63 59.5 -121.5t56.5 -124.5q12 -35 20.5 -66.5t24.5 -66.5q8 -23 14.5 -35t26.5 -32l117 -281l12 -10l41 -103v-16q6 -6 9 -18q4 -10 10 -22.5t6 -16.5t1 -19.5t3 -17.5q0 -4 4 -10.5t4 -8.5q4 -14 8.5 -20 t16.5 -19q6 -8 18.5 -36.5t16.5 -38.5t6 -17.5t6 -15.5q10 -25 19.5 -49.5t13.5 -48.5l211 -508q16 -6 25.5 -20.5t15.5 -31.5q4 -6 5 -12t5 -12q2 -6 2 -16q0 -39 -37 -56q-4 -2 -10 -4t-12 -2q-8 0 -15 2q-8 0 -21.5 5t-15.5 9z" />
<glyph unicode="]" horiz-adv-x="792" d="M23 -602v6t4 4q0 8 3 37t5 37q41 25 70.5 31t76.5 6h58q6 -2 24.5 -6.5t22.5 -4.5q8 0 36.5 4.5t36.5 6.5h97l20 18q0 2 1 13.5t2 24.5t2 25.5t1 16.5q4 0 7.5 12.5t3.5 14.5v4v6q0 4 -1 26.5t-3.5 48t-3.5 48t-3 28.5v7v4q2 4 3 19t3.5 33.5t3.5 34t1 19.5v6v4 q0 2 -1 10.5t-3.5 17.5t-3.5 17.5t-3 10.5v20t1 38t1 44v45v37q0 16 -2 21q0 4 -1 20t-2 34.5t-2 34t-1 19.5v94q0 51 5 101.5t5 103.5q0 47 -10 93t-10 93t5 91.5t5 89.5v59q-10 16 -10 25q0 10 3 15t7 13v307q4 31 7 46.5t3 44.5q0 20 -1 58t-8 75t-24.5 64.5t-47.5 27.5 q-6 0 -20.5 1t-31.5 1h-28h-21q-53 0 -105.5 -5t-107.5 -5h-4q-23 6 -37 11t-21 13t-10.5 22.5t-3.5 37.5q0 29 5.5 42t15.5 18t25.5 8t35.5 9q0 2 8.5 6.5t12.5 4.5h6h8q2 -2 15.5 -5t29 -6.5t28.5 -5.5t17 -2q2 0 15.5 1t27 3t25.5 3t14 1h6q4 0 24.5 -4t24.5 -4h9 q12 0 20 5.5t19 5.5q20 0 37.5 -5.5t33.5 -5.5h15q4 0 19 1t31.5 3t31 3t18.5 1h6h4q18 -4 23 -22q0 -2 1 -9t1 -14v-16v-559q0 -25 -8.5 -39t-8.5 -39v-24q10 -98 19.5 -196.5t9.5 -197.5v-45t-2 -30q0 -4 -3 -15.5t-6 -25t-6 -25.5t-6 -14v-19v-16q4 -4 7.5 -19.5 t3.5 -17.5v-63q0 -41 -5.5 -80t-5.5 -80v-4q4 -2 12.5 -16.5t8.5 -18.5l2 -2v-2q0 -4 -2 -4q0 -2 -4 -9.5t-6 -9.5v-88q0 -66 6 -129t6 -129q0 -53 -6 -107.5t-6 -107.5q0 -47 6 -92t6 -92v-33q0 -29 -2 -37q-6 -16 -17.5 -26.5t-27.5 -10.5h-307q-8 0 -32 -3t-32 -3 q0 -2 -8 -2t-16.5 1t-10.5 1q-4 -4 -19 -7t-17 -3q-4 0 -27 3t-27 7h-14q-20 0 -40.5 5t-20.5 28z" />
<glyph unicode="^" horiz-adv-x="776" d="M872 1479q-14 0 -28.5 -21.5t-26.5 -36.5q-20 -25 -43.5 -60.5t-46 -72.5t-46.5 -70.5t-44 -54.5q-6 -6 -13.5 -11t-17.5 -5q-18 0 -18 20v9q4 10 6 18t6 18q12 33 25.5 57.5t31.5 59.5q2 4 9.5 17.5t15.5 29t15.5 27.5t9.5 16q0 2 5 11.5t11 19.5t11 20.5t7 12.5 q0 4 10.5 25.5t18.5 37.5q12 25 18.5 37t18.5 29q2 4 8 15t14.5 24.5t15.5 25t9 15.5t10 12t19.5 16.5t21.5 15.5t15 9q4 2 12 3t12 1t11.5 -1t11.5 -3q2 -4 9 -12.5t14 -18.5t13.5 -20.5t6.5 -14.5q10 -33 15 -49t11 -39q4 -20 9.5 -36.5t9.5 -41.5q6 -47 9 -82.5t9 -78.5 q2 -4 5 -16.5t8.5 -29t9.5 -33t8 -24.5q4 -14 7 -23t3 -20q0 -8 -2 -14q-6 -23 -20 -35q-8 -6 -19.5 -13t-30.5 -9q-14 -2 -23 6t-15 16q-18 25 -35 51.5t-25 57.5q-8 23 -13 71.5t-24 83.5q-8 14 -14.5 36t-20.5 22z" />
<glyph unicode="_" horiz-adv-x="1003" d="M-74 -133q0 49 41 70.5t84 21.5q27 0 50.5 -5t50.5 -5h30q6 0 32 2t54.5 4t53 3t30.5 1q4 0 16.5 -2t27 -3t25.5 -3t13 -2q4 0 19.5 4t17.5 4h14q6 0 12.5 1t10.5 1t10 -1t12 -1h15l24 -8q2 -2 6 -2q29 2 53.5 3t30.5 1t18.5 -2t26 -3t24.5 -3t13 -2q4 0 19.5 4t17.5 4 h15q6 0 12 1t10 1t10 -1t13 -1h14l25 -8q4 -2 8 -2h10q8 0 14 1t15 1q25 0 44 -10.5t27 -45.5q2 0 2 -8v-12q0 -33 -10 -50.5t-28.5 -25.5t-42 -9t-48.5 -1h-53q-4 0 -18.5 4t-18.5 4q-6 0 -38.5 -1t-63.5 -1q-16 0 -27.5 1t-15.5 1h-72h-53q-4 0 -12.5 2t-14.5 4 q-23 -4 -50.5 -9t-31.5 -5h-82q-4 0 -28.5 6t-34.5 10q-4 0 -8 4q-20 2 -35.5 3t-20.5 1q-4 0 -18 -3t-30.5 -6t-32 -5t-17.5 -2h-82q-4 0 -28.5 6t-34.5 10q-16 6 -18.5 30t-2.5 34z" />
<glyph unicode="`" horiz-adv-x="1024" d="M1077 1217q-6 -12 -10 -15q-16 -6 -31 -6q-8 0 -24 4l-107 152q-10 33 -24.5 56.5t-30.5 45t-33.5 43t-36.5 51.5q-2 2 -10 20.5t-12 22.5q-2 4 -15.5 11.5t-13.5 11.5q-12 14 -23.5 39.5t-11.5 48.5q0 10 4 22q4 10 18.5 23.5t33 25t37 18.5t32.5 7q4 0 6 -1t4 -1 q18 -6 31.5 -21.5t25 -34t19.5 -38t17 -33.5q2 -4 9 -13t9 -11q18 -29 22.5 -68t16.5 -72l49 -104q2 -2 9 -22.5t12 -30.5q6 -27 19 -53.5t13 -55.5q0 -6 -1 -11t-3 -11z" />
<glyph unicode="a" horiz-adv-x="1165" d="M360 176q0 -57 60 -57q18 0 46 14t55.5 34.5t52 42t38.5 36.5q8 6 30 27.5t45.5 45l44 44t26.5 28.5q2 4 9 17.5t11 17.5q2 4 17.5 19.5t17.5 19.5q4 4 18.5 25.5t16.5 25.5t14 19.5t15 19.5q35 57 62.5 114.5t45.5 118.5q4 10 14.5 37t14.5 35q-4 8 -12.5 22.5 t-16.5 14.5q-12 0 -24.5 1t-24.5 1t-24.5 -1t-24.5 -1t-27.5 -10t-31 -23.5t-29 -27t-21.5 -19.5q-4 -4 -19.5 -10t-17.5 -8q-10 -6 -26.5 -16.5t-18.5 -10.5q-2 -2 -7 -10t-11 -17.5t-12.5 -17.5t-8.5 -10q-4 -6 -19 -21.5t-33.5 -34t-35 -34t-20.5 -19.5 q-2 -4 -12.5 -23.5t-14.5 -23.5q-12 -23 -22.5 -34t-20.5 -40q-4 -4 -11 -16t-7 -16q-2 -6 -18.5 -24.5t-20.5 -22.5q0 -2 -6 -15.5t-10 -19.5q0 -2 -3.5 -13.5t-3.5 -13.5q-2 -4 -6 -11t-9 -16.5t-9 -17.5t-4 -10q-4 -4 -6.5 -38t-4.5 -50v-27zM723 59q0 31 10 59.5 t21.5 57.5t21.5 56.5t10 58.5q0 18 -12 18q-14 0 -27.5 -23.5t-23.5 -31.5q-4 -2 -17.5 -13.5t-21.5 -13.5q-2 -4 -20.5 -14t-22.5 -10q-18 -16 -30.5 -38t-32.5 -36q-53 -47 -127 -88t-148 -41q-45 0 -73.5 14.5t-46 39t-24.5 57t-7 71.5q0 23 5 51.5t13 58.5t18.5 57.5 t18.5 47.5q0 4 8 15.5t10 13.5q0 2 3 10t8 8q2 2 9 12.5t16 23t16.5 22.5t9.5 14q4 4 10 20.5t8 18.5t12.5 11t20.5 19.5t19.5 18.5t13.5 12q2 2 9 13.5t16.5 24t16.5 22.5t9 14q2 0 14.5 12.5t12.5 14.5q2 2 9 10t14 17.5t14.5 17.5t9.5 10q4 4 22.5 9t22.5 7t18 18.5 t19 16.5l10 5t6 6q8 4 28.5 22t28.5 23q2 2 12.5 14t14.5 14h4q6 0 10 2l13 4q63 31 117.5 62t127.5 31q23 0 41.5 -4.5t40.5 -14.5q2 0 12.5 -7t14.5 -9h6q8 0 24.5 17.5t36 36.5t43 36.5t48.5 17.5q33 0 47 -24.5t14 -53.5q0 -41 -17.5 -87t-31.5 -80q-2 -4 -8.5 -17.5 t-8.5 -17.5t-14 -18.5t-14 -16.5q-2 -4 -5 -15.5t-7.5 -25.5t-9.5 -27.5t-7 -17.5t-6 -10l-10 -15q-41 -59 -70 -119.5t-55 -125.5q-4 -4 -10.5 -17.5t-8.5 -17.5q0 -2 -5 -22.5t-5 -24.5q-2 0 -9 -11.5t-9 -13.5q-12 -29 -27.5 -63.5t-15.5 -63.5q25 0 51 16.5t39 12.5 q4 2 17 10t27.5 18.5t27 19.5t18.5 13q14 10 31.5 25.5t38 29t41 23.5t42.5 10q16 0 18.5 -6t2.5 -16q0 -27 -11.5 -44.5t-27.5 -29.5t-35.5 -23.5t-36.5 -23.5q-4 -2 -19 -21.5t-15 -23.5q-6 -4 -20.5 -17.5t-16.5 -17.5q-31 -27 -59.5 -52.5t-60.5 -46t-68 -33.5t-77 -13 q-10 0 -18 -1t-16 -1q-18 0 -31 12q-16 12 -29.5 28.5t-13.5 36.5z" />
<glyph unicode="b" horiz-adv-x="1042" d="M362 86q8 -14 28 -27.5t36 -17.5q18 -2 54 20.5t76 52t75 58.5t49 41q4 2 12 9t16.5 16.5t14.5 17.5t8 12q29 31 47.5 58.5t44.5 58.5q27 33 56.5 65.5t50.5 69.5q37 68 64.5 134.5t43.5 144.5v14q0 12 -6 34.5t-24 22.5q-16 0 -29.5 -8t-36.5 -8q-18 0 -31.5 4t-29.5 4 h-4q-25 -12 -46.5 -26.5t-44.5 -26.5q-8 -8 -25.5 -17.5t-19.5 -11.5l-8 -8t-13 -14t-14.5 -14.5t-9.5 -6.5q-18 -10 -34 -10q-14 0 -31 -18q-2 -2 -11.5 -13.5t-19.5 -26t-19.5 -26.5t-11.5 -14q-2 -4 -11 -12.5t-19.5 -18.5t-19.5 -19.5t-11 -11.5q-2 -4 -9 -19.5 t-14.5 -31.5t-15.5 -31.5t-10 -19.5q0 -6 -6.5 -19.5t-8.5 -15.5q-4 -2 -6 -4t-2 -4t-2 -2q0 -2 -1 -11.5t-2 -20.5t-2 -20.5t-3 -11.5q-2 -4 -11 -23.5t-20.5 -43t-22 -43t-10.5 -23.5q-2 -4 -3 -29.5t-1 -39.5q0 -8 1 -34t3 -34zM166 115q0 47 15.5 87t27.5 83q0 2 4 21.5 t4 23.5q0 2 2 2t4 2l4 4q0 2 4.5 13t9.5 23.5t9 23t4 12.5q4 4 14.5 23.5t10.5 23.5q2 2 7 21.5t5 23.5q8 29 25.5 55.5t29.5 50.5q0 6 7 28.5t9 27.5q2 6 11.5 24.5t21 39t20.5 38.5l11 22q2 2 5 14.5t7 27t8.5 25.5t4.5 15q4 6 12 23.5t10 21.5q0 2 3 10.5t8 17.5 t8.5 17.5t3.5 10.5q2 2 6 21.5t6 21.5q2 4 13 19.5t11 19.5q35 47 51.5 105.5t39.5 111.5q2 4 9 17t11 18q29 47 55.5 109.5t26.5 115.5v26q-2 6 -16.5 20.5t-22.5 14.5h-100q-14 4 -48 6t-42 7q-4 0 -18.5 11t-18.5 15v15q0 25 13 30.5t36 16.5q100 -2 186 9t183 11 q27 0 54 -15.5t27 -43.5q0 -20 -8 -44t-20 -46.5t-24.5 -45t-20.5 -40.5q-2 -4 -5 -22.5t-3 -22.5q-2 -4 -8.5 -22.5t-10.5 -25.5q-20 -43 -37.5 -79.5t-34.5 -79.5q-2 -4 -5 -14.5t-3 -12.5q0 -4 -4 -18.5t-4 -18.5q-2 -6 -12 -24.5t-20.5 -40t-20.5 -40t-12 -22.5 q0 -2 -3.5 -14t-5.5 -14t-7 -9.5l-11 -16.5t-11 -17.5t-8 -10.5q-2 -4 -4 -18t-4 -19q-8 -29 -21.5 -52t-13.5 -54q0 -10 5.5 -19.5t17.5 -9.5h4q6 4 20.5 10.5t16.5 8.5t11 12t19.5 20.5t18.5 19.5t12 11q37 29 72 53q41 31 70.5 52.5t60.5 37t65.5 22.5t86.5 7h51 q20 -20 41.5 -40.5t28.5 -47.5q4 -8 4 -28v-23v-29q0 -18 -4 -24q0 -8 -5.5 -34t-12.5 -54.5t-14 -54t-9 -35.5q-10 -27 -28 -47.5t-28 -43.5q0 -4 -4 -18t-4 -18q-14 -35 -31.5 -54.5t-42.5 -42.5q-2 -4 -9 -15t-7 -15q-18 -23 -37.5 -43.5t-36.5 -44.5q0 -2 -4 -10.5 t-9 -17.5t-9 -18l-4 -8q-2 -2 -10.5 -9t-17.5 -14t-16.5 -13.5t-9.5 -8.5q-4 -4 -18 -19.5t-19 -19.5q-90 -80 -180 -128t-207 -79q-29 -4 -54 -11t-54 -7h-10q-2 0 -12.5 4t-12.5 8q-4 0 -12 -1t-17 -1q-8 0 -10 2q-25 2 -42 16.5t-29.5 35t-18.5 45t-6 47.5z" />
<glyph unicode="c" horiz-adv-x="870" d="M211 307q0 78 14.5 148.5t42.5 142.5q2 6 6 12q6 10 11 13q2 4 14 19t14 20v4q0 8 2 12l4 16q4 6 5.5 13.5t5.5 9.5q2 2 13 14t23.5 25.5t22.5 26t14 14.5q2 2 8.5 18t8.5 21q31 47 76 84.5t86 78.5q20 18 55 34t73 28t75.5 19t66.5 7q23 0 42 -1t42 -11q2 0 13.5 -7 t13.5 -7q29 -14 51 -24.5t41 -37.5q0 -4 5 -16t10 -27.5t10 -30t10 -22.5v-2l2 -4q0 -43 -32 -82t-79 -39q-18 0 -27.5 3t-27.5 18q-18 12 -28.5 49t-20 77t-19.5 70.5t-24 30.5q-2 0 -3 -2h-2h-2q-55 -16 -91 -44t-70 -75q-2 -2 -10.5 -11t-12.5 -13q-2 -4 -14.5 -17.5 t-27.5 -29t-28.5 -28.5t-17.5 -18l-4 -8q-2 -2 -2 -6q0 -2 -2 -4q-92 -154 -127 -332v-37q-4 -31 -10.5 -61.5t-6.5 -61.5q0 -14 1.5 -34.5t5.5 -41t13 -39t26 -28.5q8 -2 24 -8t21 -6q4 0 22.5 7t22.5 7q2 2 12 6t22.5 7.5t22.5 6.5t12 3q37 12 74 41.5t63 56.5 q6 6 20.5 19.5t30 29.5t30 30.5l20.5 20.5h4q8 0 10 -7t2 -15v-15q0 -61 -28.5 -99t-69.5 -85q-31 -31 -59.5 -57.5t-59.5 -47t-66.5 -32.5t-80.5 -12h-39q-4 0 -15.5 3t-13.5 5q-6 0 -32.5 4t-32.5 4l-9 4q-8 4 -10 8q-80 47 -107.5 126t-27.5 169z" />
<glyph unicode="d" horiz-adv-x="1275" d="M365 217v-35t2 -26q0 -6 10 -21.5t12 -15.5q4 -2 6 -2h6q29 0 61 8t54 20q47 23 79 58t77 59q10 10 35.5 38t54.5 58.5t54.5 58t35.5 40.5q4 2 13 13t19.5 23.5t18.5 23.5t12 15q0 4 5.5 15.5t5.5 13.5q20 41 42.5 81t42 81t32 84t12.5 90q0 35 -22.5 55.5t-57.5 20.5 h-25q-10 -4 -36.5 -14.5t-32.5 -14.5q-4 -2 -13.5 -11t-19.5 -20.5t-19.5 -21.5t-11.5 -12q-2 0 -8 -4.5t-14.5 -8.5t-15.5 -8t-9 -6q-76 -66 -135.5 -140.5t-118.5 -156.5q-16 -25 -33.5 -49.5t-27.5 -48.5q-2 -4 -7.5 -17.5t-11.5 -27t-11 -25.5t-7 -14q-2 -4 -14.5 -27.5 t-14.5 -28.5q-10 -25 -17 -49t-7 -51zM164 176q0 111 47 226.5t122 222t166 194.5t181 142q70 43 146.5 82.5t162.5 33.5q6 0 23.5 -2t36 -4t35 -4t24.5 -4q23 4 25 20.5t12 32.5q0 2 8 8t8 9q6 14 11.5 38.5t9.5 34.5q0 4 5 19.5t11 34t11 35t5 20.5q2 6 7.5 26.5t11.5 43 t12 42t8 25.5q0 10 7 16q2 2 8 10.5t12 17.5t11 17.5t5 10.5t4.5 12t8.5 16q0 4 3 14.5t5 23t5 21.5t3 13v4v6q-2 2 -5 8.5t-5 8.5h-45q-10 0 -31.5 1t-43 3t-40 4t-22.5 2q-16 2 -39 13.5t-23 37.5q0 14 28.5 25.5t43.5 11.5q74 0 145.5 6t136.5 10q31 8 45.5 9.5t30.5 1.5 q23 0 46.5 -8.5t23.5 -41.5q0 -29 -13.5 -56.5t-23.5 -53.5q-29 -84 -57.5 -169t-63.5 -167q0 -2 -3 -10t-3 -10q-6 -10 -17.5 -36t-22.5 -52.5t-20.5 -50t-11.5 -31.5q-4 -4 -7 -14.5t-3 -12.5q-4 -16 -10 -42t-13.5 -52.5t-15.5 -51t-16 -38.5q-2 -2 -9.5 -12.5 t-7.5 -14.5q-2 -4 -7 -21.5t-5 -21.5t-3 -14.5t-5 -14.5q-12 -33 -17.5 -63.5t-17.5 -63.5q-2 -4 -14.5 -27.5t-14.5 -25.5q-12 -29 -19 -55.5t-17 -55.5q-16 -61 -36 -118.5t-36 -116.5q-2 -2 -4 -6q-4 -8 -4 -12q0 -2 -8.5 -12.5t-10.5 -14.5q0 -2 2 -12.5t2 -12.5 q43 0 88 19.5t72 50.5q68 82 154 154q10 8 16 9t16 1q16 0 19.5 -7.5t3.5 -19.5q0 -14 -1 -18t-7 -19q-4 -4 -15.5 -18t-23.5 -31.5t-22.5 -33t-12.5 -17.5q-2 0 -5 -7t-5 -11l-17.5 -17.5l-17.5 -17.5q-2 0 -10 -5.5t-10 -5.5q-10 -10 -21.5 -24t-24 -29.5t-23.5 -28 t-22 -18.5q-49 -33 -105 -61.5t-116 -28.5h-12q-37 12 -60.5 44t-23.5 73v10q10 72 30.5 139.5t20.5 139.5q-2 0 -6 1t-8 1l-8 -9q-23 -27 -47.5 -53.5t-45.5 -54.5q0 -4 -11 -22.5t-13 -20.5q-4 -4 -15.5 -17.5t-23.5 -27t-22.5 -25.5t-10.5 -14q-4 -2 -11 -13.5t-9 -13.5 q-6 -10 -27.5 -26.5t-46.5 -33t-48.5 -30.5t-33.5 -18q-8 -6 -25.5 -13.5t-35 -14.5t-31.5 -12t-16 -7h-52q-100 0 -146 47t-46 147z" />
<glyph unicode="e" horiz-adv-x="909" d="M473 696q0 -25 15.5 -28.5t31.5 -3.5h27q2 0 12 5t21.5 11t21.5 12t14 6q4 2 22.5 4.5t23.5 6.5l10 6q2 2 12 8t20.5 12t19.5 11.5t11 7.5q39 27 79 58.5t73 69.5t53.5 82t20.5 97q0 14 -19.5 28.5t-36.5 14.5q-6 0 -14 -2q-16 -4 -21 -4q-82 -27 -146.5 -78t-115.5 -123 q-12 -20 -20 -37.5t-25 -34.5q-23 -29 -48.5 -60.5t-41.5 -66.5v-2zM362 825q4 0 7.5 4.5t5.5 4.5q18 27 24.5 35t28.5 28q2 4 17.5 14.5t17.5 14.5q2 2 9 11t15.5 20.5t14.5 19.5t8 10q29 37 66.5 57.5t76.5 42.5q4 2 13.5 8.5t13.5 8.5q55 41 122.5 53t133.5 12h82 q35 -16 68.5 -41.5t43.5 -66.5q2 -8 3 -33v-31v-39t-3 -26q-2 -10 -6 -19q-4 -8 -6 -15t-4 -11q-4 -10 -14 -25.5t-21.5 -32t-24 -30t-20.5 -19.5q-4 -2 -14 -9t-14 -11q-2 0 -17.5 -6t-17.5 -11q-2 -2 -9.5 -14t-9.5 -14q-16 -14 -40.5 -29.5t-52.5 -30t-55.5 -24.5 t-49.5 -13q-2 -2 -15 -2q-10 0 -18 1t-10 1q-4 -4 -21.5 -5t-27.5 -5q-2 0 -16.5 -3t-16.5 -3q-6 0 -18.5 -2t-28 -4t-29.5 -4t-21 -2q-10 0 -22 1t-23 1q-18 0 -34.5 -7t-24.5 -30q-2 -10 -4 -30.5t-5 -43t-5 -44t-2 -29.5q-4 -8 -6 -17l-5 -20q0 -2 5.5 -20.5t5.5 -20.5 q0 -4 1 -16.5t3 -26t3 -25.5t1 -14q0 -6 6 -19.5t10 -15.5q41 -35 90 -41t99 -6q39 0 69.5 28.5t55 62.5t46 62.5t46.5 28.5q16 0 22 -16.5t6 -30.5q0 -29 -12 -56.5t-29.5 -55t-38 -52t-36.5 -43.5q-4 -4 -10.5 -11t-8.5 -7l-17 -8.5t-28.5 -14.5t-29 -15t-15.5 -9 q-2 0 -8 -8.5t-8 -8.5q-25 -10 -37 -7t-29 -11h-63q-86 0 -130 28.5t-85 106.5q-6 8 -16.5 29.5t-12.5 25.5q-4 10 -10 31t-6 23q-6 70 -7 141q0 57 7 113q4 27 11 46t15 42q0 4 4 17t9.5 28.5t8.5 29t3 17.5q4 8 14 30.5t21.5 47t21.5 46t14 29.5z" />
<glyph unicode="f" horiz-adv-x="763" d="M-504 -485q0 49 34 78.5t81 29.5q33 0 54.5 -21.5t31.5 -52.5v-8q0 -4 3 -15t5 -13q8 -8 28.5 -29t24.5 -25q4 0 20.5 -3t26.5 -3h15q68 0 111.5 36t80.5 89q6 10 21.5 30.5t15.5 24.5t8.5 27t10.5 27q10 23 27.5 45t27.5 45q0 4 7 21.5t9 21.5l7.5 22.5t11.5 35t11 33.5 t5 19q2 2 8 13.5t12.5 22.5t12.5 21.5t6 12.5q4 10 13.5 34.5t13.5 33.5q0 2 3 10t6 17t6 16.5t3 9.5q4 10 21.5 51t38 89t38 89t23.5 53q0 4 7 25t16.5 45.5t17.5 46t12 27.5q0 2 7 14t10 12q23 37 30.5 86.5t22.5 85.5q20 51 39.5 100.5t31.5 98.5v8v2q0 4 -3 6.5t-5 4.5 q-8 -2 -26 -2h-41h-41t-25 2q-6 0 -28.5 4t-24.5 4q-6 0 -25.5 -4t-23.5 -4h-6q-16 0 -18.5 13t-2.5 28q0 14 7 35.5t30 21.5h207q4 -2 14 -4t12 -4h7q25 0 50 42t46.5 96t38 106.5t24.5 72.5q10 31 31 55.5t31 55.5q12 27 21 54.5t24 49.5q29 51 57.5 81t69.5 67q2 2 11 10 t18.5 17.5t16.5 17.5t9 10q20 18 60 27.5t67 17.5q8 2 25.5 4t21.5 2q2 0 12.5 1t22.5 1h27h22h17h26t26.5 -1t18.5 -1q27 -6 59.5 -17.5t61.5 -28.5t49.5 -43t20.5 -60q0 -47 -32 -83t-79 -36q-33 0 -48 12t-24.5 30.5t-16.5 41t-19 41.5q-16 25 -48 40t-63 15 q-20 0 -39.5 -2t-40.5 -16l-21.5 -21.5l-23.5 -23.5q-63 -82 -110.5 -176.5t-88.5 -186.5q-2 -4 -9 -17.5t-15 -28.5t-14.5 -29.5t-6.5 -16.5q-2 -4 -6 -26.5t-4 -26.5q-4 -16 -12 -31.5t-8 -34.5q0 -10 10 -17t20 -7h197q4 0 17.5 -4.5t15.5 -6.5q14 -12 14 -26 q0 -10 -2 -29.5t-16 -26.5q-8 -2 -36 -8t-36 -10h-21h-16q-2 0 -13.5 6t-13.5 6q-4 0 -23.5 -1t-35.5 -1q-20 0 -23 2q-4 0 -15 3t-13 3q-12 0 -33.5 -11t-28.5 -23q-35 -82 -63.5 -163t-56.5 -167q-10 -37 -28 -71t-34 -72q-2 -2 -4 -16.5t-4 -18.5q-27 -78 -55.5 -154 t-55.5 -153q-16 -10 -27.5 -43t-15.5 -50q-2 -4 -6 -15t-9 -25.5t-9 -27t-4 -14.5q-4 -4 -14.5 -22.5t-12.5 -22.5q-14 -29 -22.5 -58.5t-22.5 -57.5q-2 -4 -8 -16.5t-14.5 -26t-14.5 -25.5t-8 -14q-2 -4 -8 -23.5t-11 -21.5q-66 -102 -157.5 -172t-196.5 -119q-4 0 -8 1 t-8 1q-29 0 -56.5 -9.5t-56.5 -9.5q-4 0 -23.5 -2t-44 -3t-49 -3t-36.5 -2h-19h-14q-6 2 -17.5 6t-22.5 10.5t-20.5 11.5t-11.5 9q-27 18 -33 50t-6 59z" />
<glyph unicode="g" horiz-adv-x="925" d="M442 451q0 -29 6.5 -59t40.5 -30q18 0 39 13.5t40.5 33t36 40t24.5 32.5q8 10 22.5 30.5t14.5 23.5q2 2 9 17t9 19t9 18.5t9 16.5q8 12 12.5 16.5l8.5 8.5t7 10t7 21q25 57 41.5 106t16.5 111v14q-2 8 -5.5 24.5t-6.5 32t-5 28.5t-4 17q-10 37 -45 37q-20 0 -42.5 -15.5 t-44 -37t-39 -46t-25.5 -40.5q-6 -6 -13.5 -16.5t-14.5 -21.5t-13.5 -20.5t-6.5 -11.5q-2 -4 -9 -19.5t-7 -19.5q-4 -2 -9 -11t-5 -13q-4 0 -5 -7.5t-1 -11.5q-20 -63 -30.5 -121.5t-14.5 -130.5q-4 -12 -5.5 -20t-1.5 -18zM250 -168q0 -27 6 -61.5t17.5 -68.5t27.5 -62.5 t39 -45.5q4 -2 16.5 -9t26.5 -16t27.5 -17.5t19.5 -10.5q2 -2 14.5 -6t14.5 -4t8 -3t8 -7q2 -2 11.5 -7.5t20.5 -11.5t20.5 -11t13.5 -5q2 0 21.5 -1t21.5 -3q4 0 18 -6t19 -8q49 -18 108 -19q23 0 42.5 6t41.5 6q4 0 9 -1t9 -1q39 31 77 69t38 93q0 23 -4 44.5t-20 37.5 q-2 2 -12.5 10t-20.5 17.5t-20.5 16.5t-12.5 9q-78 72 -172 119q-43 23 -98.5 52.5t-112.5 29.5q-23 0 -36 -1t-42 -11q-14 -2 -41.5 -8.5t-29.5 -8.5q-2 0 -20.5 -18.5t-27.5 -26.5q-4 -6 -15 -23.5t-11 -27.5zM51 -197q0 37 15.5 68t40 55.5t55.5 44t61 33.5q18 4 35.5 6 t34.5 2q16 0 27.5 -1t17.5 -1q4 0 23.5 3t23.5 7q8 4 9 13.5t1 17.5q0 16 -8 31.5t-17.5 31t-16.5 31t-7 31.5t7 30.5t16.5 27t17.5 24.5t8 27v14q-47 53 -76.5 116.5t-29.5 137.5q0 45 5 84t19 78q10 27 20.5 64.5t26.5 62.5q29 51 70 99t91 86t107.5 61.5t121.5 23.5 q33 0 64.5 -15.5t59 -38t51 -49t42.5 -51.5l4 5q16 16 24.5 25t30.5 26q35 29 55.5 46t63.5 17q27 0 50.5 -13t23.5 -46t-11.5 -65.5t-50.5 -32.5q-6 0 -8 2q-2 0 -4 2q-4 0 -22.5 13t-20.5 13q-16 6 -37 6q-37 0 -64 -10q-10 -8 -16 -13t-16 -15q-4 -2 -7.5 -14.5 t-7.5 -16.5v-35q0 -4 -4 -14.5t-4 -14.5t-1 -19.5t-3 -33.5t-3 -34.5t-3 -20.5q0 -4 -3 -17.5t-5 -21.5q-4 -12 -11.5 -33.5t-14.5 -43t-12 -39t-5 -19.5t-7.5 -11.5t-15.5 -20.5t-17 -21.5t-14 -16.5q-35 -39 -72.5 -71.5t-82.5 -53.5q-2 0 -10.5 -3t-17.5 -6t-17 -6 t-10 -3q-10 -4 -28 -11.5t-35 -15.5t-30.5 -14t-15.5 -6q-4 -2 -14.5 -12.5t-12.5 -16.5v-10q0 -49 16.5 -78t43 -47.5t61.5 -31.5t70 -30q6 -2 21.5 -9t33 -16.5t31.5 -16.5t20 -9q39 -23 86 -52.5t93.5 -65.5t84 -74.5t56.5 -81.5q8 -18 11 -45t3 -47q0 -14 -3 -38 t-11 -40q-10 -18 -32.5 -42t-49.5 -47.5t-53.5 -41t-44.5 -23.5q-10 -4 -38 -11t-36 -7q-2 -2 -14 -2q-10 0 -23.5 1t-15.5 1q-4 -4 -19.5 -7.5t-19.5 -3.5h-54q-92 0 -174 33t-168 58q-29 4 -50 9t-40 19q-8 4 -25.5 15.5t-36 24.5t-34.5 24.5t-20 17.5q-55 41 -79 100 t-24 125z" />
<glyph unicode="h" horiz-adv-x="1159" d="M150 45q0 53 18 98t37 93q25 86 61 172q6 10 15.5 29.5t13.5 23.5q2 4 14.5 18.5t14.5 20.5v51v18q2 10 6 19q8 20 10 26q33 74 55.5 151t50.5 148q18 47 41 92.5t45 90.5q0 4 3.5 14t5.5 14q0 4 2 25.5t4 26.5q4 14 16 46.5t24.5 69.5t25 70t16.5 45q2 2 8 14.5t14 27.5 t15.5 28.5t9.5 17.5q0 4 3 23.5t3 23.5q4 0 7 11.5t3 13.5q4 10 11.5 34.5t7.5 28.5v6q0 8 -10.5 13.5t-18.5 9.5q-8 0 -32.5 1t-53.5 2t-55.5 3t-36.5 2q-8 0 -33 5t-25 20v12q6 10 31 22.5t35 12.5h39q8 0 14 2q4 0 17 4q6 2 10 4q43 4 87 5t85 5q2 0 12 1t20.5 2t19.5 2 t11 1q4 0 20.5 1t26.5 1q4 0 21.5 -1t24.5 -1q14 -4 16 -12t2 -20q0 -37 -21.5 -71t-31.5 -67q-29 -80 -57.5 -159.5t-63.5 -157.5q0 -2 -4 -12.5t-8 -21.5t-8.5 -22.5t-6.5 -17.5q0 -2 -4 -14t-8 -25.5t-8 -26t-6 -14.5q0 -2 -8.5 -9t-10.5 -11q-4 -6 -14 -22.5t-12 -20.5 q0 -4 -3.5 -22.5t-3.5 -22.5q-4 -4 -11 -19.5t-9 -15.5q0 -4 -5 -14.5t-5 -14.5t-4 -19t-8.5 -31.5t-9.5 -32t-5 -17.5q-8 -31 -22.5 -48.5t-14.5 -53.5q0 -6 2 -19.5t15 -13.5q18 0 27 15.5t20 29.5q4 4 17 17.5t28.5 27.5t29 27.5l17.5 17.5q2 2 8 13.5t8 13.5 q4 4 14.5 14t22.5 21.5t22.5 22.5t14.5 15q27 25 59.5 54.5t68.5 56.5t74 44t72 17q63 0 106.5 -25.5t84.5 -74.5q16 -25 20 -53.5t4 -59.5v-34q0 -43 -1 -77t-9 -75l-4 -8q-4 -8 -4 -12q-4 -6 -10 -31t-8 -31q-10 -41 -18.5 -87t-26.5 -85q-4 -4 -14.5 -22.5t-14.5 -22.5 q-18 -41 -34.5 -80t-47.5 -74q-2 -4 -21.5 -23.5l-23.5 -23.5q0 -2 -4 -9t-9.5 -16.5t-9.5 -17.5t-6 -8q-2 -4 -15 -19.5t-20 -19.5q-59 -49 -118.5 -89t-141.5 -40q-33 0 -62.5 11.5t-53 31t-37 47t-13.5 60.5q0 37 16.5 68.5t57.5 31.5q63 0 117 -39q12 -6 23.5 -21.5 t27.5 -15.5q18 0 32.5 10.5t26 24.5t20.5 30.5t15 26.5q23 29 49.5 52.5t40.5 56.5q16 29 33 70t25 75l1 10q1 9 2 20t2 21.5t1 12.5q2 2 6 13t9 25.5t9.5 27t6.5 16.5q6 25 7 40t1 33v35q0 63 -5 107.5t-40 99.5q-12 14 -16.5 16.5t-20.5 2.5q-20 0 -44 -3.5t-38 -7.5 q-2 0 -9 -7t-9 -7q-2 -4 -18.5 -15.5t-16.5 -13.5q-4 -4 -17.5 -19t-29 -31.5t-29.5 -32t-16 -17.5q-2 -4 -5.5 -5t-5.5 -5q-63 -51 -116 -117q-18 -23 -30.5 -49.5t-33.5 -48.5q-23 -29 -38 -59.5t-32 -59.5q0 -2 -5 -5t-9 -3q-39 -51 -61.5 -108.5t-53.5 -112.5 q-25 -47 -50 -94.5t-52 -94.5q-10 -20 -15 -37.5t-13.5 -30t-22.5 -18.5t-41 -6q-4 0 -16.5 1t-16.5 1q-10 4 -18 18.5t-8 26.5z" />
<glyph unicode="i" horiz-adv-x="741" d="M612 1651q0 63 39 93t99 30q25 0 47 -11.5t39.5 -29t27.5 -40t10 -44.5q0 -16 -9 -40t-23.5 -44.5t-32.5 -36t-35 -17.5q-66 -4 -114 33t-48 107zM233 96q0 20 4.5 35.5t12.5 34.5q4 8 13 27.5t19.5 43t19.5 44t13 28.5q0 2 3.5 5t3.5 5q47 66 73.5 137.5t61.5 143.5 q2 2 9 12.5l15 22.5t14.5 22.5t8.5 14.5q35 61 64.5 122.5t54.5 127.5v6v4q-4 2 -6.5 6t-4.5 4l-4 2l-4 -2h-2q-27 -6 -57.5 -31.5t-61 -55.5t-60.5 -52.5t-54 -22.5q-10 0 -19.5 9.5t-9.5 21.5v6q16 43 48 72t63 63q0 2 3 8.5t3 8.5q4 2 25.5 16t29.5 21q33 18 62.5 38.5 t61.5 39t65.5 29.5t72.5 11q41 0 61.5 -27.5t20.5 -62.5v-16t-2 -12q0 -2 -7 -12.5t-11 -14.5q0 -4 -6.5 -18.5t-14.5 -32t-14 -31.5t-6 -16q-16 -33 -28.5 -67t-29.5 -62q-2 -4 -8 -14.5t-13 -23t-14.5 -22.5t-9.5 -14q-23 -39 -40 -83t-40 -85q-12 -23 -28.5 -41 t-26.5 -41q-4 -6 -10 -29.5t-6 -27.5q-4 -10 -16.5 -39t-20.5 -41q-2 -4 -14.5 -13.5t-14.5 -11.5q-2 -4 -5 -23.5t-3 -23.5q-2 -2 -9 -12t-7 -14q0 -2 -1 -4.5t-1 -4.5q0 -12 5 -15t15 -3q37 0 54.5 12t41.5 35q4 0 8 2q8 4 13 4q4 4 13 6t13 4l62 62q4 6 25.5 23.5 t29.5 23.5q16 10 34.5 23.5t39.5 13.5v-25q0 -8 -1 -15t-7 -16q-8 -10 -22.5 -27.5t-29 -35.5t-26.5 -34.5t-17 -20.5q-16 -20 -40.5 -46t-53 -50.5t-57.5 -45t-55 -30.5q-31 -12 -67 -23.5t-71 -11.5q-47 0 -85 24.5t-38 77.5z" />
<glyph unicode="j" horiz-adv-x="620" d="M702 1739q0 39 29 59.5t62 34.5q4 0 8 2l8 4q6 2 10 4q55 -6 92 -34.5t37 -84.5v-22q0 -8 -1 -15.5t-7 -15.5q-4 -4 -14.5 -15t-22.5 -22.5t-22.5 -21.5t-14.5 -15h-14h-14q-2 2 -12.5 6.5t-12.5 4.5q-4 0 -22.5 4t-22.5 4q-10 4 -21.5 19.5t-20.5 35t-16.5 39t-7.5 29.5 zM-416 -408q0 8 9.5 17.5t22.5 16.5t26.5 11.5t23.5 4.5q29 0 40 -25t32 -41q39 -29 79 -46t89 -17h24t25 2q4 4 17.5 17t27.5 27.5t27.5 27t17.5 18.5q2 0 8 16.5t8 20.5q4 4 9 10q8 12 12 14q37 51 63.5 113.5t49 128t43 131t43.5 125.5q10 27 21 49.5t22 48.5 q4 4 10 27.5t8 29.5q2 2 9 11.5t7 13.5q4 0 9 8l4 8q0 4 4 25t4 25q2 0 9 10t7 12q10 29 23.5 68t21.5 67q2 6 5.5 19.5t7.5 15.5q10 49 27.5 88t33.5 84v4q0 8 -3 18.5t-3 14.5q-33 0 -61.5 -10t-55 -25.5t-52.5 -35t-50 -35.5q-14 -10 -29.5 -23.5t-36.5 -13.5 q-14 0 -16 11t-2 26q0 10 1 22t11 23q6 6 22.5 23.5t35 35.5t36 35.5l23.5 23.5q4 2 10 12.5t8 14.5l15.5 15.5l22.5 22.5l21.5 21.5t12.5 14.5q4 2 22.5 12t22.5 12q31 23 60.5 44.5t61.5 38t67.5 26.5t76.5 10q39 0 53.5 -27.5t14.5 -62.5q0 -41 -15.5 -74t-29.5 -71 q-16 -41 -33.5 -78t-28.5 -76q-4 -6 -10 -27.5t-8 -27.5q-10 -31 -22.5 -63t-22.5 -62q-4 -4 -12.5 -18.5t-8.5 -18.5q-2 -4 -7 -24.5t-11 -43t-11 -42t-8 -23.5q0 -2 -4 -12.5t-9 -21.5t-11 -22.5t-8 -17.5q-27 -43 -40.5 -87t-25.5 -95q-8 -31 -24.5 -60.5t-28.5 -62.5 q-2 -4 -4 -19.5t-4 -17.5q-4 -8 -10.5 -28.5t-13.5 -42t-13 -40t-8 -24.5q-10 -25 -28.5 -56.5t-41 -62.5t-45.5 -57.5t-39 -40.5q-4 -2 -15.5 -8.5t-15.5 -10.5t-17 -10t-30.5 -14t-32 -14.5t-18.5 -8.5q-2 0 -11 -7t-21.5 -14t-24 -14.5t-15.5 -9.5q-2 0 -8 -3t-8 -5 q-4 0 -14.5 -4t-12.5 -4q-10 -4 -31.5 -15.5t-25.5 -13.5q-2 -4 -6 -8q-8 -8 -10 -8q-4 0 -13.5 -2t-19.5 -3t-18.5 -2t-10.5 -1q-4 -2 -19.5 -6.5t-17.5 -4.5h-10h-8q-14 2 -36.5 7.5t-45.5 13.5t-43 18t-29 25l-7 14t-10 21.5t-10 21.5t-5 16q-4 2 -7.5 15.5t-5.5 19.5v6z " />
<glyph unicode="k" horiz-adv-x="1042" d="M598 713v-13q4 -4 17.5 -11t17.5 -7q8 0 29.5 -2t25.5 -2q10 0 31.5 2t23.5 2q4 0 19.5 3t33 7t34 8.5t22.5 8.5q2 0 8 4l13.5 9t14.5 9t9 4t10 3t17.5 6.5t16.5 6.5t9 3q37 16 73 48t36 72q0 43 -33 61.5t-72 18.5q-45 0 -96 -15t-88 -40q-4 -2 -14.5 -12t-22.5 -20.5 t-23.5 -20.5t-13.5 -12q-16 -12 -32.5 -24.5t-32 -26t-24.5 -30.5t-9 -40zM156 41v45q0 47 15 83t38 79q2 0 5 11t5 15q18 66 45 131.5t53 131.5q2 4 6.5 15t8.5 24.5t8 25.5t4 16q2 4 5 22.5t5 23.5q0 4 5.5 16t11.5 26.5t11 28t9 19.5q0 2 5 12t11.5 22.5t12.5 23.5t6 13 q2 4 4 22.5t6 22.5q0 2 4 13.5t9.5 24t9.5 22.5t6 14q0 2 2 13.5t5 22.5t5 21.5t4 14.5q0 2 5.5 12t11.5 22.5t12 22.5t6 14t3 17.5t6 29t5 29t5 15.5q2 8 14 37.5t26.5 63.5t26.5 62.5t14 36.5q2 2 4.5 10.5t5.5 18.5t5 19.5t2 13.5q14 37 35.5 82t21.5 84q0 29 -40 35 t-87 8t-87 8t-40 35q0 16 15 30q6 0 18 3.5t23.5 5.5t20.5 4t11 2h353q29 0 33.5 -12.5t4.5 -34.5q0 -12 -6 -37t-16 -51.5t-21.5 -51t-19.5 -39.5q-4 0 -11 -8t-7 -12q-4 0 -7.5 -19.5t-3.5 -23.5q-4 -12 -11 -35.5t-7 -28.5q-2 -2 -9.5 -8t-7.5 -10q0 -2 -3 -9t-6 -16.5 t-6 -17.5t-3 -10q0 -4 -12.5 -22.5t-14.5 -20.5q-2 -4 -5 -23.5t-5 -21.5q0 -4 -6 -14.5t-12 -22.5t-11.5 -23.5t-7.5 -13.5q0 -2 -2 -11.5t-5 -20.5t-5 -20t-2 -12q-4 -4 -8 -15t-4 -13t-6.5 -13.5t-12.5 -25.5t-11 -26.5t-7 -14.5q-2 -4 -4 -18.5t-6 -16.5q0 -4 -5.5 -14 t-11.5 -22.5t-12 -24t-6 -13.5v-10q0 -16 6 -21t20 -5q20 0 30.5 8t17 19t13.5 23.5t21 22.5q4 0 15.5 3t13.5 5q4 4 13.5 18.5t11.5 18.5q20 25 52 50.5t68.5 47t74.5 35t73 13.5q55 0 93 -25.5t73 -66.5q4 -4 11 -17.5t7 -17.5q4 -8 4 -31v-25v-22q0 -16 -2 -29.5 t-8 -29.5q-10 -18 -31.5 -40t-47 -41.5t-54.5 -36t-51 -24.5q-10 -6 -32 -13t-43.5 -14.5t-38.5 -12.5t-21 -5q-2 -2 -17 -2q-12 0 -26.5 1t-18.5 1q-4 -4 -18.5 -6t-18.5 -6l-4 -4l-4 -4q-2 -6 -6 -27.5t-4 -26.5q0 -2 2 -10t3 -17t3 -16.5t2 -9.5q10 -80 30.5 -134 t51.5 -128q10 -27 20.5 -47.5t42.5 -20.5q6 0 11 3q4 0 6 2q23 12 43 32.5t37 36.5q6 4 16 13.5t20.5 18.5t18.5 16t8 10q4 0 10.5 3t8.5 3l4 2q16 0 16 -19q0 -12 -9 -30.5t-21.5 -38t-24.5 -37t-19 -29.5q0 -2 -5 -10t-9 -17.5t-9 -16.5t-5 -9q0 -4 -6.5 -11.5t-10.5 -9.5 q-2 -2 -10 -11t-16 -20.5t-16.5 -19.5t-10.5 -10q-16 -20 -42 -24.5t-52 -4.5h-25h-53q-41 23 -66.5 63t-41.5 81q-2 8 -6.5 21t-4.5 18q0 6 -3 26.5t-6 44t-5 45t-4 27.5q-4 35 -15.5 68.5t-19.5 68.5q0 4 -5 27.5t-5 34.5q0 8 -6.5 26.5t-14.5 36.5t-18 32.5t-19 14.5h-6 q-2 -4 -13 -9t-13 -11q0 -2 -2 -10.5t-3 -17.5t-2.5 -16.5t-1.5 -9.5q-10 -43 -33.5 -82.5t-39.5 -80.5v-19q-6 -41 -22.5 -73.5t-39.5 -69.5v-8q-4 -10 -14 -42t-14 -42q-2 -2 -12.5 -27t-14.5 -37q-12 -27 -28.5 -53.5t-49.5 -26.5q-23 0 -38 5.5t-27 23.5z" />
<glyph unicode="l" horiz-adv-x="630" d="M131 86q0 33 10.5 63.5t25.5 60.5t32.5 58.5t31.5 57.5q12 33 19.5 66.5t21.5 68.5q4 2 12.5 13t8.5 13t2 4.5t4 6.5t4 6q12 43 28.5 78.5t33.5 74.5q12 31 21 65t24 64q23 51 50 102.5t50 104.5q2 6 8 23.5t14.5 36t14.5 35t8 22.5q2 2 2 6q0 8 2 12l4 17q2 4 9.5 14 t7.5 12q51 80 84.5 169.5t68.5 175.5q12 29 25.5 52t13.5 52q0 4 -1 13t-1 12q-2 12 -35 14t-70.5 5t-69.5 11t-32 33q0 16 11.5 26.5t29 15.5t38 7t38.5 2h39q47 0 96 -2t90 -6q29 -4 52.5 -16.5t23.5 -40.5q0 -39 -19.5 -72t-37.5 -68q0 -2 -4.5 -14t-4.5 -14 q-2 -4 -8 -19.5t-14 -34t-14.5 -35t-8.5 -18.5q-2 -4 -5 -19.5t-8 -32.5t-8 -31.5t-5 -18.5q-4 -2 -10.5 -11.5t-6.5 -13.5q-16 -20 -20 -44.5t-19 -47.5q0 -4 -8 -14t-10 -15q-2 -6 -12 -31.5t-22.5 -56t-24 -57.5t-13.5 -33q-12 -35 -29.5 -62.5t-33.5 -62.5 q-10 -29 -22.5 -63.5t-20.5 -63.5q-16 -53 -38 -99t-44 -93q-31 -61 -63.5 -128t-55.5 -132v-17q0 -16 3 -22t20 -6h12q47 16 73.5 38.5t63.5 49.5q14 12 33.5 26.5t41 26.5t43 21.5t40.5 9.5q10 0 16 -3t6 -16q0 -31 -16 -53q-8 -6 -26.5 -24.5t-38 -39t-38 -38 t-26.5 -23.5q0 -6 -11.5 -20.5t-15.5 -16.5q0 -2 -3 -6t-5 -4q-49 -33 -98 -64.5t-100 -60.5q-43 -27 -72 -37t-84 -10q-41 0 -59.5 24.5t-18.5 61.5z" />
<glyph unicode="m" horiz-adv-x="1953" d="M252 104v19q16 57 43 99t47 93q29 61 56.5 131t62.5 132q4 2 15 12t13 12q0 2 4.5 12.5t9.5 21.5t10 22.5t9 17.5q2 4 10.5 23.5t10.5 23.5q4 8 13 26.5t18.5 38t17.5 37t12 23.5q23 41 29 69.5t6 73.5q-2 0 -4 1t-6 1q-2 0 -4 -2q-4 0 -23.5 -8t-23.5 -8q-2 -2 -20.5 -4 t-22.5 -4q-4 0 -14.5 -8.5t-23 -17.5t-23.5 -18.5t-13 -11.5q-4 -2 -14.5 -9t-14.5 -7q-29 -16 -60.5 -44t-70.5 -28q-8 0 -11 7.5t-3 13.5q0 25 11 41t28 37q35 41 73.5 79.5t83.5 69.5t96.5 49.5t110.5 18.5q35 0 56.5 -8.5t21.5 -49.5v-24q0 -2 -4 -17.5t-4 -19.5v-45 q0 -4 -3 -18.5t-3 -18.5q-2 -2 -4 -11t-4.5 -19.5t-3.5 -19.5t-1 -11t-4 -14.5t-6 -14.5v-8q0 -10 9.5 -17.5t19.5 -11.5q6 6 23.5 19.5t21.5 17.5q47 35 90 75t90 68q66 43 133.5 82t151.5 39q37 0 50 -4t16 -14.5t4 -25.5t18 -40q-4 -8 -14.5 -39t-14.5 -41 q-10 -41 -26.5 -77.5t-16.5 -82.5v-2q0 -4 3 -10t3 -10h6h7q53 31 92 76t90 80q2 2 8 5t6 5q66 45 121 87t127 73q10 4 28.5 12t35 15t29.5 13.5t16 6.5h40q4 0 11.5 1t17.5 1q14 0 26.5 -2t20.5 -9q23 -16 48.5 -44.5t25.5 -59.5v-6q-16 -45 -34.5 -95.5t-39.5 -90.5 q0 -10 -10 -11q0 -4 -3 -10t-3 -8q-33 -92 -79 -172t-87 -164q-8 -6 -23.5 -32.5t-30 -58.5t-25.5 -60.5t-11 -34.5q0 -10 3 -21.5t15 -11.5h9q41 18 77.5 46t69.5 54q18 16 37.5 37t41 39t45 30.5t52.5 12.5h33q0 -2 4 -5t4 -5q2 -2 2 -4q0 -10 -14.5 -33t-32.5 -46.5 t-36.5 -44t-26.5 -28.5q-16 -12 -55.5 -47t-82.5 -74t-80.5 -73.5t-54.5 -47.5q-4 -4 -18.5 -12t-18.5 -8l-24 -8q-29 0 -63 2t-62.5 13t-48 32.5t-19.5 58.5v13q18 76 52 139t65 129q2 6 9 28.5t11 26.5q0 6 9.5 24.5t20.5 40t21.5 40t12.5 22.5q2 6 8 20.5t13.5 31 t13.5 30.5t10 21q10 31 19.5 58.5t25.5 59.5q14 33 37.5 56.5t23.5 64.5v4q-2 4 -8 18.5t-10 18.5h-37q-57 0 -100 -35t-86 -67q-4 0 -19.5 -6.5t-19.5 -8.5q-2 -4 -13.5 -18t-15.5 -16q-2 -4 -12 -15.5t-12 -13.5q0 -4 -5.5 -19.5t-5.5 -19.5l-36 -37q-4 0 -14.5 -7 t-12.5 -9l-4 -8q-2 -2 -2 -7v-2q-8 -12 -20.5 -33.5t-25 -42t-21.5 -36t-9 -17.5q-8 -6 -14 -12l-15 -14q0 -2 -3 -11.5t-7 -20.5t-8 -21.5t-6 -12.5q-10 -23 -24.5 -40t-29.5 -38q-16 -25 -22 -50t-33 -44q-37 -78 -76 -148.5t-106 -129.5h-31q-29 0 -47 1t-47 7 q-10 20 -19.5 38.5t-9.5 43.5q0 16 1 31.5t7 31.5q2 6 11.5 23.5t19.5 37t19.5 38t13.5 26.5q4 6 15.5 20.5t13.5 18.5q4 6 17 27.5t15 27.5q4 2 8.5 8.5t4.5 8.5q16 51 34.5 92t47.5 88q2 4 8 11t8 9q2 6 9 24.5t14.5 39t13.5 38t8 23.5q2 4 9 18.5t14 18.5q16 37 34.5 82 t18.5 86q0 18 -12.5 29.5t-28.5 11.5q-20 0 -33.5 -4t-36.5 -14q-2 0 -10 -4q-4 -2 -6 -5q-4 -2 -14.5 -14t-14.5 -12q-4 -2 -16 -9.5t-25.5 -15.5t-26 -15t-14.5 -9q-18 -10 -32.5 -31t-27.5 -41t-28.5 -37.5t-38.5 -23.5q-33 -78 -78 -143.5t-86 -137.5 q-16 -31 -30.5 -61.5t-30.5 -57.5l-127 -190q-12 -20 -26.5 -45t-32 -45.5t-39 -35t-47.5 -14.5q-39 0 -56.5 24.5t-17.5 59.5z" />
<glyph unicode="n" horiz-adv-x="1261" d="M770 106q0 43 18.5 69t34.5 61q4 2 13.5 26.5t13.5 36.5q23 51 52.5 96t58.5 92q2 6 13 27t23.5 45.5t22.5 46t14 25.5q4 10 16.5 34.5t18.5 28.5q2 2 8 12.5t13.5 20.5t14.5 19.5t9 9.5q10 16 10 26t9 33q6 20 16 33.5t20.5 28t17.5 31t7 40.5q0 25 -27 25 q-16 0 -41.5 -8.5t-52 -20.5t-49.5 -25.5t-35 -23.5q-16 -16 -32.5 -35.5t-41.5 -19.5q-61 -55 -116.5 -123t-105.5 -141.5t-95 -149.5t-88 -145q-16 -23 -33.5 -47.5t-32.5 -53.5q-16 -29 -28.5 -52.5t-27.5 -39.5t-37.5 -25.5t-59.5 -9.5q-66 0 -66 70q0 53 30 97t54 85 q4 8 13.5 28.5t15.5 28.5q2 4 8 22.5t8 23.5q4 6 19.5 32.5t35 57t37 60.5t27.5 46q23 39 42.5 72t39.5 74q2 4 10 22.5t19.5 40t20.5 39.5l11 22q0 10 2 21q2 10 3.5 18.5t1.5 14.5v10q-31 0 -50.5 -18.5t-48.5 -36.5q-2 -2 -24.5 -11.5t-26.5 -11.5t-12 -9t-17.5 -15.5 t-17.5 -14.5t-10 -6l-5 -5t-8 -7l-12 -8q-6 -4 -17.5 -12.5t-24.5 -18.5t-24.5 -19.5t-15.5 -11.5q0 -4 -4 -4h-2q-23 0 -22 21q0 14 11 30.5t26.5 31.5t29.5 29.5t23 24.5q37 43 71.5 87t74.5 79t87 57.5t109 22.5q27 0 55.5 -15.5t28.5 -49.5q0 -31 -10.5 -61t-24.5 -59.5 t-29.5 -57t-25.5 -54.5v-2q0 -6 3 -18.5t3 -16.5l2 -2q55 29 98 69t90 77q49 35 100.5 56t98.5 54q4 2 18.5 12.5t18.5 10.5q2 2 11 6t20.5 9t21.5 9t14 4q2 2 24.5 5.5t26.5 5.5q23 4 43.5 11t45.5 7q39 0 57 -22.5t18 -57.5t-11 -66.5t-28.5 -61.5t-37 -58.5t-33.5 -59.5 q0 -4 -8.5 -22.5t-10.5 -22.5q-2 -6 -16 -28.5t-30.5 -48t-32 -49t-19.5 -29.5q-2 -4 -9 -17.5t-16.5 -31t-17.5 -35t-12 -25.5q-4 -4 -13.5 -29.5t-11.5 -33.5q-10 -18 -25.5 -43t-31 -49.5t-25.5 -49t-10 -43.5q57 0 100 29t90 57q25 16 60 31.5t61 15.5q0 -16 -5 -22 t-17 -25l-8 -16l-7 -12q-2 -4 -4 -6q-33 -39 -82 -82t-105 -79t-115.5 -59.5t-112.5 -23.5q-35 0 -71 14t-36 55z" />
<glyph unicode="o" horiz-adv-x="925" d="M362 258q0 -23 2.5 -45.5t9.5 -40.5t21.5 -30.5t40.5 -12.5q55 0 105.5 37t89.5 72h2q2 0 4 2l4 4q2 4 8 19.5t8 17.5q4 2 15.5 14t13.5 14q23 27 37 57.5t35 57.5q2 4 5 8t7 8q4 6 6 13q0 2 3 17t3 17q29 57 65 110.5t46 115.5q0 6 4 32.5t4 32.5q0 2 3 13.5t6 22.5 t6.5 21.5t3.5 12.5t2 18.5t2 20.5q0 35 -18.5 68.5t-47.5 54.5q-6 2 -20.5 4t-18.5 2t-18.5 -2t-18.5 -4q-2 0 -8 -6.5t-13 -14.5t-13.5 -15t-8.5 -7q-49 -45 -101 -90.5t-87 -98.5q-4 -4 -15.5 -26.5t-15.5 -26.5q-14 -25 -25.5 -44t-21.5 -36.5t-20.5 -37t-20.5 -46.5 q-2 -4 -5 -18.5t-3 -18.5t-4 -14t-4 -12q-29 -68 -41.5 -117t-12.5 -123zM1044 817q0 -43 -4 -76.5t-10 -64.5t-14 -63.5t-17 -71.5q0 -2 -1 -9.5t-3 -16.5t-3 -17.5t-1 -10.5q0 -4 -13 -27.5t-24 -35.5l-6 -8q-4 -4 -10 -22.5t-8 -22.5q-2 0 -18.5 -21.5t-26.5 -32.5l-8 -8 q-4 -4 -15.5 -27.5t-13.5 -25.5q-43 -59 -110.5 -116.5t-133.5 -84.5q-6 -2 -15 -4t-11 -2q-4 -4 -19 -4h-18q-4 -4 -26.5 -13t-29.5 -14h-26q-63 0 -114.5 31t-82.5 90q-14 25 -17 53.5t-20 51.5v164q10 27 13.5 58.5t5.5 51.5q2 10 6 21q4 8 6 17t6 13q10 29 20.5 56.5 t24.5 50.5q0 2 5 11t11.5 18.5t12.5 16.5t6 9q2 4 11 23.5t19.5 41t19.5 40t14 24.5q2 4 14 18.5t25.5 30t25.5 29.5t14 18q51 66 117 115t152 49h41q2 -2 16 -10t16 -8q6 -2 30 -5t28 -5q2 0 11 -5.5t20.5 -11.5t21.5 -12t16 -8q2 0 5.5 -3t7.5 -5q33 -47 55 -109t22 -121z " />
<glyph unicode="p" horiz-adv-x="1110" d="M573 262q14 -29 29.5 -55.5t50.5 -26.5q49 0 93.5 33t83 80t67.5 97t47 87q2 4 9.5 18.5t15.5 30t15 28.5t7 17t3 19.5t6.5 34t5.5 34t4 19.5t9 26.5t7 28.5t2 15q0 6 1 13t1 11q0 16 -1 49t-11 49q-31 59 -90.5 102.5t-130.5 43.5q-23 0 -45.5 -15.5t-32.5 -31.5 q-33 -86 -46.5 -168t-33.5 -168q-18 -78 -42 -147.5t-24 -151.5v-72zM-98 -616q0 35 24.5 39t50.5 6q6 0 22.5 2t36 3t36 3t22.5 2q33 12 40 43t18 59q0 6 4 17.5t8 25t7 23.5t3 14q2 2 10.5 18.5t18.5 34t18 32.5t10 20q16 41 15.5 84t11.5 84q0 2 5 16t11.5 31.5t11.5 34 t7 24.5q2 4 9 22.5t11 20.5q0 6 4.5 30.5t4.5 28.5q2 4 4 17.5t4 17.5q0 4 8 17.5t8 17.5q20 63 26.5 125.5t20.5 128.5q6 25 14.5 49.5t12.5 52.5v23q10 35 27.5 82t27.5 80q0 2 3 9t6 15t6 15l4 8v26v27q-2 2 -9.5 7t-9.5 5q-4 0 -9 -5t-9 -7q-27 -14 -58.5 -36.5 t-64.5 -45t-65.5 -39t-61.5 -16.5q0 37 26.5 67.5t53.5 53.5q10 10 28.5 27.5l37 35t32.5 29.5t18 14q31 29 65 47.5t62 46.5q23 23 30 54.5t13.5 67.5t20.5 72t51 69q4 2 20.5 12t24.5 12q16 6 44 12.5t38 6.5q2 0 3 -1.5t7 -7.5q0 -2 2 -18t2 -25q0 -10 -2 -31.5t-2 -25.5 q-2 -4 -9 -22.5t-11 -22.5v-4v-6q4 0 6 -3t6 -3q12 2 41 4t62 2t61.5 -2t42.5 -4q41 -2 64.5 -18.5t54.5 -39.5q76 -53 106.5 -115.5t30.5 -158.5q0 -45 -9 -85t-20 -83q0 -2 -2 -11.5t-3 -19.5t-2 -19.5t-1 -11.5q-25 -88 -70 -155.5t-104 -134.5q-72 -84 -158 -138.5 t-196 -54.5q-35 0 -70 7t-70 7h-22q-23 -31 -25 -68.5t-10 -72.5q-23 -86 -51.5 -170t-48.5 -170q0 -4 -1 -15.5t-3 -23.5t-3 -22.5t-3 -12.5q0 -4 -3.5 -18t-3.5 -16v-11v-8q0 -8 7 -10l145 -27q20 -4 24.5 -17t4.5 -28q0 -16 -10.5 -24.5t-25 -12.5t-29.5 -5t-25 -3 q-2 0 -14.5 -5t-14.5 -5h-4q-39 0 -77 5t-77 5q-63 0 -120.5 -12t-118.5 -17q-4 0 -15.5 1.5t-25 2.5t-24.5 3t-17 4q-6 0 -19.5 6t-17.5 12q-2 2 -2 6v11z" />
<glyph unicode="q" horiz-adv-x="1060" d="M344 193q16 -20 39 -29.5t47 -9.5q8 0 27.5 11t43 26.5t43 32t27.5 24.5q4 0 14.5 16.5t12.5 18.5t17.5 8t19.5 8q4 4 8 12q16 35 27.5 69t34.5 66q2 2 14 11.5t14 13.5q2 2 8.5 12.5t8.5 16.5q10 14 15 30.5t15 30.5q10 23 24.5 41.5t26.5 40.5q18 31 30.5 73t25.5 72 q14 35 21 69t7 73q0 49 -13 74.5t-68 25.5h-19q-4 -2 -29.5 -11t-35.5 -15q-2 0 -5 -3q-4 -4 -4 -6q0 -4 -8 -14t-10 -14l-8 -7q-8 -8 -17.5 -15t-18.5 -14t-11 -9q-4 -4 -16.5 -17.5t-16.5 -17.5q-37 -41 -64.5 -83t-56.5 -89q-10 -25 -27.5 -49.5t-33.5 -47.5 q-16 -35 -23.5 -69.5t-30.5 -69.5q-2 0 -9 -6t-9 -8q0 -4 -4 -27.5t-4 -29.5q0 -4 -5.5 -19.5t-9.5 -34t-9 -35t-5 -20.5v-51v-55zM649 -610q-59 0 -116.5 -5.5t-114.5 -5.5h-33q-23 0 -31 3q-27 18 -26 49q0 25 14 32t37 7q8 0 15 -1t18 -1q25 0 48 6t40 32q2 6 9 20.5 t16.5 32t16.5 33t9 21.5q2 4 9 22.5t11 24.5q2 2 6.5 14.5t8.5 25.5t8 25.5t4 16.5q0 2 5 12t10 21.5t11.5 23t10.5 15.5q12 25 17 46t16 54q4 2 11 16.5t7 18.5q4 4 6 18.5t4 18.5q2 6 11.5 33.5t20.5 59.5t20.5 59.5t13.5 35.5q0 4 4 17.5t4 19.5v6q-23 0 -43 -9 t-38.5 -21.5t-37 -26t-37.5 -21.5q-51 -31 -104 -49t-113 -18q-86 0 -132 50t-46 132v20q0 12 3 43t5 66t5.5 65.5t3.5 43.5q14 57 44.5 124.5t70.5 135t85 127t90 100.5q18 16 33.5 25.5t38.5 17.5q2 2 13.5 4t13.5 4q4 0 10 4t8 4q2 2 10.5 11.5t17.5 18.5t16 17.5t9 8.5 q12 8 30.5 14t38 8t37 3t29.5 1q37 0 72 -20.5t64 -42.5q10 -6 23.5 -29.5t26.5 -48.5t25.5 -44.5t20.5 -19.5h2q4 0 6 3l4 4q0 4 4 16l8.5 25.5t9.5 24.5t7 16q4 12 11 31.5t18.5 35.5t26 28.5t34.5 12.5l16 -8q33 -18 40 -42t7 -58q0 -39 -15 -69t-32 -65 q-12 -35 -25.5 -73.5t-25.5 -73.5q-4 0 -12 -11.5t-8 -13.5q-14 -29 -15.5 -53t-11.5 -55t-24.5 -63.5t-28.5 -61.5q-4 -4 -15.5 -23.5t-13.5 -23.5q0 -4 -3 -23.5t-3 -23.5q-4 0 -6 -11.5t-6 -15.5q-23 -55 -40.5 -114.5t-37.5 -118.5q-10 -25 -24.5 -49.5t-22.5 -49.5 q-2 -4 -5 -20.5t-8.5 -34.5t-9.5 -33.5t-6 -19.5q0 -2 -4 -10.5t-8 -17.5t-9.5 -16t-5.5 -10q-16 -39 -25 -76.5t-26 -76.5q-4 -6 -11 -21.5t-14 -32t-13.5 -29.5l-8.5 -17q-10 -25 -23.5 -43.5t-13.5 -47.5q0 -14 13.5 -20t23.5 -6h107q4 0 25.5 -6t29.5 -13q6 -4 8 -15 t2 -21q0 -53 -67 -54q-47 0 -94.5 9.5t-94.5 9.5z" />
<glyph unicode="r" horiz-adv-x="1011" d="M283 88q0 53 22.5 110.5t44.5 110.5q25 66 44.5 131.5t45.5 130.5q0 2 4.5 10.5t8.5 17.5t9 16.5t5 11.5q0 2 3 12t6 22.5t6 22.5t3 14q14 49 39 108.5t25 117.5q0 10 -1 23.5t-11 13.5q-14 0 -33 -10.5t-19 -26.5q-6 -6 -22.5 -20.5t-33.5 -32t-31.5 -34t-20.5 -22.5 q-2 -2 -10.5 -11t-17.5 -20.5t-17 -20.5t-10 -11q-4 -6 -12.5 -12.5t-20.5 -6.5t-13 19v12v24q25 53 51.5 103.5t58.5 94.5t74 80t99 58q16 6 30.5 12.5t33.5 6.5q39 0 60.5 -25.5t21.5 -62.5q0 -45 -13.5 -94.5t-23.5 -90.5q-4 -2 -7.5 -14t-3.5 -14q-2 -10 -9 -37t-9 -33 v-8q4 0 14.5 -2t14.5 -2q0 2 6 9t8 11q8 8 24.5 27.5t33 40t29.5 38t15 21.5q2 2 8.5 17.5t8.5 19.5q2 2 11 11.5t21.5 20.5t23.5 21.5t20 16.5l9 9t15 14t16.5 14.5t12.5 9.5q2 2 9 7t16.5 11t16.5 10.5t9 6.5q10 4 22.5 11t16.5 7q18 4 36.5 7t39.5 3q18 0 34.5 -3 t34.5 -7q4 -4 24.5 -12t31.5 -12q2 -2 9 -9.5t15 -16.5t16.5 -17.5l12.5 -12.5q12 -16 15 -35.5t3 -40.5v-14q0 -47 -35.5 -88t-82.5 -41q-2 0 -12.5 4t-14.5 6q-33 16 -45 36t-19.5 41.5t-15.5 41t-29 35.5h-30q-31 0 -54.5 -13.5t-42 -33t-34 -44t-29.5 -46.5 q-2 -4 -11.5 -19.5t-19.5 -34t-20.5 -35t-12.5 -20.5q-25 -41 -39 -84t-34 -88q-2 -4 -8.5 -18.5t-6.5 -18.5q-4 -2 -15 -17t-13 -18q-4 -4 -11.5 -16t-15.5 -28.5t-16.5 -32t-12.5 -21.5q-6 -10 -16 -31.5t-22.5 -45t-22.5 -44t-12 -28.5q-8 -16 -24.5 -56.5t-38 -81.5 t-46 -72.5t-51.5 -31.5q-41 0 -68.5 21.5t-27.5 66.5z" />
<glyph unicode="s" horiz-adv-x="692" d="M119 160q0 14 4 34.5t12 39t22.5 30.5t35.5 12q23 0 37 -7t24 -18t18.5 -25.5t20.5 -30.5q4 -2 14 -17.5t15 -17.5q10 -16 14 -27.5t10 -17.5t17.5 -8.5t33.5 -2.5q25 0 41.5 1t42.5 10q12 2 24.5 17t21 33.5t13.5 38t5 32.5q0 35 -8.5 54t-20.5 48v12q-4 31 -13 53.5 t-22 53.5q-18 49 -40.5 96t-41 96t-31 99.5t-12.5 103.5q0 55 16.5 100t45.5 92q0 2 5 4.5t7 4.5q2 0 6 2q8 4 10 4q4 4 17.5 19.5t17.5 19.5q33 27 80 45t88 18h4q33 -4 75 -8t80 -16.5t64.5 -39t26.5 -73.5q0 -49 -28.5 -80t-75.5 -31q-39 0 -55.5 20.5t-29 45.5t-30.5 45 t-64 20q-59 0 -93 -16t-34 -82q0 -25 1.5 -52.5t11.5 -49.5q2 -4 8 -13.5t6 -11.5q4 -4 6 -11t4 -7q20 -45 44 -86t38 -86q2 -4 4 -23.5t4 -23.5q6 -6 11 -13q8 -12 10 -12q29 -55 45 -110.5t16 -118.5v-60q-2 -23 -17 -45t-28 -39q-12 -16 -21 -34.5t-24 -34.5 q-10 -14 -24.5 -20.5t-28.5 -16.5q-4 -4 -22.5 -17.5t-22.5 -17.5q-14 -10 -39 -17.5t-50.5 -11.5t-51 -6t-39.5 -2q-35 0 -59.5 5t-46 14.5t-42 25t-45.5 35.5q-14 14 -16 35t-2 39z" />
<glyph unicode="t" horiz-adv-x="745" d="M197 96q0 59 29.5 118.5t52.5 115.5q10 29 20 58.5t23 57.5q2 4 8 18.5t8 18.5q4 2 12 11.5t8 13.5q2 4 9.5 28.5t9.5 28.5q2 6 13 28.5t25.5 50.5t27 51.5t14.5 29.5q0 2 7 19.5t15 40t17.5 44t13.5 33.5q10 23 20.5 44.5t10.5 49.5v31q-10 10 -26.5 18.5t-29.5 8.5 h-116q-8 4 -14.5 14t-6.5 19q0 14 13.5 31.5t23.5 25.5q6 6 10 8l8 4h218q16 0 28.5 27.5t21.5 63.5t16 70t13 44q2 2 12.5 16.5t14.5 20.5q33 39 57.5 60.5t77.5 21.5h49q4 -4 12.5 -18.5t12.5 -18.5q0 -2 1 -7t1 -10q0 -29 -17.5 -53t-27.5 -49q-18 -31 -37.5 -59.5 t-19.5 -67.5q0 -14 10 -16q25 -6 52.5 -8.5t55.5 -2.5q16 0 31.5 1.5t30.5 1.5q23 0 27 -19.5t4 -36.5q0 -18 -9.5 -27.5t-24 -13.5t-30.5 -4h-29q-4 0 -14 -1t-22.5 -3t-22.5 -4t-12 -2h-47q-23 0 -40.5 -6t-31.5 -29q-4 -4 -10 -27.5t-6 -27.5q-2 -4 -13.5 -22.5 t-13.5 -20.5q-4 -6 -11.5 -20.5t-9.5 -18.5q0 -4 -4 -15.5t-9 -24.5t-9 -24.5t-4 -15.5l-8 -12l-9 -13q-25 -45 -55.5 -107.5t-46.5 -109.5q0 -4 -3 -19t-3 -20q-18 -43 -46 -90t-28 -100v-25l92 45q6 8 25.5 28t41 41.5t40 39.5t26.5 25q4 4 18.5 15t20.5 15h2 q14 0 22.5 -11t8.5 -26q0 -20 -2 -41.5t-12 -39.5q-12 -14 -27.5 -34t-32 -40.5t-33 -39t-28.5 -30.5q0 -4 -16.5 -14t-18.5 -12q-25 -23 -44 -40.5t-37.5 -33t-39 -30.5t-51.5 -34q-31 -16 -58.5 -34.5t-66.5 -18.5q-45 0 -76.5 20.5t-31.5 71.5z" />
<glyph unicode="u" horiz-adv-x="1253" d="M870 90q0 8 3.5 28.5t8.5 43t10 43t9 26.5q2 4 7 18.5t12.5 30t12.5 29t7 17.5q4 8 10 25.5t12.5 37t11.5 35.5t7 22l9 27t9 25q0 2 4.5 9t9.5 16t8 17.5t3 10.5v2q0 4 -1 7t-1 5q-16 0 -22.5 -9t-18.5 -19q-2 -2 -10 -10.5t-17.5 -18.5t-16.5 -18.5t-9 -10.5l-10 -10 q-35 -37 -69 -75t-67 -81l-32.5 -32.5t-32.5 -30.5q-4 -4 -26.5 -24.5t-26.5 -24.5q-2 -2 -13.5 -11.5t-13.5 -9.5q-29 -25 -64.5 -53.5t-74.5 -53t-79 -42t-77 -17.5q-70 0 -90.5 29t-20.5 96q0 35 17.5 62.5t27.5 60.5q29 78 67 156t77 149q31 59 57.5 117.5t48.5 120.5 q12 23 25.5 48.5t13.5 53.5q0 10 -8 11.5t-14 1.5h-17q-6 -4 -22.5 -15.5t-34.5 -25t-34.5 -24.5t-22.5 -17q-2 0 -9.5 -7.5t-17.5 -15.5t-20.5 -16t-16.5 -15q-10 -8 -18 -17t-23 -9q-10 0 -12 6t-2 10v6q0 2 2 4q14 37 37.5 70t53.5 61.5t61.5 55t62.5 51.5q45 35 95 62.5 t110 27.5q39 0 61.5 -21.5t22.5 -60.5q0 -35 -17 -74q0 -2 -4 -13t-4 -13q-72 -145 -142.5 -286.5t-129.5 -291.5q-10 -25 -20.5 -38t-20.5 -27.5t-16.5 -31.5t-6.5 -48v-35q2 -8 9.5 -9t13.5 -1h6q18 0 36.5 4t35.5 14q10 8 27.5 20.5t33.5 26t29.5 23.5t17.5 12 q8 8 31.5 32.5t49.5 52.5t48.5 51.5t30.5 33.5q53 72 90 127t74 119q2 2 6 10t9 17.5t9 16.5t4 9q6 10 21.5 32.5t34 50.5t36 53.5t25.5 41.5q12 27 24.5 62t31 63.5t44 49t62.5 20.5q41 0 57.5 -23.5t16.5 -58.5q0 -39 -11.5 -65.5t-27.5 -61.5q-18 -47 -32.5 -87 t-35.5 -87q-4 -2 -11 -17.5t-14.5 -34t-14.5 -35t-9 -20.5q0 -2 -2 -11t-5 -18.5t-6 -17.5t-3 -10q-2 -4 -7.5 -15.5t-11.5 -24.5t-12 -24.5t-8 -13.5q-14 -35 -25.5 -71.5t-28.5 -71.5q0 -4 -5 -14.5t-11 -22.5t-12 -23.5t-8 -13.5v-8q0 -18 12 -18q16 0 38.5 12t33.5 22 q2 2 13 15.5t25.5 27t26.5 25.5t17 14q0 2 10 10.5t23.5 18.5t25.5 19.5t18 15.5q10 4 25.5 15t26.5 11q23 0 22 -18q0 -6 -2 -8q-2 -6 -4 -10q-2 -2 -2 -7q0 -2 -2 -4q-2 0 -4 -16.5t-4 -20.5q-2 -2 -11.5 -12t-19.5 -21.5t-19.5 -22.5t-11.5 -13q-4 -4 -15 -22.5 t-13 -22.5q-4 -6 -25 -31t-29 -33l-23.5 -23.5l-30.5 -30.5l-28.5 -28.5t-17.5 -15.5t-18.5 -13.5t-18.5 -13.5t-17.5 -13t-15.5 -13q-16 -8 -26.5 -10.5t-20.5 -8.5q-4 -4 -17.5 -7t-17.5 -3h-6q-31 0 -54.5 30.5t-23.5 59.5z" />
<glyph unicode="v" horiz-adv-x="1212" d="M590 139q0 8 -3 28.5t-5 43t-4.5 43t-2.5 29.5v45q0 68 14.5 130t37.5 126q2 2 6 7t6 9q2 2 9 17.5t7 17.5q2 4 7.5 17.5t5.5 19.5q0 2 2 12t5 20.5t5 19.5t2 11q12 41 29.5 82t17.5 84v23q-16 10 -32.5 14t-32.5 4q-23 0 -43.5 -7t-45.5 -11h-100q-12 0 -32.5 -6.5 t-39 -15.5t-33 -21.5t-14.5 -28.5q0 -18 9.5 -33.5t19.5 -30.5q2 -4 10 -15t16.5 -24.5t15.5 -24.5t11 -17v-25q0 -55 -20.5 -91t-77.5 -36q-16 0 -25.5 1t-17.5 7q-27 23 -46.5 44.5t-19.5 51.5q0 35 10.5 82t26.5 76q2 2 9.5 14.5t9.5 14.5q4 4 15 21.5t20 23.5q0 4 7 14 t9 10q0 2 9 13.5t9 13.5q43 66 111 100q2 0 12 7.5t13 7.5q4 4 15 11t13 11q39 31 80 31q43 0 92 4q6 0 28.5 3t48.5 6t48.5 6.5t26.5 3.5h20q23 0 43.5 -14.5t20.5 -39.5v-18q-4 -8 -13.5 -26.5t-19.5 -38t-19.5 -38t-11.5 -24.5q-16 -29 -36.5 -55.5t-28.5 -61.5 q0 -2 -1 -13t-2 -23.5l-2 -25t-1 -14.5q-8 -27 -28 -50t-24 -64q0 -6 -1 -19.5t-2 -29t-2 -28.5t-1 -20v-24v-31q0 -14 1 -25.5t1 -13.5q0 -8 1 -27.5t2 -41t3 -41t2 -25.5q6 -12 17.5 -31.5t27 -36t33 -28.5t31.5 -12q12 0 26.5 7t28.5 11q37 10 70 20.5t65 32.5 q25 18 38.5 48t33.5 53q18 25 45 54.5t37 61.5q10 35 17.5 77t7.5 77q0 45 -10.5 93t-34.5 89q-16 35 -35 65.5t-19 67.5q0 27 8.5 56.5t25 53t40 39t55.5 15.5q14 0 29.5 -13.5t28 -32.5t21.5 -38.5t11 -32.5q0 -8 1.5 -31.5t2.5 -49t2 -49t1 -31.5q0 -4 1 -6.5t1 -4.5 t-2 -2v-2v-4q-2 -20 -4.5 -52t-5.5 -63.5t-6 -56t-3 -27.5q0 -4 -4 -18t-8 -31.5t-8 -32t-4 -18.5q-2 -4 -5.5 -21.5t-7.5 -21.5q-4 -10 -14 -33.5t-22.5 -50t-24.5 -49.5t-16 -31q-2 -2 -9.5 -10t-15.5 -17.5t-14.5 -17.5t-6.5 -10q-16 -23 -27 -50.5t-28 -47.5 q-23 -29 -56.5 -58.5t-71.5 -54.5t-80 -41t-81 -16h-28q-4 0 -10.5 1t-6.5 3q-2 0 -18 1t-19 3q-2 0 -6 2q-8 4 -10 6q-49 27 -81.5 56.5t-57.5 78.5z" />
<glyph unicode="w" horiz-adv-x="1865" d="M442 78q0 14 15.5 51t21.5 59l88 174q4 35 24.5 69t33.5 58q35 84 61.5 159t73.5 151q2 4 9 13t7 13v11q0 4 1 8t1 8q0 27 -15 41t-36.5 21.5t-46.5 8.5t-43 1q-12 0 -25.5 1t-27.5 1q-39 0 -62 -11q-2 -2 -12 -9t-14 -7q-2 -2 -17.5 -5t-17.5 -5q-4 0 -10.5 -4t-8.5 -8 q0 -6 -1 -23.5t-3 -37t-4 -37t-2 -23.5q-2 -23 -16.5 -46.5t-35 -42t-44 -29.5t-45.5 -11h-2q-55 18 -56 75q0 66 32 115t69 98q2 2 7 13.5t9 15.5q8 6 27.5 25.5t41 42t41 42t27.5 25.5q29 25 65 32t75 7q27 0 51 -1t47 -1q2 0 19.5 1t37 2t38 2t22.5 1t18 1t31 1 q16 0 32.5 1t24.5 1q20 0 45 -2t46.5 -8t36 -20.5t14.5 -38.5q0 -4 -5 -8q-2 -2 -2 -5q0 -4 -5 -15t-10 -22.5t-10 -21.5t-7 -12q-2 -4 -10.5 -15.5t-17.5 -23.5t-18.5 -22.5t-11.5 -12.5q0 -2 -3 -9t-3 -13q-4 0 -5 -19.5t-5 -23.5q-14 -41 -50 -83t-50 -81l-82 -208 t-82 -206q-8 -29 -17.5 -48.5t-9.5 -49.5q0 -10 4 -24.5t21 -14.5h2q70 27 126 77t104 108t92 121.5t87 119.5q14 35 36 57.5t44 50.5q2 2 5 9.5t5 7.5q27 72 54.5 140.5t62.5 133.5q4 2 11.5 8t7.5 9q12 20 24 47.5t27.5 53t37 43t52.5 17.5q14 0 35.5 -1t31.5 -5 q10 -6 26.5 -23.5t21.5 -21.5v-27q0 -33 -3.5 -54t-10.5 -40.5t-17 -39t-25 -48.5q-23 -45 -39 -90t-45 -90q0 -2 -7 -14.5t-9 -14.5q-6 -12 -15.5 -32.5t-19.5 -40t-18.5 -36t-10.5 -20.5t-7 -22.5t-11 -39t-11 -38.5t-7 -25q0 -2 -3.5 -8t-5.5 -10q-23 -35 -35 -74 t-12 -86v-12q0 -4 2 -8q0 -2 11.5 -13.5t17.5 -15.5q2 -2 8 -6t8 -4q2 4 13.5 14t15.5 12q2 4 21.5 15.5t23.5 13.5q31 27 53.5 53.5t43 53t40 54.5t41.5 58q2 0 9.5 6.5t15.5 14.5t15 14t7 8q10 14 20.5 27.5t16.5 28.5q6 18 10.5 23t8.5 7t8 3t10 12q2 4 8 17t6 17 q2 2 6.5 10.5t7.5 17.5t6 17.5t3 10.5q0 4 11.5 18t15.5 19q23 47 41 82.5t30 80.5q12 41 25.5 89.5t36 89.5t57.5 68.5t90 27.5q10 0 20.5 -1t14.5 -11q2 0 16.5 -21.5t20.5 -32.5q10 -10 10 -18v-4v-6q-2 -10 -4 -24.5t-3 -29t-2 -25.5l-1 -11q-4 -29 -21.5 -52.5 t-33.5 -46.5q-2 -4 -8.5 -15t-13.5 -23.5t-14 -22.5t-9 -13q-16 -31 -27.5 -63.5t-34.5 -62.5q-12 -16 -46 -57.5t-72 -87.5t-72.5 -87t-49.5 -57q-45 -53 -90 -97.5t-98 -87.5q-2 -2 -12 -8t-15 -8q-4 -2 -18 -8t-16 -8q-4 -4 -13.5 -12.5t-20.5 -17.5t-19.5 -17.5 l-10.5 -10.5q-10 -8 -17 -11t-13.5 -6t-14.5 -7t-20 -11q-53 -29 -97.5 -46t-107.5 -17q-25 0 -42.5 11.5t-33.5 33.5v8q0 41 19.5 81t35.5 75q16 31 22.5 79t6.5 81q-4 0 -10 2t-11 2q-4 -2 -13 -9.5t-13 -11.5q-2 -2 -11.5 -10t-19.5 -19.5t-20.5 -20.5t-12.5 -11 q-66 -63 -127 -112.5t-137 -96.5q-57 -39 -120.5 -68.5t-139.5 -29.5h-20q-2 0 -15.5 6t-19.5 10q-12 6 -16.5 19.5t-4.5 25.5q0 6 1 12t1 11v6v4z" />
<glyph unicode="x" horiz-adv-x="1142" d="M432 172q-6 -10 -16 -20.5t-15 -10.5l-39 -39q-2 -2 -11 -9t-19 -14t-19.5 -14.5t-11.5 -9.5q-6 -4 -21.5 -12t-33 -18.5t-33.5 -19.5t-25 -13q-59 0 -96 47q0 4 -1 17.5t-1 17.5q0 6 1 19t1 16q2 4 10.5 20t17.5 34.5t17 34t10 21.5q0 4 3.5 14.5t3.5 12.5q4 4 15 18.5 t13 16.5q2 4 13.5 20t23.5 35.5t23.5 35t13.5 19.5q10 14 34.5 29.5t41.5 15.5q10 0 12 -13t2 -20q0 -23 -8 -43t-18.5 -39.5t-18.5 -39t-8 -43.5q0 -18 12 -33t35 -15q49 33 90 66t90 72q35 35 60.5 63.5t56.5 63.5q10 16 15 19t12 20v98q0 6 -3.5 24.5t-5.5 41t-5 44 t-3 33.5q-4 27 -8 60.5t-15.5 61.5t-33 47.5t-58.5 19.5h-4q-10 -27 -27.5 -46.5t-33.5 -41.5q-10 -8 -22.5 -30t-14.5 -26q-12 -18 -21.5 -35.5t-35.5 -17.5q-16 0 -17 25q0 2 6.5 13t12.5 23.5t12 23.5t8 13q14 37 38 89.5t54.5 101.5t68.5 84t85 35q10 0 20.5 -1 t20.5 -10q10 -8 30.5 -29.5t22.5 -23.5t4 -11t5.5 -18.5t6.5 -17.5l3 -8q0 -4 9 -19.5t11 -17.5q0 -4 1 -13.5t2 -19.5t2 -18t1 -10q0 -4 3 -19.5t6.5 -32t6.5 -32t3 -17.5t2 -12t3 -22.5t3 -23.5t2 -14l8 -16t14 -12h3q10 8 37.5 27.5t35.5 29.5q2 0 8.5 6t13.5 14.5 t14 14.5t9 8q31 27 67 50.5t68 50.5q2 2 17.5 17t19.5 17q4 4 18.5 9.5t18.5 9.5q23 16 37 36.5t33 43.5l25.5 25.5t33 29.5t34.5 24.5t34 10.5q33 0 58.5 -28t25.5 -58l-2 -2l-2 -2q-10 -29 -23.5 -64t-30.5 -63q-2 -2 -13 -16.5t-13 -18.5q0 -2 -6 -11.5t-12.5 -19.5 t-11.5 -20.5t-7 -12.5q-10 -14 -22.5 -34.5t-28 -40t-32.5 -34t-36 -14.5q0 35 1 68t9 66q2 2 6.5 9t7.5 15t5 15.5t2 9.5q0 8 -2 16t-2 12q-4 0 -12.5 2.5t-12.5 2.5q-20 -4 -44.5 -25t-35.5 -31q-35 -33 -72.5 -69.5t-82.5 -65.5q-2 0 -17.5 -7t-19.5 -9 q-4 -4 -14.5 -15.5t-22.5 -24t-23.5 -25.5t-17.5 -19q-2 -2 -5 -8.5t-5 -10.5v-125q2 -8 5 -35.5t5 -35.5q2 -4 5 -20.5t7 -35t7.5 -37t7.5 -26.5q4 -20 15 -43t36 -23q27 0 43 16.5t31 32.5q4 6 13 15.5t17 20t15.5 18.5t7.5 10q20 25 29.5 51.5t35.5 46.5l9 -6q0 -4 2 -15 t2 -16q0 -45 -25 -87t-41 -85q-2 -4 -7 -16t-11 -27.5t-12.5 -29t-8.5 -15.5q0 -4 -6 -13t-29 -34q-23 -29 -45 -54.5t-65 -25.5q-51 0 -83 23.5t-50.5 60.5t-28.5 82t-16 86q-6 29 -8.5 66t-18.5 61q-4 -4 -17.5 -14t-17.5 -12q-16 -14 -44 -36t-38 -38 q-29 -41 -60.5 -62.5t-68.5 -52.5l-2 -2q0 -2 -2 -2v-2z" />
<glyph unicode="y" horiz-adv-x="907" d="M-545 -479q0 41 32 60.5t64 29.5h13q6 0 12 -1t14 -7q25 -25 58 -58.5t69 -46.5q57 8 101.5 42t89.5 71l11 11t18.5 19.5t18.5 19.5l13 13q0 2 3 10.5t8 8.5q12 16 24 22t29 23l27.5 27.5l41 41t40 41t26.5 25.5q4 2 9 14.5t9 14.5q2 0 14.5 7t14.5 11q14 10 24.5 27.5 t20.5 34.5q2 2 10.5 14t18.5 25.5t19 24.5t14 15q55 78 83.5 161t51.5 175q0 2 5 12.5t5 14.5q2 12 8 34.5t11.5 44t9.5 38t4 18.5q2 4 2 12v17v22q4 4 7 16.5t3 14.5q0 4 1 23.5t3 43t3 44t1 24.5q2 2 2 6q0 8 2 13l4 16v41v43q-2 4 -12 13.5t-16 11.5h-6q-4 0 -6.5 1 t-4.5 1q-18 0 -33.5 -10.5t-27.5 -26t-21.5 -32.5t-15.5 -32q-2 -4 -8 -13t-10 -13q-2 -4 -10.5 -10.5t-8.5 -8.5t-3 -8t-5 -8q-16 -39 -32.5 -72t-47.5 -55q-8 -4 -12 -4q0 55 28.5 100t51.5 92q33 57 62.5 114.5t66.5 111.5q16 25 28.5 39t42.5 24q2 2 14.5 4t27 5t28.5 5 t20 4h15q23 0 47.5 -20.5t30.5 -40.5v-111q0 -166 -27 -323l-37 -148q-2 -2 -5 -11t-3 -11v-6q0 -10 7 -21.5t18 -11.5q20 0 32.5 21.5t22.5 33.5q4 4 22.5 25.5t22.5 25.5q2 2 7 8.5t11 12.5t11.5 11t7.5 7q4 2 10 17.5t8 17.5l14.5 14.5t10.5 14.5q4 4 8 13t4 11 q2 6 8 22.5t14.5 35t14.5 34t6 19.5q2 8 8 27.5t12.5 41t11.5 41t5 25.5q0 4 2 19.5t3 34t3 34t2 19.5q2 14 7 41.5t10 31.5q16 29 53 47.5t69 18.5h13q4 -2 24.5 -13.5t30.5 -15.5q14 -8 16 -24.5t2 -30.5q0 -78 -33.5 -143.5t-74.5 -126.5q0 -4 -8 -16.5t-13 -18.5 q-20 -49 -52 -95.5t-62 -86.5q-23 -31 -46.5 -64t-45.5 -63q-33 -41 -68 -80t-68 -80q0 -4 -4 -11.5t-4 -9.5q-23 -35 -49.5 -61.5t-50.5 -54.5q-6 -8 -26.5 -30t-26.5 -30q-2 0 -5.5 -7l-5.5 -11l-4 -4l-4 -4q-2 0 -16.5 -14.5t-16.5 -18.5q-2 -2 -10 -17.5t-10 -17.5 t-9 -14.5t-12 -14.5q0 -2 -6 -8t-12 -13t-11 -14.5t-5 -9.5q-16 -20 -29.5 -28.5t-34.5 -24.5q0 -2 -4 -4t-4 -6l-4 -8q-4 -8 -8 -9q-2 -4 -11.5 -8t-11.5 -4q-70 -72 -127 -133t-135 -125q-33 -27 -69.5 -41t-65.5 -41q-4 -4 -18.5 -13t-18.5 -11t-19.5 -11.5t-17.5 -11.5 q-4 -2 -18.5 -8t-18.5 -8q-33 -16 -76 -25.5t-77 -9.5q-31 0 -65 5t-61.5 18.5t-45 38t-17.5 63.5z" />
<glyph unicode="z" horiz-adv-x="1366" d="M106 90q0 47 22 86t58 66q37 29 80 48t82 42q47 29 99.5 62.5t99.5 66.5q35 20 60.5 48t60.5 50q25 18 54.5 35.5t57.5 38.5q2 0 8.5 5t14.5 11t15 11.5t9 5.5q6 0 13 2q12 4 14 4q4 4 21.5 15t23.5 15q35 23 59.5 40.5t51.5 48.5q0 2 7 9t9 11v8q0 23 -19.5 32t-35.5 13 q-2 0 -12.5 2t-20.5 5t-19.5 6.5t-9.5 5.5q-4 0 -10 9t-8 9q-31 20 -75 23.5t-79 13.5q-4 0 -14 2t-22.5 5t-22.5 6l-10 3h-13h-8q-10 -2 -33.5 -8t-29.5 -8q-10 -4 -11.5 -12t-1.5 -17q0 -25 10.5 -43t10.5 -41q0 -37 -18.5 -66.5t-57.5 -29.5q-49 0 -86 18.5t-37 75.5 q0 41 12.5 66.5t30.5 64.5q4 4 10.5 14.5t10.5 12.5q0 2 4 6l4 4q4 0 15.5 4t15.5 4q20 14 43.5 35t49 39.5t51.5 31.5t52 13h27q4 0 22.5 -3t22.5 -3q2 0 11 -1t20 -1h20h12t13.5 -3t22.5 -6t21.5 -6t14.5 -3q2 -2 12.5 -4.5t22.5 -3.5t23.5 -2t13.5 -1q43 -6 82 -19 t80 -26q31 -10 59.5 -23.5t62.5 -13.5q31 0 49.5 15.5t32 36t25.5 43t35 39.5q4 4 16 4h17q33 0 54 -13.5t21 -48.5t-27.5 -72.5t-66.5 -73.5t-82 -64.5t-72 -45.5q-2 -2 -16 -9t-31.5 -16.5t-33 -16.5t-17.5 -9q-2 -4 -12 -15.5t-14 -15.5q-4 -2 -13.5 -9t-21 -16.5 t-21.5 -17.5t-14 -10q-16 -10 -32.5 -13t-33.5 -14q-2 0 -12 -8t-14 -10q-2 -2 -12.5 -7t-20.5 -11.5t-19.5 -11.5t-9.5 -7q-4 -2 -19.5 -17.5l-17.5 -17.5q-4 -2 -15 -9t-25.5 -15t-25.5 -14.5t-13 -8.5q-4 0 -12.5 -5t-17.5 -11t-16.5 -11.5t-9.5 -7.5q-4 -4 -23.5 -13 t-21.5 -11q-6 -4 -18 -14.5t-23.5 -21.5t-20.5 -21.5t-9 -14.5q6 -8 25.5 -29.5t27.5 -27.5q4 -4 26.5 -10.5t26.5 -8.5q72 -29 142.5 -67.5t146.5 -59.5q2 0 15 -1t28.5 -2t29 -2t17.5 -1q4 -2 19.5 -6t17.5 -4h10h6q4 0 15.5 4t13.5 6q16 2 36.5 4t38 8.5t30 18.5t12.5 37 q0 31 -18.5 54.5t-18.5 55.5q0 66 39 84.5t94 18.5h29q6 -4 19 -18.5t17 -18.5q2 -6 7.5 -20.5t9.5 -30t8 -29.5t4 -20q0 -8 -7 -35t-13 -37q-2 -4 -14.5 -22.5t-18.5 -22.5q-4 -2 -15.5 -9.5t-13.5 -11.5q-55 -41 -99 -79.5t-110 -61.5q-2 0 -10 -2t-19.5 -3t-20.5 -3 t-11 -2q-18 -4 -28.5 -9.5t-21 -9.5t-22.5 -7t-33 -3q-86 0 -170 26.5t-159 63.5q-41 20 -80 43t-78 42.5t-81 31.5t-89 12q-4 0 -24.5 -1t-26.5 -1q-6 -4 -13.5 -17t-11.5 -26.5t-7 -26t-3 -14.5v-6q0 -4 4 -18.5t4 -18.5v-2q0 -45 -30.5 -69.5t-71.5 -24.5q-43 0 -69 24.5 t-26 65.5z" />
<glyph unicode="{" d="M825 999v-18q0 -8 3 -14t14 -11q6 -4 18 -7t25.5 -7t25 -7t15.5 -5h80h81q4 4 12.5 7t12.5 3h102q2 2 4.5 8t4.5 8q2 4 7 20.5t11 35t11 34t8 19.5q8 20 17 39.5t19 42.5q0 4 4.5 17.5t4.5 17.5q2 6 11 24.5t20.5 40t19.5 41t10 23.5q16 33 31.5 70.5t15.5 72.5 q0 20 -19.5 54t-48 66t-59.5 54.5t-53 22.5q-51 0 -96 -20.5t-86 -49.5q0 -2 -4.5 -4t-4.5 -4q-2 -4 -7 -14.5t-11 -22.5t-11 -23.5t-7 -13.5q-10 -20 -33 -53t-33 -53q0 -4 -3 -29t-3 -29q-2 -4 -13.5 -29.5t-13.5 -29.5q-2 -8 -9 -28.5t-9 -30.5q-2 -2 -5 -15.5t-5 -19.5 q0 -4 -7.5 -13.5t-9.5 -11.5q-16 -35 -26.5 -77t-10.5 -81zM-403 -516q0 43 17 82t71 39h4q2 0 4 -1t6 -1q2 -4 11 -11.5t18.5 -16.5t18.5 -17.5t13 -12.5q16 -12 15.5 -27.5t11.5 -31.5q2 -4 18.5 -22.5t26.5 -24.5q6 -6 12 -7t13 -1h20q39 0 60.5 24.5t37.5 57.5 q2 2 4.5 13t6.5 13q0 2 5 10.5t11 17.5t12 17t6 10q4 2 6.5 8.5t2.5 8.5q16 49 39.5 95t42.5 93q2 4 8 18.5t10 18.5t14.5 23.5t14.5 23.5l4 9q4 10 7 21t7 21.5t4 14.5q12 29 19.5 46t13.5 30.5t12 25.5t15 31q2 6 9 28.5t16 49t16.5 49t11.5 29.5q0 2 4 12l9 22.5l9 22.5 t4 12q2 4 9.5 15.5t15.5 25.5t15.5 26.5t9.5 18.5q35 78 65.5 156t59.5 149q0 2 4 11.5t8 18.5t8 18.5t4 11.5t2 4t4 6t4 6q0 6 -2 23.5t-2 23.5h-94q-10 10 -33.5 12.5t-46 3.5t-40 7t-17.5 24q0 20 14.5 39t30.5 33q35 4 69.5 7t69.5 3h25q14 0 26 -2q23 12 38.5 22.5 t21.5 33.5q4 8 16 37.5t26.5 65.5t26 65.5t15.5 37.5q0 4 12 27t14 27q10 23 16.5 47t20.5 43q2 6 13.5 21.5t24.5 33.5t25.5 35.5t20.5 25.5q14 25 34.5 66t41.5 53q43 27 90 57.5t98.5 57.5t103.5 43t105 16q29 0 55.5 -7t55.5 -15q4 0 26.5 -2t26.5 -4q29 -10 52.5 -34 t56.5 -24q41 0 83 14.5t81 24.5q4 0 18 8.5t18 10.5q35 10 80 11t82 1q10 0 44 -3t44 -3q35 -6 76 -23.5t63 -46.5l6 -11q5 -11 12 -25.5t14 -30t14 -23.5q2 -6 6 -15.5t8 -19.5t7 -18t3 -10q2 0 2 -9q0 -41 -27.5 -78.5t-70.5 -37.5q-4 0 -22.5 2t-24.5 6q-4 2 -17.5 8 t-17.5 10q-6 0 -14 8q-4 4 -9 7v147q0 8 -16 24.5t-37.5 34t-43 29.5t-34.5 12h-12q0 -4 -7 -7t-9 -3h-43q-4 -2 -16.5 -9t-26 -16.5t-25.5 -17.5t-14 -10q-4 -2 -10.5 -12.5t-8.5 -16.5q-4 -6 -19 -35.5t-31.5 -63.5t-31 -62.5t-18.5 -34.5q-2 -4 -8 -16.5t-14.5 -26 t-15.5 -25.5t-9 -14q-23 -47 -36 -99.5t-36 -99.5q0 -4 -5 -14.5t-11 -22.5t-11.5 -23.5t-7.5 -13.5v-8q0 -43 28 -58.5t67 -15.5h32q14 0 44 2.5t62 3.5t58.5 3t34.5 2q41 4 81 11t79 7h30q6 -2 28 -13t26 -16q2 -2 2 -8v-8q0 -16 -8.5 -28.5t-18.5 -23.5t-20.5 -23.5 t-16.5 -26.5q-23 -47 -42 -100.5t-40 -104.5q-2 -4 -9 -17.5t-14 -29t-14.5 -27.5t-9.5 -14q-12 -29 -23.5 -50.5t-29.5 -52.5q-18 -35 -20.5 -69.5t-32.5 -65.5q0 -2 3 -5t3 -5h6h4q8 4 24.5 14.5t22.5 14.5q4 2 21.5 17t21.5 17q4 0 11.5 5.5t7.5 7.5q6 0 23.5 10t23.5 14 q10 6 24.5 18.5t30.5 25t31.5 21.5t25.5 9q20 0 25.5 -16.5t5.5 -32.5q0 -23 -11 -44.5t-26.5 -41t-32 -35.5t-28.5 -31q-8 -6 -22.5 -20t-16.5 -14q-2 -4 -21.5 -11.5t-21.5 -7.5q-2 -2 -5 -4t-5 -6t-16.5 -22.5t-18.5 -22.5q-2 -2 -4 -2l-2 -2q-2 -2 -2 -4 q-4 0 -23.5 -7.5t-23.5 -11.5q-4 -2 -22.5 -17.5t-22.5 -17.5q-10 -8 -32 -15t-45.5 -12t-47 -8.5t-35.5 -3.5h-15q-12 0 -16 2q-23 14 -35 43t-12 54q0 12 5 31.5t12.5 40t15.5 39t14 26.5q2 2 14.5 13.5t14.5 15.5q31 47 40 102t31 102q12 27 30 57.5t33 62.5t26.5 65 t11.5 63q0 27 -8.5 39t-23.5 18.5t-35.5 7.5t-43.5 7q-4 0 -17.5 4t-17.5 4q-2 0 -28.5 1t-38.5 1q-8 0 -35 -1t-35 -1q-10 0 -25.5 -9t-32 -22.5t-29.5 -28t-19 -24.5q-16 -14 -17.5 -35.5t-11.5 -42.5q0 -4 -7 -15t-9 -15q-2 -2 -5.5 -12.5t-6.5 -21.5t-6 -22.5t-3 -13.5 q-4 -16 -16.5 -31.5t-18.5 -34.5q0 -4 -4 -22.5t-4 -22.5q-4 -6 -11 -26.5t-16.5 -47t-17.5 -50t-12 -35.5q0 -4 -3 -10.5t-3 -8.5q-8 -35 -24.5 -72.5t-29.5 -72.5q-20 -39 -32.5 -76t-18.5 -80q-8 -16 -12 -27.5t-8 -20.5t-7.5 -20.5t-9.5 -25.5q0 -4 -5 -16.5l-11 -27.5 t-13.5 -28.5t-9.5 -19.5q-4 -4 -18 -27.5t-18 -30.5q0 -2 -5.5 -13t-11.5 -23.5t-11 -23.5t-5 -13q-39 -49 -73 -102.5t-65.5 -100.5t-62.5 -82t-63 -47q-4 -2 -22.5 -5t-23.5 -3q-53 -4 -105 -13.5t-105 -9.5q-23 0 -43.5 3t-36.5 20q-27 33 -48.5 60.5t-21.5 72.5 t24.5 73.5t71.5 28.5q35 0 48.5 -19.5t33.5 -43.5q4 -4 14.5 -15.5t14.5 -11.5l8 -4l8 -4q4 -4 18.5 -19.5t18.5 -19.5h8q37 0 54.5 16.5t46.5 38.5l8 11q18 35 36.5 69.5t37.5 73.5q0 4 6 27.5t8 27.5q4 2 15.5 16.5t15.5 18.5q2 4 10 22.5t6 24.5q47 104 83 199.5 t81 195.5q29 66 48 135.5t42 137.5q25 72 56.5 143.5t52.5 145.5q0 2 2 4l4 8l4 12v6q0 16 -18.5 25.5t-28.5 15.5q-10 4 -26.5 10.5t-18.5 6.5h-232q-6 0 -27.5 -9.5t-31.5 -15.5q-20 -16 -36.5 -40.5t-25.5 -49.5q0 -6 -8 -30.5t-17 -52.5t-16.5 -50.5l-9.5 -28.5 q0 -2 -5 -10t-9 -17.5t-9.5 -16.5t-5.5 -9q-2 -4 -5 -13.5t-6 -20.5t-5 -20.5t-4 -11.5q-2 -6 -4 -15t-6 -11q-2 -6 -11.5 -28.5t-13.5 -27.5q-4 -6 -11 -24.5t-15.5 -40t-16.5 -42t-10 -28.5q-2 -4 -6 -15t-9.5 -25.5t-8.5 -27t-5 -16.5q-2 -2 -14 -20.5t-14 -20.5 q0 -4 -3.5 -13t-8.5 -20.5t-8 -19.5t-3 -10q-31 -66 -66.5 -126.5t-62.5 -127.5q-12 -31 -26.5 -52.5t-24.5 -54.5q-4 -2 -11.5 -17t-9.5 -17q-2 -4 -5 -11.5t-7 -15.5q-6 -8 -10 -21q-4 -4 -13.5 -23.5t-13.5 -25.5q-39 -43 -67.5 -86t-75.5 -86q-10 -10 -26.5 -11 t-26.5 -3q-4 -2 -15.5 -6t-24 -9.5t-24.5 -9.5t-16 -6q-29 -4 -49.5 -6t-42.5 -2q-23 0 -38.5 4t-35.5 8q-23 4 -47.5 25.5t-32.5 38.5q-2 4 -12.5 13t-12.5 13q-8 18 -22 28.5t-14 33.5z" />
<glyph unicode="|" horiz-adv-x="835" d="M528 389q2 4 6.5 14.5t6.5 14.5v4v4q-2 2 -7.5 8t-5.5 8v43q0 43 6.5 82t6.5 78q0 16 -1 26.5t-12 22.5v113q0 68 6.5 134.5t6.5 137.5v74q0 6 -2 29.5t-4.5 52.5t-4.5 54.5t-2 33.5v160q0 6 -1 23.5t-2 38t-2 37.5t-1 24q-4 4 -7 23.5t-3 23.5v2q0 39 22.5 64.5 t59.5 25.5q41 0 55.5 -24.5t14.5 -61.5q0 -31 -5.5 -58.5t-21.5 -54.5v-131q0 -68 5 -134.5t5 -135.5q0 -39 -5 -72t-5 -69q0 -23 1 -38.5t9 -37.5v-307l6 -15v-108q-2 -4 -4 -10.5t-2 -8.5v-16v-45q-2 -4 -6 -18.5t-4 -16.5v-21q0 -14 1 -21t9 -24v-84v-32q0 -27 -2 -53.5 t-8 -53.5v-549q10 -10 13 -26.5t3 -34.5v-27q0 -23 -17.5 -38t-39.5 -15q-10 0 -20.5 1t-18.5 9q-6 4 -17.5 13.5t-11.5 13.5v948z" />
<glyph unicode="}" horiz-adv-x="2007" d="M1462 995q0 -35 27 -46t55 -11h37q12 2 45 4t69 3t67.5 3t43.5 2q2 0 8.5 3t10.5 3q33 27 42 50.5t21 60.5q16 45 39 86t43 84q16 43 27.5 80t25.5 74q4 10 12.5 27.5t8.5 21.5v123q-6 12 -18.5 28.5t-29 31.5t-32.5 26.5t-31 13.5h-43q-41 0 -86 -17.5t-69 -52.5 q-4 -4 -10.5 -19t-8.5 -18q0 -2 -6 -9l-12 -14t-11.5 -13.5t-7.5 -8.5q-29 -53 -52 -109t-56 -108q-2 -4 -9.5 -18t-9.5 -19q-18 -47 -30.5 -92t-28.5 -90q-2 -2 -6 -11t-9 -19.5t-9.5 -20.5t-6.5 -12v-17zM840 975l26 -25q2 0 13.5 -4t28 -9t32.5 -9t29 -6h12q35 0 67.5 4 t67.5 4h58q2 -2 9 -5t9 -3q14 0 33.5 32.5t40 75.5t37 84t24.5 60q12 25 32.5 58.5t31.5 61.5l4 17q4 16 4 18q4 6 10 21.5t13.5 33t13.5 34t10 22.5q0 29 -17.5 49t-29.5 39q0 2 -4 9t-8.5 16.5t-8.5 17.5t-6 10q-2 6 -16.5 23.5t-18.5 21.5q-8 6 -29.5 12.5t-25.5 8.5 q-4 0 -32.5 3t-39.5 3h-18q-2 0 -11.5 -6.5t-19.5 -12.5t-20.5 -11t-12.5 -5q-2 -4 -21.5 -10t-23.5 -9q-33 -20 -53 -69t-37 -84q-4 -4 -13 -27.5t-11 -27.5q-4 -2 -11.5 -22.5t-9.5 -29.5q-8 -29 -14 -44t-23 -48q-6 -10 -10 -22.5t-8 -14.5q-2 -4 -9 -26.5t-12 -24.5 q-10 -41 -21 -75.5t-11 -75.5v-33zM244 -502q0 37 11 60.5t52 33.5h27q33 -14 52.5 -38.5t37.5 -48t39.5 -41t60.5 -17.5h27q4 4 18.5 19.5t16.5 19.5q4 0 14 8t14 8q37 41 55.5 92.5t45.5 100.5q14 29 36.5 59.5t32.5 63.5q27 74 54.5 146.5t54.5 144.5l13 32.5t19.5 47 t18.5 46t12 27.5q16 35 24.5 67.5t20.5 67.5q4 6 11.5 23.5t7.5 21.5q4 10 17.5 38t27.5 57.5t27.5 57.5t17.5 38q29 16 34 55t5 68q0 4 -1 19.5t-1 19.5q-45 35 -95.5 40t-107.5 5h-53q-35 0 -70 -4.5t-63 -20.5q0 -2 -3 -6t-3 -6q-33 -57 -55.5 -115.5t-47.5 -118.5 q-10 -25 -22.5 -50t-22.5 -48q0 -4 -4 -22.5t-4 -22.5q-4 -6 -15.5 -28.5t-13.5 -26.5q0 -4 -4 -18.5t-4 -18.5q-2 -4 -8 -16.5t-14.5 -28t-14.5 -28.5t-8 -17q-25 -55 -45 -102.5t-55 -100.5l-27 -53q-2 0 -4 -6.5t-4 -10.5q-10 -23 -17.5 -38t-13.5 -28.5t-14 -30.5 t-21 -44q-10 -29 -19 -52.5t-24 -47.5q-4 -12 -14 -27.5t-12 -19.5q-2 -2 -4 -7q-4 -8 -4 -12q-2 -2 -7.5 -15.5t-11.5 -28.5t-12 -28.5t-8 -15.5q0 -4 -10.5 -14.5l-23.5 -23.5t-26.5 -25.5t-19.5 -18.5q-25 -20 -53.5 -42.5t-59.5 -42t-64.5 -34t-66.5 -18.5 q-23 -4 -43 -9t-47 -5q-6 0 -19.5 1t-28 2t-27.5 3t-15 2q-29 10 -57.5 25.5t-52 35t-39 46t-15.5 61.5q0 41 17.5 72.5t64.5 31.5q16 0 22.5 -4t6.5 -20t-4.5 -28.5t-4.5 -29.5q0 -10 11.5 -23.5t21.5 -17.5q14 -12 23.5 -17t31.5 -15q31 -8 59.5 -9.5t57.5 -1.5 q47 0 78 30t55 60q10 8 27.5 33t21.5 33q0 2 4.5 12t8.5 21.5t8 21.5t4 15q2 4 8 17t13.5 29.5t14.5 31t11 22.5q14 33 25.5 58.5t20.5 50t20.5 49t25.5 59.5q12 31 23.5 62.5t30.5 54.5q2 2 5 13t7 23.5t8 22.5t4 12q23 45 45.5 86t36.5 86q2 2 6 10.5t8 17.5t7.5 17.5 t3.5 10.5q10 16 19 39.5t22 40.5q10 20 17 39.5t15 42.5q10 27 24.5 51t28 50t22.5 52.5t9 54.5q0 2 -4 4.5t-6 4.5q-10 6 -30.5 16t-22.5 10q-18 4 -46 5t-54.5 6.5t-45 18.5t-18.5 44q0 25 13.5 38t31.5 19t41 7.5t41 1.5q29 0 58.5 -5.5t60.5 -5.5q10 0 29.5 2t23.5 15 q0 2 4 12t8 23.5t8.5 26.5t6.5 20q23 74 56.5 147.5t72.5 142.5q0 4 6 13.5t10 11.5l14.5 14.5t14.5 12.5q23 35 40 72.5t35 72.5q4 4 11.5 10t9.5 10q2 0 10 5.5t17.5 11.5t17.5 12t10 8t10.5 9.5t17.5 16.5t16 17.5t9 10.5q4 0 19.5 6t17.5 10q2 0 10.5 5t17.5 11.5 t17.5 12.5t10.5 6q4 4 10 6t6 4q53 12 107.5 24.5t107.5 12.5q49 0 93 -10.5t91 -26.5q12 -10 19.5 -20.5t14.5 -18.5t17.5 -12t30.5 -4q27 0 62 17.5t63 27.5q6 4 23.5 11t21.5 9q12 0 46 3t72 5.5t72 5.5t46 3h10q45 0 78 -15.5t74 -36.5q18 -10 27 -32.5t28 -32.5 q2 0 17.5 -4t17.5 -4q8 -2 22.5 -15.5t14.5 -21.5v-27q-2 -4 -7.5 -16t-11.5 -25.5t-12 -26t-6 -14.5q-4 -12 -13.5 -45t-13.5 -55q-25 -31 -40 -74t-32 -80q0 -4 -11 -26.5t-13 -24.5q-2 -4 -4 -13t-4 -20.5t-3 -20.5t-1 -11q0 -4 -7.5 -10.5t-11.5 -8.5q0 -2 -3 -13 t-3 -13q-20 -45 -47 -86t-45 -84q0 -2 -3 -10.5t-6 -18.5t-6.5 -18.5t-3.5 -10.5q-14 -35 -34.5 -66.5t-36.5 -68.5q0 -2 -5.5 -17.5t-5.5 -19.5q0 -2 -4 -12t-4 -14q-33 -70 -61.5 -137.5t-44.5 -141.5q-2 -4 -2 -16q0 -14 4 -19q27 0 52.5 24.5t41.5 37.5q4 2 24.5 16 t30.5 19q31 20 72 51.5t82 31.5q14 0 26.5 -7t12.5 -27v-2q-10 -29 -34 -45.5t-40 -36.5q-2 -4 -9 -18.5t-9 -18.5q-4 -6 -17.5 -19.5l-30 -30t-30.5 -29.5t-23 -19q-4 -4 -14 -12.5t-23.5 -18.5t-25.5 -19.5t-19 -13.5q-39 -29 -79.5 -48.5t-83.5 -39.5q0 -4 -5 -8l-4 -4 q-2 -2 -15 -5.5t-19 -3.5q-23 -4 -57 -7t-36 -3l-53 56q0 2 -1 16t-1 25q0 31 6 51t15.5 37.5t20.5 35t24 43.5q2 4 8 19.5t14 32t14.5 33t10.5 24.5q2 2 5 14.5t7 25.5t8 25.5t4 14.5q14 27 22.5 40t22.5 42q25 49 46.5 101t35.5 106v20q-14 27 -35 27q-8 0 -16 -1t-10 -1 q-47 4 -89 12t-87 8q-41 0 -65.5 -4t-59.5 -25q-49 -66 -82 -138t-62 -150q0 -4 -4 -14.5t-8 -22.5t-8 -25.5t-6 -19.5q0 -2 -3 -11.5t-6 -20.5t-6.5 -20.5t-3.5 -11.5q0 -4 -8 -14t-10 -12q-20 -37 -28.5 -80t-22.5 -84q-16 -35 -28.5 -63.5t-29.5 -59.5q-2 -4 -4 -15.5 t-4 -15.5q-16 -49 -37 -98q-2 -8 -8 -26.5t-10 -28.5q-10 -35 -24.5 -58.5t-26.5 -58.5q-2 -2 -5 -10.5t-6.5 -17.5t-6.5 -17t-3 -10q-10 -25 -26.5 -48.5t-28.5 -50.5q-16 -45 -29.5 -76.5t-31 -57t-41 -49.5t-60.5 -52q-25 -20 -57.5 -28.5t-59.5 -24.5q-47 -8 -104 -9 q-29 0 -56.5 2t-56.5 7q-4 2 -14 1t-10 3q-4 0 -23.5 1t-23.5 5q-23 4 -39.5 20.5t-25.5 38t-13 46t-4 42.5z" />
<glyph unicode="~" horiz-adv-x="993" d="M307 614q0 23 10.5 45.5t26.5 45.5q6 8 14.5 13t14.5 11q14 16 25.5 23.5t31.5 15.5q16 6 29.5 11t23.5 9q33 16 66 19.5t67 3.5q23 0 44.5 -4t41.5 -10q6 -2 13.5 -8.5t15.5 -6.5h10q16 0 40 -12t40 -16q12 -2 23 -11q12 -6 24 -6q8 0 15.5 1t15.5 1q33 0 63.5 14.5 t59.5 51.5q10 12 26.5 28.5t26.5 32.5q4 10 15 11q35 0 34 -35q0 -29 -8 -64t-24 -55q-8 -10 -22.5 -29.5t-39.5 -34.5q-12 -8 -32.5 -16t-40 -14t-35 -11.5t-19.5 -5.5q-29 -4 -47 -7t-51 -3q-35 0 -63.5 4t-51.5 4q-10 0 -17 5.5t-16 9.5q-10 6 -23 10t-30 10 q-10 4 -23.5 10.5t-27.5 6.5q-8 0 -12 -3h-6q-6 0 -11.5 1.5t-11.5 1.5q-16 0 -28.5 -3.5t-26.5 -5.5q-12 0 -27.5 -5t-26.5 -15q-10 -10 -17 -15.5t-13 -19.5q-4 -10 -13.5 -22.5t-17.5 -12.5h-14q-14 0 -17 15q-2 12 -3 19t-1 17z" />
<glyph unicode="&#xa1;" horiz-adv-x="694" d="M776 1163q0 -35 -12 -54t-25 -50q-2 -6 -8 -22.5t-14 -35t-14.5 -36t-8.5 -25.5q0 -4 -6 -19.5t-12 -34t-11.5 -34.5t-5.5 -21q-4 -8 -16 -36.5t-25.5 -61.5t-25.5 -62.5t-14 -37.5q-4 -4 -6.5 -13.5t-2.5 -13.5q-10 -41 -21 -68.5t-26 -68.5q-10 -23 -14 -50.5 t-14 -56.5q-4 -12 -11.5 -36.5t-15.5 -51t-15.5 -47t-9.5 -26.5q-2 -4 -10 -20.5t-17 -34t-18.5 -34t-11.5 -20.5q-2 -6 -6 -20.5t-9 -29.5t-11.5 -29.5t-8.5 -20.5q-8 -8 -22.5 -11.5t-22.5 -7.5h-2h-8q-4 4 -25.5 10.5t-25.5 8.5q-35 14 -41 39.5t-15 60.5q-2 2 -2 6v8v7 q0 6 2 6q4 12 10.5 39.5t8.5 31.5q0 4 12 18.5t14 18.5t4.5 22.5t6.5 22.5q10 47 34.5 84t53.5 78q12 16 11 26.5t9 28.5q0 2 2 5q2 2 6 10l9 12q10 25 24.5 59.5t28.5 57.5q2 4 14.5 14t14.5 12q10 12 11 26.5t5 29.5q10 25 24.5 57.5t30.5 58.5q2 2 9.5 13.5t15.5 24 t14 23.5t8 15q2 6 4 15q4 16 5 18q0 4 5 14.5t11 22.5t12 22.5t6 14.5q8 18 17.5 51t23 65.5t29.5 57t41 24.5q16 0 34.5 -15.5t18.5 -33.5zM1018 1565q0 -29 -12.5 -65t-38.5 -46q-4 -2 -20.5 -4t-16.5 -6q-2 0 -13.5 -7t-15.5 -10h-22q-16 0 -37 10.5t-38.5 26t-28.5 35 t-11 35.5q0 27 8 52.5t22.5 47t36 34.5t48.5 13q61 0 93 -23.5t46 -84.5v-8z" />
<glyph unicode="&#xa2;" horiz-adv-x="530" d="M-567 -422q0 14 1 27.5t9 23.5q4 10 24.5 29.5t30.5 28.5q0 2 13.5 8t23.5 8h2h4q23 -10 33 -17.5t15 -16.5t7.5 -21.5t8.5 -32.5q2 -12 12 -23.5t24.5 -21.5t28 -18.5t23.5 -12.5t35.5 -11t29.5 -7q20 -2 48 12t54.5 34.5t50 43t36.5 39.5q14 16 21 29.5t12.5 27.5 t9.5 29.5t10 38.5q8 18 21.5 41.5t23.5 42.5q2 2 6 7t4 7q23 59 50.5 114.5t50.5 112.5q2 8 14 43t26.5 75t25.5 74t16 44q10 33 29.5 56.5t33.5 62.5q0 2 4 20.5t4 22.5q10 41 29.5 73.5t34.5 69.5q20 51 32.5 103.5t28.5 105.5q8 16 17.5 39.5t19.5 42.5q0 2 8 12t10 12 t3 5q0 2 2 6q0 4 2 8q12 45 20 88t29 84q14 37 35.5 73.5t44.5 71.5q23 37 32 82t29 80q37 61 82 117.5t82 116.5q29 12 52.5 33.5t45.5 39.5q4 2 14.5 8.5t12.5 8.5t13 8t24.5 13t26 13.5t18.5 10.5q23 14 48 17t42 5q4 0 22.5 1t22.5 1q4 -2 6 -2h6q6 0 10.5 -1t8.5 -1 q10 0 29.5 -3l39 -6t35.5 -6t21 -5q18 -4 40.5 -14.5t42 -23.5t33 -31.5t13.5 -39.5q0 -43 -5.5 -56t-15.5 -28q-10 -10 -27.5 -17t-35.5 -7q-35 0 -47.5 19.5t-18.5 46t-15 55t-36 45.5q-18 10 -42 18t-46 8h-12q-45 -20 -76 -52t-60 -65l-15 -15t-11 -15q-2 0 -7.5 -8.5 t-9.5 -17.5t-8 -16t-4 -10q-43 -72 -90 -145.5t-82 -155.5q-4 -6 -10 -22t-6 -21q0 -4 -3 -18t-6.5 -30.5t-6.5 -32t-5 -17.5q0 -2 -9 -24.5t-21.5 -52t-25.5 -61.5t-22 -52q0 -2 -5 -10.5t-7 -8.5q0 -2 -2 -9t-5 -16.5t-6 -17.5t-5 -10q0 -4 -7.5 -19.5t-16.5 -34 t-17.5 -34.5t-10.5 -23q0 -2 -5 -21.5t-5 -21.5q-12 -57 -33.5 -110t-40.5 -107q0 -2 -2 -8t-4 -10q-41 -68 -64.5 -145.5t-53.5 -153.5q-35 -88 -74 -175t-82 -173q0 -4 -6 -23.5t-8 -23.5q-10 -23 -26.5 -39.5t-29.5 -34.5q-2 -4 -14 -25.5t-12 -25.5 q-37 -63 -93.5 -105.5t-122 -68t-136 -39t-136.5 -19.5l-20 -5t-17 -1q-47 0 -83.5 9.5t-77.5 35.5q-27 16 -32 37.5t-5 46.5z" />
<glyph unicode="&#xa3;" horiz-adv-x="3010" d="M2437 854q0 -10 11.5 -23.5t23.5 -13.5h8q6 0 33 1t57.5 3t57 3t34.5 1h4q16 0 33 -4t35 -4h31q20 16 32.5 42t20.5 55.5t14.5 58t16.5 51.5q4 6 15 27.5t24.5 48t25 49t15.5 29.5q2 4 8 23.5t6 29.5q4 2 7 16.5t3 16.5q16 41 25.5 75.5t9.5 81.5q-27 0 -51.5 -22.5 t-42.5 -38.5q-4 -4 -22.5 -17.5t-22.5 -17.5q-2 -4 -12.5 -22.5t-10.5 -22.5q-2 -2 -11 -10t-19.5 -18.5l-19.5 -19.5l-11 -11q-4 -2 -17.5 -20.5t-17.5 -22.5q-14 -14 -30.5 -21.5t-30.5 -21.5q-49 -55 -94.5 -110.5t-94.5 -115.5q-10 -10 -26.5 -24.5t-16.5 -30.5z M201 481q0 4 8 25.5t8 25.5t3 20.5t6 36t5 36t5 20.5q0 8 5 27.5t10 41t10 41t7 27.5q33 53 76 100.5t98 82.5q2 2 15.5 7t17.5 9q4 0 14.5 4t14.5 4q0 2 2 4q4 4 4 6q39 29 92 33t98 4q6 0 20.5 -2t31 -4t31 -4t20.5 -2q29 -4 46 -20.5t40 -32.5q4 -2 22.5 -11.5 t20.5 -13.5q2 -2 8 -13t8 -11q25 -31 35 -47.5t10 -57.5q0 -35 -14 -59.5t-39 -41t-55.5 -23.5t-61.5 -7q-4 0 -19.5 1t-19.5 1q-20 14 -25 37t-6 46.5t-5.5 43t-22.5 27.5q-35 16 -57.5 20t-57.5 4q-8 0 -33.5 -3t-33.5 -3q-20 -8 -52 -23.5t-49 -29.5q-4 -2 -10 -13.5 t-8 -11.5q-35 -41 -62.5 -85t-50.5 -97l-4 -8l-4 -8v-9q0 -14 4 -24t4 -25q0 -23 -4 -43t-4 -43t10.5 -46t24.5 -44.5t30.5 -41t28.5 -34.5q4 -4 13.5 -13t18.5 -19.5t17.5 -18.5t12.5 -10q2 0 11 -6t21.5 -13.5t24.5 -13.5t21 -8q4 -2 13 -6t11 -4h35q23 -2 44.5 -9.5 t41.5 -15.5h137q4 0 22.5 -4t22.5 -4h33q4 0 22.5 -5t22.5 -3q2 0 13.5 3t23.5 8t23.5 9t13.5 4t12 1t22.5 3.5t24.5 4.5t21 2h8q12 0 24.5 -5.5t26.5 -5.5q20 0 38.5 6.5t41.5 10.5q0 2 8 3t18.5 3t19.5 3t11 1q4 0 14.5 7t12.5 11q6 0 19.5 6.5t13.5 10.5q4 0 22.5 3 t22.5 3q0 2 6 5l10 5q33 20 68 33.5t69 36.5q4 2 18.5 13t16.5 11q23 16 47.5 22.5t46.5 20.5q2 2 11.5 8.5t19.5 13.5t19.5 13t11.5 8q4 2 25.5 12.5t25.5 14.5t17.5 18.5t17.5 16.5q2 2 12 6t21.5 10t21.5 11.5t14 7.5l2 2q4 4 7 4q4 6 21.5 28.5t21.5 26.5q4 0 25.5 10.5 t25.5 12.5q27 18 50.5 55t45.5 57q0 2 19.5 19.5t29.5 23.5q4 4 18.5 13.5t16.5 11.5q2 4 15.5 16.5t27.5 27.5t26.5 27.5l16.5 16.5q4 2 21.5 16.5t21.5 18.5t13.5 17.5t13.5 17.5q10 10 38.5 37.5t60.5 59.5l59.5 59.5l39.5 39.5q2 4 14.5 17.5t26 29t25.5 28.5t18 19 q2 2 13.5 17.5t13.5 15.5q4 4 13 10.5t12 8.5q8 4 26.5 24.5t26.5 26.5q2 4 12 18.5t12 16.5t15.5 11t19.5 15q25 18 44.5 39t39 39.5t42 33.5t54.5 25l97 95q0 2 6 5l10 5q104 35 207 35h61q4 -4 24.5 -18.5t27.5 -16.5q2 -2 14 -8t27.5 -14.5t27.5 -14.5t15 -8 q18 -10 28 -27q8 -6 15.5 -11l13.5 -9q2 0 5 -3l5 -5q16 -23 33.5 -43.5t17.5 -51.5q0 -12 -7 -27.5t-18.5 -29.5t-25.5 -23.5t-29 -9.5q-37 0 -59.5 18.5t-35.5 46t-20 59.5t-16 61l-4 8l-6 6h-12q-29 0 -49.5 -21.5t-32.5 -40.5q-12 -16 -22.5 -40.5t-18.5 -50 t-17.5 -52.5t-19.5 -47q-23 -41 -46.5 -80t-39.5 -82q-2 -4 -4 -22.5t-6 -22.5q-4 -16 -10.5 -41.5t-12.5 -52.5t-11 -47.5t-7 -22.5t-8 -14t-13.5 -26.5t-13.5 -27t-8 -16.5q-10 -25 -22.5 -57.5t-22.5 -60.5q0 -4 -2 -13.5t-5 -19.5t-5.5 -18.5t-4.5 -10.5 q-2 -4 -12 -19.5t-21.5 -33t-21.5 -32.5t-12 -17l-8 -17q0 -4 -1 -16t-3.5 -25.5t-3.5 -24.5t-3 -14q0 -4 -6 -16t-13 -26.5t-14.5 -28t-9.5 -15.5q-10 -23 -15 -47t-9 -45q-10 -37 -26.5 -67.5t-16.5 -69.5v-31q2 -4 11 -14t15 -10q4 -2 26 4t26 6q6 0 29.5 -3t31.5 -7 q2 -2 8 -11.5t6 -13.5q2 -8 -5 -14t-18 -11.5t-21.5 -9.5t-14.5 -8q-10 0 -39 -2t-59.5 -3t-59 -2t-39.5 -1h-129q-6 0 -28.5 -3t-49 -6t-50 -6t-29.5 -3h-13q-10 0 -30.5 1t-42 5t-38 13t-16.5 26q0 18 8.5 28.5t20.5 20.5q49 8 104.5 12t102.5 6q2 2 8 8.5t13.5 13.5 t13.5 13l8 8q2 4 16.5 26.5t18.5 26.5q2 0 13 10.5t11 12.5q10 20 17.5 61t19.5 68q0 4 10.5 22.5t14.5 22.5q2 4 8 19.5t13 32t13.5 31.5t8.5 19q10 27 16 53.5t17 51.5q8 18 23 45t11 49q0 2 -6 8t-10 11q-14 -2 -29 -2h-28q-57 0 -114.5 4t-115.5 4q-23 0 -40 -5.5 t-40 -5.5q-16 0 -29.5 5.5t-29.5 5.5q-10 0 -21.5 -11.5t-22.5 -27t-21.5 -31.5t-16.5 -25q-8 -10 -26.5 -27.5t-37 -35.5t-35 -34.5t-22.5 -20.5q-2 -4 -20.5 -14.5t-20.5 -14.5q-29 -20 -44 -50t-44 -52l-17 -8.5t-18 -8.5l-4 -4q-2 -2 -2 -4v-2q-4 -2 -15 -10 t-24.5 -18.5t-26 -19.5t-14.5 -11l-4 -4l-4 -5q-4 0 -13 -3t-11 -3q-6 -4 -27 -12q-8 -4 -18 -6q-2 -4 -8.5 -18.5t-6.5 -18.5q-6 -6 -14 -10q-6 -4 -11 -7l-10 -6q-66 -47 -124 -82.5t-134 -64.5q-4 -4 -22.5 -5t-22.5 -5q-25 -6 -45 -26.5t-47 -24.5h-80q-2 0 -16 -3.5 t-16 -3.5q-4 -4 -11 -4h-8q-16 0 -28.5 5.5t-28.5 5.5q-18 0 -29.5 -3.5t-34.5 -13.5h-231q-33 2 -57.5 10.5t-53.5 16.5q-4 0 -18.5 2t-29.5 5t-29.5 6t-18.5 3q-31 8 -61.5 23.5t-59.5 29.5q-6 0 -12 2l-12 5q-6 4 -19.5 11t-15.5 7t-13.5 11.5l-13.5 13.5 q-29 23 -56.5 43t-56.5 43q-27 27 -46 60.5t-37 59.5q-8 14 -11.5 25.5t-7.5 26.5q-4 16 -10 49t-6 37v26z" />
</font>
</defs>
</svg>
