<?xml version="1.0" standalone="no"?>
<!DOCTYPE svg PUBLIC "-//W3C//DTD SVG 1.1//EN" "http://www.w3.org/Graphics/SVG/1.1/DTD/svg11.dtd" >
<svg xmlns="http://www.w3.org/2000/svg" xmlns:xlink="http://www.w3.org/1999/xlink" version="1.1">
<metadata></metadata>
<defs>
<font id="opera-lyrics-smoothregular" horiz-adv-x="1670" >
<font-face units-per-em="2048" ascent="1638" descent="-410" />
<missing-glyph horiz-adv-x="569" />
<glyph horiz-adv-x="0" />
<glyph unicode="&#xd;" horiz-adv-x="569" />
<glyph unicode=" "  horiz-adv-x="569" />
<glyph unicode="&#x09;" horiz-adv-x="569" />
<glyph unicode="&#xa0;" horiz-adv-x="569" />
<glyph unicode="!" horiz-adv-x="500" d="M50 227v12q50 163 144 163q10 25 44 25h6q118 0 200 -150l6 -63q0 -142 -175 -206l-6 6h-56q-89 0 -157 125l7 50zM50 1652q0 79 100 187q88 10 88 19q144 -52 144 -109q0 -5 -1 -10l22 -75q-56 -719 -60 -795l-30 -205h6q-25 -86 -75 -137h-6q-69 70 -69 144l-20 225 q-11 55 -48.5 405.5t-50.5 350.5z" />
<glyph unicode="&#x22;" horiz-adv-x="631" d="M50 1655q0 31 25 78l23 14q109 97 157 97q14 0 23 -9q0 -45 10 -55v-195l-37 -93q9 -63 9 -102q0 -47 -13 -60l-5 5q-24 -24 -47 -24t-46 23q-59 59 -59 128q0 15 3 30q-33 33 -33 79q0 20 6 42q-16 16 -16 42zM343 1655q0 31 25 78l23 14q109 97 157 97q14 0 23 -9 q0 -45 10 -55v-195l-37 -93q9 -63 9 -102q0 -47 -13 -60l-5 5q-24 -24 -47 -24t-46 23q-59 59 -59 128q0 15 3 30q-33 33 -33 79q0 20 6 42q-16 16 -16 42z" />
<glyph unicode="#" horiz-adv-x="1225" d="M50 352v2q0 10 7 18q21 104 109 118l39 22l8 -3l33 5l49 20l2 -52l2 119l6 131l-4 -38l1 12l8 71l-1 28l-23 -2l1 -4l-31 -21l-8 -1q8 2 8 4q0 4 -54 4q-32 0 -73 -1h-6q-27 0 -52 91q-5 8 -10 17l-2 12v2q0 10 7 18q21 24 109 38l39 22l8 -3l33 5l31 20l29 1l5 81h-5 l-15 49v11q17 38 37 238q0 45 100 72q9 5 19 10h12q11 -1 18 -14q19 -34 19 -143v-22l15 -60l-4 -12l-1 -47l5 -119l-3 -29l49 11l52 -2q50 11 55 18l1 1l25 1l14 3l8 142h-5l-15 49v11q17 38 37 238q0 45 90 72q9 5 19 10h12q11 -1 18 -14q19 -34 19 -143v-22l15 -60 l-4 -12l-1 -47l5 -119l-9 -82q8 -3 16 -3q5 0 9 1l57 13l32 5l-1 5q130 0 154 -90q4 -6 5 -14l1 -7v-4q0 -9 -7 -17q-26 -29 -140 -54q-55 -24 -66 -37q-1 -1 -1 -3l-67 -6l4 -91l-18 -80q3 -73 8 -82l1 -1h1l-1 -6q10 -3 21 -3h8l57 13l32 5l-1 5q130 0 154 -120 q4 -6 5 -14l1 -7v-4q0 -9 -7 -17q-26 -29 -140 -54q-55 -24 -66 -37q-1 -1 -1 -3l-58 -5v-4q-16 -23 -17 -58l3 -84l-11 -131h4q-22 -185 -65 -209q-6 -3 -12 -3h-51q-10 0 -19 15q-24 44 -29 212q-3 169 -14 189l-2 2l3 55l-60 -10l-50 -9l-9 -6l-8 -1h-50l-7 -2l3 -68 q-16 -23 -17 -58l3 -84l-11 -131h4q-22 -185 -115 -209q-6 -3 -12 -3h-11q-10 0 -19 15q-24 44 -29 212q-3 169 -14 189l-2 2l7 116l-10 -1l1 -4l-31 -21l-8 -1q8 2 8 4q0 4 -54 4q-32 0 -73 -1h-6q-27 0 -52 41q-5 8 -10 17zM489 587q3 -73 8 -82l1 -1h1l-5 43l63 14l52 -2 q50 11 55 18l1 1l25 1l3 1l5 10l2 119l6 81l-4 12l1 12l4 39l-74 -12l-50 -9l-9 -6l-8 -1h-50l-15 -4l6 -104z" />
<glyph unicode="$" horiz-adv-x="1200" d="M50 1034l16 116v15l-6 33q11 60 75 121q23 64 174 128l111 36h5q6 66 13 164q0 64 68 100h12q40 0 40 -214l9 -39l64 -5v4q20 0 40 -5q6 66 13 166q0 64 68 100h12q40 0 40 -214l16 -72l-4 -14v-56l1 -11l32 -4q47 0 64 52q0 13 73 37q67 -25 79 -52v-37l22 -58l-6 -122 q21 -17 32 -48l-32 -111l6 -68q-20 -16 -48 -16q-63 0 -84 63l-96 111q0 35 -39 75l-12 -155v-14l6 -135q12 -4 24 -9q132 -71 159 -100q84 -85 84 -143q25 0 54 -111q11 0 15 -58q0 -51 -37 -191q-63 -111 -142 -190q-37 -51 -168 -84l-3 -49h4q-21 -257 -76 -257h-8 q-41 0 -52 271q0 8 -1 16q-59 9 -110 21l-3 -58h4q-21 -257 -76 -257h-8q-41 0 -52 271q-2 50 -3 89q-28 12 -52 26q0 16 -68 27q-50 0 -79 -80l-27 -21h-6q-59 0 -95 74l10 32l-4 31l10 22l-16 79l6 5v22l-11 15v58l-31 69l21 37v48l-6 5q0 25 64 42h5q59 0 90 -89 q24 -7 106 -127q15 0 68 -69l10 291v136l-68 22q-56 34 -164 64q-58 44 -90 127q-7 0 -15 69q-14 0 -27 53zM362 1208q18 -15 32 -95q13 -12 26 -23l6 200h-4l-3 12q-25 -21 -25 -41q-10 0 -32 -37v-16zM556 650q5 -60 10 -60l-4 -42l12 -256q-16 -29 -16 -72l1 -36l14 -2 q0 -11 48 -15q19 0 37 1q-4 44 -10 44l12 358v22q-44 22 -104 58zM562 1033l1 -32q19 -6 37 -10q3 -5 66 -30l2 23l-4 56l8 257h-4l-10 37q-35 8 -86 13l6 -99l-16 -201v-14zM804 227l1 -20q46 30 60 81l15 64q-37 25 -37 100q-16 29 -33 51l10 -204q-16 -29 -16 -72z" />
<glyph unicode="%" horiz-adv-x="1442" d="M50 130q0 62 99 164q145 177 149 202v4l221 256l85 106l96 113l6 15l8 10l57 58l32 45l159 185l-4 3l20 55l9 11q41 22 161 209q54 32 104 40q12 0 25 -2q11 -2 23 -5l11 -10q58 -84 58 -103v-2q-8 -48 -56 -141l-72 -87l-12 -7l-34 -42l-78 -113l-132 -137l-9 -11 l-103 -144l-106 -104q-49 -68 -51 -81q0 -2 1 -2l-29 -30l-142 -200q-30 -9 -56 -41l-55 -77l-101 -112l4 -3q-88 -143 -179 -143q-8 0 -17 1q-4 0 -7 1q-8 2 -14 7l-59 55q-7 6 -7 19q0 5 1 10q-6 13 -6 28zM73 1322l11 32q-3 19 -7 19l23 72q11 0 15 25l54 66l72 44 q11 0 50 32l99 19q14 -9 69 -16q52 -19 148 -100q29 -57 43 -70q0 -41 30 -69v-66l4 -13q-23 -48 -23 -72q-19 -41 -69 -98q0 -12 -38 -31q-48 -57 -103 -57q0 -6 -57 -19h-16q-76 9 -129 32l-50 28l20 6l4 10h-4q-58 2 -123 110l-15 66q-8 18 -8 50zM253 1294l8 -31l-4 -10 l27 -94q0 -51 22 -51q0 -8 38 -16h19q46 0 46 7l4 -3h23q22 7 25 56q10 0 24 60v16l-4 12l7 32v6h-3l3 16v22l4 35l-4 9l-16 125q0 77 -67 77q0 5 -38 6h-12q-48 -27 -48 -60q-31 -4 -31 -22l4 -12q-23 -32 -23 -48v-9l4 -41l-4 -9l4 -35v-3zM781 316l11 32q-3 19 -7 19 l23 72q11 0 15 25l54 66l72 44q11 0 50 32l99 19q14 -9 69 -16q52 -19 148 -100q29 -57 43 -70q0 -41 30 -69v-66l4 -13q-23 -48 -23 -72q-19 -41 -69 -98q0 -12 -38 -31q-48 -57 -103 -57q0 -6 -57 -19h-16q-76 9 -129 32l-50 28v6l4 10h-4q-38 2 -103 110l-15 66 q-8 18 -8 50zM961 288l8 -31l-4 -10l27 -94q-6 -16 -6 -28q0 -23 28 -23q0 -8 38 -16h19q46 0 46 7l4 -3h23q22 7 35 56q10 0 24 60v16l-4 12l7 32v6h-3l3 16v22l4 35l-19 43l-4 88q-14 65 -74 80q0 5 -38 6h-12q-68 -27 -68 -60q-11 -4 -11 -22l4 -12q-23 -32 -23 -48v-9 l4 -41l-4 -9l4 -35v-3z" />
<glyph unicode="&#x26;" horiz-adv-x="1881" d="M54 587v7q0 48 55 140l105 152l27 37q28 36 216 159q5 27 5 51q0 8 -1 16q-3 33 -15 60q-23 52 -116 160l-29 138l21 63l48 61q42 48 109 111l51 32l26 15q25 16 96 37l135 15l108 -9l85 -21q84 -36 132 -97l64 -46q65 -46 77 -199l5 -63l-36 -101l-30 -45l-49 -71 l-41 -14q-10 -38 -87 -72l-40 -18l-26 -30l28 -117l61 -87l45 -70l38 -69l24 -35l23 -34l56 -50l22 -4l10 5l17 28l16 28l16 28l7 14q55 74 70 122q11 36 11 82q0 15 -1 31q-47 27 -61 40.5t-60 28.5l-91 15l-33 47l27 34l131 15l74 -15l81 15l106 6l86 -3l70 -18l24 -40 l-18 -41l-100 -6q-24 -27 -53.5 -37t-41.5 -57l-12 -47l-18 -70q-17 -70 -53 -168l-40 -64q-18 -44 -70 -88l132 -190l65 -94l33 -48l16 -24l79 -20l132 -3l34 -50l-23 -49l-303 12l-144 -15l-94 18h-78l-47 72l-24 36l-24 36q-104 -95 -223 -127l-73 -39q-64 -24 -149 -39 h-72l-45 -6l-104 3l-64 18q-4 0 -102.5 55t-152.5 201l-49 109l6 110zM364 715q5 -69 5 -149l13 -90q13 -47 57 -98l20 -33l21 -33l27 -44l14 -22q44 -22 118 -58q16 -13 48 -13q26 0 64 9q27 0 60 6q19 -1 37 -1q44 0 83 36q2 33 67 48l-39 152l-62 91l-36 96l-43 55 l-43 103l-89 94l-74 52l-76 -26q-70 -21 -109.5 -56.5t-62.5 -118.5zM625 1597q0 -7 1 -14q5 -61 15 -113l22 -49q11 -33 44 -65l17 -15l18 -16l79 -65l25 -16q52 8 90 73l44 -4q11 28 11 72q0 15 -1 32l-6 68q-10 120 -58.5 177.5t-138.5 57.5q-83 0 -124 -35 q-38 -32 -38 -88z" />
<glyph unicode="'" horiz-adv-x="338" d="M50 1630q0 31 25 78l23 14q109 97 157 97q14 0 23 -9q0 -45 10 -55v-195l-37 -93q9 -63 9 -102q0 -47 -13 -60l-5 5q-24 -24 -47 -24t-46 23q-59 59 -59 128q0 15 3 30q-33 33 -33 79q0 20 6 42q-16 16 -16 42z" />
<glyph unicode="(" horiz-adv-x="686" d="M50 542l1 438v377q70 237 163 283l109 103l104 71l66 33l7 -7l40 17q5 -3 5 -6l-50 -17q32 10 75 13l47 -20l19 -54q-56 -26 -101 -26q-22 -11 -24 -11l7 5q-96 -49 -124 -125q-37 -29 -71 -103q-37 -100 -51 -257q-8 -195 -8 -320q0 -63 2 -108v-319l54 -248 q0 -22 47 -113l60 -104l60 -23h6q42 -19 60 -47l60 -30q-10 -43 -83 -57l-103 25q-39 16 -57.5 23.5t-55.5 34.5q-41 37 -124 145q-80 57 -80 114q0 16 3 32q-44 119 -63 281z" />
<glyph unicode=")" horiz-adv-x="686" d="M50 1773l19 54l47 20q43 -3 75 -13l-50 17q0 3 5 6l40 -17l7 7l66 -33l104 -71l89 -83q113 -66 183 -303v-377l1 -438q-19 -162 -63 -281q3 -16 3 -32q0 -57 -80 -114q-83 -108 -124 -145q-37 -27 -55.5 -34.5t-57.5 -23.5l-103 -25q-73 14 -83 57l60 30q18 28 60 47h6 l60 23l60 104q47 91 47 113l54 248v319q2 45 2 108q0 125 -8 320q-14 157 -51 257q-34 74 -71 103q-28 76 -124 125l7 -5q-2 0 -24 11q-45 0 -101 26z" />
<glyph unicode="*" horiz-adv-x="950" d="M50 1188q0 50 56 160l7 26q51 47 88 47q14 0 26 -7q8 5 16 8l-128 128q0 14 -32 46q0 54 190 65l26 7q92 -28 92 -79q21 -12 35 -27l50 187q12 7 24 51q7 4 15 4q47 0 136 -137l19 -19q7 -31 7 -55q0 -47 -29 -64q0 -20 -4 -37l183 50q4 -3 13 -3q15 0 43 8 q17 -10 17 -37q0 -50 -56 -161l-7 -26q-51 -47 -88 -47q-14 0 -26 7q-13 -8 -26 -12l130 -130q0 -14 32 -46q0 -54 -190 -65l-26 -7q-92 28 -92 79q-24 14 -39 31l-48 -182q-12 -7 -24 -50q-7 -4 -15 -4q-47 0 -136 136l-19 19q-7 31 -7 55q0 47 29 64q0 16 3 31l-172 -47 q-5 3 -14 3q-15 0 -42 -7q-17 10 -17 37z" />
<glyph unicode="+" horiz-adv-x="906" d="M50 653v8q0 41 107 52q90 7 90 20l141 -12h14l3 12l-4 22l8 102h-4l-16 22v6q16 18 32 113q0 25 68 39h12q40 0 40 -85l16 -28l-4 -5v-23l8 -56l-16 -79v-6l5 -41l2 -1l22 4l102 -8v4l22 16h6q18 -16 113 -32q25 0 39 -68v-12q0 -40 -85 -40l-28 -16l-5 4h-23l-56 -8 l-79 16h-6l-28 -3l-1 -6l12 -102q-16 -11 -16 -28l4 -40l-8 -62h4q-21 -101 -76 -101h-8q-41 0 -52 107q-7 90 -20 90l12 141v1l-14 3l-102 -12q-11 16 -28 16l-40 -4l-62 8v-4q-101 21 -101 76z" />
<glyph unicode="," horiz-adv-x="352" d="M50 -292q0 14 84 80q9 0 64 92q8 18 8 64q0 55 -68 60q-47 27 -68 84q24 92 100 92h28q48 -13 48 -28q56 -90 56 -148v-12q0 -11 -52 -112q-25 -65 -80 -112q0 -26 -60 -80l-40 -8q-20 6 -20 12v16z" />
<glyph unicode="-" horiz-adv-x="672" d="M50 886v8q0 41 76 52q64 7 64 20l100 -12h40l44 -4l4 4h4l24 -8l16 4l72 -8v4l16 16h4q13 -16 80 -32q18 0 28 -68v-12q0 -40 -60 -40l-20 -16l-4 4h-16l-40 -8l-56 16h-4l-52 -8l-44 16q-28 -5 -28 -12l-12 4l-72 -12q-8 16 -20 16l-28 -4l-44 8v-4q-72 21 -72 76z" />
<glyph unicode="." horiz-adv-x="360" d="M50 105v4q10 53 40 100q0 18 112 36q60 0 60 -44q41 0 48 -80l-8 -24l4 -16q0 -25 -56 -68q-25 0 -52 -16q-78 0 -104 40q-44 55 -44 68z" />
<glyph unicode="/" horiz-adv-x="1007" d="M50 86q0 50 77 199q79 150 79 172q0 2 -1 3l159 251l59 103l69 111l3 13l6 10l42 58l21 43l114 181l-4 2l10 50l6 10q33 25 147 190q22 39 79 39q10 0 21 -1l11 -6q9 -6 9 -21q0 -42 -64 -153l-16 -60l-9 -8l-24 -41l-53 -107l-97 -137l-6 -10l-70 -138l-79 -105 q-33 -65 -33 -76q0 -2 1 -2l-21 -29l-97 -192q-25 -12 -43 -43l-38 -74l-73 -110l4 -2q-109 -151 -159 -151q-8 0 -14 4l-7 4q-9 5 -9 23z" />
<glyph unicode="0" horiz-adv-x="1451" d="M50 884q25 283 47.5 392.5t169.5 320.5q110 129 256 217q82 18 108 39l124 -15v7q141 0 334 -100q164 -116 294 -543l17 -134l1 -140l-7 -175l-19 -62l-38 -171l-43 -121q-34 -109 -171 -228q-120 -144 -368 -178h-7q-254 0 -489 225q-106 149 -155 333q-28 134 -54 333z M507 1272l8 -403v-54l16 -148v-124q0 -114 62 -255q0 -100 85 -132l62 -16q108 0 144 148q19 85 24 116l20 54l-8 8l8 8v23q10 77 11.5 119.5t1.5 143.5l5 62v31l-5 124q0 39 5 89l-5 66q-5 70 -15 70l8 8l-3 112q-17 113 -28 113l7 38v8q-41 194 -147 194q-137 0 -232 -194 l-13 -70z" />
<glyph unicode="1" horiz-adv-x="1115" d="M50 1667v15q29 67 112 67v7l112 -22l216 67l142 38l60 7q82 -52 82 -97l-8 -7v-8q10 -268 23 -268l-8 -30v-8l15 -67l-15 -112l8 -37l-8 -60l15 -67l-7 -37l7 -75l-7 -97l7 -112l-7 -82q7 -130 22 -164l-15 -156q0 -187 216 -187q18 -3 53 -45q-65 -104 -142 -104l-38 7 l-141 -15l-157 15l-201 -37q-209 35 -209 112q0 52 82 52q112 31 112 90l22 112v7l-15 947q-55 217 -164 217q-164 40 -164 134z" />
<glyph unicode="2" horiz-adv-x="1348" d="M50 971l8 52l-8 151q0 66 53 173q0 77 203 323q0 51 135 98q0 25 226 60v7l7 -7h8l158 7l7 8q322 -133 361 -278q45 -30 45 -128l-15 -166l8 -60q-47 -200 -158 -301q0 -19 -271 -255q-8 -37 -158 -128l-7 -30v-8q0 -39 331 -60q12 -30 52 -30h23q82 42 82 120l83 53h15 q60 -23 60 -75q0 -190 -67 -241q-123 -263 -316 -263h-90q-94 0 -279 135q-115 68 -143 68h-15q-64 0 -188 -165q-59 -38 -90 -38h-7q-45 26 -45 68v52q24 59 135 143q1 47 173 226q0 30 75 75q83 102 83 150l15 61h-8l-135 -30h-8q-140 15 -263 67q-52 40 -67 166h-8z M261 1249q73 -181 157 -181h46q105 92 105 106q0 135 120 135q28 -7 75 -53h8q17 0 38 173q-99 211 -173 211h-8q-57 0 -211 -90q-85 0 -157 -294v-7z" />
<glyph unicode="3" horiz-adv-x="1375" d="M50 425q0 161 231 201q112 0 194 -201v-37l-15 -120v-22q13 -67 75 -67h45q171 0 275 291l-14 45l14 171q-30 179 -119 179l-74 8q-65 0 -150 -60h-22q-112 0 -112 74q0 97 149 97q111 92 224 142q45 67 45 105l-8 37l15 37q-7 77 -22 97l15 112q-13 0 -75 127 q-81 30 -134 30q-120 -58 -172 -172l-7 -119q34 -82 112 -82q20 52 127 89q59 0 59 -89q-7 -63 -119 -149q0 -48 -224 -97l-74 -8q-117 0 -172 187q-24 0 -37 201q0 137 186 261q100 73 321 127h52q31 24 105 37q298 -47 298 -97q77 -30 127 -112q67 -87 67 -186v-52 q0 -107 -239 -329q0 -42 142 -126q171 -115 171 -276l8 -23h7l-7 -7v-8l7 -67q0 -90 -119 -246q0 -85 -298 -239q0 -37 -232 -82l-7 8h-7l-90 -8l-60 8l-104 -15q-24 0 -142 89q-64 0 -194 224z" />
<glyph unicode="4" horiz-adv-x="1376" d="M50 635q0 92 188 263q0 18 52 83q0 68 158 262q142 285 210 391q44 187 188 187q0 15 82 23q83 -36 83 -105l8 -8l-8 -165l15 -45l-7 -158v-142l7 -8l-7 -7v-45l-8 -83l15 -67l-7 -143q11 -30 22 -30q66 0 135 90l30 8h30q43 0 53 -121v-30l15 -22v-15q0 -140 22 -180 l-7 -121v-67q0 -59 -105 -90q-34 0 -128 112h-22l-15 -45q0 -148 187 -187q38 -36 38 -83q0 -70 -195 -82l-8 7h-7l-83 -7l-105 15q-17 -15 -135 -23l-135 8l-53 -8q-105 14 -105 105q0 49 143 98q22 27 22 52l-7 75l7 68q-56 128 -150 128l-113 7l-60 -22l-7 7h-23l-45 -7 q-165 25 -165 127zM335 770l38 -30q203 0 203 68l30 37v8l-8 30l38 135q-8 188 -53 188h-15q-68 -38 -68 -128q-150 -191 -150 -210l-15 -75v-23z" />
<glyph unicode="5" horiz-adv-x="1346" d="M50 336l7 82l-7 74q61 120 164 120l8 7l22 8l37 -8h23l7 8l105 -30q0 -32 67 -97v-45l-38 -186q8 -75 75 -75q115 0 209 186q82 81 82 194l-8 8l23 231q-45 142 -97 142q-50 42 -112 45q-115 0 -201 -187l-97 -60q-34 8 -60 45l7 90v22l-7 82l30 149q36 0 82 470 q0 191 142 232l52 7q37 0 134 -97q152 -45 291 -45q67 67 119 67h15q78 0 112 -82q0 -109 -134 -201q-156 -133 -284 -149l-253 30q-60 -23 -60 -135q31 -30 75 -30l186 23q206 -63 306 -127q194 -166 194 -254l30 -134v-37q-18 -15 -38 -172q-114 -268 -179 -268 q0 -44 -156 -120q-144 -112 -358 -112l-8 -7l-7 7h-8l-59 -7q-160 20 -202 60q-84 0 -224 223z" />
<glyph unicode="6" horiz-adv-x="1368" d="M50 729l8 61v188q0 266 151 499q0 83 151 188q49 74 286 159l234 30q160 -19 272 -121q113 -88 113 -158v-68l8 -8q0 -84 -151 -241l-45 -8h-38q-101 0 -219 91l-30 158q30 46 30 68v38q0 53 -53 53h-15q-158 -55 -158 -174q-38 -60 -68 -158v-23q0 -47 37 -83l159 23 l83 -16l7 8h8q261 -63 332 -181l136 -219l30 -136v-136q0 -83 -55 -171q-65 -154 -201 -244q-215 -151 -401 -151q-73 0 -226 83q-111 51 -151 113q-40 0 -211 423zM465 676l17 -183q46 -185 127 -262l52 -38h23q106 0 106 53q87 119 87 292v12l-8 289q-44 127 -109 207h-61 q-158 -46 -158 -136q-76 -179 -76 -234z" />
<glyph unicode="7" horiz-adv-x="1341" d="M50 1429l7 37l-7 38l22 134l-15 45q17 68 83 120h15q30 0 142 -45q133 47 261 82q169 -34 374 -172h23q41 12 127 127q51 30 90 30q104 0 119 -105q-18 -130 -164 -314l-112 -246q-24 0 -53 -217q-22 0 -37 -68q-75 -170 -75 -329l8 -30q-30 -45 -45 -306 q-108 -217 -225 -217q-75 0 -157 120q-30 14 -52 104l15 142l7 53h-7q27 169 67 232q49 45 165 321q145 166 187 269q19 15 52 112q0 23 -187 53l-105 -8l-149 15q-202 -49 -202 -202q-22 -89 -67 -112h-8q-75 0 -75 165q-16 0 -22 172z" />
<glyph unicode="8" horiz-adv-x="1405" d="M50 1290l31 169q17 112 115 222l115 77q75 25 177 61l38 13h15l100 18l85 -8l69 8q113 -46 291 -84q132 -145 200 -354q-75 -272 -192 -360l-8 -8v-15q168 -189 231 -330q38 0 38 -177q-77 -330 -161 -330q-74 -103 -277 -161l-59 -34l-232 3l-46 15l-8 -7h-8 q-254 59 -291 84q-30 32 -93 77q-115 159 -115 230v69q0 125 169 323l62 53v23q0 39 -177 238zM372 514q23 -261 85 -261l138 -107q219 0 322 84q21 0 54 108l-8 84l8 100q-86 184 -218 211q-149 42 -181 42q-122 0 -200 -230v-31zM418 1482q23 -128 93 -215 q203 -123 307 -123q93 33 128 137l17 78q0 163 -106 274l-124 56l-69 -8l-130 -12q-116 -146 -116 -187z" />
<glyph unicode="9" horiz-adv-x="1358" d="M50 1183v45q18 324 128 407q81 110 241 158q48 30 256 60q135 -18 279 -83l173 -143q47 -93 98 -203q60 -120 60 -277v-10l23 -105l-8 -90l8 -31l-8 -37l8 -106l-23 -143l-103 -217q-100 -174 -220 -269q-199 -131 -279 -131l-196 -8q-133 0 -234 90q-27 0 -113 144 q-30 33 -30 67v30q21 241 143 241l83 8q81 0 204 -151l7 -45l-7 -7v-83l-31 -45v-15q13 -76 76 -76h30q98 0 173 219q30 33 30 67v8l-7 30l7 30q-19 106 -30 106l-22 7q-72 -22 -189 -30q-15 13 -120 23q-7 24 -113 75q-4 17 -113 53q-109 130 -166 331zM475 1241 q0 -64 4 -126q28 -275 121 -339h68q108 0 128 90q27 0 37 166l8 23v15q0 142 -23 316l-37 166q-83 113 -159 113q-120 -56 -120 -91q-27 -171 -27 -333z" />
<glyph unicode=":" horiz-adv-x="367" d="M50 585v4q10 53 40 100q0 18 112 36q60 0 60 -44q41 0 48 -80l-8 -24l4 -16q0 -25 -56 -68q-25 0 -52 -16q-78 0 -104 40q-44 55 -44 68zM57 102v4q10 53 40 100q0 18 112 36q60 0 60 -44q41 0 48 -80l-8 -24l4 -16q0 -25 -56 -68q-25 0 -52 -16q-78 0 -104 40 q-44 55 -44 68z" />
<glyph unicode=";" horiz-adv-x="376" d="M50 160l4 28l-4 36q42 46 96 76q152 -42 152 -84q7 0 12 -72q16 -2 16 -12l-24 -108q0 -27 -28 -60q0 -25 -36 -68q0 -21 -64 -80q-33 -49 -52 -56q-52 5 -52 40q26 28 60 88l48 48v4l-8 32q8 2 16 20q-11 64 -44 64q-59 0 -76 56q-16 16 -16 48zM78 596q17 116 96 116 l16 4h4q19 0 60 -28q17 0 64 -100q-42 -100 -96 -100q-98 0 -124 60q-10 4 -20 48z" />
<glyph unicode="&#x3c;" horiz-adv-x="1376" d="M50 715l47 77q44 18 78 63l52 7q211 134 253 134q50 60 82 60q113 89 164 89q72 82 111 82q73 0 231 216q95 40 163 98q16 -45 28 -64l17 -57l3 -106l-127 -108l-101 -44q-121 -47 -221 -136q-266 -111 -357 -223v-37l22 -38q60 -19 60 -37q96 -39 96 -52q46 -72 201 -97 q101 -76 186 -89q33 -44 68 -75l97 -40l66 -71l48 -81l9 -90l-62 -64l-131 -25q-83 0 -273 156q-163 56 -223 126q-139 48 -209 119l-44 23h-8l-45 22q-29 31 -171 104l-68 43z" />
<glyph unicode="=" horiz-adv-x="991" d="M50 305v8q0 41 118 52q100 7 100 20l156 -12h62l69 -4l6 4h6l38 -8l24 4l113 -8v4l25 16h6q20 -16 124 -32q28 0 44 -68v-12q0 -40 -93 -40l-32 -16l-6 4h-25l-62 -8l-87 16h-7l-81 -8l-68 16q-44 -5 -44 -12l-18 4l-113 -12q-12 16 -31 16l-43 -4l-69 8v-4 q-112 21 -112 76zM50 588v8q0 41 118 52q100 7 100 20l156 -12h62l69 -4l6 4h6l38 -8l24 4l113 -8v4l25 16h6q20 -16 124 -32q28 0 44 -68v-12q0 -40 -93 -40l-32 -16l-6 4h-25l-62 -8l-87 16h-7l-81 -8l-68 16q-44 -5 -44 -12l-18 4l-113 -12q-12 16 -31 16l-43 -4l-69 8 v-4q-112 21 -112 76z" />
<glyph unicode="&#x3e;" horiz-adv-x="1376" d="M50 96l9 90l48 81l66 71l97 40q35 31 68 75q85 13 186 89q155 25 201 97q0 13 96 52q0 18 60 37l22 38v37q-91 112 -357 223q-100 89 -221 136l-101 44l-127 108l3 106l17 57q12 19 28 64q68 -58 163 -98q158 -216 231 -216q39 0 111 -82q51 0 164 -89q32 0 82 -60 q42 0 253 -134l52 -7q34 -45 78 -63l47 -77l-42 -115l-68 -43q-142 -73 -171 -104l-45 -22h-8l-44 -23q-70 -71 -209 -119q-60 -70 -223 -126q-190 -156 -273 -156l-131 25z" />
<glyph unicode="?" horiz-adv-x="1151" d="M50 1469l49 73q0 71 103 116q31 91 73 91l36 36l49 -6l127 43q9 24 55 24q0 -11 140 -30l18 -6h61q261 -133 261 -207q24 0 79 -176l-12 -18v-67l6 -25q0 -114 -182 -255q-23 -1 -85 -48q-40 0 -67 -31h-67l-115 -30q-99 0 -110 -122q0 -30 -12 -30l12 -134l-6 -79v-73 q-16 -26 -73 -54q-28 0 -61 61q-36 6 -36 18q30 8 30 18l6 109l-12 61l6 49l-12 36l12 61l-18 42v13q20 151 67 151l24 7l79 -7l43 43h42q72 0 134 158l12 115v43q-29 130 -42 140q-73 73 -122 73l-36 12h-6q-20 0 -73 -37q-25 0 -37 -85l31 -85v-42l12 -19v-18 q-34 -40 -61 -103q-70 -49 -109 -49l-19 -6v-6q-18 0 -60 55q-98 39 -98 121q-10 0 -36 79zM178 175q18 28 24 110q12 0 12 30q20 18 182 73l25 -6h18l6 6q134 -53 134 -109q30 -77 30 -104v-6q0 -76 -55 -121q0 -37 -54 -37q0 -13 -55 -18h-43q-152 6 -152 49q0 18 -42 54 q-30 42 -30 79z" />
<glyph unicode="@" horiz-adv-x="1848" d="M50 564q18 195 36 279l27 92q42 76 70 149q49 80 84 147q96 113 180 198q87 53 142 89q85 49 255 68l130 9l123 -6q73 -18 296 -89q70 -62 122 -91q13 -35 138 -212q122 -262 138 -507q0 -1 -1 -1q4 -4 8 -9q-6 -130 -6 -224q-20 -119 -42 -182q-7 -105 -151 -131h-130 q-126 0 -178 117l-28 20h-35q-76 -30 -121 -65.5t-249 -65.5q-189 48 -214 97q-80 88 -96 213l-4 117q29 167 98 227q0 16 89 121q102 78 254 118q45 10 93 10q157 0 352 -110q90 -172 100 -283l-13 -125v-75l18 -73q37 -64 64 -78l49 37q24 55 37 295q-3 1 -8 1 q-18 241 -45 241q-69 292 -125 322q-30 34 -44 34q-112 194 -449 214q-39 0 -83 -3q-62 -17 -111 -37q-47 -11 -93 -53q-41 -59 -75 -85q-15 -26 -57 -79l-43 -64q-74 -141 -99 -208t-35 -154q-9 -143 -9 -224q14 -50 19 -104l20 -81q-1 -10 -1 -20q30 -55 31 -109 q36 -71 59 -107q32 -72 209 -132l44 -41q58 -10 205 -45q4 -1 10 -1q51 0 234 76h20q95 0 126 -72q2 -6 2 -12q0 -69 -329 -168l-220 8q-218 17 -396 151q-118 100 -246 218l-74 156q-62 169 -72 302zM854 504q10 -80 46 -148q32 -33 64 -51h22q111 17 236 139 q42 111 58 111l-7 110v133q0 52 -44 88q-171 -27 -202 -70l-39 -45l-54 -40l-37 -51q-19 -32 -43 -176z" />
<glyph unicode="A" horiz-adv-x="1997" d="M50 132q0 58 206 155q66 105 164 294q164 411 295 719.5t254 545.5h73q65 -70 155 -236l370 -963q51 -131 133 -265q16 -69 56 -103l88 -78q81 -52 103 -96q0 -77 -118 -96l-183 22v-7l-81 15l-81 -22l-44 7l-59 -7l-228 7q-51 0 -74 88q0 59 155 89q103 31 103 137 q-54 91 -125 217l-111 39l-117 -15l-85 15l-77 -15l-88 7q-103 -20 -103 -196q-13 0 -15 -74l110 -88q96 -49 96 -110q0 -75 -81 -111q-282 8 -338 30q-199 -17 -199 -37q-154 0 -154 132zM778 824q0 -19 66 -30l81 30l88 -23q96 0 96 96l-42 102q-35 60 -76 170 q-12 38 -44 74q-49 -49 -80 -118.5t-82 -227.5l-7 -29v-44z" />
<glyph unicode="B" horiz-adv-x="1827" d="M50 1766q0 54 62 65.5t226 23.5q61 -4 859 -4l34 -10q78 0 214.5 -46t190.5 -120.5t89 -183.5v-89q0 -33 -68 -165q0 -51 -96 -103l-55 -62q-46 -45 -62 -96v-21q0 -16 37.5 -32.5t87.5 -49t177 -165.5q31 -96 31 -206q0 -95 -59.5 -208.5t-160 -177t-216.5 -88.5 l-165 -20h-439l-62 7l-28 -7l-171 20l-103 -20l-41 14l-152 -21q-85 23 -96 65q0 85 165 86q83 34 93 89q2 363 2 630q0 695 -16 733q-24 52 -58 52q-213 23 -213 82zM674 533q0 -98 7 -191l7 -119q36 -49 244 -63h42q273 42 342 112q48 76 69 160q12 53 12 96q0 44 -12 79 q0 110 -153 264q-107 66 -223 84h-84q-100 0 -216 -84q-21 -25 -21 -55q-14 -146 -14 -283zM685 1406q0 -115 17 -221q17 -103 109 -121l142 -4h7q234 0 342 181v42l20 118v42q-65 244 -125 244q-78 70 -237 70q-156 0 -257 -106q-18 -127 -18 -245z" />
<glyph unicode="C" horiz-adv-x="1656" d="M50 1015q10 133 72 302l74 156q68 118 186 218q178 134 346 151l20 8q307 -7 475 -111l30 -28q64 -14 78 -14h6l30 -14h13q47 34 87 105l27 6q62 0 112 -152l-22 -194v-69l4 -35l10 -27l-24 -174q-24 -21 -47 -21q-45 0 -94 174q-16 3 -59 103q-25 27 -59 105 q-17 0 -215 151h-15q-91 43 -186 43h-20q-55 -15 -94 -25q-47 -35 -105 -45l-44 -41q-67 -60 -99 -132q-23 -36 -32 -90q-28 -71 -28 -126q0 -10 1 -20l-7 -138q-2 -21 -2 -47q0 -78 16 -203q0 -84 11.5 -163t75.5 -220l43 -64q22 -53 37 -79q34 -26 75 -85q46 -42 93 -73 q49 -20 111 -37q44 -3 83 -3q217 0 279 94q14 0 44 34q56 30 105 132q27 0 45 111q20 0 33 20q24 0 41 -69q-16 -95 -78 -187q-75 -77 -88 -112q-52 -29 -122 -91q-103 -31 -176 -49l-123 -6l-130 9q-170 19 -255 68q-55 36 -142 89q-84 85 -180 198q-35 67 -84 147 q-28 73 -70 149l-27 92q-18 84 -36 279z" />
<glyph unicode="D" horiz-adv-x="1880" d="M50 1764v7q0 61 107 82l61 -7h100l87 -4l41 -6l40 3h27l308 -13l121 13h73q190 -20 228 -55q156 -60 268 -151q16 0 101 -109q104 -134 132 -187.5t76 -259.5l10 -75q0 -308 -124 -563q-20 -46 -60 -116q-46 -31 -101 -103q-172 -151 -308 -171q-154 -28 -329 -48l-289 7 l-140 -8l-94 -10l-27 10l-60 14l-147 -14q-74 22 -74 103q0 40 47 62l33 -7q128 12 128 48l10 27v1332q-30 68 -84 78q-43 25 -81 38q-80 20 -80 83zM653 1455l17 -1091v-21q-4 -26 -4 -49q0 -89 68 -129h161l114 3q26 -3 73 -3q81 20 192 121l67 115l16 52l27 117l10 59 q10 55 20 111q7 97 7 178l-10 118l-13 170q-16 187 -61 290q-42 43 -80 93q-22 10 -86.5 53t-309.5 67q-175 0 -201 -131z" />
<glyph unicode="E" horiz-adv-x="1760" d="M50 57v14q31 75 55 75l82 -7q57 37 116 58l40 134v1135l-4 142q-9 111 -200 116q-37 0 -75 69v13q0 18 102 34q92 14 205 14h348l328 -17l263 13l134 -3h34q211 0 211 -75l7 -20l2 -485l-16 -48q-20 -96 -95 -96q-48 0 -89 212l-109 171q-11 0 -68 88q-41 0 -151 89 q-85 46 -293 48q-171 -23 -171 -68l-64 -119q-5 -219 -5 -243v-48q14 -212 76 -212l47 -14q164 0 164 69q76 59 120 157l3 89q19 47 48 61h62q20 -14 41 -68v-765l4 -41q0 -55 -59 -96q-43 0 -68 68l-24 48q-1 15 -24 89v14q-86 212 -246 212h-14q-97 -33 -126 -142 q-2 -62 -2 -114q0 -77 5 -132q9 -91 39 -191l23 -57q0 -75 171 -75h68q273 0 471 198l82 137v13l68 205q0 39 28 55q29 0 85 -41q23 -20 31 -68v-424q0 -124 -62 -208l-61 -7l-143 -3l-199 -7l-191 13q-32 2 -60 2q-58 0 -103 -9l-131 4l-132 10l-113 -10l-76 -3h-82l-88 -7 l-76 7v-7q-31 0 -143 54z" />
<glyph unicode="F" horiz-adv-x="1545" d="M50 1806q0 55 172 55l49 -7l89 7h110l62 -14l124 7l124 -7v7q0 -14 304 -21l7 7h6l42 -7q200 5 200 21q120 -1 154 -48q-4 -80 -12 -173q14 0 14 -96q-2 -47 -6 -124l4 -117q-18 -42 -48 -42q-46 0 -79 90q-51 26 -100 165q-93 179 -182 179l-28 21h-76l-7 -7 q-34 14 -103 14q-48 -11 -48 -21l-7 7h-69q-96 -31 -96 -117l6 -28l-13 -48l7 -213l-7 -145q0 -71 186 -83h48q36 0 48 35q68 0 145 193l-7 27q46 90 103 90l49 -69l-7 -669l7 -27q-10 -29 -35 -42h-7q-47 0 -76 76q-124 156 -124 186q0 36 -137 49l-35 -7l-41 7 q-76 0 -93 -32t-17 -51v-28l6 -110q-5 -88 -5 -160q0 -265 67 -309q13 -38 90 -75q56 -36 90 -69l-10 -61q6 -2 6 -5q0 -11 -137 -21l-252 11l-104 -7h-103q-186 21 -186 76q0 60 117 89q0 11 62 42l28 131l-13 126l1 997q-55 189 -126 193q0 30 -103 69z" />
<glyph unicode="G" horiz-adv-x="1763" d="M50 920l28 56v8q-21 25 -21 49v43l28 99l-7 7q84 199 114 226q12 0 42 85q41 0 141 149q144 141 248 141q32 26 220 57l28 14q51 -20 177 -35q37 -45 219 -85q69 0 163 92h7q78 -41 78 -71l-22 -57l15 -63l-22 -22q6 -42 15 -42l-8 -28q0 -53 36 -135q-28 -48 -28 -85 v-14l7 -57q0 -87 -57 -120h-28q-59 46 -85 99l7 7v22q-62 153 -156 254q0 52 -28 71l-7 -7h-7q-158 120 -326 120l-134 -42l-43 7q-28 0 -49 -78q-31 0 -85 -113l7 -7v-7q-99 -179 -99 -269l14 -29q-25 0 -57 -311l22 -56l-7 -8v-42l21 -71l-14 -35q0 -30 42 -78v-28 q0 -92 85 -191l64 -99q14 0 85 -71h21l7 7q70 -43 170 -64q89 0 325 135l14 35l-14 42q22 24 22 121v14q0 49 -15 49l15 92q-48 0 -85 43q-142 24 -142 85v7q0 39 120 57l43 -8h7l28 8l21 -8l78 8l36 -36l169 28l50 -14h64l56 14q46 -18 50 -35v-28q-17 -64 -64 -64 q-77 0 -99 -92l-21 -57l7 -49l-28 -57l14 -205q-53 -191 -78 -191h-14q-50 0 -50 57q-21 0 -106 63l-21 7q-111 -63 -177 -63q0 -33 -233 -71l-36 14l-49 -7q-53 28 -163 57h-57q-73 84 -148 113q-36 36 -36 64q-60 28 -106 120q-113 83 -133 219q-5 50 -44 220v14 q-21 29 -21 106z" />
<glyph unicode="H" horiz-adv-x="2017" d="M50 1726v19q10 30 128 56q87 10 158 10h52q98 3 151 3h24l78 3l273 -6q59 -17 59 -47q0 -15 -13 -32l-78 -59q-57 0 -85 -46l-71 -105v-46l-33 -46l13 -72l-13 -79l7 -6v-7l-20 -72v-13q18 -17 33 -98q68 -29 154 -29q32 0 66 4l167 -5l48 3q150 0 150 59l19 145 q0 61 -26 164v78q0 105 -123 145q-15 0 -59 52q-29 0 -58 53q0 27 123 59l72 -7h45l80 10q79 1 148 3h65l106 -5h33q66 0 138 -6q81 -7 81 -88q0 -9 -1 -19q-66 -50 -138 -75l-86 -63l-40 -115l-15 -199q0 -25 6 -177v-14l-6 -131q3 -44 3 -88t-3 -89l32 -321l20 -92 q19 -92 58 -92q184 -64 195 -112q-8 -49 -51 -82.5t-114 -33.5h-87q-208 0 -525 -7q-135 25 -139 97q0 56 142 69q82 51 106.5 127t24.5 119h-7l26 53l11 84l3 47l-14 131h-6l6 6v53q-45 98 -156 98l-286 7q-27 0 -96 -14.5t-106 -119.5q-12 -74 -12 -131q0 -45 7 -79 l-1 -63q0 -134 39 -174l20 -36q37 -77 182 -111q39 -60 39 -79v-7q-63 -72 -143 -77t-316 -5q-280 10 -333 24t-53 72v19q18 38 104 72q0 29 110 105l-6 33l13 85l-7 53q13 0 13 20q13 105 13 183l-6 263l-13 295q-17 121 -18.5 148.5t-1.5 61.5v13l-6 79v6q-36 47 -195 105 q0 14 -78 86z" />
<glyph unicode="I" horiz-adv-x="1026" d="M50 1740v33q0 36 143 73l104 1l146 6l194 -6l66 13l7 -7h33l7 7q21 -13 85 -13q32 0 75 3l47 -20l19 -54q-16 -86 -61 -86q-8 0 -18 3q1 -5 1 -9q0 -39 -108 -41q-40 -39 -71 -110q4 -144 4 -173q-6 -393 -6 -526l6 -20l-3 -440q0 -22 47 -113l43 -74l67 7h6 q42 -19 60 -47l10 -90q-10 -43 -83 -57l-260 7q-30 11 -91 11q-91 0 -252 -24l-54 6q-107 59 -110 74v6q20 127 94 127l6 -7h7q93 25 110 127l7 397l-23 822q-43 101 -107 101l-7 -7h-7q-119 68 -133 100z" />
<glyph unicode="J" horiz-adv-x="1316" d="M50 358q0 26 12 89v7l25 52q0 59 98 91q9 32 108 41q103 0 170 -95q-35 -165 -52 -185q-125 -57 -125 -125v-15q0 -60 96 -74h44q265 0 265 207q15 0 15 51v8l-15 96l15 96v7l-7 44l7 7v8l-15 125l8 74l-15 52l7 95h-7q15 32 15 118l-8 74l8 29l5 129l2 152 q-8 140 -74 140q-61 10 -95 44l-67 7h-7l-8 -7q-66 15 -66 66q35 67 96 67l81 -8l30 8l29 -8l44 15q29 -15 81 -15h30l37 8l44 -8h15l59 15l44 -7l37 7q66 -7 118 -29l44 22q88 -24 88 -45v-29q0 -24 -162 -52v-7l-7 7h-30q-73 -64 -73 -96l-3 -173l3 -99l7 -126l-15 -103 l15 -118l-7 -96q1 -46 5 -162l7 -22l-2 -103q-3 -42 -18 -236q-140 -324 -295 -324q-104 -47 -269 -52q-138 22 -264 127q-108 73 -108 234z" />
<glyph unicode="K" horiz-adv-x="1997" d="M50 1687q18 123 116 123l195 15l116 -29l29 7l29 -7l29 7l51 -15q43 6 43 15l7 -7h8l79 7l51 -7l87 14l51 -43v-29q0 -56 -29 -65h-22l-22 14h-14v-22q0 -37 -22 -43l-80 14h-7q-43 0 -87 -94v-79l7 -29l-29 -58l15 -65l-36 -145l50 -58v-15l-21 -29v-7q21 -26 21 -51 v-36l-14 -79v-37l14 -14q37 0 102 72q57 0 116 116q40 0 87 87q17 0 65 65l72 73l44 65q153 148 159 239v7q0 51 -65 51q-109 66 -109 130q0 43 94 65l29 -7h7q10 51 29 51h29l58 -15l44 15q0 -18 224 -29l159 21q65 0 80 -116q-28 -101 -101 -101l-145 -37l-145 -100 q0 -40 -109 -124q0 -14 -231 -224q-29 -51 -29 -94q-36 -17 -36 -36q0 -44 65 -44q0 -38 94 -123l203 -326q42 0 101 -116l87 -130q46 -101 224 -101l80 -73v-58l-51 -43q-79 14 -79 29l-123 -22q-57 0 -152 7l-95 22l-79 -7q-36 0 -36 14l-37 -14l-29 7l-29 -22l-43 29 l-58 -7q-29 31 -29 58v7q0 35 123 58q53 30 53 35q0 1 -2 1q51 74 51 109q-51 27 -196 196q-37 53 -72 86q-48 0 -80 116l-51 87l-58 7q-38 -11 -101 -79q-43 0 -43 -44q-58 -32 -58 -43l7 -29l-15 -43v-37l8 -43q-15 -33 -15 -94v-73l7 -29l-7 -7v-7l7 -44l-7 -36 q26 0 116 -43h15l21 14q131 -13 131 -72v-7q0 -44 -58 -58l-44 29h-7q-39 -29 -65 -29h-102l-57 14l-66 -7l-94 14l-152 -36l-58 15l-101 -15q-40 0 -73 87q0 18 66 65l43 -21q39 27 145 65q0 14 22 14l7 7v29l-7 8q43 83 43 130v7l-22 22l8 51l-8 36l8 43l-22 58l14 116 l-14 94l14 29l-7 87l7 22l15 29q-17 50 -36 159v7l21 87q0 51 -14 51l22 137l-44 160q-18 0 -65 58h-7l-36 -22l-51 7l-29 -7q-48 0 -87 65z" />
<glyph unicode="L" horiz-adv-x="1577" d="M50 171q34 58 90 58h10q160 0 171 200l-13 65l7 45l12 464l7 329l-4 145l6 67q1 20 1 37q0 74 -22 74q-200 37 -200 71v32q0 71 134 88l116 -10h91l100 -6h88l148 -1q69 -6 155 -45l-20 -32v-20q-27 -77 -129 -77l-71 -19q-65 -96 -65 -239h7l-13 -39l4 -219 q-7 -32 -10 -729l13 -97q7 -97 26 -97h19l97 -38h45q55 0 161 77q57 0 155 136q111 77 213 354q0 142 84 142q9 3 17 3q40 0 41 -93l6 -194v-225l-13 -284q-24 -84 -116 -84q0 -13 -32 -13l-226 45l-26 -6l-19 6l-103 -26l-78 13l-103 -7l-84 7l-95 -13l-111 3l-103 10 q-26 1 -50 1q-127 0 -183 -27q0 20 -83 52q-52 69 -52 116z" />
<glyph unicode="M" horiz-adv-x="2147" d="M50 104q0 42 128 54l61 20q0 20 101 101q47 93 47 141h-7l7 20q0 44 -20 95q0 18 33 67l-13 61v13l13 108l-7 20l27 115q-20 65 -20 114v7l14 114l-34 115l13 148q0 22 -26 61v13q0 167 -115 216q0 21 -121 47h-47l-21 20v20q0 21 75 41l74 -7h27l6 7l21 -7l134 13l88 -6 l33 13q283 -17 283 -61q32 -51 54 -181h7l-7 -7v-20q54 -69 54 -189l27 -34l-7 -40q51 -87 68 -162q33 -4 33 -20v-7q0 -13 -20 -13v-14q18 -23 27 -94h7l-7 -67v-14q0 -19 54 -94l40 -101h20q101 -71 101 -87l14 -68l-61 -67v-27q0 -14 21 -14l6 -6v-7q-33 -76 -47 -236 l-7 -20v-67q-20 -38 -134 -122h-20q-83 0 -108 243q-28 11 -47 148l-149 539q-13 0 -26 81h-7l7 6v14q-91 209 -108 209h-14q-20 -25 -20 -48l7 -47q-32 0 -47 -283q1 -26 13 -26l-7 -7v-27l7 -7l-13 -47l13 -54l-13 -87q20 -56 27 -149l6 -6l7 -21h7l-7 -20q0 -83 34 -114 l-7 -7v-20q72 -69 88 -121q121 0 121 -61l7 -27v-13q0 -29 -115 -48l-34 7h-80l-68 14l-101 -27l-67 13l-54 -13h-20q-35 0 -61 20h-27l-7 -7q-114 0 -114 88zM1196 710q0 56 127 498l14 58l6 43q54 112 74 249q47 122 67 223q15 16 182 40v7l34 -7h20l81 14l67 -14l68 14 q155 0 155 -75q0 -62 -196 -87q-27 -52 -27 -81l7 -148l-13 -81l6 -7l-13 -47l20 -40q-7 -135 -20 -175l7 -27l-34 -189v-108q34 -88 34 -141l-7 -54l7 -34l-21 -161l14 -34l-7 -60v-7q0 -47 47 -74q0 -74 54 -74q9 -14 142 -61l6 -7v-13q0 -25 -107 -41l-7 7h-7 q-222 -5 -222 -20l-101 27l-108 -27l-67 20l-121 -13q-108 26 -108 81q0 67 161 67q0 13 74 13q34 64 34 95v20l-7 20l7 34v67l14 61l-7 87l13 54q-12 82 -27 88l21 47l-21 242q34 51 34 74l-27 41v6q2 34 14 34l-21 54v88q0 10 -27 20l-207 -641l-74 50q-3 -3 -4 -3 q-3 0 -3 8z" />
<glyph unicode="N" horiz-adv-x="2048" d="M50 146v15q0 55 168 88q60 0 125 220l7 36l-7 118v36q0 52 15 81l-8 80v22l-7 8l7 7v37l-14 80v7l22 301q0 51 -15 51l7 29l-7 81l7 124q-32 96 -117 96q-183 38 -183 87q0 103 154 103l58 -7l30 7l36 -7l30 7q322 -17 322 -103q0 -16 66 -102q0 -39 168 -242l103 -146 q124 -128 124 -169q38 -60 125 -146q0 -29 154 -198q0 -38 66 -51q21 35 21 95v22l-7 29q15 29 15 81v183l-22 73l22 95l-8 59l8 110q0 120 -132 227q-161 20 -161 88q0 62 117 88l286 -30l263 15q110 0 110 -88q0 -39 -205 -102q-102 -68 -102 -249l-8 -30v-80l15 -30 l-15 -44v-21l15 -22l-7 -74l7 -36l-7 -74l7 -58l-7 -44l7 -132l-7 -73l14 -198l-7 -110l7 -44q0 -18 8 -154v-73q-16 -95 -96 -95q-81 0 -190 212q-136 146 -169 220q-124 104 -124 169q-302 339 -396 505q-51 51 -102 139q-31 29 -59 29h-14l-22 -22v-14l-8 -81l8 -95v-66 q0 -38 9 -133l-17 -160l8 -58l-15 -44q50 -286 73 -286q0 -53 198 -125l51 -65q0 -84 -102 -96l-8 8h-7l-80 -8h-15l-22 22l-51 -7l-315 -7l-22 -8q-176 20 -176 117z" />
<glyph unicode="O" d="M50 1025l24 124l12 58q66 136 80 197q44 17 95 123q110 110 177 163q27 75 256 152l241 -4q85 -13 199 -71q187 -66 311 -262q54 -125 98 -181q0 -48 41 -124q0 -22 14.5 -53.5t14.5 -84.5l-8 -66l15 -43v-51l-15 -80l15 -29l-79 -342l-138 -189q-16 0 -168 -153 q-78 -48 -261 -102l-51 8l-29 -15l-8 7h-14l-124 8v-8q-167 24 -167 66q-113 0 -226 145q-42 0 -189 255q-51 104 -80 247q-14 0 -14 44l-7 131q-6 130 -15 130zM383 967q9 -57 16 -262l3 -101q10 -28 55 -139q0 -79 153 -225l58 -51q52 -51 109 -51l22 7l66 -7 q240 45 240 109q81 45 157 204l20 73q33 126 33 167l-7 22l7 58l-7 87l7 80q-29 449 -109 495q-16 84 -94 189q-112 41 -197 94h-21l-80 -7l-22 7l-124 -51q-212 -184 -247 -305q0 -39 -29 -51l14 -211z" />
<glyph unicode="P" horiz-adv-x="1788" d="M50 1770q12 55 28 55q89 0 158 21l55 -7l7 7h7l48 -14l35 7l62 -7h633q24 -14 97 -20l20 6q275 0 448 -192q0 -19 55 -62q16 -90 35 -111l-14 -82l14 -62l-14 -69l7 -35q0 -97 -104 -172q-51 -103 -82 -103q-305 -97 -365 -97l-117 -20h-14l-69 14l-55 -14l-35 20h-20 q-119 0 -159 -96l7 -55l-14 -55l21 -97l-14 -48v-48q14 -77 42 -138l-7 -21l7 -48l-21 -62q0 -34 90 -34h20l104 7l55 -62v-14l-35 -41l-34 6l-117 -34q-170 0 -248 34h-7q-47 -7 -48 -20l-7 7h-14q-49 0 -76 -14l-48 7l-28 -7l-165 21h-7l-27 -7q-21 0 -56 55q12 33 83 76 l55 -7q131 47 131 89l-14 83v27l7 111l-7 20q28 62 28 159q-35 17 -35 55v7l21 69l-21 55l14 41l-14 145l21 89v28l-21 124l21 124q-26 70 -41 172l14 117q0 37 -28 48h-28l-6 -7q-53 42 -76 42h-48q-90 0 -90 34zM670 1322l14 -89l-7 -69v-7q21 -25 21 -55h6l-13 -55 q0 -35 13 -35l-6 -6v-21q36 -69 165 -69h14l275 55l90 48l48 62v28l-21 55q0 16 62 83v41l-7 76l7 34l-20 42l6 55q-41 71 -41 124q-43 46 -220 82q-7 21 -42 21l-7 -7l-6 7h-14l-35 -7l-27 7l-172 -7q-51 0 -76 -62q34 -53 34 -89q-41 -79 -41 -152l7 -41z" />
<glyph unicode="Q" horiz-adv-x="1689" d="M50 987v36q0 67 57 207q83 180 191 333q123 152 204 175q153 80 189 93q42 9 102 16l190 -7l134 -45l114 -79q85 -41 116 -73q36 -40 59 -73q36 -25 106 -119l47 -78q30 -31 30 -63q0 -5 -1 -10l22 -80h7l15 -131l7 -73l-7 -65v-25q0 -157 -24 -245v-51 q-20 -25 -25 -45.5t-75 -129.5q0 -81 -110 -204q-60 0 -109 -80q-73 -39 -73 -95v-22l7 -7q-16 -20 -21 -109l14 -90l46 -64l60 10l6 58q-12 85 -12 161q0 32 2 63q33 47 73 58q80 -19 80 -73l15 -43l-37 -146l8 -22q0 -90 -66 -167q0 -44 -95 -66l-7 -7l-29 -23 q-20 0 -66 -13l-58 14l-36 -7q-151 0 -307 204q-62 233 -109 233l-29 7h-7l-8 -7q-153 104 -252 192q-119 68 -119 157q-86 76 -146 248q-42 53 -58 314zM458 878l22 -59v-109q0 -62 117 -146v-14h14q35 0 51 22l66 15l100 -17h8q115 0 242 -115h22q14 38 47 57l18 60 q66 147 66 196l37 101q6 211 6 344q-36 110 -48 196q-47 91 -75 137q-51 53 -183 126l-124 29q-126 0 -255 -182l-36 -73q-59 -148 -74 -265l-7 -85q-14 -147 -14 -218zM683 373l27 -60l60 -10l50 14v43l-37 47l-75 -14z" />
<glyph unicode="R" horiz-adv-x="1970" d="M50 1761q20 69 177 69l62 -14l116 7l102 -7q43 19 192 34l47 -20l96 13l54 -20l62 7l34 -7l137 13l116 -13l27 7q41 0 300 -89l34 7q3 -39 103 -96l82 -143l7 -28l-7 -27l7 -34q-30 -246 -89 -246q-53 -92 -178 -150l-102 -96q0 -12 61 -34q0 -15 69 -102q37 -80 47 -157 l-13 -48l13 -27l-6 -96q34 -66 54 -225q34 -48 69 -48h34q12 3 75 123l20 14q66 -21 68 -41l-61 -144q0 -107 -280 -143q-314 42 -314 280l14 41l-14 75v14l7 68q-5 54 -14 54l7 7v89q0 164 -102 205q-22 0 -82 34l-68 20l-55 -13q-98 20 -219 20q-47 -45 -47 -75l7 -20 q-28 -46 -28 -110l14 -34l-7 -116l7 -7l-14 -143q17 -49 41 -75l-13 -55v-6q120 -110 177 -116q20 -27 20 -62v-7q-59 -48 -170 -48q-102 7 -116 21l-171 -21l-48 14l-54 -7l-89 14l-41 -14h-55q-78 0 -88 69q55 54 204 54q43 0 82 75v34l-13 41h-7q27 119 27 205l-20 55v48 l20 68q-20 58 -20 123l13 88l-20 267q9 88 20 102l-13 130v184q0 130 -62 130l-54 -14q-171 36 -171 75zM671 1318q0 -96 55 -117v-13q-14 -21 -27 -130q35 -51 116 -68l20 -14l89 28h48l95 -7q195 61 232 129q34 0 34 82q48 83 48 123l-7 48l7 68q0 68 -89 185 q-73 54 -191 75l-102 -7l-68 20q-56 -20 -144 -27q-96 -23 -116 -68v-7q0 -60 21 -96z" />
<glyph unicode="S" horiz-adv-x="1462" d="M50 1281l20 144v19l-7 40q13 75 92 150q29 79 216 158l137 45q39 0 92 20l170 -13v6q107 0 223 -131l46 -6q58 0 79 65q0 16 91 46q83 -31 98 -65v-46l27 -72l-7 -151q26 -21 39 -59l-39 -137l7 -85q-25 -20 -59 -20q-78 0 -105 79l-118 137q0 79 -164 183q0 77 -281 86 q-131 -61 -131 -112q-12 0 -40 -46v-19q23 -19 40 -118q139 -128 255 -151q8 -13 295 -118q163 -88 196 -124q105 -105 105 -177q30 0 66 -137q14 0 19 -72q0 -63 -46 -236q-78 -138 -176 -236q-63 -87 -348 -131q-259 35 -399 118q0 20 -85 33q-61 0 -98 -99l-33 -26h-7 q-74 0 -118 92l13 39l-6 39l13 27l-20 98l7 6v27l-13 19v72l-39 85l26 46v59l-7 7q0 30 79 52h6q73 0 112 -111q29 -9 131 -157q26 0 137 -157q28 -19 157 -40q0 -14 59 -19q260 0 302 150l19 79q-46 32 -46 124q-81 144 -163 144q-71 28 -197 105l-255 85q-70 42 -203 79 q-72 54 -112 157q-9 0 -19 85q-17 0 -33 66z" />
<glyph unicode="T" horiz-adv-x="1680" d="M50 1337l14 142l-7 47l20 61l-13 54v6l6 68l-6 47q0 88 128 88l81 -20q94 10 94 20l61 -14l68 7l67 -20l7 7l34 -7q80 0 121 13l196 -20q84 9 115 27l7 -7h6l41 7l54 -20l54 7l47 -7l54 13l54 -13l54 7l54 -7l54 7q115 -22 115 -88v-14l-14 -108l14 -54l-14 -135l14 -54 l-20 -81v-6l13 -21l-20 -94l7 -81l-14 -81v-34l-20 -20q-69 0 -101 256q-7 43 -61 149q-56 196 -108 196q-31 55 -189 114h-61q-45 -57 -67 -195q6 -46 20 -48q-14 -13 -20 -128l20 -47l-7 -34v-27q17 -196 27 -196l-7 -6v-27l-6 -82q20 -6 20 -40l-14 -47q4 -41 21 -41 l-7 -67q0 -34 13 -34l-6 -7v-54l-14 -54v-7l7 -60l-20 -68l27 -40l-14 -41l27 -54l-7 -67q65 -54 162 -68l48 -34v-60q0 -20 -75 -34l-6 7h-48l-40 -7q-27 13 -74 13l-109 -13l-74 13l-47 -20l-81 14h-54l-54 -7q-70 0 -176 47v27q0 27 88 41h41q27 23 108 54q27 28 27 54 l-7 141l20 115l-7 7l7 7v33q0 48 -13 48l6 6v34l-6 27l20 81l-7 95l7 74h-7l7 7v6q-5 109 -14 109l14 60l-7 27l7 27l-14 41l21 20q-5 42 -27 74l6 54l-13 54l7 54l-21 75l21 47q-22 148 -48 148h-33q-81 0 -223 -168q-58 -80 -108 -230q-13 -2 -20 -40l6 -54 q-47 -55 -47 -183l-34 -54l-47 -6h-13q-29 0 -48 27l7 33v34l-20 88l13 101z" />
<glyph unicode="U" horiz-adv-x="1986" d="M50 1742q0 93 86 93h129l108 -7l86 22l93 -15h29l7 8l7 -8h14l151 -7l79 7q100 -11 100 -100q0 -52 -179 -86q-58 -60 -86 -115l7 -35l-7 -115v-43l14 -58l-14 -57v-237l4 -93l-4 -86v-28l7 -36l-7 -43v-29l21 -79l-7 -36q0 -266 258 -365q127 -43 294 -43 q301 131 301 301q19 0 29 165l-14 121l7 165l-7 36l14 58q-21 42 -21 150v22l7 79l-15 43l8 35q-8 86 -22 86l7 72v43q-41 54 -115 108l-64 36l-7 -8q-72 32 -72 86q14 86 158 86l36 15q19 -15 93 -22q16 15 136 22l22 -7l107 14l43 -22l22 8q0 -15 21 -15l22 -36 q0 -75 -151 -164l-79 -108v-21l7 -29l-21 -79l14 -79l-7 -43l22 -86v-7l-15 -72l7 -36l-7 -57l7 -36l-7 -72v-7l7 -7l-7 -7v-22l7 -107l-14 -208h7l-7 -7v-36l7 -7q0 -29 -71 -187q0 -35 -108 -150q-81 -65 -165 -79q-108 -79 -265 -79q-32 14 -93 14h-22l-64 -7 q-352 103 -352 187q-105 57 -143 164q-36 113 -43 237l-7 251l14 158l-7 43l7 36l-7 28l7 43l-29 158l7 29l-14 71l7 137q-29 86 -129 86q-179 38 -179 107z" />
<glyph unicode="V" horiz-adv-x="2234" d="M50 1724q34 86 108 121l74 -20l74 7l141 -7q0 13 20 13l95 -13h161l94 7l27 -7l54 13h7q25 -20 47 -20q34 0 34 14q69 -29 94 -81v-7q-11 -67 -74 -67l-34 6q-114 -33 -114 -67v-20q0 -49 33 -168l-6 -7v-14q0 -27 54 -74q59 -203 87 -249q39 0 47 -121q16 0 34 -135 q52 -49 74 -107h7q15 0 54 67q124 38 127 283q88 56 88 161l7 21q13 60 40 94v7l-20 40l27 67v68l-101 87q0 39 -142 67q-33 35 -33 61v34q33 47 108 47h107l54 -14h14l74 7l33 -13l108 13h20l47 -13q75 0 135 20l114 -7v7q135 -27 135 -115q0 -15 -88 -53l-40 6 q-31 -27 -101 -33l-202 -175q-121 -192 -121 -250q-23 0 -47 -87l-34 -34l7 -33v-7q-61 -43 -61 -74l7 -20q-18 -99 -40 -115q-101 -193 -101 -249q-101 -196 -101 -269v-67q-74 -68 -74 -95q-29 -168 -74 -168l-61 13v41l-108 148q-9 3 -33 155q-12 0 -21 87q-8 43 -67 101 q-36 176 -87 196l-14 33l7 47l-81 189l7 7v26q-31 40 -94 229q-34 0 -74 196q-32 28 -68 141q-44 55 -168 87h-34l-60 -6l-101 40z" />
<glyph unicode="W" horiz-adv-x="2488" d="M50 1812v16q30 0 88 32l119 -8l8 8h8q27 -16 111 -24l8 8h8q121 -32 263 -32l48 8l135 -16q28 48 72 48l215 -32l56 16l151 -16l63 16l80 -16l64 16q48 0 95 -56v-23q-130 -117 -199 -144l-8 -8v-32q104 -474 235 -851h28q0 39 56 47q43 39 79 199q113 374 132 454l12 80 l6 85q-35 26 -78 90q-111 45 -111 111q0 22 55 56l64 -16h24q56 0 56 16l47 -16l64 8l64 -8l32 16l111 -16l56 8q71 -9 71 -64v-8q0 -77 -175 -127q0 -16 -103 -111l-80 -199l-71 -199l-24 -80h8q-78 -191 -78 -271q-10 -44 -80.5 -229t-120.5 -424q-18 -95 -48 -95v-8 l-40 -22q-21 19 -28 19q-3 0 -3 -5q-45 0 -80 64l8 8v16l-48 95l-48 159q0 94 -47 199q0 84 -32 144v24l-64 175q-32 46 -40 143l-8 8h-32l-54 -137q-20 -52 -41 -110q-37 -110 -52 -177q-20 -76 -36.5 -115t-62.5 -225q-34 -90 -60 -136l-12 -68l-16 -43l-64 -40h-8l-59 34 q-55 30 -84 213q-22 135 -40 135l-71 239l-32 223q-56 108 -136 494q-34 0 -63 246q-51 96 -127 96q0 48 -120 56zM639 1605q18 -135 64 -278v-24q72 -292 159 -534h24q85 60 119 191q90 325 120 462q0 48 -8 88q0 37 -44 105q-20 75 -195 94l-32 8q-36 -37 -159 -56z" />
<glyph unicode="X" horiz-adv-x="1700" d="M50 104q0 98 222 209l289 395q16 117 67 174v70q0 49 -173 336q-125 311 -289 360q-97 39 -97 116q77 70 116 70h29l289 -12l174 35q145 0 231 -93l38 -11q17 69 184 69h86l135 12l116 -12l87 23q96 -17 96 -69q-87 -163 -183 -163q-111 -76 -155 -210q-60 -45 -144 -173 q-48 0 -116 -174l-19 -23v-12q56 -274 164 -417q54 -131 193 -267q0 -99 164 -140l48 -104q0 -45 -58 -80l-58 12l-147 -9l-103 -3h-106l-193 35l-58 -35q-135 25 -135 103q0 56 173 139l20 47l-145 278l-58 24l-221 -279v-46q0 -47 154 -93l38 -58q0 -70 -67 -70 q0 -23 -116 -23v-12l-48 12q-138 0 -241 -35h-10q-144 0 -173 104zM802 1451q58 -116 106 -116h67q116 102 116 255q0 43 -125 81h-29q-135 -102 -135 -162v-58z" />
<glyph unicode="Y" horiz-adv-x="1990" d="M50 1704q0 98 74 134l164 7l97 -22l111 7l60 -7l186 22q179 -13 179 -52v-22q0 -99 -157 -134q-22 -19 -22 -45q13 -85 89 -186q25 -155 97 -201q13 0 52 -96q18 0 37 -60l38 -22h37q112 91 223 357q89 100 89 238q-20 22 -119 37l-74 90v7q0 74 82 74l81 -7l90 15h52 q37 0 37 15l156 -23l97 23q134 -15 134 -112q0 -44 -208 -119q-216 -158 -216 -231q0 -39 -82 -111q0 -51 -89 -164q0 -32 -60 -82q0 -42 -134 -253l-7 -52q5 -44 15 -44l-8 -38v-119l8 -7l-15 -60l15 -52l-15 -74q46 -194 164 -194l96 8q67 0 90 -75q0 -39 -75 -74l-30 15 l-29 -15l-38 7h-29l-30 -7l-52 15l-119 -15l-60 7l-7 -7h-8l-96 15l-30 -15l-8 7h-89l-74 8l-67 -8l-45 15l-45 -15q-52 17 -52 60q0 69 134 97l52 -8q149 47 149 112l8 37l-8 52l8 22l-8 105v74l-15 45l15 111q-73 142 -104 171l-22 45v8l-23 44q-71 70 -119 209 q-70 60 -126 223q-156 190 -156 216l-30 -8q-175 0 -209 82h-7z" />
<glyph unicode="Z" horiz-adv-x="1560" d="M50 119q0 63 77 97q49 79 116 148l6 38l-6 7v6l148 219q39 90 154 270q0 58 97 161q109 167 109 199q19 78 52 78q45 51 45 83v52q4 17 64 70v13l-19 20q-62 5 -113 5q-219 0 -230 -87q-29 -65 -140 -266q-3 -53 -128 -122h-13q-116 0 -116 212v39l6 45l-19 58l13 51 l-19 32l45 232q0 24 206 52h12l97 -13l225 6q107 -6 309 -6l58 -7l64 26h84l251 -51q25 -75 25 -116v-32l-25 -45l13 -26q-64 -13 -97 -84l-84 -174q-39 -8 -70 -96q-56 -37 -71 -142q-74 -27 -97 -77q-12 -64 -77 -141q0 -71 -83 -135q-93 -245 -181 -309q-19 -25 -19 -58 v-77q9 -58 90 -58h13q321 4 350 137q6 77 10 159q15 8 39 115q25 11 51 110q25 19 58 19h7q96 0 116 -64q25 -34 38 -161l-19 -58v-196q14 -23 20 -109v-12q0 -78 -78 -127l-84 -26h-122l-109 7l-148 -7h-406l-283 7l-45 -13q-40 0 -141 77z" />
<glyph unicode="[" horiz-adv-x="644" d="M50 77q0 9 1 18q20 130 37 232l7 397l-23 822q-3 111 -4 284l143 23l44 -6l66 13l7 -7h33l7 7q21 -13 85 -13q32 0 75 3l47 -20l19 -54q-16 -86 -61 -86q-8 0 -18 3q1 -5 1 -9q0 -39 -108 -41q-40 -39 -71 -110q4 -144 4 -173q-6 -393 -6 -526l6 -20l-3 -440 q0 -22 47 -113l43 -74l67 7h6q42 -19 60 -47l10 -90q-10 -43 -83 -57l-227 -5q-11 3 -20 10q-28 -2 -79 -2q-112 0 -112 74z" />
<glyph unicode="\" horiz-adv-x="1007" d="M50 1493q0 15 9 21l11 6q11 1 21 1q57 0 79 -39q114 -165 147 -190l6 -10l10 -50l-4 -2l114 -181l21 -43l42 -58l6 -10l3 -13l69 -111l59 -103l159 -251q-1 -1 -1 -3q0 -22 79 -172q77 -149 77 -199q0 -18 -9 -23l-7 -4q-6 -4 -14 -4q-50 0 -159 151l4 2l-73 110l-38 74 q-18 31 -43 43l-97 192l-21 29q1 0 1 2q0 11 -33 76l-79 105l-70 138l-6 10l-97 137l-53 107l-24 41l-9 8l-16 60q-64 111 -64 153z" />
<glyph unicode="]" horiz-adv-x="644" d="M50 1776l19 54l47 20q43 -3 75 -3q64 0 85 13l7 -7h33l7 7l66 -13l44 6l143 -23q-1 -173 -4 -284l-23 -822l7 -397q17 -102 37 -232q1 -9 1 -18q0 -74 -112 -74l-64 2q-55 -12 -166 -14l-96 9q-73 14 -83 57l10 90q18 28 60 47h6l67 -7l43 74q47 91 47 113l-3 440l6 20 q0 133 -6 526q0 29 4 173q-31 71 -71 110q-108 2 -108 41q0 4 1 9q-10 -3 -18 -3q-45 0 -61 86z" />
<glyph unicode="^" horiz-adv-x="1099" d="M50 1116q0 54 102 177q36 107 82 146q31 90 77 136l15 28v6l14 29q21 19 68 111l28 45l75 27l50 -31q12 -28 41 -50l5 -34q87 -138 87 -165q39 -33 39 -53q58 -74 58 -107q54 -47 54 -73q0 -47 140 -150q26 -62 64 -106q-29 -11 -42 -18l-37 -11l-69 -2l-70 82l-29 66 q-30 79 -88 144q-73 173 -146 233h-24l-24 -15q-13 -39 -25 -39q-25 -62 -33 -62q-47 -30 -64 -131q-49 -66 -58 -121q-28 -22 -48 -45l-26 -63l-47 -43l-52 -31l-59 -6l-42 40z" />
<glyph unicode="_" horiz-adv-x="1801" d="M50 -325q0 41 226 52q190 7 190 20l298 -12h119l131 -4l11 4h12l72 -8l47 4l214 -8v4l48 16h12q38 -16 238 -32q53 0 83 -68v-12q0 -40 -178 -40l-60 -16l-12 4h-47l-119 -8l-167 16h-12l-154 -8l-131 16q-84 -5 -84 -12l-35 4l-214 -12q-24 16 -60 16l-83 -4l-131 8v-4 q-214 21 -214 76v8z" />
<glyph unicode="`" horiz-adv-x="546" d="M50 1855q0 54 190 65l26 7q92 -28 92 -79q66 -38 66 -105q72 -51 72 -151q0 -65 -66 -65v-7q-33 0 -118 112l-92 39l-138 138q0 14 -32 46z" />
<glyph unicode="a" horiz-adv-x="1314" d="M50 427q29 167 128 227q0 16 89 41q72 48 224 68q191 3 257 42q37 70 41 151q-21 152 -41 152q-76 75 -192 75h-14q-62 -37 -62 -55l7 -220q-12 -40 -69 -110h-28l-95 -14q-165 100 -165 186v55q0 58 61 123q0 61 310 131l131 14q99 0 143 -18.5t145 -64.5 q121 -117 121 -205q-15 -136 -15 -272q0 -112 10 -223l-13 -125v-75l18 -73q37 -64 64 -78h22q27 0 68 185l7 7h6q22 0 56 -60q-6 -120 -8 -166q-7 -105 -151 -131h-130q-126 0 -178 117l-28 20h-35q-76 -30 -121 -65.5t-249 -65.5q-189 48 -214 97q-80 88 -96 213zM360 355 q10 -80 46 -148q32 -33 64 -51h22q111 17 236 139q42 111 58 111l-7 110v133q0 52 -44 88q-171 -27 -202 -70l-39 -45l-54 -40l-37 -51q-19 -32 -43 -176z" />
<glyph unicode="b" horiz-adv-x="1259" d="M50 1771v28q0 21 83 48l61 -7l83 14h96q136 -40 145 -172q0 -84 10 -418l17 -56q22 0 54 32.5t84 55t75 22.5q172 -20 232 -83q92 -44 118 -121q41 -67 60 -116l19 -53l5 -64l10 -100l7 -96l-7 -91q0 -80 -21 -177q-62 -218 -223 -351l-95 -52l-107 -26l-73 13 q-34 10 -179 92l-34 7h-14l-100 -88h-75q-48 33 -75 110l-1 68l44 53l-3 228l7 246q-14 711 -19 855t-88 144q-59 0 -96 55zM521 747q0 -66 4 -110v-35l6 -34l-6 -48v-10q0 -42 7 -94l20 -54v-42q27 -63 69 -110q52 -62 103 -62q0 -16 62 -20q97 57 117 124l20 100 q20 83 28 177q-2 58 -2 110q0 39 1 75q-3 88 -3 180l-17 101q-18 54 -41 116l-48 42h-69q-76 -11 -99 -38l-40 -31q-47 -42 -74 -141l-28 -75l-10 -74v-47z" />
<glyph unicode="c" horiz-adv-x="1174" d="M50 568v183q11 89 100 274l111 141q180 129 408 136q184 0 231 -55q85 -20 176 -152q39 -45 48 -85v-102q-41 -93 -41 -163q-37 -109 -115 -109h-48q-96 0 -204 143l-3 57q34 143 125 201l28 48v27l-82 41q-32 11 -68 11q-24 0 -50 -5q-147 -20 -181 -95 q-82 -56 -82 -170q-11 -73 -11 -150q0 -66 8 -135q17 -153 44 -265q21 -45 71 -119q38 -35 86 -51h34q177 0 237 115q89 77 89 184q46 34 68 34h41q54 0 54 -75v-34q0 -77 -61 -177q-40 -43 -109 -115q-31 -40 -113 -82q-57 -18 -269 -21q-176 35 -236 96q-98 59 -167 166 q-64 94 -99 187z" />
<glyph unicode="d" horiz-adv-x="1307" d="M50 703q15 123 55 203q20 67 70 155q167 189 254 193q38 15 77 17h115l135 -54q14 0 34 223v148q0 111 -148 142l-21 41v13q17 0 122 68h115l101 -14l75 7q67 -61 67 -81q-13 -26 -13 -74l6 -75l-33 -101l-3 -155l-3 -886q39 -278 188 -351q14 0 14 -34q-22 -88 -102 -88 l-182 14l-108 -7q-37 9 -102 81h-47q-104 -81 -189 -81q-121 15 -147 25.5t-90 48.5q-77 79 -149 196l-54 108q-17 94 -23.5 148t-13.5 170zM364 676q7 -189 45 -331q23 -92 70.5 -118.5t107.5 -30.5q211 134 211 413q0 16 -1 33l-13 162q-39 156 -122 250q-40 48 -68 48 h-27q-81 0 -113 -55.5t-48.5 -105t-41.5 -265.5z" />
<glyph unicode="e" horiz-adv-x="1184" d="M50 635l14 159l32 100q27 55 87 150q13 59 213 189l103 43l86 17l100 7l83 -26q76 -34 173 -101q77 -84 120 -166q44 -89 73 -233q-12 -76 -27 -88q-9 -7 -27 -7q-15 0 -37 5q-12 2 -38 2q-79 0 -290 -23q-333 -19 -353 -62l-6 -93v-13l20 -166v-14q46 -132 133 -166 l66 -20l40 -3l80 -4q107 27 186 107l87 120q19 48 26 119q47 80 80 80q53 -45 53 -97v-9l-6 -54q-2 -47 -34 -93q-20 -37 -70 -126q-43 -75 -155 -133l-95 -33l-105 -7h-100q-116 17 -213 46q-92 47 -136 100.5t-84 126.5q-79 130 -79 366zM369 874q0 -60 93 -73h20 q47 0 106 6l173 17q74 14 74 43l6 120q0 98 -126 166l-60 14l-50 -8l-63 -9l-53 -30q-113 -53 -113 -173l-7 -53v-20z" />
<glyph unicode="f" horiz-adv-x="1075" d="M50 1214v14q0 51 150 95q54 45 54 82v7l-13 54v7q23 20 68 177q107 143 150 143q89 55 157 55q116 0 160 -18q15 -14 21 -14q3 0 3 5q104 -16 143 -68q27 0 54 -82l-6 -62v-34q14 -27 34 -27v-14q-57 -115 -164 -115q-93 0 -143 122v28q41 76 41 170l-27 14 q-33 -28 -96 -35q-23 -21 -27 -61q-55 -16 -55 -116l-6 -41q27 -41 27 -61v-89q0 -47 88 -47q66 -34 75 -55v-34q-27 -54 -115 -54q-62 -39 -62 -116q-20 -25 -20 -48v-27q13 -15 20 -75l41 -41v-14q-61 0 -61 -143l20 -82l-13 -41v-6q20 -25 20 -48q-27 -90 -27 -130 q27 -211 61 -211q89 -24 89 -41v-41q0 -32 -34 -54l-7 7h-62l-68 -21l-75 7l-27 -7l-54 14h-35q-23 0 -68 -34h-7l-109 -7q-88 65 -88 102v7q7 39 170 75l34 48v41l-7 27l28 109l-21 82l7 88h-7q14 27 14 75v27q0 12 -7 52q-3 13 -3 36q0 44 10 124l-21 41l14 54 q-20 53 -34 157h-54l-28 -7q-70 25 -102 75z" />
<glyph unicode="g" horiz-adv-x="1537" d="M50 -139q9 184 51 184q89 50 89 95q-47 47 -57 83l6 6v26l-19 89v6q0 109 146 235l13 26v25q0 44 -76 204v31l6 83l-6 44l44 51q0 91 184 185q0 19 108 51l70 38q59 -38 166 -38l140 -58q46 -25 82 -25q34 44 83 44q16 32 51 32h25l121 7q178 -42 178 -147q13 0 32 -51 l-13 -44l6 -32q-72 -95 -95 -95l-51 -13q-81 0 -159 95l7 45q-46 44 -64 44q-25 -22 -25 -44q0 -95 38 -95q-79 -277 -147 -293q-19 0 -44 -82l-6 -7h-7l-32 7l-178 -45h-6l-222 13q-115 -37 -115 -102v-19q36 -50 115 -70h44l6 6l20 -6q91 0 133 13l25 -7h7l70 13h25 q156 -14 274 -63q59 -47 114 -140q25 0 51 -184l6 -32q-3 -26 -63 -146q0 -55 -178 -185q-16 0 -45 -38l-51 -25l-6 6h-13q-29 -1 -63 -25l-32 6q-32 0 -32 -13l-44 13l-64 -13l-114 26h-13l-7 -6l-6 6h-51q-111 0 -178 51l-152 70q-60 0 -70 120q-11 0 -32 64zM330 -44v-95 q0 -41 140 -146q40 0 165 -38q93 31 241 44q100 107 121 204q0 39 -82 63q0 72 -172 89l-76 -7l-58 7v-7l-63 13q-210 -37 -210 -120zM476 948q0 -253 133 -274q0 -12 32 -12q91 0 159 89l6 44l-6 45l6 31l-12 38v32l6 64q-19 0 -19 63q-54 70 -127 70l-76 7q-51 0 -58 -140 q-44 -35 -44 -57z" />
<glyph unicode="h" horiz-adv-x="1418" d="M50 1723q0 100 53 100l73 20l60 -7l7 7l33 -7h20q246 0 246 -80q20 0 27 -153l20 -33l-27 -146q0 -59 20 -87l-20 -179h20q220 86 247 86h53q36 0 226 -86q27 -2 27 -14l-14 -40l54 -106l13 -73q0 -54 -40 -173l13 -54q-26 -45 -26 -126l33 -40l-7 -20l14 -160l-7 -33 q27 -33 33 -106q60 -20 93 -60q67 0 74 -80q0 -65 -247 -73l-26 -7l-60 33l-67 -20q-21 12 -199 27l-47 66q23 74 73 74h54q31 8 39 139l-6 27l20 453l-14 53l14 46q-12 147 -120 147q0 11 -33 13q-103 -23 -200 -186q0 -16 -27 -40l7 -47v-20q0 -45 -40 -106v-20 q20 -23 20 -80v-33l20 -20l-7 -67v-6l14 -20v-7q-33 -35 -33 -53l26 -47v-73q0 -29 113 -73l20 -27v-27q-16 -43 -100 -73l-59 7q-40 -2 -40 -13l-40 6l-87 -6l-80 13l-33 -7l-20 7l-53 -7q-55 0 -93 67v13q0 32 159 60q34 51 47 166l-20 127l7 86v94l-7 6l7 7v66l-7 7l7 7 v6l-7 67l13 93h-6l6 7v6l-6 67l13 93q-12 0 -33 60l6 33v153q0 47 -13 47l7 33l6 220q0 68 -173 86z" />
<glyph unicode="i" horiz-adv-x="840" d="M50 1192q0 81 190 81l61 7l34 -7q61 4 61 14l7 -7h68l7 7q45 0 95 -95v-21l-21 -54l14 -68l-7 -102l21 -136l-28 -61l28 -115l-14 -55q14 -156 27 -156l-13 -142q30 -116 115 -116q95 -25 95 -75v-6q-9 -61 -61 -61l-7 6h-7l-47 -6l-41 6l-61 -13l-34 7h-13v-7l-68 7 h-116l-13 -14q-252 0 -252 68v13q35 45 95 62l75 -7h7q61 0 61 74l-7 55l7 34l-7 122l7 34l-27 183q27 61 27 95l-7 7v7l7 27l-20 61l13 109q-13 176 -54 176l-27 -6l-48 27q-54 -11 -54 -21q-32 0 -68 62zM206 1633v41q0 117 184 149h13q71 0 156 -102l21 -47l-4 -34 l-4 -41l-20 -27q-86 -95 -210 -95q-60 0 -136 156z" />
<glyph unicode="j" horiz-adv-x="921" d="M50 -91q34 111 77 111l91 35q129 -33 139 -49l21 -42v-48l28 -105l-14 -14v-21l28 -28h28q98 50 98 216h7l7 886q-50 161 -99 161q-3 19 -63 63l-20 55q0 59 126 84h209l35 -7l35 14l7 -7q21 0 21 -34q49 -33 49 -91l-7 -56v-831l-14 -77l14 -55l-14 -42l7 -42 q-78 -198 -168 -251q0 -46 -90 -70q-16 -36 -133 -84l-28 -7q-21 24 -216 56l-83 57q0 22 -50 69l-21 42l7 49v35l-14 21v7zM525 1507v21q28 138 97 174l56 21q168 -42 168 -98l25 -97q0 -32 -60 -84q0 -21 -28 -35h-119l-28 -7q-29 0 -111 105z" />
<glyph unicode="k" horiz-adv-x="1414" d="M50 1708l17 102l77 14l39 4l64 -3q24 -3 46 -3q65 0 117 22q86 -29 86 -139v-80q1 -33 13 -33q-27 -40 -27 -73v-20q3 -48 20 -66l-6 -33q13 -97 13 -186l-7 -66l14 -13l-7 -73q-13 -67 -13 -80v-53l-7 -73q27 -75 53 -86l-7 -33l27 -27h20l146 87q0 17 99 112 q0 37 40 106q0 65 -80 93q0 14 -66 47v26q0 16 103 43l50 -4q20 -1 36 -1q63 0 63 22h7l145 -3l87 3q99 -9 99 -40q0 -80 -212 -179q-73 -24 -73 -86l7 -20q-47 0 -60 -66h-13v-7l-7 7h-20l-20 -20v-53l34 -106q24 0 92 -179q0 -27 47 -120q0 -46 63 -93q43 -92 209 -145 l6 -34q-24 -79 -53 -79l-106 20l-172 -27l-40 14h-60q-172 0 -172 72q99 111 99 153v26q-14 54 -99 146l7 7v7q0 20 -113 152h-20q-46 0 -66 -86l13 -27q-27 0 -66 -86q-34 -19 -34 -40q0 -42 24 -89l23 -70q99 -89 99 -126q0 -30 -46 -53l-20 7l-60 -7q-33 0 -33 14 l-325 -27q-30 0 -92 33v20q39 78 165 139l40 73q0 33 -13 33q13 31 13 126l-7 126l7 33l-7 100l7 132l-13 80v99q0 23 -27 67l27 73l-27 126l14 59q-50 223 -120 292z" />
<glyph unicode="l" horiz-adv-x="799" d="M50 1768q0 68 185 68l103 7l75 -7l41 7q115 0 144 -158l-20 -34v-62l27 -41q-21 -38 -21 -253l7 -48q-20 -35 -20 -69v-13q0 -15 -10.5 -38.5t-10.5 -71.5l14 -48l-14 -41q28 -66 28 -110l-21 -54v-76q11 -52 11 -105t-11 -107l-21 -110q42 -64 42 -157q28 -117 61 -117 q110 -26 110 -82q0 -33 -123 -55l-55 21l-117 -21l-144 21l-150 -21q-89 23 -89 75q0 62 143 62q76 12 76 48v7l14 233q-35 51 -35 89l28 89l-14 171l7 21l-14 75l14 69q-14 254 -28 274l14 178l-14 27l14 41q-9 227 -68 227l-35 6l-27 -6q-68 0 -96 89z" />
<glyph unicode="m" horiz-adv-x="1918" d="M50 1176q0 45 81 94l13 13l34 -33l121 6q130 0 209 -80q138 35 249 107h20q104 0 222 -101q38 -37 74 -114l21 -14l16 23q20 31 55 102q36 29 97 50q38 29 114 61q148 -27 169 -54q0 -16 74 -40q54 -35 54 -68q1 -42 20 -80l-7 -7v-7l14 -54l-21 -87l14 -182l-14 -54 q2 -27 2 -50q0 -30 -3 -55q-5 -45 -5 -70q27 -40 27 -74l-14 -40l14 -169l-7 -20q0 -31 74 -47l20 7q40 0 81 -68q0 -66 -101 -87l-135 7l-67 -14l-101 27l-74 -6h-7q-53 0 -114 67h-20v-21q0 -40 -54 -40h-14v-6l-7 6h-6l-128 -13q-65 26 -108 26l-188 -26q-27 0 -68 87 q0 36 94 47q34 34 34 108q14 0 14 34l-21 80q23 0 41 81q-11 14 -20 115l6 20l-13 40l27 41l-14 181l34 48l-20 53l13 54q0 68 -121 135q-52 -38 -101 -40q-94 -115 -94 -176q-26 -19 -41 -161q-18 0 -27 -94l7 -74l-7 -41l14 -81v-13l-27 -135q13 0 13 -114q10 -68 48 -68 q0 -13 53 -13l27 -34q-8 -47 -195 -67l-54 -13l-27 7l-40 -7l-54 7h-7l-6 -7q-62 0 -135 67v13q114 96 114 115q0 47 34 128v60q0 33 20 68q-6 74 -20 87v20l20 27l-27 74l7 7v27l-7 34l7 27l-7 208l-20 54l7 94h-7q-148 33 -148 75zM1073 341q3 -48 14 -48l-7 -33 q25 -128 41 -128h33l7 7q29 -9 81 -61q70 65 161 121l41 61l-14 108l21 47l-14 121l3 27q11 47 11 67v14l-7 6l7 21l-7 94l27 54q-38 191 -61 202l-47 67q-175 0 -175 -40l-40 -74l-17 -77l23 29l-47 -87l7 -20l-20 -122l13 -20l-7 -6v-54l-14 -179z" />
<glyph unicode="n" horiz-adv-x="1460" d="M50 60q0 81 74 81q115 9 115 54l20 141l-7 135l13 61q0 36 -20 74l7 47v47q-4 135 -20 135l13 40q-6 76 -20 101l20 81q0 49 -175 94q-20 25 -20 47q0 68 148 88l20 7q11 -27 47 -27l128 40q57 0 155 -114h14q173 97 309 114q154 -46 223 -135q60 0 114 -148l-7 -33v-41 l7 -40l-13 -54l13 -54l-7 -47l34 -155l-20 -81v-20q17 -19 27 -74l-7 -148q0 -99 155 -115l20 -27q-40 -141 -135 -141l-114 27h-121q-243 0 -243 61l-6 40l128 74l6 40l-13 95l7 60v27l-14 155l20 74q-13 76 -40 121l20 81l-13 47l6 41v6q-20 149 -107 149q0 11 -47 13h-14 q-65 0 -141 -141q-27 -57 -27 -122v-20l6 -27l-33 -107v-61l-7 -61l27 -60q-34 -96 -34 -202q0 -98 189 -155q20 -26 20 -61q-22 -74 -236 -94h-6l-142 27l-74 -27l-87 13l-7 -6h-7l-108 20z" />
<glyph unicode="o" horiz-adv-x="1186" d="M50 645l20 68q-5 40 -13 40l41 156q19 0 27 55l95 142l129 95q19 0 88 68l176 41q25 -20 123 -34q92 -41 264 -217q50 -121 75 -150q0 -89 54 -149v-142l7 -28q-41 -103 -41 -156q-33 -88 -122 -210q0 -27 -68 -68q-85 -122 -183 -122q0 -14 -102 -41h-27 q-136 20 -231 68l-88 61v14l7 20h-7q-67 6 -183 238l-27 142q-14 38 -14 109zM335 584l14 -68l-7 -21l47 -203q0 -109 75 -109q0 -17 68 -34h34q81 0 81 14l7 -7h41q39 16 81 122q17 0 41 129v34l-7 27l14 68v14h-7l7 34v47l7 75l-7 20l13 41q-42 394 -196 394q0 12 -68 13 h-21q-122 -59 -122 -129q-54 -8 -54 -47l7 -27q-41 -69 -41 -102v-21l7 -88l-7 -20l7 -75v-7z" />
<glyph unicode="p" horiz-adv-x="1285" d="M50 -368q25 100 100 100l100 25q24 17 24 137h-6l6 6v6l-6 44l13 37q-7 109 -25 149l31 94l-6 6v6l6 19q-4 56 -13 56l7 19l-7 62l7 63l-7 6v6q13 32 13 94h-6l6 6v106l-6 25l12 44l-6 99v50l-13 50l13 87q-22 113 -56 113q-142 37 -156 56q0 57 87 68l75 13l69 -6 l143 12q67 0 81 -87l25 -19h37q107 94 175 94l75 6q198 -55 212 -94q14 0 56 -112q62 -93 72 -202q19 -45 40 -116l-6 -6v-56q19 -133 19 -163q-24 -110 -44 -143q-11 0 -31 -87q-38 -27 -56 -100q-49 -30 -125 -131q-61 -25 -268 -37q-42 42 -131 68h-6q-21 0 -38 -75 l7 -74h-7q-6 -92 -6 -118l75 -75h37q106 -23 106 -87v-31q-50 -57 -137 -57v-6l-6 6h-13l-74 7q-106 -9 -106 -19l-7 6h-12q-63 0 -125 -19l-43 13h-19l-25 -6q-131 36 -131 62zM549 766q0 -64 21 -126l4 -92l43 -206q63 -100 81 -100l81 -49q119 0 119 62q19 47 25 156 q23 0 31 93q-1 55 -1 75q2 69 9 150l-7 37l7 19l-7 44l-13 137q0 114 -57 149l-24 25h-19q-41 0 -100 -50q-21 0 -69 -49q-43 0 -118 -237z" />
<glyph unicode="q" horiz-adv-x="1373" d="M50 649q13 11 21 145l64 146l56 76q25 0 57 70q20 0 170 133l233 57l149 -38q37 -13 106 -82h42l85 89l43 6h28q52 0 71 -222v-32l-14 -70v-44l7 -7l-22 -44l22 -82l-7 -19q-7 -220 -7 -251l7 -32q-7 -71 -7 -95l-8 -26q-14 -83 -14 -121q19 -36 19 -52q0 -2 -1 -4 q-4 -14 -4 -57q2 -25 15 -25q-15 -75 -15 -110v-6l8 -38l-8 -26l8 -50l-8 -70q0 -43 107 -57q0 -11 63 -32l7 -6v-6q0 -62 -106 -95l-28 12l-403 -20q-113 0 -142 52v25q0 19 163 70q35 36 35 203q-28 26 -35 116l14 50v6l-14 13h-7q-92 -35 -191 -50l-113 6l-22 -6 q-65 15 -148 62h-7v-6q-46 0 -156 159q0 17 -71 114l-21 63l7 45zM411 492l14 -12l-7 -51q0 -177 78 -248q52 -37 85 -37q155 0 226 202q42 182 42 353q-16 0 -21 45l14 63l-21 38l14 31q-25 178 -78 178q-56 70 -120 70q-205 -46 -205 -139l-7 -7v-7l7 -82 q-14 -15 -21 -102q9 -34 9 -79q0 -30 -4 -66q-5 -123 -5 -143v-7z" />
<glyph unicode="r" horiz-adv-x="1178" d="M50 68v27l41 34h20q164 0 164 34v21l-7 102l7 34l-7 27l7 28l-7 27l7 48q-13 32 -20 198l13 54v96l-6 34l6 34q0 259 -82 259q-136 0 -136 96v14q0 41 157 47l61 -6l21 20h7l54 -14h96q61 0 123 -82h27l89 48l211 48q212 -64 212 -143l7 -7l13 -21l-13 -47l6 -48 q0 -99 -136 -171l-7 7h-14q-47 -2 -47 -14q-126 0 -150 164q10 53 81 123v14l-20 20h-61q-23 -2 -82 -123q-38 -13 -75 -129q-20 0 -41 -110l13 -54l-13 -82q-28 -27 -28 -177q2 -28 14 -28l-7 -34v-68q0 -82 34 -109l-20 -28v-13q0 -13 75 -34q0 -48 82 -48l34 -62 q-21 -54 -191 -68l-62 7q-14 -13 -75 -13q-34 13 -163 13h-28l-7 -7l-6 7h-7l-55 -13q-109 11 -109 68z" />
<glyph unicode="s" horiz-adv-x="1020" d="M50 96l13 126l-6 20q12 13 20 154l40 13q32 -25 100 -153q49 -77 246 -127q7 -20 40 -20h40q114 22 194 87l47 53q0 47 -14 73l7 27q-18 68 -87 120l-207 60h-53l-167 60l-113 80l-60 80q-7 59 -40 140q20 63 20 114l-7 6l20 54v20l-6 6q0 19 126 134q34 46 174 46l6 7 q32 0 47 20l147 -27l53 7v-7l7 -26h20q105 18 167 46q73 -42 73 -313q0 -25 -53 -67h-20q-66 62 -107 140q-132 147 -200 147l-27 -7q-30 14 -87 14q-17 0 -100 -60q-40 -40 -60 -167q69 -187 247 -187q89 -9 107 -26h93q97 -37 114 -80q113 -18 113 -67l53 -214l-60 -180 l7 -46l-100 -94l-180 -93l-7 7h-13q-126 0 -287 60l-60 6h-47l-106 -40q-67 0 -67 74z" />
<glyph unicode="t" horiz-adv-x="871" d="M50 1141q0 52 152 131q0 14 85 112q0 16 66 106v13l-6 20l26 59l-7 59q0 119 60 119q98 0 98 -178l7 -20l-7 -79q26 -129 40 -145l-26 -46q49 -72 184 -72l46 -40v-33q0 -85 -118 -85q-132 -51 -132 -172v-13l26 -138l-6 -27q26 -100 33 -184l-7 -33v-13q0 -14 20 -14 l-20 -39v-33l7 -7l-7 -6v-53q33 -4 33 -33l-13 -39v-33q10 -27 46 -27h6q48 0 60 46q-12 0 -33 60q20 24 26 99q33 52 66 52v7q59 -23 59 -33v-79l-13 -86l20 -85q-34 -49 -59 -126l-126 -59q-289 27 -289 92l-93 125v7l20 26v112l-7 106l7 26l-13 40q20 31 20 59l-14 79 l14 79l-14 53l14 46l-27 138l7 33q-54 66 -145 66q-62 34 -66 60z" />
<glyph unicode="u" horiz-adv-x="1477" d="M50 1202q12 39 75 62l41 -7l206 27l62 -6v6l89 -27l-7 -41q0 -171 14 -178q5 -2 5 -15q0 -26 -19 -95v-41q0 -19 7 -64.5t7 -72.5v-41l6 -27q-20 -36 -20 -83l7 -34l-7 -41q20 -23 27 -137q16 0 35 -68v-42l-7 -54q20 -110 96 -110h20q142 0 240 212v35l-7 6l21 76v34 l-7 96l13 34l-6 41l6 55l-13 62v20q0 49 13 76l-13 171v34q0 76 -103 76q-171 22 -171 82v14q0 30 130 54q18 -12 157 -20v7l7 -7h48l130 7q74 0 110 -144l14 -14l-7 -55l7 -41l-28 -116v-41l35 -89l-14 -90v-47l-14 -21l7 -130l-7 -89q0 -35 3.5 -48.5t3.5 -33.5v-7l14 -21 l-14 -20q23 -151 116 -151l7 7h7q36 -2 55 -28q-29 -66 -110 -123l-54 14l-7 -7l-7 7h-7l-219 13h-7q-37 0 -82 69h-7l-226 -75q-295 16 -295 54q-130 77 -130 178q-25 51 -41 220l7 34v75l-7 28l7 20q-4 76 -14 76l21 68v14l-7 27l7 28l-7 89l7 34l-21 110v41 q-15 25 -55 48h-54q-53 0 -69 61z" />
<glyph unicode="v" horiz-adv-x="1587" d="M50 1217q20 71 42 71h70l56 -7l77 7h176l63 21l7 -7h98q112 -24 112 -56v-29q0 -47 -112 -91l-28 -70q28 -40 49 -105q35 0 35 -77q63 -25 63 -35l-21 -28v-14l64 -56q0 -43 14 -43l-7 -35v-35q0 -12 77 -56h7q30 2 70 147q77 78 77 169q29 0 35 140q-50 126 -112 126 l-42 92q0 42 140 42q116 15 161 35l49 -14l113 7q147 -28 147 -84v-15h7q0 -75 -182 -140q-218 -232 -218 -329q-102 -209 -133 -309v-14l7 -7q-14 -94 -49 -126q-40 -70 -91 -232q-64 -70 -127 -70h-7q-33 22 -98 147l7 7v14q0 31 -56 85q-63 159 -77 273q-27 12 -63 140 q-32 19 -91 218l-7 7l-35 91q-14 1 -78 154q-189 44 -189 91z" />
<glyph unicode="w" horiz-adv-x="2156" d="M50 1252v7l28 28l100 -14l36 22l42 -15l43 7l50 -7l192 22q156 0 156 -64l-71 -192l21 -72l-7 -35q0 -135 72 -192v-36q64 -49 64 -128h7l-7 -7v-43q0 -25 99 -35q71 27 128 199q21 0 36 114v64q-43 199 -100 199q-121 109 -121 171q0 57 192 57l71 21l43 -7l85 7 q0 -16 93 -21q0 -15 78 -22l21 -49l-78 -136v-57q0 -16 50 -120v-8l64 -170q38 -162 78 -178h14q58 0 178 284q43 136 50 228q-2 52 -156 171v14q0 36 227 57l43 -14l64 7q165 -7 171 -43v-7q0 -38 -64 -85q0 -37 -121 -107q0 -121 -93 -171q-71 -167 -106 -334v-43 q-64 -91 -64 -142h7q-52 -135 -79 -135l-64 -171q0 -34 -99 -71h-7q-71 0 -114 192q-47 200 -121 292q0 40 -71 85h-14q-15 0 -15 -71q-87 -108 -156 -242q-95 -112 -114 -192l-57 -50q-95 0 -163 271q-15 0 -50 128q-135 330 -135 355q-54 103 -107 142q0 171 -121 207 q-128 58 -128 135z" />
<glyph unicode="x" horiz-adv-x="1466" d="M50 70q0 69 189 148l247 280q14 83 58 124v49q0 35 -148 239q-107 220 -247 255q-83 27 -83 82q66 50 99 50h25l247 -9l148 25q124 0 198 -66l33 -8q14 49 156 49h74l115 9l99 -9l74 17q82 -12 82 -50q-74 -115 -156 -115q-94 -54 -123 -156q-60 -25 -132 -115 q-42 0 -99 -124l-16 -16v-9q48 -194 140 -296q46 -93 164 -189q0 -70 140 -99l41 -74q0 -25 -49 -50l-50 9l-139 -25l-75 16h-90l-165 25l-49 -25q-115 11 -115 66q0 40 148 99l16 33l-123 198l-50 16l-189 -198v-32q0 -33 132 -66l33 -41q0 -50 -58 -50q0 -16 -99 -16v-9 l-41 9q-118 0 -206 -25h-8q-123 0 -148 74zM692 1025q49 -82 91 -82h57q99 72 99 181q0 30 -107 57h-25q-115 -72 -115 -115v-41z" />
<glyph unicode="y" horiz-adv-x="1566" d="M50 -148l13 49q26 25 66 75h79q85 0 138 -143q79 -68 105 -68h26q138 121 138 155l59 222q-105 164 -105 324q-11 0 -26 99q-92 64 -92 168q-26 0 -26 13l13 24l-20 50l13 37v12q0 21 -72 119q-24 93 -66 93q-125 129 -125 143q0 87 119 87l65 -19l60 12l52 -12h7 q46 0 46 12l138 -24l52 12q97 0 138 -61q-7 -35 -105 -101q-39 -53 -39 -92v-13q0 -129 112 -286q23 -155 85 -155q85 42 85 118q50 85 92 254l27 26v6l-7 19l7 31v24q-13 26 -105 112l-14 43q0 57 92 69l33 -12q92 30 198 30q210 -36 210 -55v-37q0 -87 -86 -87 q-151 -40 -151 -118q-16 -8 -59 -138q-46 -45 -46 -111l13 -19q-105 -129 -105 -242q-39 -35 -39 -118q-30 -6 -79 -169q-40 -50 -59 -99l6 -37q0 -28 -66 -154q-63 -73 -111 -174q-18 -5 -112 -112l-145 -57l-52 19h-27l-52 -12q-150 0 -230 143q-24 0 -46 99l-7 7l-6 19 h-7z" />
<glyph unicode="z" horiz-adv-x="1246" d="M50 110l61 156q2 52 103 109q55 10 539 751v14l-14 13l-34 -7l-48 14l-143 -20q-155 -132 -164 -191l-82 -130q0 -22 -75 -96q-48 0 -61 89q-21 0 -21 62q0 33 6 85l18 141q-6 48 -6 85q0 57 14 88l34 34l34 -6l119 -4l80 6l271 -23l313 23q156 -10 202 -54l-6 -28l6 -61 q0 -14 -111 -85l-522 -748l-22 -61v-14q0 -27 103 -38q24 -3 47 -3q78 0 150 29q86 39 102 168l94 144l84 83q56 0 69 -123l-34 -228l13 -148v-8q0 -55 -89 -108l-163 -20l-80 17h-9q-43 0 -137 -17l-163 18q-47 0 -123 -11l-102 7l-163 -10q-90 63 -90 106z" />
<glyph unicode="{" horiz-adv-x="794" d="M50 900l97 132l42 137v188l35 119q38 99 122 179l85 88l104 71l73 26l40 17q5 -3 5 -6q-5 -2 -5 -3q0 -2 10 -2q7 0 20 1l47 -20l19 -54q-56 -26 -101 -26q-22 -11 -24 -11l7 5q-96 -49 -124 -125q-37 -29 -71 -103q-37 -100 -51 -257q-8 -195 -120 -366q75 -53 86 -170 l28 -211l54 -248q0 -22 47 -113l60 -104l60 -23h6q42 -19 60 -47l60 -30q-10 -43 -83 -57l-103 25q-39 16 -57.5 23.5t-55.5 34.5q-41 37 -124 145q-26 42 -33.5 63t-13.5 83q-44 119 -63 281l-23 153l-45 115z" />
<glyph unicode="|" horiz-adv-x="276" d="M50 1383l8 128v51l-4 12l16 65q0 137 21 176q8 14 18 15h13q10 -5 19 -11h7q51 0 72 -61l-3 -51q-4 -74 -4 -124q0 -74 9 -98v-13l-16 -52l-5 1l8 -230l-3 -51l7 -77l1 -12l-4 -14l4 -141l12 -133l-3 -264q-11 -72 -17 -254q3 -54 3 -95q0 -99 -18 -132q-27 -16 -37 -16 h-11q-6 0 -41 4q-33 25 -33 196v30l5 -1l-8 142l4 89q0 39 -4 105v189l-4 39h1l1 1q6 10 9 88l-15 141l8 166v12z" />
<glyph unicode="}" horiz-adv-x="794" d="M50 1773l19 54l47 20q13 -1 20 -1q10 0 10 2q0 1 -5 3q0 3 5 6l40 -17l73 -26l104 -71l85 -88q84 -80 122 -179l35 -119v-188l43 -137l96 -132l-69 -90l-46 -115l-23 -153q-19 -162 -63 -281q-6 -62 -13.5 -83t-33.5 -63q-83 -108 -124 -145q-37 -27 -55.5 -34.5 t-57.5 -23.5l-103 -25q-73 14 -83 57l60 30q18 28 60 47h6l60 23l60 104q47 91 47 113l54 248l28 211q11 117 86 170q-112 171 -120 366q-14 157 -51 257q-34 74 -71 103q-28 76 -124 125l7 -5q-2 0 -24 11q-45 0 -101 26z" />
<glyph unicode="~" horiz-adv-x="1197" d="M50 680l21 54q111 62 111 79q25 29 39.5 46t35.5 26l133 65l103 1q38 -26 65 -55q32 -39 83 -80q116 -58 175 -58q22 0 39 23q56 65 271 175l21 -54q0 -109 -61 -109q-127 -141 -330 -239q-159 83 -294 190q-64 -38 -64 -44q-231 -85 -287 -129q-61 0 -61 109z" />
<glyph unicode="&#xa1;" horiz-adv-x="500" d="M50 214q13 0 50.5 350.5t48.5 405.5l20 225q0 74 69 144h6q50 -51 75 -137h-6l30 -205q4 -76 60 -795l-22 -75q1 -5 1 -10q0 -57 -144 -109q0 9 -88 19q-100 108 -100 187zM50 1627v12l13 38l-7 50q68 125 157 125h56l6 6q175 -64 175 -206l-6 -63q-82 -150 -200 -150h-6 q-34 0 -44 25q-94 0 -144 163z" />
<glyph unicode="&#xa9;" d="M50 873l24 104l12 49q66 115 80 166q44 15 95 104q110 92 177 137q27 63 256 128l241 -3q85 -11 199 -60q187 -56 311 -221q54 -105 98 -152q0 -41 41 -105q0 -18 14.5 -44.5t14.5 -71.5l-8 -55l15 -37v-42l-15 -68l15 -24l-79 -288l-138 -159q-16 0 -168 -129 q-78 -41 -261 -86l-51 7l-29 -13l-8 6h-14l-124 7v-7q-167 20 -167 55q-113 0 -226 123q-42 0 -189 214q-51 88 -80 208q-14 0 -14 37l-7 111q-6 109 -15 109zM265 939l1 -158q12 -137 43 -201l31 -91h3q21 0 45 -87q69 -67 222 -190l58 -43q52 -43 109 -43l22 6l66 -6 q240 38 240 92q81 38 166 121l62 94q55 76 73 129l23 57l7 73l5 170l-32 143q-87 173 -167 212q-16 70 -130 159q-112 34 -197 79h-21l-80 -6l-22 6l-124 -43q-212 -155 -241 -203l-85 -97zM470 727v119q7 59 65 180l73 92q118 84 267 89q121 0 151 -36q56 -13 116 -99 q25 -30 31 -56v-67q-27 -61 -27 -106q-24 -72 -75 -72h-32q-62 0 -133 94l-2 37q22 94 82 132l18 31v18l-54 27q-20 7 -44 7q-16 0 -33 -4q-96 -13 -118 -62q-54 -36 -54 -111q-7 -48 -7 -98q0 -43 5 -88q11 -101 29 -174q14 -29 46 -78q25 -23 57 -33h22q116 0 155 75 q58 51 58 121q30 22 45 22h27q35 0 35 -49v-23q0 -50 -40 -115q-26 -28 -71 -76q-21 -26 -74 -53q-38 -12 -176 -14q-116 23 -155 63q-64 38 -109 108q-42 62 -65 123z" />
<glyph unicode="&#xad;" horiz-adv-x="672" d="M50 886v8q0 41 76 52q64 7 64 20l100 -12h40l44 -4l4 4h4l24 -8l16 4l72 -8v4l16 16h4q13 -16 80 -32q18 0 28 -68v-12q0 -40 -60 -40l-20 -16l-4 4h-16l-40 -8l-56 16h-4l-52 -8l-44 16q-28 -5 -28 -12l-12 4l-72 -12q-8 16 -20 16l-28 -4l-44 8v-4q-72 21 -72 76z" />
<glyph unicode="&#xae;" d="M50 873l24 104l12 49q66 115 80 166q44 15 95 104q110 92 177 137q27 63 256 128l241 -3q85 -11 199 -60q187 -56 311 -221q54 -105 98 -152q0 -41 41 -105q0 -18 14.5 -44.5t14.5 -71.5l-8 -55l15 -37v-42l-15 -68l15 -24l-79 -288l-138 -159q-16 0 -168 -129 q-78 -41 -261 -86l-51 7l-29 -13l-8 6h-14l-124 7v-7q-167 20 -167 55q-113 0 -226 123q-42 0 -189 214q-51 88 -80 208q-14 0 -14 37l-7 111q-6 109 -15 109zM265 939l1 -158q12 -137 43 -201l31 -91h3q21 0 45 -87q69 -67 222 -190l58 -43q52 -43 109 -43l22 6l66 -6 q240 38 240 92q81 38 166 121l62 94q55 76 73 129l23 57l7 73l5 170l-32 143q-87 173 -167 212q-16 70 -130 159q-112 34 -197 79h-21l-80 -6l-22 6l-124 -43q-212 -155 -241 -203l-85 -97zM473 1138q8 29 74 29l25 -6l49 3l42 -3q18 8 80 14l19 -8l40 5l23 -8l25 3l14 -3 l57 5l49 -5l11 3q17 0 124 -38l15 3q1 -16 42 -40l34 -60l3 -12l-3 -11l3 -15q-12 -103 -37 -103q-22 -39 -74 -63l-42 -40q0 -5 25 -15q0 -6 29 -42q15 -34 20 -66l-6 -20l6 -12l-3 -40q14 -28 22 -95q15 -20 29 -20h14q5 1 31 52l9 6q27 -9 28 -17l-25 -61q0 -45 -117 -60 q-130 18 -130 118l6 17l-6 31v6l3 29q-2 22 -6 22l3 3v38q0 69 -43 86q-9 0 -34 14l-28 9l-23 -6q-40 8 -91 8q-19 -18 -19 -31l3 -8q-12 -20 -12 -47l6 -14l-3 -49l3 -3l-6 -60q7 -20 17 -31l-5 -23v-3q50 -46 73 -48q9 -12 9 -26v-3q-25 -21 -71 -21q-42 3 -48 9l-71 -9 l-20 6l-23 -3l-37 6l-17 -6h-23q-32 0 -36 29q23 23 85 23q17 0 34 32v14l-6 17h-3q12 50 12 86l-9 23v20l9 29q-9 24 -9 52l6 37l-9 112q4 37 9 43l-6 54v77q0 55 -26 55l-22 -6q-71 15 -71 32zM731 952q0 -41 23 -50v-5q-6 -9 -11 -55q14 -21 48 -28l8 -6l37 12h20l40 -3 q81 25 96 54q14 0 14 34q20 35 20 52l-3 20l3 29q0 28 -37 77q-30 23 -79 32l-43 -3l-28 8q-23 -8 -60 -11q-40 -10 -48 -28v-3q0 -26 9 -41z" />
<glyph unicode="&#xb0;" horiz-adv-x="563" d="M50 1302l8 24q-2 14 -5 14l17 52q9 0 12 18l41 48l54 32q9 0 38 23l75 14q11 -7 53 -12q39 -13 112 -72q22 -42 32 -51q0 -30 23 -50v-48l3 -10q-17 -35 -17 -52q-15 -30 -53 -71q0 -9 -29 -23q-36 -41 -78 -41q0 -5 -43 -14h-12q-57 7 -98 23l-38 21l16 4l3 7h-3 q-44 2 -94 80l-11 48q-6 13 -6 36zM141 1282l6 -22l-3 -8l20 -68q46 -17 63 -17q0 -6 28 -12h15q35 0 35 5l3 -2h17q17 5 34.5 20t48.5 45v11l-3 9l5 23v4h-2l2 12v16l3 26l-3 6l-12 91q-46 36 -96 36q0 3 -29 4h-9q-37 -19 -82 -23q-24 -3 -24 -16l3 -9q-17 -23 -17 -35v-7 l3 -29l-3 -7l3 -25v-2z" />
<glyph unicode="&#xb7;" horiz-adv-x="655" d="M50 696l10 28q-3 16 -6 16l21 63q10 0 13 22l49 57l66 39q10 0 45 27l90 17q13 -8 63 -14q47 -16 134 -87q26 -50 39 -61q0 -36 27 -60v-57l4 -12q-21 -42 -21 -63q-17 -35 -63 -85q0 -10 -34 -27q-44 -49 -94 -49q0 -6 -51 -17h-15q-69 8 -117 28l-46 24l19 5l3 9h-3 q-53 2 -112 96l-14 57q-7 16 -7 44z" />
<glyph unicode="&#xc0;" horiz-adv-x="1997" d="M50 114q0 49 206 130q66 88 164 247q164 345 295 604.5t254 458.5h73q65 -59 155 -198l370 -809q51 -110 133 -223q16 -58 56 -87l88 -65q81 -44 103 -81q0 -64 -118 -80l-183 18v-6l-81 13l-81 -19l-44 6l-59 -6l-228 6q-51 0 -74 74q0 50 155 75q103 26 103 115 q-54 76 -125 182l-111 33l-117 -13l-85 13l-77 -13l-88 6q-103 -16 -103 -164q-13 0 -15 -62l110 -74q96 -42 96 -93q0 -63 -81 -93q-282 7 -338 25q-199 -14 -199 -31q-154 0 -154 111zM718 1931q0 54 190 65l26 7q92 -28 92 -79q66 -38 66 -105q72 -51 72 -151 q0 -65 -66 -65v-7q-33 0 -118 112l-92 39l-138 138q0 14 -32 46zM778 827q0 -19 66 -30l81 30l88 -23q96 0 96 96l-42 102q-35 60 -76 170q-12 38 -44 74q-49 -49 -80 -118.5t-82 -227.5l-7 -29v-44z" />
<glyph unicode="&#xc1;" horiz-adv-x="1997" d="M50 114q0 49 206 130q66 88 164 247q164 345 295 604.5t254 458.5h73q65 -59 155 -198l370 -809q51 -110 133 -223q16 -58 56 -87l88 -65q81 -44 103 -81q0 -64 -118 -80l-183 18v-6l-81 13l-81 -19l-44 6l-59 -6l-228 6q-51 0 -74 74q0 50 155 75q103 26 103 115 q-54 76 -125 182l-111 33l-117 -13l-85 13l-77 -13l-88 6q-103 -16 -103 -164q-13 0 -15 -62l110 -74q96 -42 96 -93q0 -63 -81 -93q-282 7 -338 25q-199 -14 -199 -31q-154 0 -154 111zM778 827q0 -19 66 -30l81 30l88 -23q96 0 96 96l-42 102q-35 60 -76 170 q-12 38 -44 74q-49 -49 -80 -118.5t-82 -227.5l-7 -29v-44zM854 1662q0 100 72 151q0 67 66 105q0 51 92 79l26 -7q190 -11 190 -65q-32 -32 -32 -46l-138 -138l-92 -39q-85 -112 -118 -112v7q-66 0 -66 65z" />
<glyph unicode="&#xc2;" horiz-adv-x="1997" d="M50 114q0 49 206 130q66 88 164 247q164 345 295 604.5t254 458.5h73q65 -59 155 -198l370 -809q51 -110 133 -223q16 -58 56 -87l88 -65q81 -44 103 -81q0 -64 -118 -80l-183 18v-6l-81 13l-81 -19l-44 6l-59 -6l-228 6q-51 0 -74 74q0 50 155 75q103 26 103 115 q-54 76 -125 182l-111 33l-117 -13l-85 13l-77 -13l-88 6q-103 -16 -103 -164q-13 0 -15 -62l110 -74q96 -42 96 -93q0 -63 -81 -93q-282 7 -338 25q-199 -14 -199 -31q-154 0 -154 111zM679 1702l21 44q81 74 81 88q25 24 50 42q4 9 25 17q66 40 135 40l21 -6q27 -1 51 -3 l4 1q31 0 61 -8q101 -14 101 -39q0 -3 -4 -8q26 -19 52 -44q0 -14 81 -88l21 -44q0 -88 -61 -88q-56 36 -217 104q0 6 -80 44q-64 -31 -64 -35q-161 -69 -217 -105q-61 0 -61 88zM778 827q0 -19 66 -30l81 30l88 -23q96 0 96 96l-42 102q-35 60 -76 170q-12 38 -44 74 q-49 -49 -80 -118.5t-82 -227.5l-7 -29v-44z" />
<glyph unicode="&#xc3;" horiz-adv-x="1997" d="M50 114q0 49 206 130q66 88 164 247q164 345 295 604.5t254 458.5h73q65 -59 155 -198l370 -809q51 -110 133 -223q16 -58 56 -87l88 -65q81 -44 103 -81q0 -64 -118 -80l-183 18v-6l-81 13l-81 -19l-44 6l-59 -6l-228 6q-51 0 -74 74q0 50 155 75q103 26 103 115 q-54 76 -125 182l-111 33l-117 -13l-85 13l-77 -13l-88 6q-103 -16 -103 -164q-13 0 -15 -62l110 -74q96 -42 96 -93q0 -63 -81 -93q-282 7 -338 25q-199 -14 -199 -31q-154 0 -154 111zM526 1724l19 50q98 85 98 101q22 26 35 42t31 24l102 28l72 5q34 -24 58 -51 q34 -44 129 -90q-30 18 -57 36q115 -40 176 -40q19 0 40 2q60 46 196 142l73 -44q0 -100 -54 -100q-113 -130 -308 -201q-125 57 -280 155l-87 -21q-139 -97 -189 -138q-54 0 -54 100zM778 827q0 -19 66 -30l81 30l88 -23q96 0 96 96l-42 102q-35 60 -76 170q-12 38 -44 74 q-49 -49 -80 -118.5t-82 -227.5l-7 -29v-44z" />
<glyph unicode="&#xc4;" horiz-adv-x="1997" d="M50 114q0 49 206 130q66 88 164 247q164 345 295 604.5t254 458.5h73q65 -59 155 -198l370 -809q51 -110 133 -223q16 -58 56 -87l88 -65q81 -44 103 -81q0 -64 -118 -80l-183 18v-6l-81 13l-81 -19l-44 6l-59 -6l-228 6q-51 0 -74 74q0 50 155 75q103 26 103 115 q-54 76 -125 182l-111 33l-117 -13l-85 13l-77 -13l-88 6q-103 -16 -103 -164q-13 0 -15 -62l110 -74q96 -42 96 -93q0 -63 -81 -93q-282 7 -338 25q-199 -14 -199 -31q-154 0 -154 111zM633 1761v4q10 53 40 100q0 18 112 36q60 0 60 -44q41 0 48 -80l-8 -24l4 -16 q0 -25 -56 -68q-25 0 -52 -16q-78 0 -104 40q-44 55 -44 68zM778 827q0 -19 66 -30l81 30l88 -23q96 0 96 96l-42 102q-35 60 -76 170q-12 38 -44 74q-49 -49 -80 -118.5t-82 -227.5l-7 -29v-44zM1107 1761v4q10 53 40 100q0 18 112 36q60 0 60 -44q41 0 48 -80l-8 -24 l4 -16q0 -25 -56 -68q-25 0 -52 -16q-78 0 -104 40q-44 55 -44 68z" />
<glyph unicode="&#xc5;" horiz-adv-x="1997" d="M50 114q0 49 206 130q66 88 164 247q164 345 295 604.5t254 458.5h73q65 -59 155 -198l370 -809q51 -110 133 -223q16 -58 56 -87l88 -65q81 -44 103 -81q0 -64 -118 -80l-183 18v-6l-81 13l-81 -19l-44 6l-59 -6l-228 6q-51 0 -74 74q0 50 155 75q103 26 103 115 q-54 76 -125 182l-111 33l-117 -13l-85 13l-77 -13l-88 6q-103 -16 -103 -164q-13 0 -15 -62l110 -74q96 -42 96 -93q0 -63 -81 -93q-282 7 -338 25q-199 -14 -199 -31q-154 0 -154 111zM767 1800l9 24q-2 14 -6 14l19 52q10 0 13 18l45 48l60 32q9 0 41 23l83 14 q11 -7 57 -12q43 -13 123 -72q24 -42 36 -51q0 -30 25 -50v-48l3 -10q-19 -35 -19 -52q-16 -30 -57 -71q0 -9 -32 -23q-40 -41 -86 -41q0 -5 -47 -14h-13q-64 7 -108 23l-41 21l16 4l4 7h-4q-48 2 -102 80l-12 48q-7 13 -7 36zM778 827q0 -19 66 -30l81 30l88 -23 q96 0 96 96l-42 102q-35 60 -76 170q-12 38 -44 74q-49 -49 -80 -118.5t-82 -227.5l-7 -29v-44zM867 1780l6 -22l-3 -8l22 -68q50 -37 69 -37q0 -6 31 -12h16q38 0 38 5l4 -2h19q18 5 21 41q8 0 70 44v11l-4 9l6 23v4h-2l2 12v16l3 26l-3 6l-13 91q-50 56 -106 56q0 3 -32 4 h-10q-39 -19 -89 -43q-26 -3 -26 -16l3 -9q-19 -23 -19 -35v-7l3 -29l-3 -7l3 -25v-2z" />
<glyph unicode="&#xc6;" horiz-adv-x="2812" d="M50 77q0 25 13 58q23 58 267 155q107 105 279 294q324 411 576 720q180 221 341 405q-40 19 -106 21q-32 0 -64 69v13q0 18 87 34q79 14 175 14h297l281 -17l224 13l115 -3h29q180 0 180 -75l6 -20l2 -485l-14 -48q-17 -96 -81 -96q-41 0 -76 212l-93 171q-10 0 -58 88 q-35 0 -129 89q-73 46 -251 48q-146 -23 -146 -68l-54 -119q-5 -219 -5 -243v-48q12 -212 65 -212l40 -14q141 0 141 69q65 59 102 157l3 89q16 47 41 61h53q17 -14 35 -68v-765l3 -41q0 -55 -50 -96q-37 0 -58 68l-21 48q-1 15 -20 89v14q-74 212 -211 212h-12 q-82 -33 -107 -142q-2 -62 -2 -114q0 -77 4 -132q8 -91 34 -191l19 -57q0 -75 146 -75h59q233 0 402 198l70 137v13l58 205q0 39 24 55q25 0 73 -41q19 -20 26 -68v-424q0 -124 -53 -208l-52 -7l-122 -3l-170 -7l-163 13q-28 2 -52 2q-49 0 -88 -9l-112 4l-92 8 q-28 -10 -63 -15l-55 7l-64 -3h-70l-75 -7l-65 7v-7q-15 0 -52 18h-3l-61 -7l-226 7q-41 0 -41 58q0 13 2 30q23 59 189 89q115 31 157 137q-19 91 -41 217l-95 39l-123 -15l-79 15l-83 -15l-85 7q-111 -20 -180 -196q-13 0 -44 -74l76 -88q59 -37 59 -82q0 -14 -6 -28 q-29 -75 -124 -111q-279 8 -327 30q-205 -17 -213 -37q-116 0 -116 74zM1060 823q0 -16 56 -26l92 30l79 -23q96 0 162 12l10 286q-10 51 -10 140v41q0 32 -15 63q-108 -149 -166.5 -218.5t-170.5 -227.5l-18 -29l-18 -44q-1 -2 -1 -4z" />
<glyph unicode="&#xc7;" horiz-adv-x="1656" d="M50 1015q10 133 72 302l74 156q68 118 186 218q178 134 346 151l20 8q307 -7 475 -111l30 -28q64 -14 78 -14h6l30 -14h13q47 34 87 105l27 6q62 0 112 -152l-22 -194v-69l4 -35l10 -27l-24 -174q-24 -21 -47 -21q-45 0 -94 174q-16 3 -59 103q-25 27 -59 105 q-17 0 -215 151h-15q-91 43 -186 43h-20q-55 -15 -94 -25q-47 -35 -105 -45l-44 -41q-67 -60 -99 -132q-23 -36 -32 -90q-28 -71 -28 -126q0 -10 1 -20l-7 -138q-2 -21 -2 -47q0 -78 16 -203q0 -84 11.5 -163t75.5 -220l43 -64q22 -53 37 -79q34 -26 69 -66q52 -1 99 -32 q49 -20 111 -37q44 -3 83 -3q217 0 255 68q32 3 62 21q53 27 111 111q27 0 45 111q20 0 33 20q24 0 41 -69q-16 -95 -78 -187q-44 -74 -88 -112q-58 -50 -122 -91q-103 -31 -176 -49l-46 -2q-2 -32 -2 -55q0 -51 7 -58q-1 -35 -5 -65q1 -2 1 -5q0 -9 -7 -25 q-19 -75 -67 -123l-19 -11q-20 -18 -39 -34l-2 -3q-22 -22 -49 -38q-63 -48 -87 -48q-7 0 -11 4q-3 2 -3 9q-32 -5 -68 -6q-7 7 -58 7q-25 0 -62 -2l-46 16q-37 37 -37 67q0 21 18 39q65 14 227 80q1 -1 3 -1q13 0 85 26q20 59 20 68v2q38 95 59 157l-65 4q-170 19 -255 68 q-55 36 -142 89q-84 85 -180 198q-35 67 -84 147q-28 73 -70 149l-27 92q-18 84 -36 279z" />
<glyph unicode="&#xc8;" horiz-adv-x="1767" d="M50 57v12q31 62 55 62l82 -6q57 31 116 40l20 121v34l-13 40q0 26 20 51l-7 34l7 80v103l21 131l-21 108v91l27 103q-13 24 -20 125l7 17l-7 23l34 75q-34 0 -34 11l14 34l-28 46l7 6v16q0 30 -178 40h-6l-7 -6q-37 0 -75 58v11q0 15 102 28l34 -5q58 17 171 17h348 l130 -23l28 11l6 -5h55l7 5l41 -11h7q28 0 54 17l69 -17l75 11q0 -12 34 -16q0 12 96 16v6l6 -6l117 6h34q211 0 211 -62l7 -17l-13 -46q2 -46 13 -46q-20 -29 -20 -57v-40l13 -46q-15 0 -41 -170l14 -40q0 -80 -75 -80q-48 0 -89 177l-109 143q-11 0 -68 73q-41 0 -151 74 l-68 -6q-17 45 -225 46q-171 -19 -171 -56v-12l7 -17l-7 -23v-17l7 -6l-7 -17l7 -74q-41 -23 -41 -46l6 -28q-41 -43 -41 -63v-40q14 -177 76 -177l47 -11q164 0 164 57q76 49 130 131l-7 75q19 39 48 51h62q20 -12 41 -57l-7 -6v-28l20 -91l-20 -64l13 -131h7l-13 -34v-11 l20 -23v-11q-27 -34 -27 -69v-28l34 -92l-7 -51l14 -34q0 -46 -89 -80q-43 0 -68 57l-21 17l7 23q-1 12 -41 34l7 40v12q-86 177 -246 177h-14q-50 -20 -136 -161q24 -54 47 -233q30 -14 41 -46q-13 -22 -13 -63v-28q0 -63 171 -63h68q273 0 471 165l82 115v11l-7 23l75 148 q0 32 28 46q29 0 82 -51q26 0 34 -40l-27 -92v-5l6 -24l-13 -34q0 -25 41 -119l-14 -52l7 -28q0 -65 -62 -166l-61 -5l-109 5l-34 -16l-62 5l-137 -11l-41 11l-54 -5l-96 5q-112 -5 -123 -17l-48 17l-61 -5l-62 11q-66 -17 -150 -17h-34q-23 0 -48 17h-13l-76 -11h-82 l-88 -6l-76 6v-6q-31 0 -143 45zM639 1925q0 54 190 65l26 7q92 -28 92 -79q66 -38 66 -105q72 -51 72 -151q0 -65 -66 -65v-7q-33 0 -118 112l-92 39l-138 138q0 14 -32 46z" />
<glyph unicode="&#xc9;" horiz-adv-x="1767" d="M50 57v12q31 62 55 62l82 -6q57 31 116 40l20 121v34l-13 40q0 26 20 51l-7 34l7 80v103l21 131l-21 108v91l27 103q-13 24 -20 125l7 17l-7 23l34 75q-34 0 -34 11l14 34l-28 46l7 6v16q0 30 -178 40h-6l-7 -6q-37 0 -75 58v11q0 15 102 28l34 -5q58 17 171 17h348 l130 -23l28 11l6 -5h55l7 5l41 -11h7q28 0 54 17l69 -17l75 11q0 -12 34 -16q0 12 96 16v6l6 -6l117 6h34q211 0 211 -62l7 -17l-13 -46q2 -46 13 -46q-20 -29 -20 -57v-40l13 -46q-15 0 -41 -170l14 -40q0 -80 -75 -80q-48 0 -89 177l-109 143q-11 0 -68 73q-41 0 -151 74 l-68 -6q-17 45 -225 46q-171 -19 -171 -56v-12l7 -17l-7 -23v-17l7 -6l-7 -17l7 -74q-41 -23 -41 -46l6 -28q-41 -43 -41 -63v-40q14 -177 76 -177l47 -11q164 0 164 57q76 49 130 131l-7 75q19 39 48 51h62q20 -12 41 -57l-7 -6v-28l20 -91l-20 -64l13 -131h7l-13 -34v-11 l20 -23v-11q-27 -34 -27 -69v-28l34 -92l-7 -51l14 -34q0 -46 -89 -80q-43 0 -68 57l-21 17l7 23q-1 12 -41 34l7 40v12q-86 177 -246 177h-14q-50 -20 -136 -161q24 -54 47 -233q30 -14 41 -46q-13 -22 -13 -63v-28q0 -63 171 -63h68q273 0 471 165l82 115v11l-7 23l75 148 q0 32 28 46q29 0 82 -51q26 0 34 -40l-27 -92v-5l6 -24l-13 -34q0 -25 41 -119l-14 -52l7 -28q0 -65 -62 -166l-61 -5l-109 5l-34 -16l-62 5l-137 -11l-41 11l-54 -5l-96 5q-112 -5 -123 -17l-48 17l-61 -5l-62 11q-66 -17 -150 -17h-34q-23 0 -48 17h-13l-76 -11h-82 l-88 -6l-76 6v-6q-31 0 -143 45zM639 1662q0 100 72 151q0 67 66 105q0 51 92 79l26 -7q190 -11 190 -65q-32 -32 -32 -46l-138 -138l-92 -39q-85 -112 -118 -112v7q-66 0 -66 65z" />
<glyph unicode="&#xca;" horiz-adv-x="1767" d="M50 57v12q31 62 55 62l82 -6q57 31 116 40l20 121v34l-13 40q0 26 20 51l-7 34l7 80v103l21 131l-21 108v91l27 103q-13 24 -20 125l7 17l-7 23l34 75q-34 0 -34 11l14 34l-28 46l7 6v16q0 30 -178 40h-6l-7 -6q-37 0 -75 58v11q0 15 102 28l34 -5q58 17 171 17h348 l130 -23l28 11l6 -5h55l7 5l41 -11h7q28 0 54 17l69 -17l75 11q0 -12 34 -16q0 12 96 16v6l6 -6l117 6h34q211 0 211 -62l7 -17l-13 -46q2 -46 13 -46q-20 -29 -20 -57v-40l13 -46q-15 0 -41 -170l14 -40q0 -80 -75 -80q-48 0 -89 177l-109 143q-11 0 -68 73q-41 0 -151 74 l-68 -6q-17 45 -225 46q-171 -19 -171 -56v-12l7 -17l-7 -23v-17l7 -6l-7 -17l7 -74q-41 -23 -41 -46l6 -28q-41 -43 -41 -63v-40q14 -177 76 -177l47 -11q164 0 164 57q76 49 130 131l-7 75q19 39 48 51h62q20 -12 41 -57l-7 -6v-28l20 -91l-20 -64l13 -131h7l-13 -34v-11 l20 -23v-11q-27 -34 -27 -69v-28l34 -92l-7 -51l14 -34q0 -46 -89 -80q-43 0 -68 57l-21 17l7 23q-1 12 -41 34l7 40v12q-86 177 -246 177h-14q-50 -20 -136 -161q24 -54 47 -233q30 -14 41 -46q-13 -22 -13 -63v-28q0 -63 171 -63h68q273 0 471 165l82 115v11l-7 23l75 148 q0 32 28 46q29 0 82 -51q26 0 34 -40l-27 -92v-5l6 -24l-13 -34q0 -25 41 -119l-14 -52l7 -28q0 -65 -62 -166l-61 -5l-109 5l-34 -16l-62 5l-137 -11l-41 11l-54 -5l-96 5q-112 -5 -123 -17l-48 17l-61 -5l-62 11q-66 -17 -150 -17h-34q-23 0 -48 17h-13l-76 -11h-82 l-88 -6l-76 6v-6q-31 0 -143 45zM618 1702l21 44q81 74 81 88q25 24 50 42q4 9 25 17q66 40 135 40l21 -6q27 -1 51 -3l4 1q31 0 61 -8q101 -14 101 -39q0 -3 -4 -8q26 -19 52 -44q0 -14 81 -88l21 -44q0 -88 -61 -88q-56 36 -217 104q0 6 -80 44q-64 -31 -64 -35 q-161 -69 -217 -105q-61 0 -61 88z" />
<glyph unicode="&#xcb;" horiz-adv-x="1767" d="M50 57v12q31 62 55 62l82 -6q57 31 116 40l20 121v34l-13 40q0 26 20 51l-7 34l7 80v103l21 131l-21 108v91l27 103q-13 24 -20 125l7 17l-7 23l34 75q-34 0 -34 11l14 34l-28 46l7 6v16q0 30 -178 40h-6l-7 -6q-37 0 -75 58v11q0 15 102 28l34 -5q58 17 171 17h348 l130 -23l28 11l6 -5h55l7 5l41 -11h7q28 0 54 17l69 -17l75 11q0 -12 34 -16q0 12 96 16v6l6 -6l117 6h34q211 0 211 -62l7 -17l-13 -46q2 -46 13 -46q-20 -29 -20 -57v-40l13 -46q-15 0 -41 -170l14 -40q0 -80 -75 -80q-48 0 -89 177l-109 143q-11 0 -68 73q-41 0 -151 74 l-68 -6q-17 45 -225 46q-171 -19 -171 -56v-12l7 -17l-7 -23v-17l7 -6l-7 -17l7 -74q-41 -23 -41 -46l6 -28q-41 -43 -41 -63v-40q14 -177 76 -177l47 -11q164 0 164 57q76 49 130 131l-7 75q19 39 48 51h62q20 -12 41 -57l-7 -6v-28l20 -91l-20 -64l13 -131h7l-13 -34v-11 l20 -23v-11q-27 -34 -27 -69v-28l34 -92l-7 -51l14 -34q0 -46 -89 -80q-43 0 -68 57l-21 17l7 23q-1 12 -41 34l7 40v12q-86 177 -246 177h-14q-50 -20 -136 -161q24 -54 47 -233q30 -14 41 -46q-13 -22 -13 -63v-28q0 -63 171 -63h68q273 0 471 165l82 115v11l-7 23l75 148 q0 32 28 46q29 0 82 -51q26 0 34 -40l-27 -92v-5l6 -24l-13 -34q0 -25 41 -119l-14 -52l7 -28q0 -65 -62 -166l-61 -5l-109 5l-34 -16l-62 5l-137 -11l-41 11l-54 -5l-96 5q-112 -5 -123 -17l-48 17l-61 -5l-62 11q-66 -17 -150 -17h-34q-23 0 -48 17h-13l-76 -11h-82 l-88 -6l-76 6v-6q-31 0 -143 45zM568 1761v4q10 53 40 100q0 18 112 36q60 0 60 -44q41 0 48 -80l-8 -24l4 -16q0 -25 -56 -68q-25 0 -52 -16q-78 0 -104 40q-44 55 -44 68zM1042 1761v4q10 53 40 100q0 18 112 36q60 0 60 -44q41 0 48 -80l-8 -24l4 -16q0 -25 -56 -68 q-25 0 -52 -16q-78 0 -104 40q-44 55 -44 68z" />
<glyph unicode="&#xcc;" horiz-adv-x="1026" d="M50 1445v28q0 30 143 60l104 1l146 5l194 -5l66 11l7 -6h33l7 6q21 -11 85 -11q32 0 75 3l47 -17l19 -45q-16 -71 -61 -71q-8 0 -18 2q1 -4 1 -7q0 -33 -108 -34q-40 -33 -71 -92q4 -119 4 -144q-6 -326 -6 -437l6 -16l-3 -366q0 -18 47 -94l43 -62l67 6h6q42 -16 60 -39 l10 -75q-10 -35 -83 -47l-260 6q-30 9 -91 9q-91 0 -252 -20l-54 5q-107 49 -110 61v5q20 106 94 106l6 -6h7q93 21 110 106l7 330l-23 683q-43 84 -107 84l-7 -6h-7q-119 57 -133 83zM244 1925q0 54 190 65l26 7q92 -28 92 -79q66 -38 66 -105q72 -51 72 -151 q0 -65 -66 -65v-7q-33 0 -118 112l-92 39l-138 138q0 14 -32 46z" />
<glyph unicode="&#xcd;" horiz-adv-x="1026" d="M50 1445v28q0 30 143 60l104 1l146 5l194 -5l66 11l7 -6h33l7 6q21 -11 85 -11q32 0 75 3l47 -17l19 -45q-16 -71 -61 -71q-8 0 -18 2q1 -4 1 -7q0 -33 -108 -34q-40 -33 -71 -92q4 -119 4 -144q-6 -326 -6 -437l6 -16l-3 -366q0 -18 47 -94l43 -62l67 6h6q42 -16 60 -39 l10 -75q-10 -35 -83 -47l-260 6q-30 9 -91 9q-91 0 -252 -20l-54 5q-107 49 -110 61v5q20 106 94 106l6 -6h7q93 21 110 106l7 330l-23 683q-43 84 -107 84l-7 -6h-7q-119 57 -133 83zM418 1656q0 100 72 151q0 67 66 105q0 51 92 79l26 -7q190 -11 190 -65q-32 -32 -32 -46 l-138 -138l-92 -39q-85 -112 -118 -112v7q-66 0 -66 65z" />
<glyph unicode="&#xce;" horiz-adv-x="1026" d="M50 1445v28q0 30 143 60l104 1l146 5l194 -5l66 11l7 -6h33l7 6q21 -11 85 -11q32 0 75 3l47 -17l19 -45q-16 -71 -61 -71q-8 0 -18 2q1 -4 1 -7q0 -33 -108 -34q-40 -33 -71 -92q4 -119 4 -144q-6 -326 -6 -437l6 -16l-3 -366q0 -18 47 -94l43 -62l67 6h6q42 -16 60 -39 l10 -75q-10 -35 -83 -47l-260 6q-30 9 -91 9q-91 0 -252 -20l-54 5q-107 49 -110 61v5q20 106 94 106l6 -6h7q93 21 110 106l7 330l-23 683q-43 84 -107 84l-7 -6h-7q-119 57 -133 83zM180 1702l21 44q81 74 81 88q25 24 50 42q4 9 25 17q66 40 135 40l21 -6q27 -1 51 -3 l4 1q31 0 61 -8q101 -14 101 -39q0 -3 -4 -8q26 -19 52 -44q0 -14 81 -88l21 -44q0 -88 -61 -88q-56 36 -217 104q0 6 -80 44q-64 -31 -64 -35q-161 -69 -217 -105q-61 0 -61 88z" />
<glyph unicode="&#xcf;" horiz-adv-x="1026" d="M50 1445v28q0 30 143 60l104 1l146 5l194 -5l66 11l7 -6h33l7 6q21 -11 85 -11q32 0 75 3l47 -17l19 -45q-16 -71 -61 -71q-8 0 -18 2q1 -4 1 -7q0 -33 -108 -34q-40 -33 -71 -92q4 -119 4 -144q-6 -326 -6 -437l6 -16l-3 -366q0 -18 47 -94l43 -62l67 6h6q42 -16 60 -39 l10 -75q-10 -35 -83 -47l-260 6q-30 9 -91 9q-91 0 -252 -20l-54 5q-107 49 -110 61v5q20 106 94 106l6 -6h7q93 21 110 106l7 330l-23 683q-43 84 -107 84l-7 -6h-7q-119 57 -133 83zM165 1761v4q10 53 40 100q0 18 112 36q60 0 60 -44q41 0 48 -80l-8 -24l4 -16 q0 -25 -56 -68q-25 0 -52 -16q-78 0 -104 40q-44 55 -44 68zM639 1761v4q10 53 40 100q0 18 112 36q60 0 60 -44q41 0 48 -80l-8 -24l4 -16q0 -25 -56 -68q-25 0 -52 -16q-78 0 -104 40q-44 55 -44 68z" />
<glyph unicode="&#xd0;" horiz-adv-x="2060" d="M50 930v12q0 62 165 79q139 10 139 30l121 -10v524q-30 68 -84 78q-43 25 -81 38q-80 20 -80 83v7q0 61 107 82l61 -7h100l87 -4l41 -6l40 3h27l308 -13l121 13h73q190 -20 228 -55q156 -60 268 -151q16 0 101 -109q104 -134 132 -187.5t76 -259.5l10 -75 q0 -308 -124 -563q-20 -46 -60 -116q-46 -31 -101 -103q-172 -151 -308 -171q-154 -28 -329 -48l-289 7l-140 -8l-94 -10l-27 10l-60 14l-147 -14q-74 22 -74 103q0 40 47 62l33 -7q128 12 128 48l10 27v566l-69 -8q-17 24 -43 24l-61 -6l-96 12v-6q-156 32 -156 115z M793 1455l7 -429l23 -5l35 6l156 -12v6l35 24h9q27 -24 173 -48q39 0 61 -103v-18q0 -61 -130 -61l-44 -24l-9 6h-34l-87 -12l-122 24h-8l-55 -6l7 -439v-21q-4 -26 -4 -49q0 -89 68 -129h201l114 3q26 -3 73 -3q81 20 192 121l67 115l16 52l27 117l10 59q10 55 20 111 q7 97 7 178l-10 118l-13 170q-16 187 -61 290q-42 43 -80 93q-22 10 -86.5 53t-309.5 67q-215 0 -241 -131z" />
<glyph unicode="&#xd1;" horiz-adv-x="2048" d="M50 122v13q0 46 168 73q60 0 125 185l7 30l-7 98v31q0 43 15 67l-8 67v19l-7 6l7 6v31l-14 67v6l22 252q0 43 -15 43l7 24l-7 68l7 104q-32 80 -117 80q-183 32 -183 73q0 86 154 86l58 -6l30 6l36 -6l30 6q322 -14 322 -86q0 -14 66 -86q0 -32 168 -202l103 -122 q124 -107 124 -142q38 -50 125 -122q0 -24 154 -166q0 -32 66 -42q21 29 21 79v18l-7 25q15 24 15 68v153l-22 61l22 79l-8 50l8 92q0 100 -132 190q-161 17 -161 73q0 52 117 74l286 -25l263 13q110 0 110 -74q0 -33 -205 -85q-102 -57 -102 -209l-8 -25v-67l15 -25 l-15 -37v-17l15 -19l-7 -62l7 -30l-7 -62l7 -48l-7 -37l7 -111l-7 -61l14 -166l-7 -92l7 -36q0 -16 8 -129v-61q-16 -80 -96 -80q-81 0 -190 177q-136 123 -169 185q-124 87 -124 141q-302 284 -396 423q-51 42 -102 116q-31 24 -59 24h-14l-22 -18v-12l-8 -68l8 -79v-55 q0 -32 9 -112l-17 -134l8 -48l-15 -37q50 -239 73 -239q0 -45 198 -105l51 -54q0 -71 -102 -81l-8 7h-7l-80 -7h-15l-22 19l-51 -6l-315 -6l-22 -7q-176 17 -176 98zM550 1700l19 50q98 85 98 101q22 26 35 42t31 24l102 28l72 5q34 -24 58 -51q34 -44 129 -90 q-30 18 -57 36q115 -40 176 -40q19 0 40 2q60 46 196 142l73 -44q0 -100 -54 -100q-113 -130 -308 -201q-125 57 -280 155l-87 -21q-139 -97 -189 -138q-54 0 -54 100z" />
<glyph unicode="&#xd2;" d="M50 863l24 104l12 49q66 115 80 166q44 15 95 104q110 92 177 137q27 63 256 128l241 -3q85 -11 199 -60q187 -56 311 -221q54 -105 98 -152q0 -41 41 -105q0 -18 14.5 -44.5t14.5 -71.5l-8 -55l15 -37v-42l-15 -68l15 -24l-79 -288l-138 -159q-16 0 -168 -129 q-78 -41 -261 -86l-51 7l-29 -13l-8 6h-14l-124 7v-7q-167 20 -167 55q-113 0 -226 123q-42 0 -189 214q-51 88 -80 208q-14 0 -14 37l-7 111q-6 109 -15 109zM383 814q9 -48 16 -220l3 -85q10 -24 55 -117q0 -67 153 -190l58 -43q52 -43 109 -43l22 6l66 -6q240 38 240 92 q81 38 157 172l20 61q33 106 33 141l-7 18l7 49l-7 73l7 68q-29 378 -109 417q-16 70 -94 159q-112 34 -197 79h-21l-80 -6l-22 6l-124 -43q-212 -155 -247 -257q0 -33 -29 -43l14 -177zM549 1925q0 54 190 65l26 7q92 -28 92 -79q66 -38 66 -105q72 -51 72 -151 q0 -65 -66 -65v-7q-33 0 -118 112l-92 39l-138 138q0 14 -32 46z" />
<glyph unicode="&#xd3;" d="M50 863l24 104l12 49q66 115 80 166q44 15 95 104q110 92 177 137q27 63 256 128l241 -3q85 -11 199 -60q187 -56 311 -221q54 -105 98 -152q0 -41 41 -105q0 -18 14.5 -44.5t14.5 -71.5l-8 -55l15 -37v-42l-15 -68l15 -24l-79 -288l-138 -159q-16 0 -168 -129 q-78 -41 -261 -86l-51 7l-29 -13l-8 6h-14l-124 7v-7q-167 20 -167 55q-113 0 -226 123q-42 0 -189 214q-51 88 -80 208q-14 0 -14 37l-7 111q-6 109 -15 109zM383 814q9 -48 16 -220l3 -85q10 -24 55 -117q0 -67 153 -190l58 -43q52 -43 109 -43l22 6l66 -6q240 38 240 92 q81 38 157 172l20 61q33 106 33 141l-7 18l7 49l-7 73l7 68q-29 378 -109 417q-16 70 -94 159q-112 34 -197 79h-21l-80 -6l-22 6l-124 -43q-212 -155 -247 -257q0 -33 -29 -43l14 -177zM639 1662q0 100 72 151q0 67 66 105q0 51 92 79l26 -7q190 -11 190 -65 q-32 -32 -32 -46l-138 -138l-92 -39q-85 -112 -118 -112v7q-66 0 -66 65z" />
<glyph unicode="&#xd4;" d="M50 863l24 104l12 49q66 115 80 166q44 15 95 104q110 92 177 137q27 63 256 128l241 -3q85 -11 199 -60q187 -56 311 -221q54 -105 98 -152q0 -41 41 -105q0 -18 14.5 -44.5t14.5 -71.5l-8 -55l15 -37v-42l-15 -68l15 -24l-79 -288l-138 -159q-16 0 -168 -129 q-78 -41 -261 -86l-51 7l-29 -13l-8 6h-14l-124 7v-7q-167 20 -167 55q-113 0 -226 123q-42 0 -189 214q-51 88 -80 208q-14 0 -14 37l-7 111q-6 109 -15 109zM383 814q9 -48 16 -220l3 -85q10 -24 55 -117q0 -67 153 -190l58 -43q52 -43 109 -43l22 6l66 -6q240 38 240 92 q81 38 157 172l20 61q33 106 33 141l-7 18l7 49l-7 73l7 68q-29 378 -109 417q-16 70 -94 159q-112 34 -197 79h-21l-80 -6l-22 6l-124 -43q-212 -155 -247 -257q0 -33 -29 -43l14 -177zM500 1702l21 44q81 74 81 88q25 24 50 42q4 9 25 17q66 40 135 40l21 -6q27 -1 51 -3 l4 1q31 0 61 -8q101 -14 101 -39q0 -3 -4 -8q26 -19 52 -44q0 -14 81 -88l21 -44q0 -88 -61 -88q-56 36 -217 104q0 6 -80 44q-64 -31 -64 -35q-161 -69 -217 -105q-61 0 -61 88z" />
<glyph unicode="&#xd5;" d="M50 863l24 104l12 49q66 115 80 166q44 15 95 104q110 92 177 137q27 63 256 128l241 -3q85 -11 199 -60q187 -56 311 -221q54 -105 98 -152q0 -41 41 -105q0 -18 14.5 -44.5t14.5 -71.5l-8 -55l15 -37v-42l-15 -68l15 -24l-79 -288l-138 -159q-16 0 -168 -129 q-78 -41 -261 -86l-51 7l-29 -13l-8 6h-14l-124 7v-7q-167 20 -167 55q-113 0 -226 123q-42 0 -189 214q-51 88 -80 208q-14 0 -14 37l-7 111q-6 109 -15 109zM354 1721l19 50q98 85 98 101q22 26 35 42t31 24l102 28l72 5q34 -24 58 -51q34 -44 129 -90q-30 18 -57 36 q115 -40 176 -40q19 0 40 2q60 46 196 142l73 -44q0 -100 -54 -100q-113 -130 -308 -201q-125 57 -280 155l-87 -21q-139 -97 -189 -138q-54 0 -54 100zM383 814q9 -48 16 -220l3 -85q10 -24 55 -117q0 -67 153 -190l58 -43q52 -43 109 -43l22 6l66 -6q240 38 240 92 q81 38 157 172l20 61q33 106 33 141l-7 18l7 49l-7 73l7 68q-29 378 -109 417q-16 70 -94 159q-112 34 -197 79h-21l-80 -6l-22 6l-124 -43q-212 -155 -247 -257q0 -33 -29 -43l14 -177z" />
<glyph unicode="&#xd6;" d="M50 863l24 104l12 49q66 115 80 166q44 15 95 104q110 92 177 137q27 63 256 128l241 -3q85 -11 199 -60q187 -56 311 -221q54 -105 98 -152q0 -41 41 -105q0 -18 14.5 -44.5t14.5 -71.5l-8 -55l15 -37v-42l-15 -68l15 -24l-79 -288l-138 -159q-16 0 -168 -129 q-78 -41 -261 -86l-51 7l-29 -13l-8 6h-14l-124 7v-7q-167 20 -167 55q-113 0 -226 123q-42 0 -189 214q-51 88 -80 208q-14 0 -14 37l-7 111q-6 109 -15 109zM383 814q9 -48 16 -220l3 -85q10 -24 55 -117q0 -67 153 -190l58 -43q52 -43 109 -43l22 6l66 -6q240 38 240 92 q81 38 157 172l20 61q33 106 33 141l-7 18l7 49l-7 73l7 68q-29 378 -109 417q-16 70 -94 159q-112 34 -197 79h-21l-80 -6l-22 6l-124 -43q-212 -155 -247 -257q0 -33 -29 -43l14 -177zM468 1761v4q10 53 40 100q0 18 112 36q60 0 60 -44q41 0 48 -80l-8 -24l4 -16 q0 -25 -56 -68q-25 0 -52 -16q-78 0 -104 40q-44 55 -44 68zM942 1761v4q10 53 40 100q0 18 112 36q60 0 60 -44q41 0 48 -80l-8 -24l4 -16q0 -25 -56 -68q-25 0 -52 -16q-78 0 -104 40q-44 55 -44 68z" />
<glyph unicode="&#xd7;" horiz-adv-x="909" d="M50 375q0 42 61 117q66 77 66 96q0 3 -2 5l140 118l13 12l-9 14l-24 17l-87 102l-4 -4l-35 6l-5 6q-2 31 -76 134q-7 7 -7 20q0 27 33 79l11 11q10 10 22 10q32 0 79 -67l41 -11l1 -9l21 -21l60 -45l58 -88l6 -5l43 -34l2 1l17 24l115 100l-4 4l5 35l6 5q31 2 133 74 q7 7 19 7q28 0 80 -35l11 -11q11 -11 11 -23q0 -32 -66 -78l-11 -40l-8 -1l-21 -21l-44 -59l-101 -71l-6 -6l-22 -28l4 -7l120 -98q-1 -5 -1 -9q0 -18 13 -31l40 -34l51 -65l3 4q57 -63 57 -107q0 -24 -18 -42l-8 -8q-11 -11 -28 -11q-41 0 -119 63q-79 67 -97 67 q-3 0 -4 -1l-135 156l-1 1l-15 -10l-82 -105q-6 1 -11 1q-18 0 -30 -12l-33 -40l-64 -49l4 -4q-62 -55 -105 -55q-25 0 -44 19l-7 7q-12 12 -12 30z" />
<glyph unicode="&#xd8;" d="M50 961l24 113l12 53q66 124 80 180q44 15 95 112q110 100 177 148q27 69 256 139l241 -4q85 -11 199 -64q41 -13 78 -32l29 24q94 134 147 159q11 5 21 5q6 0 12 -2l15 -8q9 -11 17 -21q23 -33 23 -62q0 -23 -15 -44q-58 -102 -91 -167q40 -41 75 -91q54 -114 98 -165 q0 -44 41 -113q0 -20 14.5 -49t14.5 -77l-8 -60l15 -39v-47l-15 -73l15 -26l-79 -312l-138 -172q-16 0 -168 -140q-78 -43 -261 -93l-51 8l-29 -14l-8 6h-14l-124 8v-8q-167 22 -167 61q-74 0 -147 56q-106 -132 -161 -158q-13 -7 -23 -7q-7 0 -12 3l-10 5q-10 3 -16 12 q-9 13 -9 35q0 67 84 222l5 -3l7 11q-50 57 -133 188q-51 95 -80 225q-14 0 -14 40l-7 120q-6 118 -15 118zM383 908q9 -52 16 -238l3 -92q8 -21 40 -94l2 2q23 34 23 64v7l171 217l21 40h4q14 6 72 80l74 146l124 156l8 13l102 184l79 99q-5 7 -10 13q-112 38 -197 86h-21 l-80 -6l-22 6l-124 -46q-212 -168 -247 -278q0 -36 -29 -47l14 -192zM552 300q26 -26 58 -54l58 -47q52 -46 109 -46l22 6l66 -6q240 41 240 99q81 41 157 186l20 67q33 114 33 152l-7 20l7 53l-7 79l7 73q-23 328 -79 420l-122 -192l-39 -48l-43 -78l-8 -13l-14 -11 l-90 -139l-87 -124l-201 -317q-2 0 -4 -1q-18 -8 -76 -79z" />
<glyph unicode="&#xd9;" horiz-adv-x="1986" d="M50 1455q0 78 86 78h129l108 -6l86 18l93 -12h29l7 6l7 -6h14l151 -6l79 6q100 -10 100 -84q0 -43 -179 -72q-58 -50 -86 -96l7 -29l-7 -96v-36l14 -48l-14 -48v-198l4 -78l-4 -71v-24l7 -30l-7 -36v-24l21 -66l-7 -30q0 -222 258 -305q127 -36 294 -36q301 110 301 252 q19 0 29 137l-14 101l7 138l-7 30l14 49q-21 35 -21 125v18l7 66l-15 36l8 29q-8 72 -22 72l7 60v36q-41 45 -115 91l-64 30l-7 -7q-72 27 -72 72q14 72 158 72l36 12q19 -12 93 -18q16 12 136 18l22 -6l107 12l43 -18l22 6q0 -12 21 -12l22 -30q0 -63 -151 -137l-79 -90 v-18l7 -24l-21 -66l14 -66l-7 -36l22 -72v-6l-15 -60l7 -30l-7 -48l7 -30l-7 -60v-6l7 -5l-7 -6v-19l7 -89l-14 -174h7l-7 -6v-30l7 -6q0 -24 -71 -156q0 -29 -108 -125q-81 -54 -165 -66q-108 -66 -265 -66q-32 12 -93 12h-22l-64 -6q-352 86 -352 156q-105 48 -143 137 q-36 94 -43 198l-7 210l14 132l-7 35l7 31l-7 23l7 36l-29 132l7 24l-14 59l7 115q-29 72 -129 72q-179 31 -179 89zM799 1925q0 54 190 65l26 7q92 -28 92 -79q66 -38 66 -105q72 -51 72 -151q0 -65 -66 -65v-7q-33 0 -118 112l-92 39l-138 138q0 14 -32 46z" />
<glyph unicode="&#xda;" horiz-adv-x="1986" d="M50 1455q0 78 86 78h129l108 -6l86 18l93 -12h29l7 6l7 -6h14l151 -6l79 6q100 -10 100 -84q0 -43 -179 -72q-58 -50 -86 -96l7 -29l-7 -96v-36l14 -48l-14 -48v-198l4 -78l-4 -71v-24l7 -30l-7 -36v-24l21 -66l-7 -30q0 -222 258 -305q127 -36 294 -36q301 110 301 252 q19 0 29 137l-14 101l7 138l-7 30l14 49q-21 35 -21 125v18l7 66l-15 36l8 29q-8 72 -22 72l7 60v36q-41 45 -115 91l-64 30l-7 -7q-72 27 -72 72q14 72 158 72l36 12q19 -12 93 -18q16 12 136 18l22 -6l107 12l43 -18l22 6q0 -12 21 -12l22 -30q0 -63 -151 -137l-79 -90 v-18l7 -24l-21 -66l14 -66l-7 -36l22 -72v-6l-15 -60l7 -30l-7 -48l7 -30l-7 -60v-6l7 -5l-7 -6v-19l7 -89l-14 -174h7l-7 -6v-30l7 -6q0 -24 -71 -156q0 -29 -108 -125q-81 -54 -165 -66q-108 -66 -265 -66q-32 12 -93 12h-22l-64 -6q-352 86 -352 156q-105 48 -143 137 q-36 94 -43 198l-7 210l14 132l-7 35l7 31l-7 23l7 36l-29 132l7 24l-14 59l7 115q-29 72 -129 72q-179 31 -179 89zM889 1662q0 100 72 151q0 67 66 105q0 51 92 79l26 -7q190 -11 190 -65q-32 -32 -32 -46l-138 -138l-92 -39q-85 -112 -118 -112v7q-66 0 -66 65z" />
<glyph unicode="&#xdb;" horiz-adv-x="1986" d="M50 1455q0 78 86 78h129l108 -6l86 18l93 -12h29l7 6l7 -6h14l151 -6l79 6q100 -10 100 -84q0 -43 -179 -72q-58 -50 -86 -96l7 -29l-7 -96v-36l14 -48l-14 -48v-198l4 -78l-4 -71v-24l7 -30l-7 -36v-24l21 -66l-7 -30q0 -222 258 -305q127 -36 294 -36q301 110 301 252 q19 0 29 137l-14 101l7 138l-7 30l14 49q-21 35 -21 125v18l7 66l-15 36l8 29q-8 72 -22 72l7 60v36q-41 45 -115 91l-64 30l-7 -7q-72 27 -72 72q14 72 158 72l36 12q19 -12 93 -18q16 12 136 18l22 -6l107 12l43 -18l22 6q0 -12 21 -12l22 -30q0 -63 -151 -137l-79 -90 v-18l7 -24l-21 -66l14 -66l-7 -36l22 -72v-6l-15 -60l7 -30l-7 -48l7 -30l-7 -60v-6l7 -5l-7 -6v-19l7 -89l-14 -174h7l-7 -6v-30l7 -6q0 -24 -71 -156q0 -29 -108 -125q-81 -54 -165 -66q-108 -66 -265 -66q-32 12 -93 12h-22l-64 -6q-352 86 -352 156q-105 48 -143 137 q-36 94 -43 198l-7 210l14 132l-7 35l7 31l-7 23l7 36l-29 132l7 24l-14 59l7 115q-29 72 -129 72q-179 31 -179 89zM730 1702l21 44q81 74 81 88q25 24 50 42q4 9 25 17q66 40 135 40l21 -6q27 -1 51 -3l4 1q31 0 61 -8q101 -14 101 -39q0 -3 -4 -8q26 -19 52 -44 q0 -14 81 -88l21 -44q0 -88 -61 -88q-56 36 -217 104q0 6 -80 44q-64 -31 -64 -35q-161 -69 -217 -105q-61 0 -61 88z" />
<glyph unicode="&#xdc;" horiz-adv-x="1986" d="M50 1455q0 78 86 78h129l108 -6l86 18l93 -12h29l7 6l7 -6h14l151 -6l79 6q100 -10 100 -84q0 -43 -179 -72q-58 -50 -86 -96l7 -29l-7 -96v-36l14 -48l-14 -48v-198l4 -78l-4 -71v-24l7 -30l-7 -36v-24l21 -66l-7 -30q0 -222 258 -305q127 -36 294 -36q301 110 301 252 q19 0 29 137l-14 101l7 138l-7 30l14 49q-21 35 -21 125v18l7 66l-15 36l8 29q-8 72 -22 72l7 60v36q-41 45 -115 91l-64 30l-7 -7q-72 27 -72 72q14 72 158 72l36 12q19 -12 93 -18q16 12 136 18l22 -6l107 12l43 -18l22 6q0 -12 21 -12l22 -30q0 -63 -151 -137l-79 -90 v-18l7 -24l-21 -66l14 -66l-7 -36l22 -72v-6l-15 -60l7 -30l-7 -48l7 -30l-7 -60v-6l7 -5l-7 -6v-19l7 -89l-14 -174h7l-7 -6v-30l7 -6q0 -24 -71 -156q0 -29 -108 -125q-81 -54 -165 -66q-108 -66 -265 -66q-32 12 -93 12h-22l-64 -6q-352 86 -352 156q-105 48 -143 137 q-36 94 -43 198l-7 210l14 132l-7 35l7 31l-7 23l7 36l-29 132l7 24l-14 59l7 115q-29 72 -129 72q-179 31 -179 89zM705 1746v4q10 53 40 100q0 18 112 36q60 0 60 -44q41 0 48 -80l-8 -24l4 -16q0 -25 -56 -68q-25 0 -52 -16q-78 0 -104 40q-44 55 -44 68zM1179 1746v4 q10 53 40 100q0 18 112 36q60 0 60 -44q41 0 48 -80l-8 -24l4 -16q0 -25 -56 -68q-25 0 -52 -16q-78 0 -104 40q-44 55 -44 68z" />
<glyph unicode="&#xdd;" horiz-adv-x="1744" d="M50 1426q0 82 64 112l143 6l84 -18l97 6l52 -6l162 18q156 -11 156 -43v-19q0 -83 -137 -112q-19 -16 -19 -37q11 -72 77 -156q22 -130 85 -168q11 0 45 -81q16 0 32 -50l33 -18h32q98 76 194 298q78 84 78 200q-18 18 -104 31l-64 75v6q0 62 71 62l71 -6l78 12h45 q32 0 32 13l136 -19l84 19q117 -13 117 -94q0 -37 -181 -99q-188 -133 -188 -194q0 -32 -71 -93q0 -42 -78 -137q0 -27 -52 -69q0 -35 -116 -211l-6 -44q4 -37 13 -37l-7 -31v-100l7 -6l-13 -50l13 -44l-13 -62q40 -162 142 -162l84 7q58 0 78 -63q0 -33 -65 -62l-26 13 l-26 -13l-33 6h-25l-26 -6l-45 13l-104 -13l-52 6l-6 -6h-7l-83 13l-26 -13l-7 6h-78l-64 7l-58 -7l-40 12l-39 -12q-45 14 -45 50q0 58 117 81l45 -6q129 39 129 93l7 31l-7 44l7 18l-7 88v62l-13 38l13 93q-63 118 -90 143l-19 37v7l-20 37q-62 59 -104 175 q-61 50 -109 187q-136 159 -136 180l-26 -6q-152 0 -182 68h-6zM757 1683l21 54q81 92 81 109q103 122 210 122l21 -7q217 -16 217 -61q0 -23 -109 -95q-163 -92 -163 -102q-161 -85 -217 -129q-61 0 -61 109z" />
<glyph unicode="&#xde;" horiz-adv-x="1363" d="M50 1765q26 42 42 42l21 -4h5l125 15l22 -5l36 5q20 -11 58 -11h11l5 6q0 -10 36 -15h5q59 26 189 26l89 -26l25 5l27 -33v-10l-43 -48l-78 5h-33q-68 0 -68 -26l15 -48l-5 -37l5 -16q-20 -47 -31 -106v-37l4 -16h304q19 -10 73 -15l16 5q209 0 340 -149q0 -15 41 -48 q13 -69 27 -86l-11 -63l11 -47l-11 -54l6 -27q0 -75 -79 -132q-39 -81 -62 -81q-232 -74 -278 -74l-89 -16h-9l-53 11l-42 -11l-27 16h-15q-90 0 -120 -74l5 -43l-11 -42l17 -74v-2l-11 -37v-37q11 -59 31 -106l-5 -16l5 -37l-15 -48q0 -26 68 -26h15l79 5l42 -48v-10 l-27 -33l-25 5l-89 -26q-129 0 -189 26h-5q-36 -5 -36 -15l-5 6h-11q-38 0 -58 -11l-36 5l-22 -5l-125 15h-5l-21 -4q-16 0 -42 42q9 25 63 58l41 -5q100 37 100 69l-11 64v21l5 86l-5 15q10 21 15 49q7 32 7 74q-27 13 -27 42v6l16 52l-16 43l10 32l-10 112l16 69v21 l-16 96l16 96q-20 54 -32 133l11 90q0 25 17 117q-5 26 -15 47l5 15l-5 86v21l11 64q0 32 -100 69l-41 -5q-54 33 -63 58zM502 1037l11 -68l-5 -54v-5q16 -20 16 -43h4l-9 -42q0 -27 9 -27l-4 -5v-16q27 -53 125 -53h11l209 43l68 37l36 48v21l-15 42q0 13 46 65v31l-5 59 l5 26l-15 32l4 43q-31 55 -31 96q-32 35 -167 63q-4 16 -31 16l-6 -5l-4 5h-11l-26 -5l-21 5l-131 -5q-38 0 -57 -48q26 -41 26 -69q-32 -61 -32 -117l6 -32z" />
<glyph unicode="&#xdf;" horiz-adv-x="1086" d="M50 -356q27 110 37 187t11 177q-4 54 -5 131v13q0 41 5 88q2 363 2 630q0 695 -11 733q47 247 568 247l22 -10q51 0 140.5 -46t124.5 -120.5t58 -183.5v-89q0 -33 -44 -165q0 -51 -63 -103l-36 -62q-30 -45 -41 -96v-21q0 -16 24.5 -32.5t57.5 -49t116 -165.5 q20 -96 20 -206q0 -95 -39 -208.5t-104.5 -177t-141.5 -88.5l-108 -20l-105 -52l-87 77l39 85l97 57q103 27 148 97q31 76 45 160q8 53 8 96q0 44 -8 79q0 110 -100 264q-65 61 -135 81l-19 56l21 56q119 24 179 177v42l13 118v42q-43 244 -82 244q-51 70 -155 70 q-102 0 -118 -106q-12 -127 -12 -245q0 -115 12 -221q-6 -90 -6 -154v-18q0 -77 -11 -139q7 -28 7 -58q-9 -146 -9 -283q0 -98 5 -191l4 -119q5 -10 5 -38q0 -25 -4 -64l-6 -55l6 -61l-21 -133l-14 -106l-109 -161l-88 -55l-86 13z" />
<glyph unicode="&#xe0;" horiz-adv-x="1444" d="M50 336q0 213 224 353q87 41 123 41l61 -7q40 5 40 14q31 0 48 -41q0 -19 -156 -109v-13l7 -61q-41 -53 -41 -123v-40q90 -197 176 -197q41 5 41 13l7 -6h20q34 0 177 129q47 83 47 149q-20 57 -20 217q-31 54 -143 54l-40 7v-7l-21 21h-7q0 41 89 41q142 38 142 135v27 l-7 7l7 21q0 154 -136 183l-47 20h-68q-83 0 -95 -122q-18 -177 -61 -190q0 -14 -68 -20q-190 11 -190 68q-34 40 -34 95q0 169 367 224l54 27l34 -7l170 20q33 -16 210 -40l176 -191l-13 -88l13 -129l-6 -88q20 -48 20 -109l-14 -33l7 -48l-7 -81q17 -143 48 -143l20 -7 q43 136 75 136l20 7q75 -14 75 -48l-7 -61l21 -27l-7 -47l13 -41v-7q-20 -16 -61 -143l-129 -33q0 -12 -88 -21l-13 -13l-102 34q-106 115 -163 115q-61 -25 -183 -115q-57 0 -89 -48l-278 61h-47q-24 0 -136 136zM277 1781q0 45 217 61l21 7q107 0 210 -122q0 -17 81 -109 l21 -54q0 -109 -61 -109q-56 44 -217 129q0 10 -163 102q-109 72 -109 95z" />
<glyph unicode="&#xe1;" horiz-adv-x="1314" d="M50 427q29 167 128 227q0 16 89 41q72 48 224 68q191 3 257 42l35 83l-8 6v7l14 55q-21 152 -41 152q-76 75 -192 75h-14q-62 -37 -62 -55l7 -220q-12 -40 -69 -110h-28l-95 -14q-165 100 -165 186v55l-7 7q17 51 68 116q0 61 310 131l131 14q99 0 143 -18.5t145 -64.5 q121 -117 121 -205q-15 -136 -15 -272q0 -112 10 -223l-13 -125v-75l18 -73q37 -64 64 -78h22q27 0 68 185l7 7h6q22 0 56 -60q-6 -120 -8 -166q-7 -105 -151 -131h-130q-126 0 -178 117l-28 20h-35q-76 -30 -121 -65.5t-249 -65.5q-189 48 -214 97q-80 88 -96 213zM360 355 q10 -80 46 -148q32 -33 64 -51h22q111 17 236 139q42 111 58 111l-7 110v133q0 52 -44 88q-171 -27 -202 -70l-39 -45l-54 -40l-37 -51q-19 -32 -43 -176zM399 1620l21 54q81 92 81 109q103 122 210 122l21 -7q217 -16 217 -61q0 -23 -109 -95q-163 -92 -163 -102 q-161 -85 -217 -129q-61 0 -61 109z" />
<glyph unicode="&#xe2;" horiz-adv-x="1314" d="M50 427q29 167 128 227q0 16 89 41q72 48 224 68q191 3 257 42l35 83l-8 6v7l14 55q-21 152 -41 152q-76 75 -192 75h-14q-62 -37 -62 -55l7 -220q-12 -40 -69 -110h-28l-95 -14q-165 100 -165 186v55l-7 7q17 51 68 116q0 61 310 131l131 14q99 0 143 -18.5t145 -64.5 q121 -117 121 -205q-15 -136 -15 -272q0 -112 10 -223l-13 -125v-75l18 -73q37 -64 64 -78h22q27 0 68 185l7 7h6q22 0 56 -60q-6 -120 -8 -166q-7 -105 -151 -131h-130q-126 0 -178 117l-28 20h-35q-76 -30 -121 -65.5t-249 -65.5q-189 48 -214 97q-80 88 -96 213zM310 355 q10 -80 46 -148q32 -33 64 -51h22q111 17 236 139q42 111 58 111l-7 110v133q0 52 -44 88q-171 -27 -202 -70l-39 -45l-54 -40l-37 -51q-19 -32 -43 -176zM310 1635l21 54q81 92 81 109q25 29 50 51q4 12 25 21q66 50 135 50l21 -7q27 -2 51 -4l4 1q31 0 61 -10 q101 -17 101 -48q0 -4 -4 -10q26 -23 52 -54q0 -17 81 -109l21 -54q0 -109 -61 -109q-56 44 -217 129q0 7 -80 54q-64 -38 -64 -44q-161 -85 -217 -129q-61 0 -61 109z" />
<glyph unicode="&#xe3;" horiz-adv-x="1444" d="M50 330q0 213 224 353q87 41 123 41l61 -7q40 5 40 14q31 0 48 -41q0 -19 -156 -109v-13l7 -61q-41 -53 -41 -123v-40q90 -197 176 -197q41 5 41 13l7 -6h20q34 0 177 129q47 83 47 149q-20 57 -20 217q-22 38 -132 38q-48 0 -111 -7q-14 18 -14 33q0 44 135 52 q142 38 142 135v27l-7 7l7 21q0 154 -136 183l-47 20h-68q-83 0 -95 -122q-18 -177 -61 -190q0 -14 -68 -20q-190 11 -190 68q-34 40 -34 95q0 169 367 224l54 27l34 -7l170 20q33 -16 210 -40l176 -191l-13 -88l13 -129l-6 -88q20 -48 20 -109l-14 -33l7 -48l-7 -81 q17 -143 48 -143l20 -7q43 136 75 136l20 7q75 -14 75 -48l-7 -61l21 -27l-7 -47l13 -41v-7q-20 -16 -61 -143l-129 -33q0 -12 -88 -21l-13 -13l-102 34q-106 115 -163 115q-61 -25 -183 -115q-57 0 -89 -48l-278 61h-47q-24 0 -136 136zM170 1546l19 50q98 85 98 101 q22 26 35 42t31 24l102 28l72 5q34 -24 58 -51q34 -44 129 -90q-30 18 -57 36q115 -40 176 -40q19 0 40 2q60 46 196 142l73 -44q0 -100 -54 -100q-113 -130 -308 -201q-125 57 -280 155l-87 -21q-139 -97 -189 -138q-54 0 -54 100z" />
<glyph unicode="&#xe4;" horiz-adv-x="1444" d="M50 330q0 213 224 353q87 41 123 41l61 -7q40 5 40 14q31 0 48 -41q0 -19 -156 -109v-13l7 -61q-41 -53 -41 -123v-40q90 -197 176 -197q41 5 41 13l7 -6h20q34 0 177 129q47 83 47 149q-20 57 -20 217q-22 38 -132 38q-48 0 -111 -7q-14 18 -14 33q0 44 135 52 q142 38 142 135v27l-7 7l7 21q0 154 -136 183l-47 20h-68q-83 0 -95 -122q-18 -177 -61 -190q0 -14 -68 -20q-190 11 -190 68q-34 40 -34 95q0 169 367 224l54 27l34 -7l170 20q33 -16 210 -40l176 -191l-13 -88l13 -129l-6 -88q20 -48 20 -109l-14 -33l7 -48l-7 -81 q17 -143 48 -143l20 -7q43 136 75 136l20 7q75 -14 75 -48l-7 -61l21 -27l-7 -47l13 -41v-7q-20 -16 -61 -143l-129 -33q0 -12 -88 -21l-13 -13l-102 34q-106 115 -163 115q-61 -25 -183 -115q-57 0 -89 -48l-278 61h-47q-24 0 -136 136zM325 1533v4q10 53 40 100 q0 18 112 36q60 0 60 -44q41 0 48 -80l-8 -24l4 -16q0 -25 -56 -68q-25 0 -52 -16q-78 0 -104 40q-44 55 -44 68zM799 1533v4q10 53 40 100q0 18 112 36q60 0 60 -44q41 0 48 -80l-8 -24l4 -16q0 -25 -56 -68q-25 0 -52 -16q-78 0 -104 40q-44 55 -44 68z" />
<glyph unicode="&#xe5;" horiz-adv-x="1314" d="M50 427q29 167 128 227q0 16 89 41q72 48 224 68q191 3 257 42l35 83l-8 6v7l14 55q-21 152 -41 152q-76 75 -192 75h-14q-62 -37 -62 -55l7 -220q-12 -40 -69 -110h-28l-95 -14q-165 100 -165 186v55l-7 7q17 51 68 116q0 61 310 131l131 14q99 0 143 -18.5t145 -64.5 q121 -117 121 -205q-15 -136 -15 -272q0 -112 10 -223l-13 -125v-75l18 -73q37 -64 64 -78h22q27 0 68 185l7 7h6q22 0 56 -60q-6 -120 -8 -166q-7 -105 -151 -131h-130q-126 0 -178 117l-28 20h-35q-76 -30 -121 -65.5t-249 -65.5q-189 48 -214 97q-80 88 -96 213zM360 355 q10 -80 46 -148q32 -33 64 -51h22q111 17 236 139q42 111 58 111l-7 110v133q0 52 -44 88q-171 -27 -202 -70l-39 -45l-54 -40l-37 -51q-19 -32 -43 -176zM374 1604l9 24q-2 14 -6 14l19 52q10 0 13 18l45 48l60 32q9 0 41 23l83 14q11 -7 57 -12q43 -13 123 -72 q24 -42 36 -51q0 -30 25 -50v-48l3 -10q-19 -35 -19 -52q-16 -30 -57 -71q0 -9 -32 -23q-40 -41 -86 -41q0 -5 -47 -14h-13q-64 7 -108 23l-41 21l16 4l4 7h-4q-48 2 -102 80l-12 48q-7 13 -7 36zM474 1584l6 -22l-3 -8l22 -68q50 -37 69 -37q0 -6 31 -12h16q38 0 38 5l4 -2 h19q18 5 21 41q8 0 70 44v11l-4 9l6 23v4h-2l2 12v16l3 26l-3 6l-13 91q-50 56 -106 56q0 3 -32 4h-10q-39 -19 -89 -43q-26 -3 -26 -16l3 -9q-19 -23 -19 -35v-7l3 -29l-3 -7l3 -25v-2z" />
<glyph unicode="&#xe6;" horiz-adv-x="1852" d="M50 436q29 167 128 227q0 16 89 41q72 48 224 68q191 3 257 42q37 70 41 151q-21 152 -41 152q-76 75 -192 75h-14q-62 -37 -62 -55l7 -220q-12 -40 -69 -110h-28l-95 -14q-165 100 -165 186v55q0 58 61 123q0 61 310 131l131 14q99 0 143 -18.5t145 -64.5q27 -27 49 -52 q40 31 95 66l103 43l86 17l100 7l83 -26q76 -34 173 -101q77 -84 120 -166q44 -89 73 -233q-12 -76 -27 -88q-9 -7 -27 -7q-15 0 -37 5q-12 2 -38 2q-79 0 -290 -23q-333 -19 -353 -62q2 -41 6 -82l-7 -66l15 -124v-14q46 -132 133 -166l66 -20l40 -3l80 -4q107 27 186 107 l87 120q19 48 26 119q47 80 80 80q53 -45 53 -97v-9l-6 -54q-2 -47 -34 -93q-20 -37 -70 -126q-43 -75 -155 -133l-95 -33l-105 -7h-100q-51 8 -97 8q-14 0 -28 -1l-85 15l-89 42l-62 55q-50 18 -60 83l-40 -58h-35q-76 -30 -121 -65.5t-249 -65.5q-189 48 -214 97 q-80 88 -96 213zM360 364q10 -80 46 -148q32 -33 64 -51h22q111 17 236 139q42 111 58 111l-7 110v58q-1 25 -1 52l1 11v12q0 52 -44 88q-171 -27 -202 -70l-39 -45l-54 -40l-37 -51q-19 -32 -43 -176zM1037 874q0 -60 93 -73h20q47 0 106 6l173 17q74 14 74 43l6 120 q0 98 -126 166l-60 14l-50 -8l-63 -9l-53 -30q-113 -53 -113 -173l-7 -53v-20z" />
<glyph unicode="&#xe7;" horiz-adv-x="1174" d="M50 568v183q11 89 100 274l111 141q180 129 408 136q184 0 231 -55q85 -20 176 -152q39 -45 48 -85v-102q-41 -93 -41 -163q-37 -109 -115 -109h-48q-96 0 -204 143l-3 57q34 143 125 201l28 48v27l-82 41q-32 11 -68 11q-24 0 -50 -5q-147 -20 -181 -95 q-82 -56 -82 -170q-11 -73 -11 -150q0 -66 8 -135q17 -153 44 -265q21 -45 71 -119q38 -35 86 -51h34q177 0 237 115q89 77 89 184q46 34 68 34h41q54 0 54 -75v-34q0 -77 -61 -177q-40 -43 -109 -115q-31 -40 -113 -82q-26 -8 -83 -13q24 -61 33 -67q11 -27 17 -51 q5 -6 5 -19v-4q2 -16 2 -30q0 -40 -18 -69l-13 -9q-11 -15 -21 -27l-1 -3q-12 -18 -30 -30q-38 -40 -59 -40q-6 0 -10 3q-3 2 -6 7q-25 -5 -56 -6q-6 5 -39 5q-25 0 -65 -3l-44 12q-56 37 -56 66q0 9 5 17q50 12 167 66h2q10 0 65 22q-3 53 -7 56q1 28 1 52q0 25 -1 45 q-27 -1 -57 -1q-176 35 -236 96q-98 59 -167 166q-64 94 -99 187z" />
<glyph unicode="&#xe8;" horiz-adv-x="1229" d="M50 699q0 28 59 112q0 38 145 276l124 118q49 0 145 52l19 -6l158 33h20q34 0 249 -112q59 -59 72 -118q79 -58 79 -138l26 -66q29 0 33 -111q0 -58 -111 -72v-7l-7 7h-20l-26 -7l-59 13l-85 -13l-27 7l-98 -14l-92 7l-66 -20l-151 7q-46 -11 -46 -72l13 -27l-6 -6v-33 l33 -112l-20 -59q0 -154 197 -190l7 -7h6q206 0 302 145q31 0 59 151l79 105l39 6h20q46 -59 46 -98q-3 -95 -236 -341q-85 -59 -105 -59q0 -14 -73 -14q-34 -26 -72 -26h-6l-20 13l-13 -26h-7q-245 48 -354 158q-60 48 -112 151q-42 0 -65 183q-16 0 -27 99l7 26zM372 1855 q0 54 190 65l26 7q92 -28 92 -79q66 -38 66 -105q72 -51 72 -151q0 -65 -66 -65v-7q-33 0 -118 112l-92 39l-138 138q0 14 -32 46zM411 909q0 -63 59 -72l46 7l190 -20h79q54 0 99 112q-12 11 -20 79l-7 39l-72 79l-111 13h-40q-29 0 -170 -79z" />
<glyph unicode="&#xe9;" horiz-adv-x="1204" d="M50 668l13 26l-6 40l73 187q0 28 73 126q0 56 200 186l166 53l33 7q57 0 206 -53q43 0 140 -67q73 -120 120 -166q44 -89 86 -253q-45 -93 -66 -93l-34 20h-13q-100 -2 -100 -13l-33 6h-7l-186 -13l-73 7q-253 -24 -273 -67v-46l7 -7l-13 -40v-13l20 -166v-14 q46 -132 133 -166l39 -13v6l27 -13l40 7l80 -14q63 4 186 107l87 120q19 48 26 119q47 80 80 80q60 -47 60 -73q-15 0 -20 -33l7 -54q-2 -47 -54 -93q0 -37 -80 -133q0 -75 -159 -119l-47 -47h-13l-47 7l-59 -7h-100q-116 17 -226 73q-62 0 -140 127q-27 0 -47 79 q-99 124 -99 360zM372 1592q0 100 72 151q0 67 66 105q0 51 92 79l26 -7q190 -11 190 -65q-32 -32 -32 -46l-138 -138l-92 -39q-85 -112 -118 -112v7q-66 0 -66 65zM376 874q0 -60 93 -73h20q47 0 73 13l33 -7l100 7h7l6 7l7 -7h53q74 24 74 53l6 120q0 98 -126 166l-60 14 l-40 -14l-73 7h-33q-133 -93 -133 -213l-7 -53v-20z" />
<glyph unicode="&#xea;" horiz-adv-x="1229" d="M50 699q0 28 59 112q0 38 145 276l124 118q49 0 145 52l19 -6l158 33h20q34 0 249 -112q59 -59 72 -118q79 -58 79 -138l26 -66q29 0 33 -111q0 -58 -111 -72v-7l-7 7h-20l-26 -7l-59 13l-85 -13l-27 7l-98 -14l-92 7l-66 -20l-151 7q-46 -11 -46 -72l13 -27l-6 -6v-33 l33 -112l-20 -59q0 -154 197 -190l7 -7h6q206 0 302 145q31 0 59 151l79 105l39 6h20q46 -59 46 -98q-3 -95 -236 -341q-85 -59 -105 -59q0 -14 -73 -14q-34 -26 -72 -26h-6l-20 13l-13 -26h-7q-245 48 -354 158q-60 48 -112 151q-42 0 -65 183q-16 0 -27 99l7 26zM286 1555 l21 54q81 92 81 109q25 29 50 51q4 12 25 21q66 50 135 50l21 -7q27 -2 51 -4l4 1q31 0 61 -10q101 -17 101 -48q0 -4 -4 -10q26 -23 52 -54q0 -17 81 -109l21 -54q0 -109 -61 -109q-56 44 -217 129q0 7 -80 54q-64 -38 -64 -44q-161 -85 -217 -129q-61 0 -61 109zM411 909 q0 -63 59 -72l46 7l190 -20h79q54 0 99 112q-12 11 -20 79l-7 39l-72 79l-111 13h-40q-29 0 -170 -79z" />
<glyph unicode="&#xeb;" horiz-adv-x="1229" d="M50 699q0 28 59 112q0 38 145 276l124 118q49 0 145 52l19 -6l158 33h20q34 0 249 -112q59 -59 72 -118q79 -58 79 -138l26 -66q29 0 33 -111q0 -58 -111 -72v-7l-7 7h-20l-26 -7l-59 13l-85 -13l-27 7l-98 -14l-92 7l-66 -20l-151 7q-46 -11 -46 -72l13 -27l-6 -6v-33 l33 -112l-20 -59q0 -154 197 -190l7 -7h6q206 0 302 145q31 0 59 151l79 105l39 6h20q46 -59 46 -98q-3 -95 -236 -341q-85 -59 -105 -59q0 -14 -73 -14q-34 -26 -72 -26h-6l-20 13l-13 -26h-7q-245 48 -354 158q-60 48 -112 151q-42 0 -65 183q-16 0 -27 99l7 26zM302 1532 v4q10 53 40 100q0 18 112 36q60 0 60 -44q41 0 48 -80l-8 -24l4 -16q0 -25 -56 -68q-25 0 -52 -16q-78 0 -104 40q-44 55 -44 68zM411 909q0 -63 59 -72l46 7l190 -20h79q54 0 99 112q-12 11 -20 79l-7 39l-72 79l-111 13h-40q-29 0 -170 -79zM776 1532v4q10 53 40 100 q0 18 112 36q60 0 60 -44q41 0 48 -80l-8 -24l4 -16q0 -25 -56 -68q-25 0 -52 -16q-78 0 -104 40q-44 55 -44 68z" />
<glyph unicode="&#xec;" horiz-adv-x="840" d="M50 1189q0 81 190 81l61 7l34 -7q61 4 61 14l7 -7h68l7 7q45 0 95 -95v-21l-21 -54l14 -68l-7 -102l21 -136l-28 -61l28 -115l-14 -55q14 -156 27 -156l-13 -142q30 -116 115 -116q95 -25 95 -75v-6q-9 -61 -61 -61l-7 6h-7l-47 -6l-41 6l-61 -13l-34 7h-13v-7l-68 7 h-116l-13 -14q-252 0 -252 68v13q35 45 95 62l75 -7h7q61 0 61 74l-7 55l7 34l-7 122l7 34l-27 183q27 61 27 95l-7 7v7l7 27l-20 61l13 109q-13 176 -54 176l-27 -6l-48 27q-54 -11 -54 -21q-32 0 -68 62zM76 1859q0 54 190 65l26 7q92 -28 92 -79q66 -38 66 -105 q72 -51 72 -151q0 -65 -66 -65v-7q-33 0 -118 112l-92 39l-138 138q0 14 -32 46z" />
<glyph unicode="&#xed;" horiz-adv-x="840" d="M50 1176q0 81 190 81l61 7l34 -7q61 4 61 14l7 -7h68l7 7q45 0 95 -95v-21l-21 -54l14 -68l-7 -102l21 -136l-28 -61l28 -115l-14 -55q14 -156 27 -156l-13 -142q30 -116 115 -116q95 -25 95 -75v-6q-9 -61 -61 -61l-7 6h-7l-47 -6l-41 6l-61 -13l-34 7h-13v-7l-68 7 h-116l-13 -14q-252 0 -252 68v13q35 45 95 62l75 -7h7q61 0 61 74l-7 55l7 34l-7 122l7 34l-27 183q27 61 27 95l-7 7v7l7 27l-20 61l13 109q-13 176 -54 176l-27 -6l-48 27q-54 -11 -54 -21q-32 0 -68 62zM222 1579q0 100 72 151q0 67 66 105q0 51 92 79l26 -7 q190 -11 190 -65q-32 -32 -32 -46l-138 -138l-92 -39q-85 -112 -118 -112v7q-66 0 -66 65z" />
<glyph unicode="&#xee;" horiz-adv-x="840" d="M50 1182q0 81 190 81l61 7l34 -7q61 4 61 14l7 -7h68l7 7q45 0 95 -95v-21l-21 -54l14 -68l-7 -102l21 -136l-28 -61l28 -115l-14 -55q14 -156 27 -156l-13 -142q30 -116 115 -116q95 -25 95 -75v-6q-9 -61 -61 -61l-7 6h-7l-47 -6l-41 6l-61 -13l-34 7h-13v-7l-68 7 h-116l-13 -14q-252 0 -252 68v13q35 45 95 62l75 -7h7q61 0 61 74l-7 55l7 34l-7 122l7 34l-27 183q27 61 27 95l-7 7v7l7 27l-20 61l13 109q-13 176 -54 176l-27 -6l-48 27q-54 -11 -54 -21q-32 0 -68 62zM58 1555l21 54q81 92 81 109q25 29 50 51q4 12 25 21q66 50 135 50 l21 -7q27 -2 51 -4l4 1q31 0 61 -10q101 -17 101 -48q0 -4 -4 -10q26 -23 52 -54q0 -17 81 -109l21 -54q0 -109 -61 -109q-56 44 -217 129q0 7 -80 54q-64 -38 -64 -44q-161 -85 -217 -129q-61 0 -61 109z" />
<glyph unicode="&#xef;" horiz-adv-x="865" d="M50 1606v4q10 53 40 100q0 18 112 36q60 0 60 -44q41 0 48 -80l-8 -24l4 -16q0 -25 -56 -68q-25 0 -52 -16q-78 0 -104 40q-44 55 -44 68zM75 1182q0 81 190 81l61 7l34 -7q61 4 61 14l7 -7h68l7 7q45 0 95 -95v-21l-21 -54l14 -68l-7 -102l21 -136l-28 -61l28 -115 l-14 -55q14 -156 27 -156l-13 -142q30 -116 115 -116q95 -25 95 -75v-6q-9 -61 -61 -61l-7 6h-7l-47 -6l-41 6l-61 -13l-34 7h-13v-7l-68 7h-116l-13 -14q-252 0 -252 68v13q35 45 95 62l75 -7h7q61 0 61 74l-7 55l7 34l-7 122l7 34l-27 183q27 61 27 95l-7 7v7l7 27l-20 61 l13 109q-13 176 -54 176l-27 -6l-48 27q-54 -11 -54 -21q-32 0 -68 62zM524 1606v4q10 53 40 100q0 18 112 36q60 0 60 -44q41 0 48 -80l-8 -24l4 -16q0 -25 -56 -68q-25 0 -52 -16q-78 0 -104 40q-44 55 -44 68z" />
<glyph unicode="&#xf0;" horiz-adv-x="1300" d="M50 588l22 61q-5 37 -14 37l45 141q21 0 30 51l105 130l142 86q21 0 98 62l194 37q21 -13 85 -24l-59 52l-12 8l-144 90l-44 36l-20 -28q-6 2 -10 2q-6 0 -10 -4l-14 -18l-27 -20l2 -2q-24 -13 -44 -13q-21 0 -37 15l-4 5q-9 8 -9 22q0 20 21 48q26 31 26 42q0 3 -2 4 l13 10q-19 10 -39 22l-66 56l11 74l84 3l129 -54l4 7l43 35l-2 2v17l2 2h2q17 0 60 27q3 2 7 2q13 0 45 -24l7 -7q9 -9 9 -19q0 -15 -20 -35l-2 -20h-5l-9 -9l-16 -25l-8 -5l43 -22l11 -8l60 -51l45 -27l189 -144l2 4l53 -16l15 -37q25 -73 80 -216q37 -26 37 -78v-6 q16 -28 29 -39q0 -80 59 -136v-129l8 -25q-45 -94 -45 -142q-37 -80 -135 -192q0 -24 -75 -62q-94 -110 -202 -110q0 -14 -113 -38h-30q-150 18 -255 62l-97 55v13l7 18h-7q-75 6 -203 218l-30 129q-15 34 -15 100zM365 531l15 -62l-7 -18l52 -185q0 -99 82 -99 q0 -16 76 -31h37q90 0 90 12l7 -7h46q43 16 89 112q19 0 46 117v31l-8 25l15 62v12h-7l7 31v43l8 69l-8 18l15 37q-47 359 -217 359q0 11 -75 12h-23q-135 -54 -135 -118q-60 -6 -60 -42l8 -25q-45 -62 -45 -93v-19l7 -81l-7 -17l7 -69v-6z" />
<glyph unicode="&#xf1;" horiz-adv-x="1460" d="M50 60q0 81 74 81q115 9 115 54l20 141l-7 135l13 61q0 36 -20 74l7 47v47q-4 135 -20 135l13 40q-6 76 -20 101l20 81q0 49 -175 94q-20 25 -20 47q0 68 148 88l20 7q11 -27 47 -27l128 40q57 0 155 -114h14q173 97 309 114q154 -46 223 -135q60 0 114 -148l-7 -33v-41 l7 -40l-13 -54l13 -54l-7 -47l34 -155l-20 -81v-20q17 -19 27 -74l-7 -148q0 -99 155 -115l20 -27q-40 -141 -135 -141l-114 27h-121q-243 0 -243 61l-6 40l128 74l6 40l-13 95l7 60v27l-14 155l20 74q-13 76 -40 121l20 81l-13 47l6 41v6q-20 149 -107 149q0 11 -47 13h-14 q-65 0 -141 -141q-27 -57 -27 -122v-20l6 -27l-33 -107v-61l-7 -61l27 -60q-34 -96 -34 -202q0 -98 189 -155q20 -26 20 -61q-22 -74 -236 -94h-6l-142 27l-74 -27l-87 13l-7 -6h-7l-108 20zM170 1546l19 50q98 85 98 101q22 26 35 42t31 24l102 28l72 5q34 -24 58 -51 q34 -44 129 -90q-30 18 -57 36q115 -40 176 -40q19 0 40 2q60 46 196 142l73 -44q0 -100 -54 -100q-113 -130 -308 -201q-125 57 -280 155l-87 -21q-139 -97 -189 -138q-54 0 -54 100z" />
<glyph unicode="&#xf2;" horiz-adv-x="1186" d="M50 645l20 68q-5 40 -13 40l41 156q19 0 27 55l95 142l129 95q19 0 88 68l176 41q25 -20 123 -34q92 -41 264 -217q50 -121 75 -150q0 -89 54 -149v-142l7 -28q-41 -103 -41 -156q-33 -88 -122 -210q0 -27 -68 -68q-85 -122 -183 -122q0 -14 -102 -41h-27 q-136 20 -231 68l-88 61v14l7 20h-7q-67 6 -183 238l-27 142q-14 38 -14 109zM335 584l14 -68l-7 -21l47 -203q0 -109 75 -109q0 -17 68 -34h34q81 0 81 14l7 -7h41q39 16 81 122q17 0 41 129v34l-7 27l14 68v14h-7l7 34v47l7 75l-7 20l13 41q-42 394 -196 394q0 12 -68 13 h-21q-122 -59 -122 -129q-54 -8 -54 -47l7 -27q-41 -69 -41 -102v-21l7 -88l-7 -20l7 -75v-7zM372 1855q0 54 190 65l26 7q92 -28 92 -79q66 -38 66 -105q72 -51 72 -151q0 -65 -66 -65v-7q-33 0 -118 112l-92 39l-138 138q0 14 -32 46z" />
<glyph unicode="&#xf3;" horiz-adv-x="1186" d="M50 645l20 68q-5 40 -13 40l41 156q19 0 27 55l95 142l129 95q19 0 88 68l176 41q25 -20 123 -34q92 -41 264 -217q50 -121 75 -150q0 -89 54 -149v-142l7 -28q-41 -103 -41 -156q-33 -88 -122 -210q0 -27 -68 -68q-85 -122 -183 -122q0 -14 -102 -41h-27 q-136 20 -231 68l-88 61v14l7 20h-7q-67 6 -183 238l-27 142q-14 38 -14 109zM335 584l14 -68l-7 -21l47 -203q0 -109 75 -109q0 -17 68 -34h34q81 0 81 14l7 -7h41q39 16 81 122q17 0 41 129v34l-7 27l14 68v14h-7l7 34v47l7 75l-7 20l13 41q-42 394 -196 394q0 12 -68 13 h-21q-122 -59 -122 -129q-54 -8 -54 -47l7 -27q-41 -69 -41 -102v-21l7 -88l-7 -20l7 -75v-7zM372 1592q0 100 72 151q0 67 66 105q0 51 92 79l26 -7q190 -11 190 -65q-32 -32 -32 -46l-138 -138l-92 -39q-85 -112 -118 -112v7q-66 0 -66 65z" />
<glyph unicode="&#xf4;" horiz-adv-x="1186" d="M50 645l20 68q-5 40 -13 40l41 156q19 0 27 55l95 142l129 95q19 0 88 68l176 41q25 -20 123 -34q92 -41 264 -217q50 -121 75 -150q0 -89 54 -149v-142l7 -28q-41 -103 -41 -156q-33 -88 -122 -210q0 -27 -68 -68q-85 -122 -183 -122q0 -14 -102 -41h-27 q-136 20 -231 68l-88 61v14l7 20h-7q-67 6 -183 238l-27 142q-14 38 -14 109zM266 1555l21 54q81 92 81 109q25 29 50 51q4 12 25 21q66 50 135 50l21 -7q27 -2 51 -4l4 1q31 0 61 -10q101 -17 101 -48q0 -4 -4 -10q26 -23 52 -54q0 -17 81 -109l21 -54q0 -109 -61 -109 q-56 44 -217 129q0 7 -80 54q-64 -38 -64 -44q-161 -85 -217 -129q-61 0 -61 109zM335 584l14 -68l-7 -21l47 -203q0 -109 75 -109q0 -17 68 -34h34q81 0 81 14l7 -7h41q39 16 81 122q17 0 41 129v34l-7 27l14 68v14h-7l7 34v47l7 75l-7 20l13 41q-42 394 -196 394 q0 12 -68 13h-21q-122 -59 -122 -129q-54 -8 -54 -47l7 -27q-41 -69 -41 -102v-21l7 -88l-7 -20l7 -75v-7z" />
<glyph unicode="&#xf5;" horiz-adv-x="1186" d="M50 645l20 68q-5 40 -13 40l41 156q19 0 27 55l95 142l129 95q19 0 88 68l176 41q25 -20 123 -34q92 -41 264 -217q50 -121 75 -150q0 -89 54 -149v-142l7 -28q-41 -103 -41 -156q-33 -88 -122 -210q0 -27 -68 -68q-85 -122 -183 -122q0 -14 -102 -41h-27 q-136 20 -231 68l-88 61v14l7 20h-7q-67 6 -183 238l-27 142q-14 38 -14 109zM100 1546l19 50q98 85 98 101q22 26 35 42t31 24l102 28l72 5q34 -24 58 -51q34 -44 129 -90q-30 18 -57 36q115 -40 176 -40q19 0 40 2q60 46 196 142l73 -44q0 -100 -54 -100 q-113 -130 -308 -201q-125 57 -280 155l-87 -21q-139 -97 -189 -138q-54 0 -54 100zM335 584l14 -68l-7 -21l47 -203q0 -109 75 -109q0 -17 68 -34h34q81 0 81 14l7 -7h41q39 16 81 122q17 0 41 129v34l-7 27l14 68v14h-7l7 34v47l7 75l-7 20l13 41q-42 394 -196 394 q0 12 -68 13h-21q-122 -59 -122 -129q-54 -8 -54 -47l7 -27q-41 -69 -41 -102v-21l7 -88l-7 -20l7 -75v-7z" />
<glyph unicode="&#xf6;" horiz-adv-x="1186" d="M50 645l20 68q-5 40 -13 40l41 156q19 0 27 55l95 142l129 95q19 0 88 68l176 41q25 -20 123 -34q92 -41 264 -217q50 -121 75 -150q0 -89 54 -149v-142l7 -28q-41 -103 -41 -156q-33 -88 -122 -210q0 -27 -68 -68q-85 -122 -183 -122q0 -14 -102 -41h-27 q-136 20 -231 68l-88 61v14l7 20h-7q-67 6 -183 238l-27 142q-14 38 -14 109zM252 1532v4q10 53 40 100q0 18 112 36q60 0 60 -44q41 0 48 -80l-8 -24l4 -16q0 -25 -56 -68q-25 0 -52 -16q-78 0 -104 40q-44 55 -44 68zM335 584l14 -68l-7 -21l47 -203q0 -109 75 -109 q0 -17 68 -34h34q81 0 81 14l7 -7h41q39 16 81 122q17 0 41 129v34l-7 27l14 68v14h-7l7 34v47l7 75l-7 20l13 41q-42 394 -196 394q0 12 -68 13h-21q-122 -59 -122 -129q-54 -8 -54 -47l7 -27q-41 -69 -41 -102v-21l7 -88l-7 -20l7 -75v-7zM726 1532v4q10 53 40 100 q0 18 112 36q60 0 60 -44q41 0 48 -80l-8 -24l4 -16q0 -25 -56 -68q-25 0 -52 -16q-78 0 -104 40q-44 55 -44 68z" />
<glyph unicode="&#xf7;" horiz-adv-x="988" d="M50 886v8q0 41 118 52q99 7 99 20l156 -12h62l68 -4l6 4h6l38 -8l25 4l111 -8v4l25 16h6q21 -16 125 -32q27 0 43 -68v-12q0 -40 -93 -40l-31 -16l-6 4h-25l-62 -8l-87 16h-6l-81 -8l-69 16q-43 -5 -43 -12l-19 4l-111 -12q-13 16 -31 16l-44 -4l-68 8v-4 q-112 21 -112 76zM360 1124v4q10 53 40 100q0 18 112 36q60 0 60 -44q41 0 48 -80l-8 -24l4 -16q0 -25 -56 -68q-25 0 -52 -16q-78 0 -104 40q-44 55 -44 68zM372 596v4q10 53 40 100q0 18 112 36q60 0 60 -44q41 0 48 -80l-8 -24l4 -16q0 -25 -56 -68q-25 0 -52 -16 q-78 0 -104 40q-44 55 -44 68z" />
<glyph unicode="&#xf8;" horiz-adv-x="1344" d="M50 42q0 43 129 183q36 39 61 67q-26 44 -55 102l-27 142q-14 38 -14 109l20 68q-5 40 -13 40l41 156q19 0 27 55l95 142l129 95q19 0 88 68l176 41q25 -20 123 -34q81 -36 224 -177q47 36 120 99q22 22 55 22q23 0 52 -11l8 -9q5 -5 5 -14q0 -37 -103 -140l-30 -54 l-12 -5l-16 -16q22 -46 36 -62q0 -89 54 -149v-142l7 -28q-41 -103 -41 -156q-33 -88 -122 -210q0 -27 -68 -68q-85 -122 -183 -122q0 -14 -102 -41h-27q-136 20 -231 68l-88 61v14l7 20h-7q-19 2 -42 22l-63 -55l3 -2q-129 -107 -181 -107q-15 0 -24 9l-6 6q-5 5 -5 13z M429 584l14 -68l-4 -13l79 73l84 84l95 89l6 12l8 8l56 45l31 36l103 96q-52 215 -166 215q0 12 -68 13h-21q-122 -59 -122 -129q-54 -8 -54 -47l7 -27q-41 -69 -41 -102v-21l7 -88l-7 -20l7 -75v-7zM479 311l4 -19q0 -109 75 -109q0 -17 68 -34h34q81 0 81 14l7 -7h41 q39 16 81 122q17 0 41 129v34l-7 27l14 68v14h-7l7 34v47l7 75l-7 20l13 41q0 4 -1 8l-22 -18l-8 -8l-104 -115l-104 -82q-50 -57 -50 -66v-1l-28 -22z" />
<glyph unicode="&#xf9;" horiz-adv-x="1288" d="M50 1206q29 89 89 89l145 -7l48 7q52 0 123 -123l-7 -42q0 -48 14 -48q-14 0 -20 -274l20 -76l-7 -69l14 -55v-34l-14 -69q21 -83 62 -137l-14 -55q0 -96 76 -96l89 -28q96 129 96 213q62 116 62 165l7 62h-7l7 7v14l-7 54l7 35l-14 55l21 130v28l-7 27l21 69 q-30 110 -110 110q-49 0 -90 89q24 41 62 41l55 -20l96 13q234 0 234 -75q13 -4 41 -103l28 -21v-7l-35 -41v-27l-20 -110q12 -74 27 -76q0 -67 -48 -233q25 -89 41 -241l14 -41q-21 -4 -21 -55v-7l21 -20q48 -92 89 -145v-61l-7 -7l-20 -7v-7l-103 7h-83l-75 -7 q-92 23 -158 82h-21q-57 -55 -123 -55l-7 -6h-55l-62 -14q-275 24 -275 89q-32 29 -82 138l7 6v21l-7 34q7 97 27 124q-5 151 -20 151l13 96l-13 62v14q0 33 20 69q-17 357 -68 357q-62 0 -76 41zM414 1872q0 20 165 62h14l116 -27q51 -27 131 -138q39 0 89 -144l-7 -48v-28 l7 -7q0 -16 -55 -61h-7q-45 0 -178 116q-275 225 -275 275z" />
<glyph unicode="&#xfa;" horiz-adv-x="1288" d="M50 1206q29 89 89 89l145 -7l48 7q52 0 123 -123l-7 -42q0 -48 14 -48q-14 0 -20 -274l20 -76l-7 -69l14 -55v-34l-14 -69q21 -83 62 -137l-14 -55q0 -96 76 -96l89 -28q96 129 96 213q62 116 62 165l7 62h-7l7 7v14l-7 54l7 35l-14 55l21 130v28l-7 27l21 69 q-30 110 -110 110q-49 0 -90 89q24 41 62 41l55 -20l96 13q234 0 234 -75q13 -4 41 -103l28 -21v-7l-35 -41v-27l-20 -110q12 -74 27 -76q0 -67 -48 -233q25 -89 41 -241l14 -41q-21 -4 -21 -55v-7l21 -20q48 -92 89 -145v-61l-7 -7l-20 -7v-7l-103 7h-83l-75 -7 q-92 23 -158 82h-21q-57 -55 -123 -55l-7 -6h-55l-62 -14q-275 24 -275 89q-32 29 -82 138l7 6v21l-7 34q7 97 27 124q-5 151 -20 151l13 96l-13 62v14q0 33 20 69q-17 357 -68 357q-62 0 -76 41zM414 1542l7 7v28l-7 48q50 144 89 144q80 111 131 138l116 27h14 q165 -42 165 -62q0 -50 -275 -275q-133 -116 -178 -116h-7q-55 45 -55 61z" />
<glyph unicode="&#xfb;" horiz-adv-x="1477" d="M50 1222q12 39 75 62l41 -7l206 27l62 -6v6l89 -27l-7 -41q0 -171 14 -178q5 -2 5 -15q0 -26 -19 -95v-41q0 -19 7 -64.5t7 -72.5v-41l6 -27q-20 -36 -20 -83l7 -34l-7 -41q20 -23 27 -137q16 0 35 -68v-42l-7 -54q20 -110 96 -110h20q142 0 240 212v35l-7 6l21 76v34 l-7 96l13 34l-6 41l6 55l-13 62v20q0 49 13 76l-13 171v34q0 76 -103 76q-171 22 -171 82v14q0 30 130 54q18 -12 157 -20v7l7 -7h48l130 7q74 0 110 -144l14 -14l-7 -55l7 -41l-28 -116v-41l35 -89l-14 -90v-47l-14 -21l7 -130l-7 -89q0 -35 3.5 -48.5t3.5 -33.5v-7l14 -21 l-14 -20q23 -151 116 -151l7 7h7q36 -2 55 -28q-29 -66 -110 -123l-54 14l-7 -7l-7 7h-7l-219 13h-7q-37 0 -82 69h-7l-226 -75q-295 16 -295 54q-130 77 -130 178q-25 51 -41 220l7 34v75l-7 28l7 20q-4 76 -14 76l21 68v14l-7 27l7 28l-7 89l7 34l-21 110v41 q-15 25 -55 48h-54q-53 0 -69 61zM316 1575l21 54q81 92 81 109q25 29 50 51q4 12 25 21q66 50 135 50l21 -7q27 -2 51 -4l4 1q31 0 61 -10q101 -17 101 -48q0 -4 -4 -10q26 -23 52 -54q0 -17 81 -109l21 -54q0 -109 -61 -109q-56 44 -217 129q0 7 -80 54q-64 -38 -64 -44 q-161 -85 -217 -129q-61 0 -61 109z" />
<glyph unicode="&#xfc;" horiz-adv-x="1477" d="M50 1222q12 39 75 62l41 -7l206 27l62 -6v6l89 -27l-7 -41q0 -171 14 -178q5 -2 5 -15q0 -26 -19 -95v-41q0 -19 7 -64.5t7 -72.5v-41l6 -27q-20 -36 -20 -83l7 -34l-7 -41q20 -23 27 -137q16 0 35 -68v-42l-7 -54q20 -110 96 -110h20q142 0 240 212v35l-7 6l21 76v34 l-7 96l13 34l-6 41l6 55l-13 62v20q0 49 13 76l-13 171v34q0 76 -103 76q-171 22 -171 82v14q0 30 130 54q18 -12 157 -20v7l7 -7h48l130 7q74 0 110 -144l14 -14l-7 -55l7 -41l-28 -116v-41l35 -89l-14 -90v-47l-14 -21l7 -130l-7 -89q0 -35 3.5 -48.5t3.5 -33.5v-7l14 -21 l-14 -20q23 -151 116 -151l7 7h7q36 -2 55 -28q-29 -66 -110 -123l-54 14l-7 -7l-7 7h-7l-219 13h-7q-37 0 -82 69h-7l-226 -75q-295 16 -295 54q-130 77 -130 178q-25 51 -41 220l7 34v75l-7 28l7 20q-4 76 -14 76l21 68v14l-7 27l7 28l-7 89l7 34l-21 110v41 q-15 25 -55 48h-54q-53 0 -69 61zM272 1552v4q10 53 40 100q0 18 112 36q60 0 60 -44q41 0 48 -80l-8 -24l4 -16q0 -25 -56 -68q-25 0 -52 -16q-78 0 -104 40q-44 55 -44 68zM746 1552v4q10 53 40 100q0 18 112 36q60 0 60 -44q41 0 48 -80l-8 -24l4 -16q0 -25 -56 -68 q-25 0 -52 -16q-78 0 -104 40q-44 55 -44 68z" />
<glyph unicode="&#xfd;" horiz-adv-x="1566" d="M50 -148l13 49q26 25 66 75h79q85 0 138 -143q79 -68 105 -68h26q138 121 138 155l59 222q-105 164 -105 324q-11 0 -26 99q-92 64 -92 168q-26 0 -26 13l13 24l-20 50l13 37v12q0 21 -72 119q-24 93 -66 93q-125 129 -125 143q0 87 119 87l65 -19l60 12l52 -12h7 q46 0 46 12l138 -24l52 12q97 0 138 -61q-7 -35 -105 -101q-39 -53 -39 -92v-13q0 -129 112 -286q23 -155 85 -155q85 42 85 118q50 85 92 254l27 26v6l-7 19l7 31v24q-13 26 -105 112l-14 43q0 57 92 69l33 -12q92 30 198 30q210 -36 210 -55v-37q0 -87 -86 -87 q-151 -40 -151 -118q-16 -8 -59 -138q-46 -45 -46 -111l13 -19q-105 -129 -105 -242q-39 -35 -39 -118q-30 -6 -79 -169q-40 -50 -59 -99l6 -37q0 -28 -66 -154q-63 -73 -111 -174q-18 -5 -112 -112l-145 -57l-52 19h-27l-52 -12q-150 0 -230 143q-24 0 -46 99l-7 7l-6 19 h-7zM638 1542l7 7v28l-7 48q50 144 89 144q80 111 131 138l116 27h14q165 -42 165 -62q0 -50 -275 -275q-133 -116 -178 -116h-7q-55 45 -55 61z" />
<glyph unicode="&#xfe;" horiz-adv-x="1079" d="M50 136l31 94l-6 6v6l6 19q-4 56 -13 56l7 19l-7 62l7 63l-7 6v6q13 32 13 94h-6l6 6v106l-6 25l12 44l-6 99v50l-13 50l13 87q8 187 12 389q-10 45 -10 86q0 29 5 55v11q0 119 83 130l75 13l66 -35l13 -149l9 -60q-7 -91 -10 -271l25 -19h37q107 94 175 94l75 6 q198 -55 212 -94q14 0 56 -112q62 -93 72 -202q19 -45 40 -116l-6 -6v-56q19 -133 19 -163q-24 -110 -44 -143q-11 0 -31 -87q-38 -27 -56 -100q-49 -30 -125 -131q-61 -25 -268 -37q-42 42 -131 68h-6q-21 0 -38 -75l7 -74h-7q-6 -92 -6 -118l-22 -206q-96 -46 -96 -56 l-7 6h-12q-63 0 -101 45q-18 147 -18 267h-6l6 6v6l-6 44l13 37q-7 109 -25 149zM343 766q0 -64 21 -126l4 -92l43 -206q63 -100 81 -100l81 -49q119 0 119 62q19 47 45 88q23 68 31 161q-1 55 -1 75q2 69 9 150l-7 37l7 19l-7 44l-3 137q-30 114 -87 149l-24 25h-19 q-41 0 -100 -50q-21 0 -69 -49q-43 0 -118 -237z" />
<glyph unicode="&#xff;" horiz-adv-x="1566" d="M50 -148l13 49q26 25 66 75h79q85 0 138 -143q79 -68 105 -68h26q138 121 138 155l59 222q-105 164 -105 324q-11 0 -26 99q-92 64 -92 168q-26 0 -26 13l13 24l-20 50l13 37v12q0 21 -72 119q-24 93 -66 93q-125 129 -125 143q0 87 119 87l65 -19l60 12l52 -12h7 q46 0 46 12l138 -24l52 12q97 0 138 -61q-7 -35 -105 -101q-39 -53 -39 -92v-13q0 -129 112 -286q23 -155 85 -155q85 42 85 118q50 85 92 254l27 26v6l-7 19l7 31v24q-13 26 -105 112l-14 43q0 57 92 69l33 -12q92 30 198 30q210 -36 210 -55v-37q0 -87 -86 -87 q-151 -40 -151 -118q-16 -8 -59 -138q-46 -45 -46 -111l13 -19q-105 -129 -105 -242q-39 -35 -39 -118q-30 -6 -79 -169q-40 -50 -59 -99l6 -37q0 -28 -66 -154q-63 -73 -111 -174q-18 -5 -112 -112l-145 -57l-52 19h-27l-52 -12q-150 0 -230 143q-24 0 -46 99l-7 7l-6 19 h-7zM489 1533v4q10 53 40 100q0 18 112 36q60 0 60 -44q41 0 48 -80l-8 -24l4 -16q0 -25 -56 -68q-25 0 -52 -16q-78 0 -104 40q-44 55 -44 68zM963 1533v4q10 53 40 100q0 18 112 36q60 0 60 -44q41 0 48 -80l-8 -24l4 -16q0 -25 -56 -68q-25 0 -52 -16q-78 0 -104 40 q-44 55 -44 68z" />
<glyph unicode="&#x152;" horiz-adv-x="2451" d="M50 1034l24 124l12 58q66 136 80 197q44 17 95 123q110 110 177 163q27 75 256 152l159 -3q2 1 4 1q92 14 205 14h348l328 -17l263 13l134 -3h34q211 0 211 -75l7 -20l2 -485l-16 -48q-20 -96 -95 -96q-48 0 -89 212l-109 171q-11 0 -68 88q-41 0 -151 89q-85 46 -293 48 q-171 -23 -171 -68l-64 -119q-5 -219 -5 -243v-48q14 -212 76 -212l47 -14q164 0 164 69q76 59 120 157l3 89q19 47 48 61h62q20 -14 41 -68v-765l4 -41q0 -55 -59 -96q-43 0 -68 68l-24 48q-1 15 -24 89v14q-86 212 -246 212h-14q-97 -33 -126 -142q-2 -62 -2 -114 q0 -77 5 -132q9 -91 39 -191l23 -57q0 -75 171 -75h68q273 0 471 198l82 137v13l68 205q0 39 28 55q29 0 85 -41q23 -20 31 -68v-424q0 -124 -62 -208l-61 -7l-143 -3l-199 -7l-191 13q-32 2 -60 2q-58 0 -103 -9l-131 4l-132 10l-113 -10l-76 -3h-82l-88 -7l-51 5l-15 -8 l-8 7h-2v-4q-9 0 -26 5l-110 7v-8q-167 24 -167 66q-113 0 -226 145q-42 0 -189 255q-51 104 -80 247q-14 0 -14 44l-7 131q-6 130 -15 130zM383 976q9 -57 16 -262l3 -101q10 -28 55 -139q0 -79 153 -225l58 -51q52 -51 109 -51l4 1q8 7 15 7l77 -7l8 2q56 36 113 56 l40 134v1135l-4 142q-3 34 -22 57q-48 23 -90 49q-4 1 -9 2h-15l-80 -7l-22 7l-124 -51q-212 -184 -247 -305q0 -39 -29 -51l14 -211z" />
<glyph unicode="&#x153;" horiz-adv-x="1821" d="M50 654l20 68q-5 40 -13 40l41 156q19 0 27 55l95 142l102 98q46 33 115 65l176 41q25 -20 123 -34q88 -39 214 -94q36 27 83 57l103 43l86 17l100 7l83 -26q76 -34 173 -101q77 -84 120 -166q44 -89 73 -233q-12 -76 -27 -88q-9 -7 -27 -7q-15 0 -37 5q-12 2 -38 2 q-79 0 -290 -23q-333 -19 -353 -62l-6 -93v-13l20 -166v-14q46 -132 133 -166l66 -20l40 -3l80 -4q107 27 186 107l87 120q19 48 26 119q47 80 80 80q53 -45 53 -97v-9l-6 -54q-2 -47 -34 -93q-20 -37 -70 -126q-43 -75 -155 -133l-95 -33l-105 -7h-100q-116 17 -213 46 q-40 20 -70 42q-63 -57 -115 -57h-7q-64 -20 -151 -20h-50q-136 20 -231 48l-88 61v14l-33 23q-34 3 -150 235l-27 142q-14 38 -14 109zM335 593l14 -68l-7 -21l47 -203q0 -109 75 -109q0 -17 68 -34h34q81 0 81 14l7 -7h41q37 15 76 110q-2 4 -5 9q16 19 30 41q10 32 21 91 v34l-7 27l14 68v14h-7l7 34v47l7 75l-7 20l13 41q-42 394 -196 394q0 12 -68 13h-21q-122 -59 -122 -129q-54 -8 -54 -47l7 -27q-41 -69 -41 -102v-21l7 -88l-7 -20l7 -75v-7zM1006 889q0 -60 93 -73h20q47 0 106 6l173 17q74 14 74 43l6 120q0 98 -126 166l-60 14l-50 -8 l-63 -9l-53 -30q-113 -53 -113 -173l-7 -53v-20z" />
<glyph unicode="&#x178;" horiz-adv-x="1578" d="M50 1426q0 82 58 112l128 6l76 -18l87 6l47 -6l145 18q140 -11 140 -43v-19q0 -83 -123 -112q-17 -16 -17 -37q10 -72 70 -156q19 -130 76 -168q10 0 40 -81q14 0 29 -50l30 -18h29q87 76 174 298q70 84 70 200q-16 18 -93 31l-58 75v6q0 62 64 62l63 -6l71 12h40 q29 0 29 13l122 -19l76 19q105 -13 105 -94q0 -37 -163 -99q-169 -133 -169 -194q0 -32 -64 -93q0 -42 -69 -137q0 -27 -47 -69q0 -35 -105 -211l-5 -44q3 -37 11 -37l-6 -31v-100l6 -6l-11 -50l11 -44l-11 -62q35 -162 128 -162l75 7q52 0 70 -63q0 -33 -58 -62l-24 13 l-23 -13l-29 6h-23l-23 -6l-41 13l-93 -13l-47 6l-6 -6h-6l-75 13l-23 -13l-7 6h-69l-58 7l-52 -7l-36 12l-35 -12q-40 14 -40 50q0 58 104 81l41 -6q116 39 116 93l7 31l-7 44l7 18l-7 88v62l-11 38l11 93q-57 118 -81 143l-17 37v7l-18 37q-56 59 -93 175q-55 50 -99 187 q-122 159 -122 180l-23 -6q-137 0 -164 68h-5zM474 1743v4q10 53 40 100q0 18 112 36q60 0 60 -44q41 0 48 -80l-8 -24l4 -16q0 -25 -56 -68q-25 0 -52 -16q-78 0 -104 40q-44 55 -44 68zM948 1743v4q10 53 40 100q0 18 112 36q60 0 60 -44q41 0 48 -80l-8 -24l4 -16 q0 -25 -56 -68q-25 0 -52 -16q-78 0 -104 40q-44 55 -44 68z" />
<glyph unicode="&#x2000;" horiz-adv-x="1012" />
<glyph unicode="&#x2001;" horiz-adv-x="2025" />
<glyph unicode="&#x2002;" horiz-adv-x="1012" />
<glyph unicode="&#x2003;" horiz-adv-x="2025" />
<glyph unicode="&#x2004;" horiz-adv-x="675" />
<glyph unicode="&#x2005;" horiz-adv-x="506" />
<glyph unicode="&#x2006;" horiz-adv-x="337" />
<glyph unicode="&#x2007;" horiz-adv-x="337" />
<glyph unicode="&#x2008;" horiz-adv-x="253" />
<glyph unicode="&#x2009;" horiz-adv-x="405" />
<glyph unicode="&#x200a;" horiz-adv-x="112" />
<glyph unicode="&#x2010;" horiz-adv-x="672" d="M50 886v8q0 41 76 52q64 7 64 20l100 -12h40l44 -4l4 4h4l24 -8l16 4l72 -8v4l16 16h4q13 -16 80 -32q18 0 28 -68v-12q0 -40 -60 -40l-20 -16l-4 4h-16l-40 -8l-56 16h-4l-52 -8l-44 16q-28 -5 -28 -12l-12 4l-72 -12q-8 16 -20 16l-28 -4l-44 8v-4q-72 21 -72 76z" />
<glyph unicode="&#x2011;" horiz-adv-x="672" d="M50 886v8q0 41 76 52q64 7 64 20l100 -12h40l44 -4l4 4h4l24 -8l16 4l72 -8v4l16 16h4q13 -16 80 -32q18 0 28 -68v-12q0 -40 -60 -40l-20 -16l-4 4h-16l-40 -8l-56 16h-4l-52 -8l-44 16q-28 -5 -28 -12l-12 4l-72 -12q-8 16 -20 16l-28 -4l-44 8v-4q-72 21 -72 76z" />
<glyph unicode="&#x2012;" horiz-adv-x="672" d="M50 886v8q0 41 76 52q64 7 64 20l100 -12h40l44 -4l4 4h4l24 -8l16 4l72 -8v4l16 16h4q13 -16 80 -32q18 0 28 -68v-12q0 -40 -60 -40l-20 -16l-4 4h-16l-40 -8l-56 16h-4l-52 -8l-44 16q-28 -5 -28 -12l-12 4l-72 -12q-8 16 -20 16l-28 -4l-44 8v-4q-72 21 -72 76z" />
<glyph unicode="&#x2013;" horiz-adv-x="1124" d="M50 886v8q0 41 136 52q115 7 115 20l179 -12h71l79 -4l7 4h7l43 -8l29 4l129 -8v4l28 16h8q23 -16 143 -32q32 0 50 -68v-12q0 -40 -107 -40l-36 -16l-7 4h-29l-72 -8l-100 16h-7l-93 -8l-79 16q-50 -5 -50 -12l-22 4l-128 -12q-15 16 -36 16l-50 -4l-79 8v-4 q-129 21 -129 76z" />
<glyph unicode="&#x2014;" horiz-adv-x="2148" d="M50 886v8q0 41 272 52q229 7 229 20l358 -12h144l157 -4l14 4h15l86 -8l57 4l258 -8v4l57 16h14q47 -16 287 -32q64 0 100 -68v-12q0 -40 -215 -40l-71 -16l-15 4h-57l-143 -8l-201 16h-14l-186 -8l-158 16q-100 -5 -100 -12l-43 4l-258 -12q-28 16 -71 16l-101 -4 l-157 8v-4q-258 21 -258 76z" />
<glyph unicode="&#x2018;" horiz-adv-x="388" d="M50 1596q40 212 72 212q82 136 104 136q47 54 88 60q19 -19 24 -44q-19 -60 -64 -60l-40 -64q-11 0 -40 -56l-20 -20q0 -72 16 -72h24q37 0 72 -44q28 -26 28 -80l4 -12h4q-22 -88 -76 -88q-17 -20 -60 -20q-112 37 -112 108q-6 0 -24 44z" />
<glyph unicode="&#x2019;" horiz-adv-x="388" d="M50 1468q19 60 64 60l40 64q11 0 40 56l20 20q0 72 -16 72h-24q-37 0 -72 44q-28 26 -28 80l-4 12h-4q22 88 76 88q17 20 60 20q112 -37 112 -108q6 0 24 -44q-40 -212 -72 -212q-82 -136 -104 -136q-47 -54 -88 -60q-19 19 -24 44z" />
<glyph unicode="&#x201c;" horiz-adv-x="714" d="M50 1589q40 212 72 212q82 136 104 136q47 54 88 60q19 -19 24 -44q-19 -60 -64 -60l-40 -64q-11 0 -40 -56l-20 -20q0 -72 16 -72h24q37 0 72 -44q28 -26 28 -80l4 -12h4q-22 -88 -76 -88q-17 -20 -60 -20q-112 37 -112 108q-6 0 -24 44zM376 1589q40 212 72 212 q82 136 104 136q47 54 88 60q19 -19 24 -44q-19 -60 -64 -60l-40 -64q-11 0 -40 -56l-20 -20q0 -72 16 -72h24q37 0 72 -44q28 -26 28 -80l4 -12h4q-22 -88 -76 -88q-17 -20 -60 -20q-112 37 -112 108q-6 0 -24 44z" />
<glyph unicode="&#x201d;" horiz-adv-x="714" d="M50 1478q19 60 64 60l40 64q11 0 40 56l20 20q0 72 -16 72h-24q-37 0 -72 44q-28 26 -28 80l-4 12h-4q22 88 76 88q17 20 60 20q112 -37 112 -108q6 0 24 -44q-40 -212 -72 -212q-82 -136 -104 -136q-47 -54 -88 -60q-19 19 -24 44zM376 1471q19 60 64 60l40 64 q11 0 40 56l20 20q0 72 -16 72h-24q-37 0 -72 44q-28 26 -28 80l-4 12h-4q22 88 76 88q17 20 60 20q112 -37 112 -108q6 0 24 -44q-40 -212 -72 -212q-82 -136 -104 -136q-47 -54 -88 -60q-19 19 -24 44z" />
<glyph unicode="&#x2026;" horiz-adv-x="1284" d="M50 127q0 25 3 61q11 49 44 49q6 0 12 -1q7 31 58 31q14 0 31 -2l21 -13h17q24 -5 53 -70q-2 -9 -2 -18q0 -17 6 -36q-17 -76 -62 -92q-58 -28 -73 -28h-3l-4 1q-50 22 -89 62q-12 3 -12 56zM501 119v4q10 53 40 100q0 18 112 36q60 0 60 -44q41 0 48 -80l-8 -24l4 -16 q0 -25 -56 -68q-25 0 -52 -16q-78 0 -104 40q-44 55 -44 68zM982 146q0 38 34 44q-1 4 -1 7q0 35 71 56l25 -4l15 7h5q24 0 72 -42q5 -24 26 -48q5 -23 5 -42q0 -44 -25 -67q-45 -54 -58 -57h-9q-51 0 -101 20h-1q-17 0 -55 103q-3 13 -3 23z" />
<glyph unicode="&#x202f;" horiz-adv-x="405" />
<glyph unicode="&#x205f;" horiz-adv-x="506" />
<glyph unicode="&#x20ac;" horiz-adv-x="1898" d="M50 818v8q0 41 207 52q56 2 94 5q-7 58 -14 132q0 4 1 8l-92 6v-4q-196 21 -196 76v8q0 41 207 52q65 3 105 6q18 71 47 150l74 156q68 118 186 218q178 134 337 175l117 24q80 13 155 13q121 0 232 -34l30 -28q64 -14 78 -14h6l30 -14l31 -33q70 -8 113 -108l5 -94 l-115 -22q-52 34 -86 78q-17 0 -215 91h-15q-27 6 -53 6q-66 0 -133 -33h-20q-55 -15 -94 -25q-47 -35 -105 -45l-44 -41q-67 -60 -99 -132q-23 -36 -32 -90q-28 -71 -28 -126q0 -10 1 -20l-3 -50h51l121 -4l11 4h10l67 -8l42 4l198 -8v4l43 16h11q35 -16 217 -32 q49 0 77 -68v-12q0 -40 -163 -40l-56 -16l-10 4h-44l-109 -8l-152 16h-12l-142 -8l-119 16q-29 -2 -47 -4q1 -58 9 -139h48l121 -4l11 4h10l67 -8l42 4l198 -8v4l43 16h11q35 -16 217 -32q49 0 77 -68v-12q0 -40 -163 -40l-56 -16l-10 4h-44l-109 -8l-152 16h-12l-142 -8 l-119 16q-15 -1 -28 -2q3 -39 9 -76q11 -79 75 -220l43 -64q22 -53 37 -79q34 -26 75 -85q46 -42 93 -73q49 -20 111 -37q44 -3 83 -3q217 0 279 94q14 0 44 34q56 30 105 132q27 0 45 111q20 0 33 20q24 0 41 -69q-16 -95 -78 -187q-75 -77 -88 -112q-52 -29 -122 -91 q-103 -31 -176 -49l-123 -6l-130 9q-170 19 -255 68q-55 36 -142 89q-84 85 -180 198q-35 67 -84 147q-28 73 -70 149l-27 92v2h-6l-121 8v-4q-196 21 -196 76z" />
<glyph unicode="&#x25fc;" horiz-adv-x="1315" d="M0 0v1315h1315v-1315h-1315z" />
</font>
</defs>
</svg>
